<?xml version="1.0" encoding="utf-8" standalone="no"?>
<!DOCTYPE svg PUBLIC "-//W3C//DTD SVG 1.1//EN"
  "http://www.w3.org/Graphics/SVG/1.1/DTD/svg11.dtd">
<svg xmlns:xlink="http://www.w3.org/1999/xlink" width="623.52pt" height="263.52pt" viewBox="0 0 623.52 263.52" xmlns="http://www.w3.org/2000/svg" version="1.1">
 <metadata>
  <rdf:RDF xmlns:dc="http://purl.org/dc/elements/1.1/" xmlns:cc="http://creativecommons.org/ns#" xmlns:rdf="http://www.w3.org/1999/02/22-rdf-syntax-ns#">
   <cc:Work>
    <dc:type rdf:resource="http://purl.org/dc/dcmitype/StillImage"/>
    <dc:date>2024-09-12T12:07:48.519099</dc:date>
    <dc:format>image/svg+xml</dc:format>
    <dc:creator>
     <cc:Agent>
      <dc:title>Matplotlib v3.8.0, https://matplotlib.org/</dc:title>
     </cc:Agent>
    </dc:creator>
   </cc:Work>
  </rdf:RDF>
 </metadata>
 <defs>
  <style type="text/css">*{stroke-linejoin: round; stroke-linecap: butt}</style>
 </defs>
 <g id="figure_1">
  <g id="patch_1">
   <path d="M -0 263.52 
L 623.52 263.52 
L 623.52 0 
L -0 0 
z
" style="fill: #ffffff"/>
  </g>
  <g id="axes_1">
   <g id="patch_2">
    <path d="M 67.360781 206.430469 
L 318.997734 206.430469 
L 318.997734 26.877187 
L 67.360781 26.877187 
z
" style="fill: #eaeaf2"/>
   </g>
   <g id="matplotlib.axis_1">
    <g id="xtick_1">
     <g id="line2d_1">
      <path d="M 67.360781 206.430469 
L 67.360781 26.877187 
" clip-path="url(#p88dec24708)" style="fill: none; stroke: #ffffff; stroke-width: 1.5; stroke-linecap: round"/>
     </g>
     <g id="text_1">
      <!-- 0 -->
      <g style="fill: #262626" transform="translate(62.111719 231.467891) scale(0.165 -0.165)">
       <defs>
        <path id="DejaVuSans-30" d="M 2034 4250 
Q 1547 4250 1301 3770 
Q 1056 3291 1056 2328 
Q 1056 1369 1301 889 
Q 1547 409 2034 409 
Q 2525 409 2770 889 
Q 3016 1369 3016 2328 
Q 3016 3291 2770 3770 
Q 2525 4250 2034 4250 
z
M 2034 4750 
Q 2819 4750 3233 4129 
Q 3647 3509 3647 2328 
Q 3647 1150 3233 529 
Q 2819 -91 2034 -91 
Q 1250 -91 836 529 
Q 422 1150 422 2328 
Q 422 3509 836 4129 
Q 1250 4750 2034 4750 
z
" transform="scale(0.015625)"/>
       </defs>
       <use xlink:href="#DejaVuSans-30"/>
      </g>
     </g>
    </g>
    <g id="xtick_2">
     <g id="line2d_2">
      <path d="M 151.239766 206.430469 
L 151.239766 26.877187 
" clip-path="url(#p88dec24708)" style="fill: none; stroke: #ffffff; stroke-width: 1.5; stroke-linecap: round"/>
     </g>
     <g id="text_2">
      <!-- 10 -->
      <g style="fill: #262626" transform="translate(140.741641 231.467891) scale(0.165 -0.165)">
       <defs>
        <path id="DejaVuSans-31" d="M 794 531 
L 1825 531 
L 1825 4091 
L 703 3866 
L 703 4441 
L 1819 4666 
L 2450 4666 
L 2450 531 
L 3481 531 
L 3481 0 
L 794 0 
L 794 531 
z
" transform="scale(0.015625)"/>
       </defs>
       <use xlink:href="#DejaVuSans-31"/>
       <use xlink:href="#DejaVuSans-30" x="63.623047"/>
      </g>
     </g>
    </g>
    <g id="xtick_3">
     <g id="line2d_3">
      <path d="M 235.11875 206.430469 
L 235.11875 26.877187 
" clip-path="url(#p88dec24708)" style="fill: none; stroke: #ffffff; stroke-width: 1.5; stroke-linecap: round"/>
     </g>
     <g id="text_3">
      <!-- 20 -->
      <g style="fill: #262626" transform="translate(224.620625 231.467891) scale(0.165 -0.165)">
       <defs>
        <path id="DejaVuSans-32" d="M 1228 531 
L 3431 531 
L 3431 0 
L 469 0 
L 469 531 
Q 828 903 1448 1529 
Q 2069 2156 2228 2338 
Q 2531 2678 2651 2914 
Q 2772 3150 2772 3378 
Q 2772 3750 2511 3984 
Q 2250 4219 1831 4219 
Q 1534 4219 1204 4116 
Q 875 4013 500 3803 
L 500 4441 
Q 881 4594 1212 4672 
Q 1544 4750 1819 4750 
Q 2544 4750 2975 4387 
Q 3406 4025 3406 3419 
Q 3406 3131 3298 2873 
Q 3191 2616 2906 2266 
Q 2828 2175 2409 1742 
Q 1991 1309 1228 531 
z
" transform="scale(0.015625)"/>
       </defs>
       <use xlink:href="#DejaVuSans-32"/>
       <use xlink:href="#DejaVuSans-30" x="63.623047"/>
      </g>
     </g>
    </g>
    <g id="xtick_4">
     <g id="line2d_4">
      <path d="M 318.997734 206.430469 
L 318.997734 26.877187 
" clip-path="url(#p88dec24708)" style="fill: none; stroke: #ffffff; stroke-width: 1.5; stroke-linecap: round"/>
     </g>
     <g id="text_4">
      <!-- 30 -->
      <g style="fill: #262626" transform="translate(308.499609 231.467891) scale(0.165 -0.165)">
       <defs>
        <path id="DejaVuSans-33" d="M 2597 2516 
Q 3050 2419 3304 2112 
Q 3559 1806 3559 1356 
Q 3559 666 3084 287 
Q 2609 -91 1734 -91 
Q 1441 -91 1130 -33 
Q 819 25 488 141 
L 488 750 
Q 750 597 1062 519 
Q 1375 441 1716 441 
Q 2309 441 2620 675 
Q 2931 909 2931 1356 
Q 2931 1769 2642 2001 
Q 2353 2234 1838 2234 
L 1294 2234 
L 1294 2753 
L 1863 2753 
Q 2328 2753 2575 2939 
Q 2822 3125 2822 3475 
Q 2822 3834 2567 4026 
Q 2313 4219 1838 4219 
Q 1578 4219 1281 4162 
Q 984 4106 628 3988 
L 628 4550 
Q 988 4650 1302 4700 
Q 1616 4750 1894 4750 
Q 2613 4750 3031 4423 
Q 3450 4097 3450 3541 
Q 3450 3153 3228 2886 
Q 3006 2619 2597 2516 
z
" transform="scale(0.015625)"/>
       </defs>
       <use xlink:href="#DejaVuSans-33"/>
       <use xlink:href="#DejaVuSans-30" x="63.623047"/>
      </g>
     </g>
    </g>
    <g id="text_5">
     <!-- Spot lifetime (sec) -->
     <g style="fill: #262626" transform="translate(110.758945 252.576562) scale(0.18 -0.18)">
      <defs>
       <path id="DejaVuSans-53" d="M 3425 4513 
L 3425 3897 
Q 3066 4069 2747 4153 
Q 2428 4238 2131 4238 
Q 1616 4238 1336 4038 
Q 1056 3838 1056 3469 
Q 1056 3159 1242 3001 
Q 1428 2844 1947 2747 
L 2328 2669 
Q 3034 2534 3370 2195 
Q 3706 1856 3706 1288 
Q 3706 609 3251 259 
Q 2797 -91 1919 -91 
Q 1588 -91 1214 -16 
Q 841 59 441 206 
L 441 856 
Q 825 641 1194 531 
Q 1563 422 1919 422 
Q 2459 422 2753 634 
Q 3047 847 3047 1241 
Q 3047 1584 2836 1778 
Q 2625 1972 2144 2069 
L 1759 2144 
Q 1053 2284 737 2584 
Q 422 2884 422 3419 
Q 422 4038 858 4394 
Q 1294 4750 2059 4750 
Q 2388 4750 2728 4690 
Q 3069 4631 3425 4513 
z
" transform="scale(0.015625)"/>
       <path id="DejaVuSans-70" d="M 1159 525 
L 1159 -1331 
L 581 -1331 
L 581 3500 
L 1159 3500 
L 1159 2969 
Q 1341 3281 1617 3432 
Q 1894 3584 2278 3584 
Q 2916 3584 3314 3078 
Q 3713 2572 3713 1747 
Q 3713 922 3314 415 
Q 2916 -91 2278 -91 
Q 1894 -91 1617 61 
Q 1341 213 1159 525 
z
M 3116 1747 
Q 3116 2381 2855 2742 
Q 2594 3103 2138 3103 
Q 1681 3103 1420 2742 
Q 1159 2381 1159 1747 
Q 1159 1113 1420 752 
Q 1681 391 2138 391 
Q 2594 391 2855 752 
Q 3116 1113 3116 1747 
z
" transform="scale(0.015625)"/>
       <path id="DejaVuSans-6f" d="M 1959 3097 
Q 1497 3097 1228 2736 
Q 959 2375 959 1747 
Q 959 1119 1226 758 
Q 1494 397 1959 397 
Q 2419 397 2687 759 
Q 2956 1122 2956 1747 
Q 2956 2369 2687 2733 
Q 2419 3097 1959 3097 
z
M 1959 3584 
Q 2709 3584 3137 3096 
Q 3566 2609 3566 1747 
Q 3566 888 3137 398 
Q 2709 -91 1959 -91 
Q 1206 -91 779 398 
Q 353 888 353 1747 
Q 353 2609 779 3096 
Q 1206 3584 1959 3584 
z
" transform="scale(0.015625)"/>
       <path id="DejaVuSans-74" d="M 1172 4494 
L 1172 3500 
L 2356 3500 
L 2356 3053 
L 1172 3053 
L 1172 1153 
Q 1172 725 1289 603 
Q 1406 481 1766 481 
L 2356 481 
L 2356 0 
L 1766 0 
Q 1100 0 847 248 
Q 594 497 594 1153 
L 594 3053 
L 172 3053 
L 172 3500 
L 594 3500 
L 594 4494 
L 1172 4494 
z
" transform="scale(0.015625)"/>
       <path id="DejaVuSans-20" transform="scale(0.015625)"/>
       <path id="DejaVuSans-6c" d="M 603 4863 
L 1178 4863 
L 1178 0 
L 603 0 
L 603 4863 
z
" transform="scale(0.015625)"/>
       <path id="DejaVuSans-69" d="M 603 3500 
L 1178 3500 
L 1178 0 
L 603 0 
L 603 3500 
z
M 603 4863 
L 1178 4863 
L 1178 4134 
L 603 4134 
L 603 4863 
z
" transform="scale(0.015625)"/>
       <path id="DejaVuSans-66" d="M 2375 4863 
L 2375 4384 
L 1825 4384 
Q 1516 4384 1395 4259 
Q 1275 4134 1275 3809 
L 1275 3500 
L 2222 3500 
L 2222 3053 
L 1275 3053 
L 1275 0 
L 697 0 
L 697 3053 
L 147 3053 
L 147 3500 
L 697 3500 
L 697 3744 
Q 697 4328 969 4595 
Q 1241 4863 1831 4863 
L 2375 4863 
z
" transform="scale(0.015625)"/>
       <path id="DejaVuSans-65" d="M 3597 1894 
L 3597 1613 
L 953 1613 
Q 991 1019 1311 708 
Q 1631 397 2203 397 
Q 2534 397 2845 478 
Q 3156 559 3463 722 
L 3463 178 
Q 3153 47 2828 -22 
Q 2503 -91 2169 -91 
Q 1331 -91 842 396 
Q 353 884 353 1716 
Q 353 2575 817 3079 
Q 1281 3584 2069 3584 
Q 2775 3584 3186 3129 
Q 3597 2675 3597 1894 
z
M 3022 2063 
Q 3016 2534 2758 2815 
Q 2500 3097 2075 3097 
Q 1594 3097 1305 2825 
Q 1016 2553 972 2059 
L 3022 2063 
z
" transform="scale(0.015625)"/>
       <path id="DejaVuSans-6d" d="M 3328 2828 
Q 3544 3216 3844 3400 
Q 4144 3584 4550 3584 
Q 5097 3584 5394 3201 
Q 5691 2819 5691 2113 
L 5691 0 
L 5113 0 
L 5113 2094 
Q 5113 2597 4934 2840 
Q 4756 3084 4391 3084 
Q 3944 3084 3684 2787 
Q 3425 2491 3425 1978 
L 3425 0 
L 2847 0 
L 2847 2094 
Q 2847 2600 2669 2842 
Q 2491 3084 2119 3084 
Q 1678 3084 1418 2786 
Q 1159 2488 1159 1978 
L 1159 0 
L 581 0 
L 581 3500 
L 1159 3500 
L 1159 2956 
Q 1356 3278 1631 3431 
Q 1906 3584 2284 3584 
Q 2666 3584 2933 3390 
Q 3200 3197 3328 2828 
z
" transform="scale(0.015625)"/>
       <path id="DejaVuSans-28" d="M 1984 4856 
Q 1566 4138 1362 3434 
Q 1159 2731 1159 2009 
Q 1159 1288 1364 580 
Q 1569 -128 1984 -844 
L 1484 -844 
Q 1016 -109 783 600 
Q 550 1309 550 2009 
Q 550 2706 781 3412 
Q 1013 4119 1484 4856 
L 1984 4856 
z
" transform="scale(0.015625)"/>
       <path id="DejaVuSans-73" d="M 2834 3397 
L 2834 2853 
Q 2591 2978 2328 3040 
Q 2066 3103 1784 3103 
Q 1356 3103 1142 2972 
Q 928 2841 928 2578 
Q 928 2378 1081 2264 
Q 1234 2150 1697 2047 
L 1894 2003 
Q 2506 1872 2764 1633 
Q 3022 1394 3022 966 
Q 3022 478 2636 193 
Q 2250 -91 1575 -91 
Q 1294 -91 989 -36 
Q 684 19 347 128 
L 347 722 
Q 666 556 975 473 
Q 1284 391 1588 391 
Q 1994 391 2212 530 
Q 2431 669 2431 922 
Q 2431 1156 2273 1281 
Q 2116 1406 1581 1522 
L 1381 1569 
Q 847 1681 609 1914 
Q 372 2147 372 2553 
Q 372 3047 722 3315 
Q 1072 3584 1716 3584 
Q 2034 3584 2315 3537 
Q 2597 3491 2834 3397 
z
" transform="scale(0.015625)"/>
       <path id="DejaVuSans-63" d="M 3122 3366 
L 3122 2828 
Q 2878 2963 2633 3030 
Q 2388 3097 2138 3097 
Q 1578 3097 1268 2742 
Q 959 2388 959 1747 
Q 959 1106 1268 751 
Q 1578 397 2138 397 
Q 2388 397 2633 464 
Q 2878 531 3122 666 
L 3122 134 
Q 2881 22 2623 -34 
Q 2366 -91 2075 -91 
Q 1284 -91 818 406 
Q 353 903 353 1747 
Q 353 2603 823 3093 
Q 1294 3584 2113 3584 
Q 2378 3584 2631 3529 
Q 2884 3475 3122 3366 
z
" transform="scale(0.015625)"/>
       <path id="DejaVuSans-29" d="M 513 4856 
L 1013 4856 
Q 1481 4119 1714 3412 
Q 1947 2706 1947 2009 
Q 1947 1309 1714 600 
Q 1481 -109 1013 -844 
L 513 -844 
Q 928 -128 1133 580 
Q 1338 1288 1338 2009 
Q 1338 2731 1133 3434 
Q 928 4138 513 4856 
z
" transform="scale(0.015625)"/>
      </defs>
      <use xlink:href="#DejaVuSans-53"/>
      <use xlink:href="#DejaVuSans-70" x="63.476562"/>
      <use xlink:href="#DejaVuSans-6f" x="126.953125"/>
      <use xlink:href="#DejaVuSans-74" x="188.134766"/>
      <use xlink:href="#DejaVuSans-20" x="227.34375"/>
      <use xlink:href="#DejaVuSans-6c" x="259.130859"/>
      <use xlink:href="#DejaVuSans-69" x="286.914062"/>
      <use xlink:href="#DejaVuSans-66" x="314.697266"/>
      <use xlink:href="#DejaVuSans-65" x="349.902344"/>
      <use xlink:href="#DejaVuSans-74" x="411.425781"/>
      <use xlink:href="#DejaVuSans-69" x="450.634766"/>
      <use xlink:href="#DejaVuSans-6d" x="478.417969"/>
      <use xlink:href="#DejaVuSans-65" x="575.830078"/>
      <use xlink:href="#DejaVuSans-20" x="637.353516"/>
      <use xlink:href="#DejaVuSans-28" x="669.140625"/>
      <use xlink:href="#DejaVuSans-73" x="708.154297"/>
      <use xlink:href="#DejaVuSans-65" x="760.253906"/>
      <use xlink:href="#DejaVuSans-63" x="821.777344"/>
      <use xlink:href="#DejaVuSans-29" x="876.757812"/>
     </g>
    </g>
   </g>
   <g id="matplotlib.axis_2">
    <g id="ytick_1">
     <g id="line2d_5">
      <path d="M 67.360781 206.430469 
L 318.997734 206.430469 
" clip-path="url(#p88dec24708)" style="fill: none; stroke: #ffffff; stroke-width: 1.5; stroke-linecap: round"/>
     </g>
     <g id="text_6">
      <!-- 0.0 -->
      <g style="fill: #262626" transform="translate(28.620625 212.69918) scale(0.165 -0.165)">
       <defs>
        <path id="DejaVuSans-2e" d="M 684 794 
L 1344 794 
L 1344 0 
L 684 0 
L 684 794 
z
" transform="scale(0.015625)"/>
       </defs>
       <use xlink:href="#DejaVuSans-30"/>
       <use xlink:href="#DejaVuSans-2e" x="63.623047"/>
       <use xlink:href="#DejaVuSans-30" x="95.410156"/>
      </g>
     </g>
    </g>
    <g id="ytick_2">
     <g id="line2d_6">
      <path d="M 67.360781 156.046874 
L 318.997734 156.046874 
" clip-path="url(#p88dec24708)" style="fill: none; stroke: #ffffff; stroke-width: 1.5; stroke-linecap: round"/>
     </g>
     <g id="text_7">
      <!-- 0.2 -->
      <g style="fill: #262626" transform="translate(28.620625 162.315585) scale(0.165 -0.165)">
       <use xlink:href="#DejaVuSans-30"/>
       <use xlink:href="#DejaVuSans-2e" x="63.623047"/>
       <use xlink:href="#DejaVuSans-32" x="95.410156"/>
      </g>
     </g>
    </g>
    <g id="ytick_3">
     <g id="line2d_7">
      <path d="M 67.360781 105.663279 
L 318.997734 105.663279 
" clip-path="url(#p88dec24708)" style="fill: none; stroke: #ffffff; stroke-width: 1.5; stroke-linecap: round"/>
     </g>
     <g id="text_8">
      <!-- 0.4 -->
      <g style="fill: #262626" transform="translate(28.620625 111.93199) scale(0.165 -0.165)">
       <defs>
        <path id="DejaVuSans-34" d="M 2419 4116 
L 825 1625 
L 2419 1625 
L 2419 4116 
z
M 2253 4666 
L 3047 4666 
L 3047 1625 
L 3713 1625 
L 3713 1100 
L 3047 1100 
L 3047 0 
L 2419 0 
L 2419 1100 
L 313 1100 
L 313 1709 
L 2253 4666 
z
" transform="scale(0.015625)"/>
       </defs>
       <use xlink:href="#DejaVuSans-30"/>
       <use xlink:href="#DejaVuSans-2e" x="63.623047"/>
       <use xlink:href="#DejaVuSans-34" x="95.410156"/>
      </g>
     </g>
    </g>
    <g id="ytick_4">
     <g id="line2d_8">
      <path d="M 67.360781 55.279684 
L 318.997734 55.279684 
" clip-path="url(#p88dec24708)" style="fill: none; stroke: #ffffff; stroke-width: 1.5; stroke-linecap: round"/>
     </g>
     <g id="text_9">
      <!-- 0.6 -->
      <g style="fill: #262626" transform="translate(28.620625 61.548395) scale(0.165 -0.165)">
       <defs>
        <path id="DejaVuSans-36" d="M 2113 2584 
Q 1688 2584 1439 2293 
Q 1191 2003 1191 1497 
Q 1191 994 1439 701 
Q 1688 409 2113 409 
Q 2538 409 2786 701 
Q 3034 994 3034 1497 
Q 3034 2003 2786 2293 
Q 2538 2584 2113 2584 
z
M 3366 4563 
L 3366 3988 
Q 3128 4100 2886 4159 
Q 2644 4219 2406 4219 
Q 1781 4219 1451 3797 
Q 1122 3375 1075 2522 
Q 1259 2794 1537 2939 
Q 1816 3084 2150 3084 
Q 2853 3084 3261 2657 
Q 3669 2231 3669 1497 
Q 3669 778 3244 343 
Q 2819 -91 2113 -91 
Q 1303 -91 875 529 
Q 447 1150 447 2328 
Q 447 3434 972 4092 
Q 1497 4750 2381 4750 
Q 2619 4750 2861 4703 
Q 3103 4656 3366 4563 
z
" transform="scale(0.015625)"/>
       </defs>
       <use xlink:href="#DejaVuSans-30"/>
       <use xlink:href="#DejaVuSans-2e" x="63.623047"/>
       <use xlink:href="#DejaVuSans-36" x="95.410156"/>
      </g>
     </g>
    </g>
    <g id="text_10">
     <!-- Probability -->
     <g style="fill: #262626" transform="translate(20.877187 164.225859) rotate(-90) scale(0.18 -0.18)">
      <defs>
       <path id="DejaVuSans-50" d="M 1259 4147 
L 1259 2394 
L 2053 2394 
Q 2494 2394 2734 2622 
Q 2975 2850 2975 3272 
Q 2975 3691 2734 3919 
Q 2494 4147 2053 4147 
L 1259 4147 
z
M 628 4666 
L 2053 4666 
Q 2838 4666 3239 4311 
Q 3641 3956 3641 3272 
Q 3641 2581 3239 2228 
Q 2838 1875 2053 1875 
L 1259 1875 
L 1259 0 
L 628 0 
L 628 4666 
z
" transform="scale(0.015625)"/>
       <path id="DejaVuSans-72" d="M 2631 2963 
Q 2534 3019 2420 3045 
Q 2306 3072 2169 3072 
Q 1681 3072 1420 2755 
Q 1159 2438 1159 1844 
L 1159 0 
L 581 0 
L 581 3500 
L 1159 3500 
L 1159 2956 
Q 1341 3275 1631 3429 
Q 1922 3584 2338 3584 
Q 2397 3584 2469 3576 
Q 2541 3569 2628 3553 
L 2631 2963 
z
" transform="scale(0.015625)"/>
       <path id="DejaVuSans-62" d="M 3116 1747 
Q 3116 2381 2855 2742 
Q 2594 3103 2138 3103 
Q 1681 3103 1420 2742 
Q 1159 2381 1159 1747 
Q 1159 1113 1420 752 
Q 1681 391 2138 391 
Q 2594 391 2855 752 
Q 3116 1113 3116 1747 
z
M 1159 2969 
Q 1341 3281 1617 3432 
Q 1894 3584 2278 3584 
Q 2916 3584 3314 3078 
Q 3713 2572 3713 1747 
Q 3713 922 3314 415 
Q 2916 -91 2278 -91 
Q 1894 -91 1617 61 
Q 1341 213 1159 525 
L 1159 0 
L 581 0 
L 581 4863 
L 1159 4863 
L 1159 2969 
z
" transform="scale(0.015625)"/>
       <path id="DejaVuSans-61" d="M 2194 1759 
Q 1497 1759 1228 1600 
Q 959 1441 959 1056 
Q 959 750 1161 570 
Q 1363 391 1709 391 
Q 2188 391 2477 730 
Q 2766 1069 2766 1631 
L 2766 1759 
L 2194 1759 
z
M 3341 1997 
L 3341 0 
L 2766 0 
L 2766 531 
Q 2569 213 2275 61 
Q 1981 -91 1556 -91 
Q 1019 -91 701 211 
Q 384 513 384 1019 
Q 384 1609 779 1909 
Q 1175 2209 1959 2209 
L 2766 2209 
L 2766 2266 
Q 2766 2663 2505 2880 
Q 2244 3097 1772 3097 
Q 1472 3097 1187 3025 
Q 903 2953 641 2809 
L 641 3341 
Q 956 3463 1253 3523 
Q 1550 3584 1831 3584 
Q 2591 3584 2966 3190 
Q 3341 2797 3341 1997 
z
" transform="scale(0.015625)"/>
       <path id="DejaVuSans-79" d="M 2059 -325 
Q 1816 -950 1584 -1140 
Q 1353 -1331 966 -1331 
L 506 -1331 
L 506 -850 
L 844 -850 
Q 1081 -850 1212 -737 
Q 1344 -625 1503 -206 
L 1606 56 
L 191 3500 
L 800 3500 
L 1894 763 
L 2988 3500 
L 3597 3500 
L 2059 -325 
z
" transform="scale(0.015625)"/>
      </defs>
      <use xlink:href="#DejaVuSans-50"/>
      <use xlink:href="#DejaVuSans-72" x="58.552734"/>
      <use xlink:href="#DejaVuSans-6f" x="97.416016"/>
      <use xlink:href="#DejaVuSans-62" x="158.597656"/>
      <use xlink:href="#DejaVuSans-61" x="222.074219"/>
      <use xlink:href="#DejaVuSans-62" x="283.353516"/>
      <use xlink:href="#DejaVuSans-69" x="346.830078"/>
      <use xlink:href="#DejaVuSans-6c" x="374.613281"/>
      <use xlink:href="#DejaVuSans-69" x="402.396484"/>
      <use xlink:href="#DejaVuSans-74" x="430.179688"/>
      <use xlink:href="#DejaVuSans-79" x="469.388672"/>
     </g>
    </g>
   </g>
   <g id="PatchCollection_1">
    <path d="M 75.74868 206.430469 
L 92.524477 206.430469 
L 92.524477 35.427344 
L 75.74868 35.427344 
z
" clip-path="url(#p88dec24708)" style="fill: #de5d5c; fill-opacity: 0.2; stroke: #de5d5c; stroke-width: 1.5"/>
    <path d="M 92.524477 206.430469 
L 109.300273 206.430469 
L 109.300273 165.316292 
L 92.524477 165.316292 
z
" clip-path="url(#p88dec24708)" style="fill: #de5d5c; fill-opacity: 0.2; stroke: #de5d5c; stroke-width: 1.5"/>
    <path d="M 109.300273 206.430469 
L 126.07607 206.430469 
L 126.07607 188.528163 
L 109.300273 188.528163 
z
" clip-path="url(#p88dec24708)" style="fill: #de5d5c; fill-opacity: 0.2; stroke: #de5d5c; stroke-width: 1.5"/>
    <path d="M 126.07607 206.430469 
L 142.851867 206.430469 
L 142.851867 199.675862 
L 126.07607 199.675862 
z
" clip-path="url(#p88dec24708)" style="fill: #de5d5c; fill-opacity: 0.2; stroke: #de5d5c; stroke-width: 1.5"/>
    <path d="M 142.851867 206.430469 
L 159.627664 206.430469 
L 159.627664 202.732474 
L 142.851867 202.732474 
z
" clip-path="url(#p88dec24708)" style="fill: #de5d5c; fill-opacity: 0.2; stroke: #de5d5c; stroke-width: 1.5"/>
    <path d="M 159.627664 206.430469 
L 176.403461 206.430469 
L 176.403461 204.045016 
L 159.627664 204.045016 
z
" clip-path="url(#p88dec24708)" style="fill: #de5d5c; fill-opacity: 0.2; stroke: #de5d5c; stroke-width: 1.5"/>
    <path d="M 176.403461 206.430469 
L 193.179258 206.430469 
L 193.179258 205.178709 
L 176.403461 205.178709 
z
" clip-path="url(#p88dec24708)" style="fill: #de5d5c; fill-opacity: 0.2; stroke: #de5d5c; stroke-width: 1.5"/>
    <path d="M 193.179258 206.430469 
L 209.955055 206.430469 
L 209.955055 205.343714 
L 193.179258 205.343714 
z
" clip-path="url(#p88dec24708)" style="fill: #de5d5c; fill-opacity: 0.2; stroke: #de5d5c; stroke-width: 1.5"/>
    <path d="M 209.955055 206.430469 
L 226.730852 206.430469 
L 226.730852 205.600541 
L 209.955055 205.600541 
z
" clip-path="url(#p88dec24708)" style="fill: #de5d5c; fill-opacity: 0.2; stroke: #de5d5c; stroke-width: 1.5"/>
    <path d="M 226.730852 206.430469 
L 243.506648 206.430469 
L 243.506648 205.786275 
L 226.730852 205.786275 
z
" clip-path="url(#p88dec24708)" style="fill: #de5d5c; fill-opacity: 0.2; stroke: #de5d5c; stroke-width: 1.5"/>
    <path d="M 243.506648 206.430469 
L 260.282445 206.430469 
L 260.282445 205.847597 
L 243.506648 205.847597 
z
" clip-path="url(#p88dec24708)" style="fill: #de5d5c; fill-opacity: 0.2; stroke: #de5d5c; stroke-width: 1.5"/>
    <path d="M 260.282445 206.430469 
L 277.058242 206.430469 
L 277.058242 205.930659 
L 260.282445 205.930659 
z
" clip-path="url(#p88dec24708)" style="fill: #de5d5c; fill-opacity: 0.2; stroke: #de5d5c; stroke-width: 1.5"/>
    <path d="M 277.058242 206.430469 
L 293.834039 206.430469 
L 293.834039 205.972262 
L 277.058242 205.972262 
z
" clip-path="url(#p88dec24708)" style="fill: #de5d5c; fill-opacity: 0.2; stroke: #de5d5c; stroke-width: 1.5"/>
    <path d="M 293.834039 206.430469 
L 310.609836 206.430469 
L 310.609836 206.130129 
L 293.834039 206.130129 
z
" clip-path="url(#p88dec24708)" style="fill: #de5d5c; fill-opacity: 0.2; stroke: #de5d5c; stroke-width: 1.5"/>
    <path d="M 310.609836 206.430469 
L 327.385633 206.430469 
L 327.385633 206.151489 
L 310.609836 206.151489 
z
" clip-path="url(#p88dec24708)" style="fill: #de5d5c; fill-opacity: 0.2; stroke: #de5d5c; stroke-width: 1.5"/>
    <path d="M 327.385633 206.430469 
L 344.16143 206.430469 
L 344.16143 205.986502 
L 327.385633 205.986502 
z
" clip-path="url(#p88dec24708)" style="fill: #de5d5c; fill-opacity: 0.2; stroke: #de5d5c; stroke-width: 1.5"/>
    <path d="M 344.16143 206.430469 
L 360.937227 206.430469 
L 360.937227 206.225916 
L 344.16143 206.225916 
z
" clip-path="url(#p88dec24708)" style="fill: #de5d5c; fill-opacity: 0.2; stroke: #de5d5c; stroke-width: 1.5"/>
    <path d="M 360.937227 206.430469 
L 377.713023 206.430469 
L 377.713023 206.243473 
L 360.937227 206.243473 
z
" clip-path="url(#p88dec24708)" style="fill: #de5d5c; fill-opacity: 0.2; stroke: #de5d5c; stroke-width: 1.5"/>
    <path d="M 377.713023 206.430469 
L 394.48882 206.430469 
L 394.48882 206.210522 
L 377.713023 206.210522 
z
" clip-path="url(#p88dec24708)" style="fill: #de5d5c; fill-opacity: 0.2; stroke: #de5d5c; stroke-width: 1.5"/>
    <path d="M 394.48882 206.430469 
L 411.264617 206.430469 
L 411.264617 206.161673 
L 394.48882 206.161673 
z
" clip-path="url(#p88dec24708)" style="fill: #de5d5c; fill-opacity: 0.2; stroke: #de5d5c; stroke-width: 1.5"/>
    <path d="M 411.264617 206.430469 
L 428.040414 206.430469 
L 428.040414 206.313502 
L 411.264617 206.313502 
z
" clip-path="url(#p88dec24708)" style="fill: #de5d5c; fill-opacity: 0.2; stroke: #de5d5c; stroke-width: 1.5"/>
    <path d="M 428.040414 206.430469 
L 444.816211 206.430469 
L 444.816211 206.273107 
L 428.040414 206.273107 
z
" clip-path="url(#p88dec24708)" style="fill: #de5d5c; fill-opacity: 0.2; stroke: #de5d5c; stroke-width: 1.5"/>
    <path d="M 444.816211 206.430469 
L 461.592008 206.430469 
L 461.592008 206.239651 
L 444.816211 206.239651 
z
" clip-path="url(#p88dec24708)" style="fill: #de5d5c; fill-opacity: 0.2; stroke: #de5d5c; stroke-width: 1.5"/>
    <path d="M 461.592008 206.430469 
L 478.367805 206.430469 
L 478.367805 206.36044 
L 461.592008 206.36044 
z
" clip-path="url(#p88dec24708)" style="fill: #de5d5c; fill-opacity: 0.2; stroke: #de5d5c; stroke-width: 1.5"/>
    <path d="M 478.367805 206.430469 
L 495.143602 206.430469 
L 495.143602 206.313502 
L 478.367805 206.313502 
z
" clip-path="url(#p88dec24708)" style="fill: #de5d5c; fill-opacity: 0.2; stroke: #de5d5c; stroke-width: 1.5"/>
    <path d="M 495.143602 206.430469 
L 511.919398 206.430469 
L 511.919398 206.266942 
L 495.143602 206.266942 
z
" clip-path="url(#p88dec24708)" style="fill: #de5d5c; fill-opacity: 0.2; stroke: #de5d5c; stroke-width: 1.5"/>
    <path d="M 511.919398 206.430469 
L 528.695195 206.430469 
L 528.695195 206.291925 
L 511.919398 206.291925 
z
" clip-path="url(#p88dec24708)" style="fill: #de5d5c; fill-opacity: 0.2; stroke: #de5d5c; stroke-width: 1.5"/>
    <path d="M 528.695195 206.430469 
L 545.470992 206.430469 
L 545.470992 206.116772 
L 528.695195 206.116772 
z
" clip-path="url(#p88dec24708)" style="fill: #de5d5c; fill-opacity: 0.2; stroke: #de5d5c; stroke-width: 1.5"/>
    <path d="M 545.470992 206.430469 
L 562.246789 206.430469 
L 562.246789 206.336971 
L 545.470992 206.336971 
z
" clip-path="url(#p88dec24708)" style="fill: #de5d5c; fill-opacity: 0.2; stroke: #de5d5c; stroke-width: 1.5"/>
    <path d="M 562.246789 206.430469 
L 579.022586 206.430469 
L 579.022586 206.239849 
L 562.246789 206.239849 
z
" clip-path="url(#p88dec24708)" style="fill: #de5d5c; fill-opacity: 0.2; stroke: #de5d5c; stroke-width: 1.5"/>
    <path d="M 579.022586 206.430469 
L 595.798383 206.430469 
L 595.798383 206.267699 
L 579.022586 206.267699 
z
" clip-path="url(#p88dec24708)" style="fill: #de5d5c; fill-opacity: 0.2; stroke: #de5d5c; stroke-width: 1.5"/>
    <path d="M 612.57418 206.430469 
L 629.349977 206.430469 
L 629.349977 206.38353 
L 612.57418 206.38353 
z
" clip-path="url(#p88dec24708)" style="fill: #de5d5c; fill-opacity: 0.2; stroke: #de5d5c; stroke-width: 1.5"/>
    <path d="M 629.349977 206.430469 
L 646.125773 206.430469 
L 646.125773 206.360818 
L 629.349977 206.360818 
z
" clip-path="url(#p88dec24708)" style="fill: #de5d5c; fill-opacity: 0.2; stroke: #de5d5c; stroke-width: 1.5"/>
    <path d="M 646.125773 206.430469 
L 662.90157 206.430469 
L 662.90157 206.336971 
L 646.125773 206.336971 
z
" clip-path="url(#p88dec24708)" style="fill: #de5d5c; fill-opacity: 0.2; stroke: #de5d5c; stroke-width: 1.5"/>
    <path d="M 662.90157 206.430469 
L 679.677367 206.430469 
L 679.677367 206.38353 
L 662.90157 206.38353 
z
" clip-path="url(#p88dec24708)" style="fill: #de5d5c; fill-opacity: 0.2; stroke: #de5d5c; stroke-width: 1.5"/>
    <path d="M 679.677367 206.430469 
L 696.453164 206.430469 
L 696.453164 206.38353 
L 679.677367 206.38353 
z
" clip-path="url(#p88dec24708)" style="fill: #de5d5c; fill-opacity: 0.2; stroke: #de5d5c; stroke-width: 1.5"/>
    <path d="M 696.453164 206.430469 
L 713.228961 206.430469 
L 713.228961 206.291925 
L 696.453164 206.291925 
z
" clip-path="url(#p88dec24708)" style="fill: #de5d5c; fill-opacity: 0.2; stroke: #de5d5c; stroke-width: 1.5"/>
    <path d="M 713.228961 206.430469 
L 730.004758 206.430469 
L 730.004758 206.338107 
L 713.228961 206.338107 
z
" clip-path="url(#p88dec24708)" style="fill: #de5d5c; fill-opacity: 0.2; stroke: #de5d5c; stroke-width: 1.5"/>
    <path d="M 730.004758 206.430469 
L 746.780555 206.430469 
L 746.780555 206.383909 
L 730.004758 206.383909 
z
" clip-path="url(#p88dec24708)" style="fill: #de5d5c; fill-opacity: 0.2; stroke: #de5d5c; stroke-width: 1.5"/>
    <path d="M 746.780555 206.430469 
L 763.556352 206.430469 
L 763.556352 206.337728 
L 746.780555 206.337728 
z
" clip-path="url(#p88dec24708)" style="fill: #de5d5c; fill-opacity: 0.2; stroke: #de5d5c; stroke-width: 1.5"/>
    <path d="M 763.556352 206.430469 
L 780.332148 206.430469 
L 780.332148 206.38353 
L 763.556352 206.38353 
z
" clip-path="url(#p88dec24708)" style="fill: #de5d5c; fill-opacity: 0.2; stroke: #de5d5c; stroke-width: 1.5"/>
    <path d="M 780.332148 206.430469 
L 797.107945 206.430469 
L 797.107945 206.384288 
L 780.332148 206.384288 
z
" clip-path="url(#p88dec24708)" style="fill: #de5d5c; fill-opacity: 0.2; stroke: #de5d5c; stroke-width: 1.5"/>
    <path d="M 797.107945 206.430469 
L 813.883742 206.430469 
L 813.883742 206.336971 
L 797.107945 206.336971 
z
" clip-path="url(#p88dec24708)" style="fill: #de5d5c; fill-opacity: 0.2; stroke: #de5d5c; stroke-width: 1.5"/>
    <path d="M 813.883742 206.430469 
L 830.659539 206.430469 
L 830.659539 206.384288 
L 813.883742 206.384288 
z
" clip-path="url(#p88dec24708)" style="fill: #de5d5c; fill-opacity: 0.2; stroke: #de5d5c; stroke-width: 1.5"/>
    <path d="M 830.659539 206.430469 
L 847.435336 206.430469 
L 847.435336 206.38353 
L 830.659539 206.38353 
z
" clip-path="url(#p88dec24708)" style="fill: #de5d5c; fill-opacity: 0.2; stroke: #de5d5c; stroke-width: 1.5"/>
    <path d="M 880.98693 206.430469 
L 897.762727 206.430469 
L 897.762727 206.383909 
L 880.98693 206.383909 
z
" clip-path="url(#p88dec24708)" style="fill: #de5d5c; fill-opacity: 0.2; stroke: #de5d5c; stroke-width: 1.5"/>
    <path d="M 897.762727 206.430469 
L 914.538523 206.430469 
L 914.538523 206.033765 
L 897.762727 206.033765 
z
" clip-path="url(#p88dec24708)" style="fill: #de5d5c; fill-opacity: 0.2; stroke: #de5d5c; stroke-width: 1.5"/>
   </g>
   <g id="line2d_9">
    <path d="M 84.136578 36.935611 
L 100.912375 152.522892 
L 117.688172 188.15728 
L 134.463969 199.453702 
L 151.239766 203.196671 
L 168.015563 204.541299 
L 184.791359 205.098769 
L 201.567156 205.382418 
L 218.342953 205.560083 
L 235.11875 205.689069 
L 251.894547 205.790576 
L 268.670344 205.873619 
L 285.446141 205.942841 
L 302.221938 206.001133 
L 318.997734 206.116604 
L 335.773531 206.092676 
L 352.549328 206.128759 
L 369.325125 206.24294 
L 386.100922 206.186665 
L 402.876719 206.20999 
L 419.652516 206.316705 
L 436.428313 206.248189 
L 453.204109 206.263901 
L 469.979906 206.360545 
L 486.755703 206.370866 
L 503.5315 206.379605 
L 520.307297 206.419027 
L 537.083094 206.269048 
L 553.858891 206.398662 
L 570.634688 206.290167 
L 587.410484 206.407106 
L 620.962078 206.398784 
L 624.52 206.402368 
" clip-path="url(#p88dec24708)" style="fill: none; stroke: #262626; stroke-width: 2.25; stroke-linecap: round"/>
   </g>
   <g id="line2d_10">
    <path d="M 84.136578 40.243688 
L 100.912375 155.27067 
L 117.688172 190.449329 
L 134.463969 201.374091 
L 151.239766 204.813103 
L 168.015563 205.908395 
L 184.791359 206.260684 
L 201.567156 206.374918 
L 218.342953 206.412206 
L 235.11875 206.424442 
L 251.894547 206.428474 
L 268.670344 206.429807 
L 285.446141 206.430249 
L 302.221938 206.430396 
L 318.997734 206.430453 
L 335.773531 206.430461 
L 352.549328 206.430466 
L 369.325125 206.430468 
L 386.100922 206.430468 
L 402.876719 206.430469 
L 419.652516 206.430469 
L 436.428313 206.430469 
L 453.204109 206.430469 
L 469.979906 206.430469 
L 486.755703 206.430469 
L 503.5315 206.430469 
L 520.307297 206.430469 
L 537.083094 206.430469 
L 553.858891 206.430469 
L 570.634688 206.430469 
L 587.410484 206.430469 
L 620.962078 206.430469 
L 624.52 206.430469 
" clip-path="url(#p88dec24708)" style="fill: none; stroke-dasharray: 8.325,3.6; stroke-dashoffset: 0; stroke: #006400; stroke-opacity: 0.7; stroke-width: 2.25"/>
   </g>
   <g id="line2d_11">
    <path d="M 84.136578 203.122392 
L 100.912375 203.682691 
L 117.688172 204.13842 
L 134.463969 204.51008 
L 151.239766 204.814037 
L 168.015563 205.063373 
L 184.791359 205.268554 
L 201.567156 205.437968 
L 218.342953 205.578346 
L 235.11875 205.695096 
L 251.894547 205.792571 
L 268.670344 205.874281 
L 285.446141 205.943061 
L 302.221938 206.001206 
L 318.997734 206.11662 
L 335.773531 206.092684 
L 352.549328 206.128761 
L 369.325125 206.242941 
L 386.100922 206.186665 
L 402.876719 206.20999 
L 419.652516 206.316705 
L 436.428313 206.248189 
L 453.204109 206.263901 
L 469.979906 206.360545 
L 486.755703 206.370866 
L 503.5315 206.379605 
L 520.307297 206.419027 
L 537.083094 206.269048 
L 553.858891 206.398662 
L 570.634688 206.290167 
L 587.410484 206.407106 
L 620.962078 206.398784 
L 624.52 206.402368 
" clip-path="url(#p88dec24708)" style="fill: none; stroke-dasharray: 8.325,3.6; stroke-dashoffset: 0; stroke: #ff00ff; stroke-opacity: 0.7; stroke-width: 2.25"/>
   </g>
   <g id="patch_3">
    <path d="M 67.360781 206.430469 
L 67.360781 26.877187 
" style="fill: none; stroke: #ffffff; stroke-width: 1.875; stroke-linejoin: miter; stroke-linecap: square"/>
   </g>
   <g id="patch_4">
    <path d="M 318.997734 206.430469 
L 318.997734 26.877187 
" style="fill: none; stroke: #ffffff; stroke-width: 1.875; stroke-linejoin: miter; stroke-linecap: square"/>
   </g>
   <g id="patch_5">
    <path d="M 67.360781 206.430469 
L 318.997734 206.430469 
" style="fill: none; stroke: #ffffff; stroke-width: 1.875; stroke-linejoin: miter; stroke-linecap: square"/>
   </g>
   <g id="patch_6">
    <path d="M 67.360781 26.877187 
L 318.997734 26.877187 
" style="fill: none; stroke: #ffffff; stroke-width: 1.875; stroke-linejoin: miter; stroke-linecap: square"/>
   </g>
   <g id="text_11">
    <!-- Ciprofloxacin 0 ng/ml -->
    <g transform="translate(97.62457 20.877187) scale(0.18 -0.18)">
     <defs>
      <path id="DejaVuSans-43" d="M 4122 4306 
L 4122 3641 
Q 3803 3938 3442 4084 
Q 3081 4231 2675 4231 
Q 1875 4231 1450 3742 
Q 1025 3253 1025 2328 
Q 1025 1406 1450 917 
Q 1875 428 2675 428 
Q 3081 428 3442 575 
Q 3803 722 4122 1019 
L 4122 359 
Q 3791 134 3420 21 
Q 3050 -91 2638 -91 
Q 1578 -91 968 557 
Q 359 1206 359 2328 
Q 359 3453 968 4101 
Q 1578 4750 2638 4750 
Q 3056 4750 3426 4639 
Q 3797 4528 4122 4306 
z
" transform="scale(0.015625)"/>
      <path id="DejaVuSans-78" d="M 3513 3500 
L 2247 1797 
L 3578 0 
L 2900 0 
L 1881 1375 
L 863 0 
L 184 0 
L 1544 1831 
L 300 3500 
L 978 3500 
L 1906 2253 
L 2834 3500 
L 3513 3500 
z
" transform="scale(0.015625)"/>
      <path id="DejaVuSans-6e" d="M 3513 2113 
L 3513 0 
L 2938 0 
L 2938 2094 
Q 2938 2591 2744 2837 
Q 2550 3084 2163 3084 
Q 1697 3084 1428 2787 
Q 1159 2491 1159 1978 
L 1159 0 
L 581 0 
L 581 3500 
L 1159 3500 
L 1159 2956 
Q 1366 3272 1645 3428 
Q 1925 3584 2291 3584 
Q 2894 3584 3203 3211 
Q 3513 2838 3513 2113 
z
" transform="scale(0.015625)"/>
      <path id="DejaVuSans-67" d="M 2906 1791 
Q 2906 2416 2648 2759 
Q 2391 3103 1925 3103 
Q 1463 3103 1205 2759 
Q 947 2416 947 1791 
Q 947 1169 1205 825 
Q 1463 481 1925 481 
Q 2391 481 2648 825 
Q 2906 1169 2906 1791 
z
M 3481 434 
Q 3481 -459 3084 -895 
Q 2688 -1331 1869 -1331 
Q 1566 -1331 1297 -1286 
Q 1028 -1241 775 -1147 
L 775 -588 
Q 1028 -725 1275 -790 
Q 1522 -856 1778 -856 
Q 2344 -856 2625 -561 
Q 2906 -266 2906 331 
L 2906 616 
Q 2728 306 2450 153 
Q 2172 0 1784 0 
Q 1141 0 747 490 
Q 353 981 353 1791 
Q 353 2603 747 3093 
Q 1141 3584 1784 3584 
Q 2172 3584 2450 3431 
Q 2728 3278 2906 2969 
L 2906 3500 
L 3481 3500 
L 3481 434 
z
" transform="scale(0.015625)"/>
      <path id="DejaVuSans-2f" d="M 1625 4666 
L 2156 4666 
L 531 -594 
L 0 -594 
L 1625 4666 
z
" transform="scale(0.015625)"/>
     </defs>
     <use xlink:href="#DejaVuSans-43"/>
     <use xlink:href="#DejaVuSans-69" x="69.824219"/>
     <use xlink:href="#DejaVuSans-70" x="97.607422"/>
     <use xlink:href="#DejaVuSans-72" x="161.083984"/>
     <use xlink:href="#DejaVuSans-6f" x="199.947266"/>
     <use xlink:href="#DejaVuSans-66" x="261.128906"/>
     <use xlink:href="#DejaVuSans-6c" x="296.333984"/>
     <use xlink:href="#DejaVuSans-6f" x="324.117188"/>
     <use xlink:href="#DejaVuSans-78" x="382.173828"/>
     <use xlink:href="#DejaVuSans-61" x="441.353516"/>
     <use xlink:href="#DejaVuSans-63" x="502.632812"/>
     <use xlink:href="#DejaVuSans-69" x="557.613281"/>
     <use xlink:href="#DejaVuSans-6e" x="585.396484"/>
     <use xlink:href="#DejaVuSans-20" x="648.775391"/>
     <use xlink:href="#DejaVuSans-30" x="680.5625"/>
     <use xlink:href="#DejaVuSans-20" x="744.185547"/>
     <use xlink:href="#DejaVuSans-6e" x="775.972656"/>
     <use xlink:href="#DejaVuSans-67" x="839.351562"/>
     <use xlink:href="#DejaVuSans-2f" x="902.828125"/>
     <use xlink:href="#DejaVuSans-6d" x="936.519531"/>
     <use xlink:href="#DejaVuSans-6c" x="1033.931641"/>
    </g>
   </g>
  </g>
  <g id="axes_2">
   <g id="patch_7">
    <path d="M 354.184922 206.430469 
L 605.821875 206.430469 
L 605.821875 26.877187 
L 354.184922 26.877187 
z
" style="fill: #eaeaf2"/>
   </g>
   <g id="matplotlib.axis_3">
    <g id="xtick_5">
     <g id="line2d_12">
      <path d="M 354.184922 206.430469 
L 354.184922 26.877187 
" clip-path="url(#pda5474280e)" style="fill: none; stroke: #ffffff; stroke-width: 1.5; stroke-linecap: round"/>
     </g>
     <g id="text_12">
      <!-- 0 -->
      <g style="fill: #262626" transform="translate(348.935859 231.467891) scale(0.165 -0.165)">
       <use xlink:href="#DejaVuSans-30"/>
      </g>
     </g>
    </g>
    <g id="xtick_6">
     <g id="line2d_13">
      <path d="M 438.063906 206.430469 
L 438.063906 26.877187 
" clip-path="url(#pda5474280e)" style="fill: none; stroke: #ffffff; stroke-width: 1.5; stroke-linecap: round"/>
     </g>
     <g id="text_13">
      <!-- 10 -->
      <g style="fill: #262626" transform="translate(427.565781 231.467891) scale(0.165 -0.165)">
       <use xlink:href="#DejaVuSans-31"/>
       <use xlink:href="#DejaVuSans-30" x="63.623047"/>
      </g>
     </g>
    </g>
    <g id="xtick_7">
     <g id="line2d_14">
      <path d="M 521.942891 206.430469 
L 521.942891 26.877187 
" clip-path="url(#pda5474280e)" style="fill: none; stroke: #ffffff; stroke-width: 1.5; stroke-linecap: round"/>
     </g>
     <g id="text_14">
      <!-- 20 -->
      <g style="fill: #262626" transform="translate(511.444766 231.467891) scale(0.165 -0.165)">
       <use xlink:href="#DejaVuSans-32"/>
       <use xlink:href="#DejaVuSans-30" x="63.623047"/>
      </g>
     </g>
    </g>
    <g id="xtick_8">
     <g id="line2d_15">
      <path d="M 605.821875 206.430469 
L 605.821875 26.877187 
" clip-path="url(#pda5474280e)" style="fill: none; stroke: #ffffff; stroke-width: 1.5; stroke-linecap: round"/>
     </g>
     <g id="text_15">
      <!-- 30 -->
      <g style="fill: #262626" transform="translate(595.32375 231.467891) scale(0.165 -0.165)">
       <use xlink:href="#DejaVuSans-33"/>
       <use xlink:href="#DejaVuSans-30" x="63.623047"/>
      </g>
     </g>
    </g>
    <g id="text_16">
     <!-- Spot lifetime (sec) -->
     <g style="fill: #262626" transform="translate(397.583086 252.576562) scale(0.18 -0.18)">
      <use xlink:href="#DejaVuSans-53"/>
      <use xlink:href="#DejaVuSans-70" x="63.476562"/>
      <use xlink:href="#DejaVuSans-6f" x="126.953125"/>
      <use xlink:href="#DejaVuSans-74" x="188.134766"/>
      <use xlink:href="#DejaVuSans-20" x="227.34375"/>
      <use xlink:href="#DejaVuSans-6c" x="259.130859"/>
      <use xlink:href="#DejaVuSans-69" x="286.914062"/>
      <use xlink:href="#DejaVuSans-66" x="314.697266"/>
      <use xlink:href="#DejaVuSans-65" x="349.902344"/>
      <use xlink:href="#DejaVuSans-74" x="411.425781"/>
      <use xlink:href="#DejaVuSans-69" x="450.634766"/>
      <use xlink:href="#DejaVuSans-6d" x="478.417969"/>
      <use xlink:href="#DejaVuSans-65" x="575.830078"/>
      <use xlink:href="#DejaVuSans-20" x="637.353516"/>
      <use xlink:href="#DejaVuSans-28" x="669.140625"/>
      <use xlink:href="#DejaVuSans-73" x="708.154297"/>
      <use xlink:href="#DejaVuSans-65" x="760.253906"/>
      <use xlink:href="#DejaVuSans-63" x="821.777344"/>
      <use xlink:href="#DejaVuSans-29" x="876.757812"/>
     </g>
    </g>
   </g>
   <g id="matplotlib.axis_4">
    <g id="ytick_5">
     <g id="line2d_16">
      <path d="M 354.184922 206.430469 
L 605.821875 206.430469 
" clip-path="url(#pda5474280e)" style="fill: none; stroke: #ffffff; stroke-width: 1.5; stroke-linecap: round"/>
     </g>
    </g>
    <g id="ytick_6">
     <g id="line2d_17">
      <path d="M 354.184922 156.046874 
L 605.821875 156.046874 
" clip-path="url(#pda5474280e)" style="fill: none; stroke: #ffffff; stroke-width: 1.5; stroke-linecap: round"/>
     </g>
    </g>
    <g id="ytick_7">
     <g id="line2d_18">
      <path d="M 354.184922 105.663279 
L 605.821875 105.663279 
" clip-path="url(#pda5474280e)" style="fill: none; stroke: #ffffff; stroke-width: 1.5; stroke-linecap: round"/>
     </g>
    </g>
    <g id="ytick_8">
     <g id="line2d_19">
      <path d="M 354.184922 55.279684 
L 605.821875 55.279684 
" clip-path="url(#pda5474280e)" style="fill: none; stroke: #ffffff; stroke-width: 1.5; stroke-linecap: round"/>
     </g>
    </g>
   </g>
   <g id="PatchCollection_2">
    <path d="M 362.57282 206.430469 
L 379.348617 206.430469 
L 379.348617 37.639713 
L 362.57282 37.639713 
z
" clip-path="url(#pda5474280e)" style="fill: #9a3670; fill-opacity: 0.2; stroke: #9a3670; stroke-width: 1.5"/>
    <path d="M 379.348617 206.430469 
L 396.124414 206.430469 
L 396.124414 161.56402 
L 379.348617 161.56402 
z
" clip-path="url(#pda5474280e)" style="fill: #9a3670; fill-opacity: 0.2; stroke: #9a3670; stroke-width: 1.5"/>
    <path d="M 396.124414 206.430469 
L 412.900211 206.430469 
L 412.900211 190.914384 
L 396.124414 190.914384 
z
" clip-path="url(#pda5474280e)" style="fill: #9a3670; fill-opacity: 0.2; stroke: #9a3670; stroke-width: 1.5"/>
    <path d="M 412.900211 206.430469 
L 429.676008 206.430469 
L 429.676008 199.600487 
L 412.900211 199.600487 
z
" clip-path="url(#pda5474280e)" style="fill: #9a3670; fill-opacity: 0.2; stroke: #9a3670; stroke-width: 1.5"/>
    <path d="M 429.676008 206.430469 
L 446.451805 206.430469 
L 446.451805 202.737489 
L 429.676008 202.737489 
z
" clip-path="url(#pda5474280e)" style="fill: #9a3670; fill-opacity: 0.2; stroke: #9a3670; stroke-width: 1.5"/>
    <path d="M 446.451805 206.430469 
L 463.227602 206.430469 
L 463.227602 203.790931 
L 446.451805 203.790931 
z
" clip-path="url(#pda5474280e)" style="fill: #9a3670; fill-opacity: 0.2; stroke: #9a3670; stroke-width: 1.5"/>
    <path d="M 463.227602 206.430469 
L 480.003398 206.430469 
L 480.003398 204.863656 
L 463.227602 204.863656 
z
" clip-path="url(#pda5474280e)" style="fill: #9a3670; fill-opacity: 0.2; stroke: #9a3670; stroke-width: 1.5"/>
    <path d="M 480.003398 206.430469 
L 496.779195 206.430469 
L 496.779195 205.400213 
L 480.003398 205.400213 
z
" clip-path="url(#pda5474280e)" style="fill: #9a3670; fill-opacity: 0.2; stroke: #9a3670; stroke-width: 1.5"/>
    <path d="M 496.779195 206.430469 
L 513.554992 206.430469 
L 513.554992 205.656689 
L 496.779195 205.656689 
z
" clip-path="url(#pda5474280e)" style="fill: #9a3670; fill-opacity: 0.2; stroke: #9a3670; stroke-width: 1.5"/>
    <path d="M 513.554992 206.430469 
L 530.330789 206.430469 
L 530.330789 205.818192 
L 513.554992 205.818192 
z
" clip-path="url(#pda5474280e)" style="fill: #9a3670; fill-opacity: 0.2; stroke: #9a3670; stroke-width: 1.5"/>
    <path d="M 530.330789 206.430469 
L 547.106586 206.430469 
L 547.106586 205.558339 
L 530.330789 205.558339 
z
" clip-path="url(#pda5474280e)" style="fill: #9a3670; fill-opacity: 0.2; stroke: #9a3670; stroke-width: 1.5"/>
    <path d="M 547.106586 206.430469 
L 563.882383 206.430469 
L 563.882383 205.787346 
L 547.106586 205.787346 
z
" clip-path="url(#pda5474280e)" style="fill: #9a3670; fill-opacity: 0.2; stroke: #9a3670; stroke-width: 1.5"/>
    <path d="M 563.882383 206.430469 
L 580.65818 206.430469 
L 580.65818 205.889561 
L 563.882383 205.889561 
z
" clip-path="url(#pda5474280e)" style="fill: #9a3670; fill-opacity: 0.2; stroke: #9a3670; stroke-width: 1.5"/>
    <path d="M 580.65818 206.430469 
L 597.433977 206.430469 
L 597.433977 205.981643 
L 580.65818 205.981643 
z
" clip-path="url(#pda5474280e)" style="fill: #9a3670; fill-opacity: 0.2; stroke: #9a3670; stroke-width: 1.5"/>
    <path d="M 597.433977 206.430469 
L 614.209773 206.430469 
L 614.209773 206.098551 
L 597.433977 206.098551 
z
" clip-path="url(#pda5474280e)" style="fill: #9a3670; fill-opacity: 0.2; stroke: #9a3670; stroke-width: 1.5"/>
    <path d="M 614.209773 206.430469 
L 630.98557 206.430469 
L 630.98557 206.204839 
L 614.209773 206.204839 
z
" clip-path="url(#pda5474280e)" style="fill: #9a3670; fill-opacity: 0.2; stroke: #9a3670; stroke-width: 1.5"/>
    <path d="M 630.98557 206.430469 
L 647.761367 206.430469 
L 647.761367 206.237632 
L 630.98557 206.237632 
z
" clip-path="url(#pda5474280e)" style="fill: #9a3670; fill-opacity: 0.2; stroke: #9a3670; stroke-width: 1.5"/>
    <path d="M 647.761367 206.430469 
L 664.537164 206.430469 
L 664.537164 206.24174 
L 647.761367 206.24174 
z
" clip-path="url(#pda5474280e)" style="fill: #9a3670; fill-opacity: 0.2; stroke: #9a3670; stroke-width: 1.5"/>
    <path d="M 664.537164 206.430469 
L 681.312961 206.430469 
L 681.312961 206.24028 
L 664.537164 206.24028 
z
" clip-path="url(#pda5474280e)" style="fill: #9a3670; fill-opacity: 0.2; stroke: #9a3670; stroke-width: 1.5"/>
    <path d="M 681.312961 206.430469 
L 698.088758 206.430469 
L 698.088758 206.099281 
L 681.312961 206.099281 
z
" clip-path="url(#pda5474280e)" style="fill: #9a3670; fill-opacity: 0.2; stroke: #9a3670; stroke-width: 1.5"/>
    <path d="M 698.088758 206.430469 
L 714.864555 206.430469 
L 714.864555 206.288009 
L 698.088758 206.288009 
z
" clip-path="url(#pda5474280e)" style="fill: #9a3670; fill-opacity: 0.2; stroke: #9a3670; stroke-width: 1.5"/>
    <path d="M 714.864555 206.430469 
L 731.640352 206.430469 
L 731.640352 206.24101 
L 714.864555 206.24101 
z
" clip-path="url(#pda5474280e)" style="fill: #9a3670; fill-opacity: 0.2; stroke: #9a3670; stroke-width: 1.5"/>
    <path d="M 731.640352 206.430469 
L 748.416148 206.430469 
L 748.416148 206.14409 
L 731.640352 206.14409 
z
" clip-path="url(#pda5474280e)" style="fill: #9a3670; fill-opacity: 0.2; stroke: #9a3670; stroke-width: 1.5"/>
    <path d="M 748.416148 206.430469 
L 765.191945 206.430469 
L 765.191945 206.034892 
L 748.416148 206.034892 
z
" clip-path="url(#pda5474280e)" style="fill: #9a3670; fill-opacity: 0.2; stroke: #9a3670; stroke-width: 1.5"/>
    <path d="M 765.191945 206.430469 
L 781.967742 206.430469 
L 781.967742 206.33647 
L 765.191945 206.33647 
z
" clip-path="url(#pda5474280e)" style="fill: #9a3670; fill-opacity: 0.2; stroke: #9a3670; stroke-width: 1.5"/>
    <path d="M 781.967742 206.430469 
L 798.743539 206.430469 
L 798.743539 206.14409 
L 781.967742 206.14409 
z
" clip-path="url(#pda5474280e)" style="fill: #9a3670; fill-opacity: 0.2; stroke: #9a3670; stroke-width: 1.5"/>
    <path d="M 798.743539 206.430469 
L 815.519336 206.430469 
L 815.519336 206.33647 
L 798.743539 206.33647 
z
" clip-path="url(#pda5474280e)" style="fill: #9a3670; fill-opacity: 0.2; stroke: #9a3670; stroke-width: 1.5"/>
    <path d="M 815.519336 206.430469 
L 832.295133 206.430469 
L 832.295133 206.14409 
L 815.519336 206.14409 
z
" clip-path="url(#pda5474280e)" style="fill: #9a3670; fill-opacity: 0.2; stroke: #9a3670; stroke-width: 1.5"/>
    <path d="M 832.295133 206.430469 
L 849.07093 206.430469 
L 849.07093 206.24247 
L 832.295133 206.24247 
z
" clip-path="url(#pda5474280e)" style="fill: #9a3670; fill-opacity: 0.2; stroke: #9a3670; stroke-width: 1.5"/>
    <path d="M 849.07093 206.430469 
L 865.846727 206.430469 
L 865.846727 206.24247 
L 849.07093 206.24247 
z
" clip-path="url(#pda5474280e)" style="fill: #9a3670; fill-opacity: 0.2; stroke: #9a3670; stroke-width: 1.5"/>
    <path d="M 865.846727 206.430469 
L 882.622523 206.430469 
L 882.622523 206.288009 
L 865.846727 206.288009 
z
" clip-path="url(#pda5474280e)" style="fill: #9a3670; fill-opacity: 0.2; stroke: #9a3670; stroke-width: 1.5"/>
    <path d="M 882.622523 206.430469 
L 899.39832 206.430469 
L 899.39832 206.335739 
L 882.622523 206.335739 
z
" clip-path="url(#pda5474280e)" style="fill: #9a3670; fill-opacity: 0.2; stroke: #9a3670; stroke-width: 1.5"/>
    <path d="M 899.39832 206.430469 
L 916.174117 206.430469 
L 916.174117 206.229417 
L 899.39832 206.229417 
z
" clip-path="url(#pda5474280e)" style="fill: #9a3670; fill-opacity: 0.2; stroke: #9a3670; stroke-width: 1.5"/>
    <path d="M 916.174117 206.430469 
L 932.949914 206.430469 
L 932.949914 206.282943 
L 916.174117 206.282943 
z
" clip-path="url(#pda5474280e)" style="fill: #9a3670; fill-opacity: 0.2; stroke: #9a3670; stroke-width: 1.5"/>
    <path d="M 932.949914 206.430469 
L 949.725711 206.430469 
L 949.725711 206.148471 
L 932.949914 206.148471 
z
" clip-path="url(#pda5474280e)" style="fill: #9a3670; fill-opacity: 0.2; stroke: #9a3670; stroke-width: 1.5"/>
    <path d="M 949.725711 206.430469 
L 966.501508 206.430469 
L 966.501508 206.239549 
L 949.725711 206.239549 
z
" clip-path="url(#pda5474280e)" style="fill: #9a3670; fill-opacity: 0.2; stroke: #9a3670; stroke-width: 1.5"/>
    <path d="M 966.501508 206.430469 
L 983.277305 206.430469 
L 983.277305 206.288009 
L 966.501508 206.288009 
z
" clip-path="url(#pda5474280e)" style="fill: #9a3670; fill-opacity: 0.2; stroke: #9a3670; stroke-width: 1.5"/>
    <path d="M 1000.053102 206.430469 
L 1016.828898 206.430469 
L 1016.828898 206.335009 
L 1000.053102 206.335009 
z
" clip-path="url(#pda5474280e)" style="fill: #9a3670; fill-opacity: 0.2; stroke: #9a3670; stroke-width: 1.5"/>
    <path d="M 1016.828898 206.430469 
L 1033.604695 206.430469 
L 1033.604695 206.33647 
L 1016.828898 206.33647 
z
" clip-path="url(#pda5474280e)" style="fill: #9a3670; fill-opacity: 0.2; stroke: #9a3670; stroke-width: 1.5"/>
    <path d="M 1033.604695 206.430469 
L 1050.380492 206.430469 
L 1050.380492 206.335739 
L 1033.604695 206.335739 
z
" clip-path="url(#pda5474280e)" style="fill: #9a3670; fill-opacity: 0.2; stroke: #9a3670; stroke-width: 1.5"/>
    <path d="M 1100.707883 206.430469 
L 1117.48368 206.430469 
L 1117.48368 206.33647 
L 1100.707883 206.33647 
z
" clip-path="url(#pda5474280e)" style="fill: #9a3670; fill-opacity: 0.2; stroke: #9a3670; stroke-width: 1.5"/>
    <path d="M 1134.259477 206.430469 
L 1151.035273 206.430469 
L 1151.035273 206.335009 
L 1134.259477 206.335009 
z
" clip-path="url(#pda5474280e)" style="fill: #9a3670; fill-opacity: 0.2; stroke: #9a3670; stroke-width: 1.5"/>
    <path d="M 1151.035273 206.430469 
L 1167.81107 206.430469 
L 1167.81107 206.24247 
L 1151.035273 206.24247 
z
" clip-path="url(#pda5474280e)" style="fill: #9a3670; fill-opacity: 0.2; stroke: #9a3670; stroke-width: 1.5"/>
    <path d="M 1167.81107 206.430469 
L 1184.586867 206.430469 
L 1184.586867 206.335739 
L 1167.81107 206.335739 
z
" clip-path="url(#pda5474280e)" style="fill: #9a3670; fill-opacity: 0.2; stroke: #9a3670; stroke-width: 1.5"/>
    <path d="M 1184.586867 206.430469 
L 1201.362664 206.430469 
L 1201.362664 206.300299 
L 1184.586867 206.300299 
z
" clip-path="url(#pda5474280e)" style="fill: #9a3670; fill-opacity: 0.2; stroke: #9a3670; stroke-width: 1.5"/>
   </g>
   <g id="line2d_20">
    <path d="M 370.960719 38.057829 
L 387.736516 159.224749 
L 404.512313 191.278585 
L 421.288109 200.201072 
L 438.063906 203.005155 
L 454.839703 204.115903 
L 471.6155 204.704172 
L 488.391297 205.092538 
L 505.167094 205.378962 
L 521.942891 205.599739 
L 538.718688 205.772694 
L 555.494484 205.909006 
L 572.270281 206.016708 
L 589.046078 206.101919 
L 605.821875 206.169506 
L 622.597672 206.222874 
L 624.52 206.227734 
" clip-path="url(#pda5474280e)" style="fill: none; stroke: #262626; stroke-width: 2.25; stroke-linecap: round"/>
   </g>
   <g id="line2d_21">
    <path d="M 370.960719 45.011065 
L 387.736516 164.699618 
L 404.512313 195.592449 
L 421.288109 203.602539 
L 438.063906 205.689103 
L 454.839703 206.235195 
L 471.6155 206.378793 
L 488.391297 206.41673 
L 505.167094 206.4268 
L 521.942891 206.429485 
L 538.718688 206.430204 
L 555.494484 206.430397 
L 572.270281 206.430449 
L 589.046078 206.430463 
L 605.821875 206.430468 
L 622.597672 206.430468 
L 624.52 206.430468 
" clip-path="url(#pda5474280e)" style="fill: none; stroke-dasharray: 8.325,3.6; stroke-dashoffset: 0; stroke: #006400; stroke-opacity: 0.7; stroke-width: 2.25"/>
   </g>
   <g id="line2d_22">
    <path d="M 370.960719 199.477233 
L 387.736516 200.955599 
L 404.512313 202.116605 
L 421.288109 203.029003 
L 438.063906 203.746521 
L 454.839703 204.311177 
L 471.6155 204.755848 
L 488.391297 205.106276 
L 505.167094 205.382631 
L 521.942891 205.600723 
L 538.718688 205.772959 
L 555.494484 205.909078 
L 572.270281 206.016728 
L 589.046078 206.101925 
L 605.821875 206.169506 
L 622.597672 206.222874 
L 624.52 206.227734 
" clip-path="url(#pda5474280e)" style="fill: none; stroke-dasharray: 8.325,3.6; stroke-dashoffset: 0; stroke: #ff00ff; stroke-opacity: 0.7; stroke-width: 2.25"/>
   </g>
   <g id="patch_8">
    <path d="M 354.184922 206.430469 
L 354.184922 26.877187 
" style="fill: none; stroke: #ffffff; stroke-width: 1.875; stroke-linejoin: miter; stroke-linecap: square"/>
   </g>
   <g id="patch_9">
    <path d="M 605.821875 206.430469 
L 605.821875 26.877187 
" style="fill: none; stroke: #ffffff; stroke-width: 1.875; stroke-linejoin: miter; stroke-linecap: square"/>
   </g>
   <g id="patch_10">
    <path d="M 354.184922 206.430469 
L 605.821875 206.430469 
" style="fill: none; stroke: #ffffff; stroke-width: 1.875; stroke-linejoin: miter; stroke-linecap: square"/>
   </g>
   <g id="patch_11">
    <path d="M 354.184922 26.877187 
L 605.821875 26.877187 
" style="fill: none; stroke: #ffffff; stroke-width: 1.875; stroke-linejoin: miter; stroke-linecap: square"/>
   </g>
   <g id="text_17">
    <!-- Ciprofloxacin 30 ng/ml -->
    <g transform="translate(378.722461 20.877187) scale(0.18 -0.18)">
     <use xlink:href="#DejaVuSans-43"/>
     <use xlink:href="#DejaVuSans-69" x="69.824219"/>
     <use xlink:href="#DejaVuSans-70" x="97.607422"/>
     <use xlink:href="#DejaVuSans-72" x="161.083984"/>
     <use xlink:href="#DejaVuSans-6f" x="199.947266"/>
     <use xlink:href="#DejaVuSans-66" x="261.128906"/>
     <use xlink:href="#DejaVuSans-6c" x="296.333984"/>
     <use xlink:href="#DejaVuSans-6f" x="324.117188"/>
     <use xlink:href="#DejaVuSans-78" x="382.173828"/>
     <use xlink:href="#DejaVuSans-61" x="441.353516"/>
     <use xlink:href="#DejaVuSans-63" x="502.632812"/>
     <use xlink:href="#DejaVuSans-69" x="557.613281"/>
     <use xlink:href="#DejaVuSans-6e" x="585.396484"/>
     <use xlink:href="#DejaVuSans-20" x="648.775391"/>
     <use xlink:href="#DejaVuSans-33" x="680.5625"/>
     <use xlink:href="#DejaVuSans-30" x="744.185547"/>
     <use xlink:href="#DejaVuSans-20" x="807.808594"/>
     <use xlink:href="#DejaVuSans-6e" x="839.595703"/>
     <use xlink:href="#DejaVuSans-67" x="902.974609"/>
     <use xlink:href="#DejaVuSans-2f" x="966.451172"/>
     <use xlink:href="#DejaVuSans-6d" x="1000.142578"/>
     <use xlink:href="#DejaVuSans-6c" x="1097.554688"/>
    </g>
   </g>
  </g>
 </g>
 <defs>
  <clipPath id="p88dec24708">
   <rect x="67.360781" y="26.877187" width="251.636953" height="179.553281"/>
  </clipPath>
  <clipPath id="pda5474280e">
   <rect x="354.184922" y="26.877187" width="251.636953" height="179.553281"/>
  </clipPath>
 </defs>
</svg>
