<?xml version="1.0" encoding="utf-8" standalone="no"?>
<!DOCTYPE svg PUBLIC "-//W3C//DTD SVG 1.1//EN"
  "http://www.w3.org/Graphics/SVG/1.1/DTD/svg11.dtd">
<svg xmlns:xlink="http://www.w3.org/1999/xlink" width="623.52pt" height="263.52pt" viewBox="0 0 623.52 263.52" xmlns="http://www.w3.org/2000/svg" version="1.1">
 <metadata>
  <rdf:RDF xmlns:dc="http://purl.org/dc/elements/1.1/" xmlns:cc="http://creativecommons.org/ns#" xmlns:rdf="http://www.w3.org/1999/02/22-rdf-syntax-ns#">
   <cc:Work>
    <dc:type rdf:resource="http://purl.org/dc/dcmitype/StillImage"/>
    <dc:date>2024-09-12T12:07:54.580753</dc:date>
    <dc:format>image/svg+xml</dc:format>
    <dc:creator>
     <cc:Agent>
      <dc:title>Matplotlib v3.8.0, https://matplotlib.org/</dc:title>
     </cc:Agent>
    </dc:creator>
   </cc:Work>
  </rdf:RDF>
 </metadata>
 <defs>
  <style type="text/css">*{stroke-linejoin: round; stroke-linecap: butt}</style>
 </defs>
 <g id="figure_1">
  <g id="patch_1">
   <path d="M -0 263.52 
L 623.52 263.52 
L 623.52 0 
L -0 0 
z
" style="fill: #ffffff"/>
  </g>
  <g id="axes_1">
   <g id="patch_2">
    <path d="M 77.858906 206.430469 
L 324.246797 206.430469 
L 324.246797 26.877187 
L 77.858906 26.877187 
z
" style="fill: #eaeaf2"/>
   </g>
   <g id="matplotlib.axis_1">
    <g id="xtick_1">
     <g id="line2d_1">
      <path d="M 77.858906 206.430469 
L 77.858906 26.877187 
" clip-path="url(#p3299c7282d)" style="fill: none; stroke: #ffffff; stroke-width: 1.5; stroke-linecap: round"/>
     </g>
     <g id="text_1">
      <!-- 0 -->
      <g style="fill: #262626" transform="translate(72.609844 231.467891) scale(0.165 -0.165)">
       <defs>
        <path id="DejaVuSans-30" d="M 2034 4250 
Q 1547 4250 1301 3770 
Q 1056 3291 1056 2328 
Q 1056 1369 1301 889 
Q 1547 409 2034 409 
Q 2525 409 2770 889 
Q 3016 1369 3016 2328 
Q 3016 3291 2770 3770 
Q 2525 4250 2034 4250 
z
M 2034 4750 
Q 2819 4750 3233 4129 
Q 3647 3509 3647 2328 
Q 3647 1150 3233 529 
Q 2819 -91 2034 -91 
Q 1250 -91 836 529 
Q 422 1150 422 2328 
Q 422 3509 836 4129 
Q 1250 4750 2034 4750 
z
" transform="scale(0.015625)"/>
       </defs>
       <use xlink:href="#DejaVuSans-30"/>
      </g>
     </g>
    </g>
    <g id="xtick_2">
     <g id="line2d_2">
      <path d="M 159.988203 206.430469 
L 159.988203 26.877187 
" clip-path="url(#p3299c7282d)" style="fill: none; stroke: #ffffff; stroke-width: 1.5; stroke-linecap: round"/>
     </g>
     <g id="text_2">
      <!-- 10 -->
      <g style="fill: #262626" transform="translate(149.490078 231.467891) scale(0.165 -0.165)">
       <defs>
        <path id="DejaVuSans-31" d="M 794 531 
L 1825 531 
L 1825 4091 
L 703 3866 
L 703 4441 
L 1819 4666 
L 2450 4666 
L 2450 531 
L 3481 531 
L 3481 0 
L 794 0 
L 794 531 
z
" transform="scale(0.015625)"/>
       </defs>
       <use xlink:href="#DejaVuSans-31"/>
       <use xlink:href="#DejaVuSans-30" x="63.623047"/>
      </g>
     </g>
    </g>
    <g id="xtick_3">
     <g id="line2d_3">
      <path d="M 242.1175 206.430469 
L 242.1175 26.877187 
" clip-path="url(#p3299c7282d)" style="fill: none; stroke: #ffffff; stroke-width: 1.5; stroke-linecap: round"/>
     </g>
     <g id="text_3">
      <!-- 20 -->
      <g style="fill: #262626" transform="translate(231.619375 231.467891) scale(0.165 -0.165)">
       <defs>
        <path id="DejaVuSans-32" d="M 1228 531 
L 3431 531 
L 3431 0 
L 469 0 
L 469 531 
Q 828 903 1448 1529 
Q 2069 2156 2228 2338 
Q 2531 2678 2651 2914 
Q 2772 3150 2772 3378 
Q 2772 3750 2511 3984 
Q 2250 4219 1831 4219 
Q 1534 4219 1204 4116 
Q 875 4013 500 3803 
L 500 4441 
Q 881 4594 1212 4672 
Q 1544 4750 1819 4750 
Q 2544 4750 2975 4387 
Q 3406 4025 3406 3419 
Q 3406 3131 3298 2873 
Q 3191 2616 2906 2266 
Q 2828 2175 2409 1742 
Q 1991 1309 1228 531 
z
" transform="scale(0.015625)"/>
       </defs>
       <use xlink:href="#DejaVuSans-32"/>
       <use xlink:href="#DejaVuSans-30" x="63.623047"/>
      </g>
     </g>
    </g>
    <g id="xtick_4">
     <g id="line2d_4">
      <path d="M 324.246797 206.430469 
L 324.246797 26.877187 
" clip-path="url(#p3299c7282d)" style="fill: none; stroke: #ffffff; stroke-width: 1.5; stroke-linecap: round"/>
     </g>
     <g id="text_4">
      <!-- 30 -->
      <g style="fill: #262626" transform="translate(313.748672 231.467891) scale(0.165 -0.165)">
       <defs>
        <path id="DejaVuSans-33" d="M 2597 2516 
Q 3050 2419 3304 2112 
Q 3559 1806 3559 1356 
Q 3559 666 3084 287 
Q 2609 -91 1734 -91 
Q 1441 -91 1130 -33 
Q 819 25 488 141 
L 488 750 
Q 750 597 1062 519 
Q 1375 441 1716 441 
Q 2309 441 2620 675 
Q 2931 909 2931 1356 
Q 2931 1769 2642 2001 
Q 2353 2234 1838 2234 
L 1294 2234 
L 1294 2753 
L 1863 2753 
Q 2328 2753 2575 2939 
Q 2822 3125 2822 3475 
Q 2822 3834 2567 4026 
Q 2313 4219 1838 4219 
Q 1578 4219 1281 4162 
Q 984 4106 628 3988 
L 628 4550 
Q 988 4650 1302 4700 
Q 1616 4750 1894 4750 
Q 2613 4750 3031 4423 
Q 3450 4097 3450 3541 
Q 3450 3153 3228 2886 
Q 3006 2619 2597 2516 
z
" transform="scale(0.015625)"/>
       </defs>
       <use xlink:href="#DejaVuSans-33"/>
       <use xlink:href="#DejaVuSans-30" x="63.623047"/>
      </g>
     </g>
    </g>
    <g id="text_5">
     <!-- Spot lifetime (sec) -->
     <g style="fill: #262626" transform="translate(118.632539 252.576562) scale(0.18 -0.18)">
      <defs>
       <path id="DejaVuSans-53" d="M 3425 4513 
L 3425 3897 
Q 3066 4069 2747 4153 
Q 2428 4238 2131 4238 
Q 1616 4238 1336 4038 
Q 1056 3838 1056 3469 
Q 1056 3159 1242 3001 
Q 1428 2844 1947 2747 
L 2328 2669 
Q 3034 2534 3370 2195 
Q 3706 1856 3706 1288 
Q 3706 609 3251 259 
Q 2797 -91 1919 -91 
Q 1588 -91 1214 -16 
Q 841 59 441 206 
L 441 856 
Q 825 641 1194 531 
Q 1563 422 1919 422 
Q 2459 422 2753 634 
Q 3047 847 3047 1241 
Q 3047 1584 2836 1778 
Q 2625 1972 2144 2069 
L 1759 2144 
Q 1053 2284 737 2584 
Q 422 2884 422 3419 
Q 422 4038 858 4394 
Q 1294 4750 2059 4750 
Q 2388 4750 2728 4690 
Q 3069 4631 3425 4513 
z
" transform="scale(0.015625)"/>
       <path id="DejaVuSans-70" d="M 1159 525 
L 1159 -1331 
L 581 -1331 
L 581 3500 
L 1159 3500 
L 1159 2969 
Q 1341 3281 1617 3432 
Q 1894 3584 2278 3584 
Q 2916 3584 3314 3078 
Q 3713 2572 3713 1747 
Q 3713 922 3314 415 
Q 2916 -91 2278 -91 
Q 1894 -91 1617 61 
Q 1341 213 1159 525 
z
M 3116 1747 
Q 3116 2381 2855 2742 
Q 2594 3103 2138 3103 
Q 1681 3103 1420 2742 
Q 1159 2381 1159 1747 
Q 1159 1113 1420 752 
Q 1681 391 2138 391 
Q 2594 391 2855 752 
Q 3116 1113 3116 1747 
z
" transform="scale(0.015625)"/>
       <path id="DejaVuSans-6f" d="M 1959 3097 
Q 1497 3097 1228 2736 
Q 959 2375 959 1747 
Q 959 1119 1226 758 
Q 1494 397 1959 397 
Q 2419 397 2687 759 
Q 2956 1122 2956 1747 
Q 2956 2369 2687 2733 
Q 2419 3097 1959 3097 
z
M 1959 3584 
Q 2709 3584 3137 3096 
Q 3566 2609 3566 1747 
Q 3566 888 3137 398 
Q 2709 -91 1959 -91 
Q 1206 -91 779 398 
Q 353 888 353 1747 
Q 353 2609 779 3096 
Q 1206 3584 1959 3584 
z
" transform="scale(0.015625)"/>
       <path id="DejaVuSans-74" d="M 1172 4494 
L 1172 3500 
L 2356 3500 
L 2356 3053 
L 1172 3053 
L 1172 1153 
Q 1172 725 1289 603 
Q 1406 481 1766 481 
L 2356 481 
L 2356 0 
L 1766 0 
Q 1100 0 847 248 
Q 594 497 594 1153 
L 594 3053 
L 172 3053 
L 172 3500 
L 594 3500 
L 594 4494 
L 1172 4494 
z
" transform="scale(0.015625)"/>
       <path id="DejaVuSans-20" transform="scale(0.015625)"/>
       <path id="DejaVuSans-6c" d="M 603 4863 
L 1178 4863 
L 1178 0 
L 603 0 
L 603 4863 
z
" transform="scale(0.015625)"/>
       <path id="DejaVuSans-69" d="M 603 3500 
L 1178 3500 
L 1178 0 
L 603 0 
L 603 3500 
z
M 603 4863 
L 1178 4863 
L 1178 4134 
L 603 4134 
L 603 4863 
z
" transform="scale(0.015625)"/>
       <path id="DejaVuSans-66" d="M 2375 4863 
L 2375 4384 
L 1825 4384 
Q 1516 4384 1395 4259 
Q 1275 4134 1275 3809 
L 1275 3500 
L 2222 3500 
L 2222 3053 
L 1275 3053 
L 1275 0 
L 697 0 
L 697 3053 
L 147 3053 
L 147 3500 
L 697 3500 
L 697 3744 
Q 697 4328 969 4595 
Q 1241 4863 1831 4863 
L 2375 4863 
z
" transform="scale(0.015625)"/>
       <path id="DejaVuSans-65" d="M 3597 1894 
L 3597 1613 
L 953 1613 
Q 991 1019 1311 708 
Q 1631 397 2203 397 
Q 2534 397 2845 478 
Q 3156 559 3463 722 
L 3463 178 
Q 3153 47 2828 -22 
Q 2503 -91 2169 -91 
Q 1331 -91 842 396 
Q 353 884 353 1716 
Q 353 2575 817 3079 
Q 1281 3584 2069 3584 
Q 2775 3584 3186 3129 
Q 3597 2675 3597 1894 
z
M 3022 2063 
Q 3016 2534 2758 2815 
Q 2500 3097 2075 3097 
Q 1594 3097 1305 2825 
Q 1016 2553 972 2059 
L 3022 2063 
z
" transform="scale(0.015625)"/>
       <path id="DejaVuSans-6d" d="M 3328 2828 
Q 3544 3216 3844 3400 
Q 4144 3584 4550 3584 
Q 5097 3584 5394 3201 
Q 5691 2819 5691 2113 
L 5691 0 
L 5113 0 
L 5113 2094 
Q 5113 2597 4934 2840 
Q 4756 3084 4391 3084 
Q 3944 3084 3684 2787 
Q 3425 2491 3425 1978 
L 3425 0 
L 2847 0 
L 2847 2094 
Q 2847 2600 2669 2842 
Q 2491 3084 2119 3084 
Q 1678 3084 1418 2786 
Q 1159 2488 1159 1978 
L 1159 0 
L 581 0 
L 581 3500 
L 1159 3500 
L 1159 2956 
Q 1356 3278 1631 3431 
Q 1906 3584 2284 3584 
Q 2666 3584 2933 3390 
Q 3200 3197 3328 2828 
z
" transform="scale(0.015625)"/>
       <path id="DejaVuSans-28" d="M 1984 4856 
Q 1566 4138 1362 3434 
Q 1159 2731 1159 2009 
Q 1159 1288 1364 580 
Q 1569 -128 1984 -844 
L 1484 -844 
Q 1016 -109 783 600 
Q 550 1309 550 2009 
Q 550 2706 781 3412 
Q 1013 4119 1484 4856 
L 1984 4856 
z
" transform="scale(0.015625)"/>
       <path id="DejaVuSans-73" d="M 2834 3397 
L 2834 2853 
Q 2591 2978 2328 3040 
Q 2066 3103 1784 3103 
Q 1356 3103 1142 2972 
Q 928 2841 928 2578 
Q 928 2378 1081 2264 
Q 1234 2150 1697 2047 
L 1894 2003 
Q 2506 1872 2764 1633 
Q 3022 1394 3022 966 
Q 3022 478 2636 193 
Q 2250 -91 1575 -91 
Q 1294 -91 989 -36 
Q 684 19 347 128 
L 347 722 
Q 666 556 975 473 
Q 1284 391 1588 391 
Q 1994 391 2212 530 
Q 2431 669 2431 922 
Q 2431 1156 2273 1281 
Q 2116 1406 1581 1522 
L 1381 1569 
Q 847 1681 609 1914 
Q 372 2147 372 2553 
Q 372 3047 722 3315 
Q 1072 3584 1716 3584 
Q 2034 3584 2315 3537 
Q 2597 3491 2834 3397 
z
" transform="scale(0.015625)"/>
       <path id="DejaVuSans-63" d="M 3122 3366 
L 3122 2828 
Q 2878 2963 2633 3030 
Q 2388 3097 2138 3097 
Q 1578 3097 1268 2742 
Q 959 2388 959 1747 
Q 959 1106 1268 751 
Q 1578 397 2138 397 
Q 2388 397 2633 464 
Q 2878 531 3122 666 
L 3122 134 
Q 2881 22 2623 -34 
Q 2366 -91 2075 -91 
Q 1284 -91 818 406 
Q 353 903 353 1747 
Q 353 2603 823 3093 
Q 1294 3584 2113 3584 
Q 2378 3584 2631 3529 
Q 2884 3475 3122 3366 
z
" transform="scale(0.015625)"/>
       <path id="DejaVuSans-29" d="M 513 4856 
L 1013 4856 
Q 1481 4119 1714 3412 
Q 1947 2706 1947 2009 
Q 1947 1309 1714 600 
Q 1481 -109 1013 -844 
L 513 -844 
Q 928 -128 1133 580 
Q 1338 1288 1338 2009 
Q 1338 2731 1133 3434 
Q 928 4138 513 4856 
z
" transform="scale(0.015625)"/>
      </defs>
      <use xlink:href="#DejaVuSans-53"/>
      <use xlink:href="#DejaVuSans-70" x="63.476562"/>
      <use xlink:href="#DejaVuSans-6f" x="126.953125"/>
      <use xlink:href="#DejaVuSans-74" x="188.134766"/>
      <use xlink:href="#DejaVuSans-20" x="227.34375"/>
      <use xlink:href="#DejaVuSans-6c" x="259.130859"/>
      <use xlink:href="#DejaVuSans-69" x="286.914062"/>
      <use xlink:href="#DejaVuSans-66" x="314.697266"/>
      <use xlink:href="#DejaVuSans-65" x="349.902344"/>
      <use xlink:href="#DejaVuSans-74" x="411.425781"/>
      <use xlink:href="#DejaVuSans-69" x="450.634766"/>
      <use xlink:href="#DejaVuSans-6d" x="478.417969"/>
      <use xlink:href="#DejaVuSans-65" x="575.830078"/>
      <use xlink:href="#DejaVuSans-20" x="637.353516"/>
      <use xlink:href="#DejaVuSans-28" x="669.140625"/>
      <use xlink:href="#DejaVuSans-73" x="708.154297"/>
      <use xlink:href="#DejaVuSans-65" x="760.253906"/>
      <use xlink:href="#DejaVuSans-63" x="821.777344"/>
      <use xlink:href="#DejaVuSans-29" x="876.757812"/>
     </g>
    </g>
   </g>
   <g id="matplotlib.axis_2">
    <g id="ytick_1">
     <g id="line2d_5">
      <path d="M 77.858906 206.430469 
L 324.246797 206.430469 
" clip-path="url(#p3299c7282d)" style="fill: none; stroke: #ffffff; stroke-width: 1.5; stroke-linecap: round"/>
     </g>
     <g id="text_6">
      <!-- 0.00 -->
      <g style="fill: #262626" transform="translate(28.620625 212.69918) scale(0.165 -0.165)">
       <defs>
        <path id="DejaVuSans-2e" d="M 684 794 
L 1344 794 
L 1344 0 
L 684 0 
L 684 794 
z
" transform="scale(0.015625)"/>
       </defs>
       <use xlink:href="#DejaVuSans-30"/>
       <use xlink:href="#DejaVuSans-2e" x="63.623047"/>
       <use xlink:href="#DejaVuSans-30" x="95.410156"/>
       <use xlink:href="#DejaVuSans-30" x="159.033203"/>
      </g>
     </g>
    </g>
    <g id="ytick_2">
     <g id="line2d_6">
      <path d="M 77.858906 170.519812 
L 324.246797 170.519812 
" clip-path="url(#p3299c7282d)" style="fill: none; stroke: #ffffff; stroke-width: 1.5; stroke-linecap: round"/>
     </g>
     <g id="text_7">
      <!-- 0.02 -->
      <g style="fill: #262626" transform="translate(28.620625 176.788523) scale(0.165 -0.165)">
       <use xlink:href="#DejaVuSans-30"/>
       <use xlink:href="#DejaVuSans-2e" x="63.623047"/>
       <use xlink:href="#DejaVuSans-30" x="95.410156"/>
       <use xlink:href="#DejaVuSans-32" x="159.033203"/>
      </g>
     </g>
    </g>
    <g id="ytick_3">
     <g id="line2d_7">
      <path d="M 77.858906 134.609156 
L 324.246797 134.609156 
" clip-path="url(#p3299c7282d)" style="fill: none; stroke: #ffffff; stroke-width: 1.5; stroke-linecap: round"/>
     </g>
     <g id="text_8">
      <!-- 0.04 -->
      <g style="fill: #262626" transform="translate(28.620625 140.877867) scale(0.165 -0.165)">
       <defs>
        <path id="DejaVuSans-34" d="M 2419 4116 
L 825 1625 
L 2419 1625 
L 2419 4116 
z
M 2253 4666 
L 3047 4666 
L 3047 1625 
L 3713 1625 
L 3713 1100 
L 3047 1100 
L 3047 0 
L 2419 0 
L 2419 1100 
L 313 1100 
L 313 1709 
L 2253 4666 
z
" transform="scale(0.015625)"/>
       </defs>
       <use xlink:href="#DejaVuSans-30"/>
       <use xlink:href="#DejaVuSans-2e" x="63.623047"/>
       <use xlink:href="#DejaVuSans-30" x="95.410156"/>
       <use xlink:href="#DejaVuSans-34" x="159.033203"/>
      </g>
     </g>
    </g>
    <g id="ytick_4">
     <g id="line2d_8">
      <path d="M 77.858906 98.6985 
L 324.246797 98.6985 
" clip-path="url(#p3299c7282d)" style="fill: none; stroke: #ffffff; stroke-width: 1.5; stroke-linecap: round"/>
     </g>
     <g id="text_9">
      <!-- 0.06 -->
      <g style="fill: #262626" transform="translate(28.620625 104.967211) scale(0.165 -0.165)">
       <defs>
        <path id="DejaVuSans-36" d="M 2113 2584 
Q 1688 2584 1439 2293 
Q 1191 2003 1191 1497 
Q 1191 994 1439 701 
Q 1688 409 2113 409 
Q 2538 409 2786 701 
Q 3034 994 3034 1497 
Q 3034 2003 2786 2293 
Q 2538 2584 2113 2584 
z
M 3366 4563 
L 3366 3988 
Q 3128 4100 2886 4159 
Q 2644 4219 2406 4219 
Q 1781 4219 1451 3797 
Q 1122 3375 1075 2522 
Q 1259 2794 1537 2939 
Q 1816 3084 2150 3084 
Q 2853 3084 3261 2657 
Q 3669 2231 3669 1497 
Q 3669 778 3244 343 
Q 2819 -91 2113 -91 
Q 1303 -91 875 529 
Q 447 1150 447 2328 
Q 447 3434 972 4092 
Q 1497 4750 2381 4750 
Q 2619 4750 2861 4703 
Q 3103 4656 3366 4563 
z
" transform="scale(0.015625)"/>
       </defs>
       <use xlink:href="#DejaVuSans-30"/>
       <use xlink:href="#DejaVuSans-2e" x="63.623047"/>
       <use xlink:href="#DejaVuSans-30" x="95.410156"/>
       <use xlink:href="#DejaVuSans-36" x="159.033203"/>
      </g>
     </g>
    </g>
    <g id="ytick_5">
     <g id="line2d_9">
      <path d="M 77.858906 62.787844 
L 324.246797 62.787844 
" clip-path="url(#p3299c7282d)" style="fill: none; stroke: #ffffff; stroke-width: 1.5; stroke-linecap: round"/>
     </g>
     <g id="text_10">
      <!-- 0.08 -->
      <g style="fill: #262626" transform="translate(28.620625 69.056555) scale(0.165 -0.165)">
       <defs>
        <path id="DejaVuSans-38" d="M 2034 2216 
Q 1584 2216 1326 1975 
Q 1069 1734 1069 1313 
Q 1069 891 1326 650 
Q 1584 409 2034 409 
Q 2484 409 2743 651 
Q 3003 894 3003 1313 
Q 3003 1734 2745 1975 
Q 2488 2216 2034 2216 
z
M 1403 2484 
Q 997 2584 770 2862 
Q 544 3141 544 3541 
Q 544 4100 942 4425 
Q 1341 4750 2034 4750 
Q 2731 4750 3128 4425 
Q 3525 4100 3525 3541 
Q 3525 3141 3298 2862 
Q 3072 2584 2669 2484 
Q 3125 2378 3379 2068 
Q 3634 1759 3634 1313 
Q 3634 634 3220 271 
Q 2806 -91 2034 -91 
Q 1263 -91 848 271 
Q 434 634 434 1313 
Q 434 1759 690 2068 
Q 947 2378 1403 2484 
z
M 1172 3481 
Q 1172 3119 1398 2916 
Q 1625 2713 2034 2713 
Q 2441 2713 2670 2916 
Q 2900 3119 2900 3481 
Q 2900 3844 2670 4047 
Q 2441 4250 2034 4250 
Q 1625 4250 1398 4047 
Q 1172 3844 1172 3481 
z
" transform="scale(0.015625)"/>
       </defs>
       <use xlink:href="#DejaVuSans-30"/>
       <use xlink:href="#DejaVuSans-2e" x="63.623047"/>
       <use xlink:href="#DejaVuSans-30" x="95.410156"/>
       <use xlink:href="#DejaVuSans-38" x="159.033203"/>
      </g>
     </g>
    </g>
    <g id="ytick_6">
     <g id="line2d_10">
      <path d="M 77.858906 26.877187 
L 324.246797 26.877187 
" clip-path="url(#p3299c7282d)" style="fill: none; stroke: #ffffff; stroke-width: 1.5; stroke-linecap: round"/>
     </g>
     <g id="text_11">
      <!-- 0.10 -->
      <g style="fill: #262626" transform="translate(28.620625 33.145898) scale(0.165 -0.165)">
       <use xlink:href="#DejaVuSans-30"/>
       <use xlink:href="#DejaVuSans-2e" x="63.623047"/>
       <use xlink:href="#DejaVuSans-31" x="95.410156"/>
       <use xlink:href="#DejaVuSans-30" x="159.033203"/>
      </g>
     </g>
    </g>
    <g id="text_12">
     <!-- Probability -->
     <g style="fill: #262626" transform="translate(20.877188 164.225859) rotate(-90) scale(0.18 -0.18)">
      <defs>
       <path id="DejaVuSans-50" d="M 1259 4147 
L 1259 2394 
L 2053 2394 
Q 2494 2394 2734 2622 
Q 2975 2850 2975 3272 
Q 2975 3691 2734 3919 
Q 2494 4147 2053 4147 
L 1259 4147 
z
M 628 4666 
L 2053 4666 
Q 2838 4666 3239 4311 
Q 3641 3956 3641 3272 
Q 3641 2581 3239 2228 
Q 2838 1875 2053 1875 
L 1259 1875 
L 1259 0 
L 628 0 
L 628 4666 
z
" transform="scale(0.015625)"/>
       <path id="DejaVuSans-72" d="M 2631 2963 
Q 2534 3019 2420 3045 
Q 2306 3072 2169 3072 
Q 1681 3072 1420 2755 
Q 1159 2438 1159 1844 
L 1159 0 
L 581 0 
L 581 3500 
L 1159 3500 
L 1159 2956 
Q 1341 3275 1631 3429 
Q 1922 3584 2338 3584 
Q 2397 3584 2469 3576 
Q 2541 3569 2628 3553 
L 2631 2963 
z
" transform="scale(0.015625)"/>
       <path id="DejaVuSans-62" d="M 3116 1747 
Q 3116 2381 2855 2742 
Q 2594 3103 2138 3103 
Q 1681 3103 1420 2742 
Q 1159 2381 1159 1747 
Q 1159 1113 1420 752 
Q 1681 391 2138 391 
Q 2594 391 2855 752 
Q 3116 1113 3116 1747 
z
M 1159 2969 
Q 1341 3281 1617 3432 
Q 1894 3584 2278 3584 
Q 2916 3584 3314 3078 
Q 3713 2572 3713 1747 
Q 3713 922 3314 415 
Q 2916 -91 2278 -91 
Q 1894 -91 1617 61 
Q 1341 213 1159 525 
L 1159 0 
L 581 0 
L 581 4863 
L 1159 4863 
L 1159 2969 
z
" transform="scale(0.015625)"/>
       <path id="DejaVuSans-61" d="M 2194 1759 
Q 1497 1759 1228 1600 
Q 959 1441 959 1056 
Q 959 750 1161 570 
Q 1363 391 1709 391 
Q 2188 391 2477 730 
Q 2766 1069 2766 1631 
L 2766 1759 
L 2194 1759 
z
M 3341 1997 
L 3341 0 
L 2766 0 
L 2766 531 
Q 2569 213 2275 61 
Q 1981 -91 1556 -91 
Q 1019 -91 701 211 
Q 384 513 384 1019 
Q 384 1609 779 1909 
Q 1175 2209 1959 2209 
L 2766 2209 
L 2766 2266 
Q 2766 2663 2505 2880 
Q 2244 3097 1772 3097 
Q 1472 3097 1187 3025 
Q 903 2953 641 2809 
L 641 3341 
Q 956 3463 1253 3523 
Q 1550 3584 1831 3584 
Q 2591 3584 2966 3190 
Q 3341 2797 3341 1997 
z
" transform="scale(0.015625)"/>
       <path id="DejaVuSans-79" d="M 2059 -325 
Q 1816 -950 1584 -1140 
Q 1353 -1331 966 -1331 
L 506 -1331 
L 506 -850 
L 844 -850 
Q 1081 -850 1212 -737 
Q 1344 -625 1503 -206 
L 1606 56 
L 191 3500 
L 800 3500 
L 1894 763 
L 2988 3500 
L 3597 3500 
L 2059 -325 
z
" transform="scale(0.015625)"/>
      </defs>
      <use xlink:href="#DejaVuSans-50"/>
      <use xlink:href="#DejaVuSans-72" x="58.552734"/>
      <use xlink:href="#DejaVuSans-6f" x="97.416016"/>
      <use xlink:href="#DejaVuSans-62" x="158.597656"/>
      <use xlink:href="#DejaVuSans-61" x="222.074219"/>
      <use xlink:href="#DejaVuSans-62" x="283.353516"/>
      <use xlink:href="#DejaVuSans-69" x="346.830078"/>
      <use xlink:href="#DejaVuSans-6c" x="374.613281"/>
      <use xlink:href="#DejaVuSans-69" x="402.396484"/>
      <use xlink:href="#DejaVuSans-74" x="430.179688"/>
      <use xlink:href="#DejaVuSans-79" x="469.388672"/>
     </g>
    </g>
   </g>
   <g id="PatchCollection_1">
    <path d="M 86.071836 206.430469 
L 102.497695 206.430469 
L 102.497695 -1012.385787 
L 86.071836 -1012.385787 
z
" clip-path="url(#p3299c7282d)" style="fill: #de5d5c; fill-opacity: 0.2; stroke: #de5d5c; stroke-width: 1.5"/>
    <path d="M 102.497695 206.430469 
L 118.923555 206.430469 
L 118.923555 -86.608777 
L 102.497695 -86.608777 
z
" clip-path="url(#p3299c7282d)" style="fill: #de5d5c; fill-opacity: 0.2; stroke: #de5d5c; stroke-width: 1.5"/>
    <path d="M 118.923555 206.430469 
L 135.349414 206.430469 
L 135.349414 78.83268 
L 118.923555 78.83268 
z
" clip-path="url(#p3299c7282d)" style="fill: #de5d5c; fill-opacity: 0.2; stroke: #de5d5c; stroke-width: 1.5"/>
    <path d="M 135.349414 206.430469 
L 151.775273 206.430469 
L 151.775273 158.287345 
L 135.349414 158.287345 
z
" clip-path="url(#p3299c7282d)" style="fill: #de5d5c; fill-opacity: 0.2; stroke: #de5d5c; stroke-width: 1.5"/>
    <path d="M 151.775273 206.430469 
L 168.201133 206.430469 
L 168.201133 180.073198 
L 151.775273 180.073198 
z
" clip-path="url(#p3299c7282d)" style="fill: #de5d5c; fill-opacity: 0.2; stroke: #de5d5c; stroke-width: 1.5"/>
    <path d="M 168.201133 206.430469 
L 184.626992 206.430469 
L 184.626992 189.428276 
L 168.201133 189.428276 
z
" clip-path="url(#p3299c7282d)" style="fill: #de5d5c; fill-opacity: 0.2; stroke: #de5d5c; stroke-width: 1.5"/>
    <path d="M 184.626992 206.430469 
L 201.052852 206.430469 
L 201.052852 197.508617 
L 184.626992 197.508617 
z
" clip-path="url(#p3299c7282d)" style="fill: #de5d5c; fill-opacity: 0.2; stroke: #de5d5c; stroke-width: 1.5"/>
    <path d="M 201.052852 206.430469 
L 217.478711 206.430469 
L 217.478711 198.684678 
L 201.052852 198.684678 
z
" clip-path="url(#p3299c7282d)" style="fill: #de5d5c; fill-opacity: 0.2; stroke: #de5d5c; stroke-width: 1.5"/>
    <path d="M 217.478711 206.430469 
L 233.90457 206.430469 
L 233.90457 200.5152 
L 217.478711 200.5152 
z
" clip-path="url(#p3299c7282d)" style="fill: #de5d5c; fill-opacity: 0.2; stroke: #de5d5c; stroke-width: 1.5"/>
    <path d="M 233.90457 206.430469 
L 250.33043 206.430469 
L 250.33043 201.83901 
L 233.90457 201.83901 
z
" clip-path="url(#p3299c7282d)" style="fill: #de5d5c; fill-opacity: 0.2; stroke: #de5d5c; stroke-width: 1.5"/>
    <path d="M 250.33043 206.430469 
L 266.756289 206.430469 
L 266.756289 202.276083 
L 250.33043 202.276083 
z
" clip-path="url(#p3299c7282d)" style="fill: #de5d5c; fill-opacity: 0.2; stroke: #de5d5c; stroke-width: 1.5"/>
    <path d="M 266.756289 206.430469 
L 283.182148 206.430469 
L 283.182148 202.8681 
L 266.756289 202.8681 
z
" clip-path="url(#p3299c7282d)" style="fill: #de5d5c; fill-opacity: 0.2; stroke: #de5d5c; stroke-width: 1.5"/>
    <path d="M 283.182148 206.430469 
L 299.608008 206.430469 
L 299.608008 203.16462 
L 283.182148 203.16462 
z
" clip-path="url(#p3299c7282d)" style="fill: #de5d5c; fill-opacity: 0.2; stroke: #de5d5c; stroke-width: 1.5"/>
    <path d="M 299.608008 206.430469 
L 316.033867 206.430469 
L 316.033867 204.289809 
L 299.608008 204.289809 
z
" clip-path="url(#p3299c7282d)" style="fill: #de5d5c; fill-opacity: 0.2; stroke: #de5d5c; stroke-width: 1.5"/>
    <path d="M 316.033867 206.430469 
L 332.459727 206.430469 
L 332.459727 204.442055 
L 316.033867 204.442055 
z
" clip-path="url(#p3299c7282d)" style="fill: #de5d5c; fill-opacity: 0.2; stroke: #de5d5c; stroke-width: 1.5"/>
    <path d="M 332.459727 206.430469 
L 348.885586 206.430469 
L 348.885586 203.266116 
L 332.459727 203.266116 
z
" clip-path="url(#p3299c7282d)" style="fill: #de5d5c; fill-opacity: 0.2; stroke: #de5d5c; stroke-width: 1.5"/>
    <path d="M 348.885586 206.430469 
L 365.311445 206.430469 
L 365.311445 204.972528 
L 348.885586 204.972528 
z
" clip-path="url(#p3299c7282d)" style="fill: #de5d5c; fill-opacity: 0.2; stroke: #de5d5c; stroke-width: 1.5"/>
    <path d="M 365.311445 206.430469 
L 381.737305 206.430469 
L 381.737305 205.097664 
L 365.311445 205.097664 
z
" clip-path="url(#p3299c7282d)" style="fill: #de5d5c; fill-opacity: 0.2; stroke: #de5d5c; stroke-width: 1.5"/>
    <path d="M 381.737305 206.430469 
L 398.163164 206.430469 
L 398.163164 204.86281 
L 381.737305 204.86281 
z
" clip-path="url(#p3299c7282d)" style="fill: #de5d5c; fill-opacity: 0.2; stroke: #de5d5c; stroke-width: 1.5"/>
    <path d="M 398.163164 206.430469 
L 414.589023 206.430469 
L 414.589023 204.514641 
L 398.163164 204.514641 
z
" clip-path="url(#p3299c7282d)" style="fill: #de5d5c; fill-opacity: 0.2; stroke: #de5d5c; stroke-width: 1.5"/>
    <path d="M 414.589023 206.430469 
L 431.014883 206.430469 
L 431.014883 205.596791 
L 414.589023 205.596791 
z
" clip-path="url(#p3299c7282d)" style="fill: #de5d5c; fill-opacity: 0.2; stroke: #de5d5c; stroke-width: 1.5"/>
    <path d="M 431.014883 206.430469 
L 447.440742 206.430469 
L 447.440742 205.308878 
L 431.014883 205.308878 
z
" clip-path="url(#p3299c7282d)" style="fill: #de5d5c; fill-opacity: 0.2; stroke: #de5d5c; stroke-width: 1.5"/>
    <path d="M 447.440742 206.430469 
L 463.866602 206.430469 
L 463.866602 205.070427 
L 447.440742 205.070427 
z
" clip-path="url(#p3299c7282d)" style="fill: #de5d5c; fill-opacity: 0.2; stroke: #de5d5c; stroke-width: 1.5"/>
    <path d="M 463.866602 206.430469 
L 480.292461 206.430469 
L 480.292461 205.931341 
L 463.866602 205.931341 
z
" clip-path="url(#p3299c7282d)" style="fill: #de5d5c; fill-opacity: 0.2; stroke: #de5d5c; stroke-width: 1.5"/>
    <path d="M 480.292461 206.430469 
L 496.71832 206.430469 
L 496.71832 205.596791 
L 480.292461 205.596791 
z
" clip-path="url(#p3299c7282d)" style="fill: #de5d5c; fill-opacity: 0.2; stroke: #de5d5c; stroke-width: 1.5"/>
    <path d="M 496.71832 206.430469 
L 513.14418 206.430469 
L 513.14418 205.264939 
L 496.71832 205.264939 
z
" clip-path="url(#p3299c7282d)" style="fill: #de5d5c; fill-opacity: 0.2; stroke: #de5d5c; stroke-width: 1.5"/>
    <path d="M 513.14418 206.430469 
L 529.570039 206.430469 
L 529.570039 205.443008 
L 513.14418 205.443008 
z
" clip-path="url(#p3299c7282d)" style="fill: #de5d5c; fill-opacity: 0.2; stroke: #de5d5c; stroke-width: 1.5"/>
    <path d="M 529.570039 206.430469 
L 545.995898 206.430469 
L 545.995898 204.194607 
L 529.570039 204.194607 
z
" clip-path="url(#p3299c7282d)" style="fill: #de5d5c; fill-opacity: 0.2; stroke: #de5d5c; stroke-width: 1.5"/>
    <path d="M 545.995898 206.430469 
L 562.421758 206.430469 
L 562.421758 205.764066 
L 545.995898 205.764066 
z
" clip-path="url(#p3299c7282d)" style="fill: #de5d5c; fill-opacity: 0.2; stroke: #de5d5c; stroke-width: 1.5"/>
    <path d="M 562.421758 206.430469 
L 578.847617 206.430469 
L 578.847617 205.071839 
L 562.421758 205.071839 
z
" clip-path="url(#p3299c7282d)" style="fill: #de5d5c; fill-opacity: 0.2; stroke: #de5d5c; stroke-width: 1.5"/>
    <path d="M 578.847617 206.430469 
L 595.273477 206.430469 
L 595.273477 205.270336 
L 578.847617 205.270336 
z
" clip-path="url(#p3299c7282d)" style="fill: #de5d5c; fill-opacity: 0.2; stroke: #de5d5c; stroke-width: 1.5"/>
    <path d="M 611.699336 206.430469 
L 628.125195 206.430469 
L 628.125195 206.095918 
L 611.699336 206.095918 
z
" clip-path="url(#p3299c7282d)" style="fill: #de5d5c; fill-opacity: 0.2; stroke: #de5d5c; stroke-width: 1.5"/>
    <path d="M 628.125195 206.430469 
L 644.551055 206.430469 
L 644.551055 205.93404 
L 628.125195 205.93404 
z
" clip-path="url(#p3299c7282d)" style="fill: #de5d5c; fill-opacity: 0.2; stroke: #de5d5c; stroke-width: 1.5"/>
    <path d="M 644.551055 206.430469 
L 660.976914 206.430469 
L 660.976914 205.764066 
L 644.551055 205.764066 
z
" clip-path="url(#p3299c7282d)" style="fill: #de5d5c; fill-opacity: 0.2; stroke: #de5d5c; stroke-width: 1.5"/>
    <path d="M 660.976914 206.430469 
L 677.402773 206.430469 
L 677.402773 206.095918 
L 660.976914 206.095918 
z
" clip-path="url(#p3299c7282d)" style="fill: #de5d5c; fill-opacity: 0.2; stroke: #de5d5c; stroke-width: 1.5"/>
    <path d="M 677.402773 206.430469 
L 693.828633 206.430469 
L 693.828633 206.095918 
L 677.402773 206.095918 
z
" clip-path="url(#p3299c7282d)" style="fill: #de5d5c; fill-opacity: 0.2; stroke: #de5d5c; stroke-width: 1.5"/>
    <path d="M 693.828633 206.430469 
L 710.254492 206.430469 
L 710.254492 205.443008 
L 693.828633 205.443008 
z
" clip-path="url(#p3299c7282d)" style="fill: #de5d5c; fill-opacity: 0.2; stroke: #de5d5c; stroke-width: 1.5"/>
    <path d="M 710.254492 206.430469 
L 726.680352 206.430469 
L 726.680352 205.772162 
L 710.254492 205.772162 
z
" clip-path="url(#p3299c7282d)" style="fill: #de5d5c; fill-opacity: 0.2; stroke: #de5d5c; stroke-width: 1.5"/>
    <path d="M 726.680352 206.430469 
L 743.106211 206.430469 
L 743.106211 206.098617 
L 726.680352 206.098617 
z
" clip-path="url(#p3299c7282d)" style="fill: #de5d5c; fill-opacity: 0.2; stroke: #de5d5c; stroke-width: 1.5"/>
    <path d="M 743.106211 206.430469 
L 759.53207 206.430469 
L 759.53207 205.769463 
L 743.106211 205.769463 
z
" clip-path="url(#p3299c7282d)" style="fill: #de5d5c; fill-opacity: 0.2; stroke: #de5d5c; stroke-width: 1.5"/>
    <path d="M 759.53207 206.430469 
L 775.95793 206.430469 
L 775.95793 206.095918 
L 759.53207 206.095918 
z
" clip-path="url(#p3299c7282d)" style="fill: #de5d5c; fill-opacity: 0.2; stroke: #de5d5c; stroke-width: 1.5"/>
    <path d="M 775.95793 206.430469 
L 792.383789 206.430469 
L 792.383789 206.101315 
L 775.95793 206.101315 
z
" clip-path="url(#p3299c7282d)" style="fill: #de5d5c; fill-opacity: 0.2; stroke: #de5d5c; stroke-width: 1.5"/>
    <path d="M 792.383789 206.430469 
L 808.809648 206.430469 
L 808.809648 205.764066 
L 792.383789 205.764066 
z
" clip-path="url(#p3299c7282d)" style="fill: #de5d5c; fill-opacity: 0.2; stroke: #de5d5c; stroke-width: 1.5"/>
    <path d="M 808.809648 206.430469 
L 825.235508 206.430469 
L 825.235508 206.101315 
L 808.809648 206.101315 
z
" clip-path="url(#p3299c7282d)" style="fill: #de5d5c; fill-opacity: 0.2; stroke: #de5d5c; stroke-width: 1.5"/>
    <path d="M 825.235508 206.430469 
L 841.661367 206.430469 
L 841.661367 206.095918 
L 825.235508 206.095918 
z
" clip-path="url(#p3299c7282d)" style="fill: #de5d5c; fill-opacity: 0.2; stroke: #de5d5c; stroke-width: 1.5"/>
    <path d="M 874.513086 206.430469 
L 890.938945 206.430469 
L 890.938945 206.098617 
L 874.513086 206.098617 
z
" clip-path="url(#p3299c7282d)" style="fill: #de5d5c; fill-opacity: 0.2; stroke: #de5d5c; stroke-width: 1.5"/>
    <path d="M 890.938945 206.430469 
L 907.364805 206.430469 
L 907.364805 203.60298 
L 890.938945 203.60298 
z
" clip-path="url(#p3299c7282d)" style="fill: #de5d5c; fill-opacity: 0.2; stroke: #de5d5c; stroke-width: 1.5"/>
   </g>
   <g id="line2d_11">
    <path d="M 122.144407 -1 
L 127.136484 76.189228 
L 143.562344 156.703912 
L 159.988203 183.381737 
L 176.414062 192.965502 
L 192.839922 196.938844 
L 209.265781 198.960539 
L 225.691641 200.226841 
L 242.1175 201.146179 
L 258.543359 201.869665 
L 274.969219 202.46155 
L 291.395078 202.954926 
L 307.820938 203.370397 
L 324.246797 204.193416 
L 340.672656 204.022867 
L 357.098516 204.280046 
L 373.524375 205.093869 
L 389.950234 204.69277 
L 406.376094 204.85902 
L 422.801953 205.619625 
L 439.227813 205.131279 
L 455.653672 205.243263 
L 472.079531 205.932092 
L 488.505391 206.005651 
L 504.93125 206.067937 
L 521.357109 206.348922 
L 537.782969 205.27995 
L 554.208828 206.203771 
L 570.634688 205.430477 
L 587.060547 206.263954 
L 619.912266 206.204639 
L 624.52 206.238421 
" clip-path="url(#p3299c7282d)" style="fill: none; stroke: #262626; stroke-width: 2.25; stroke-linecap: round"/>
   </g>
   <g id="line2d_12">
    <path d="M 121.009517 -1 
L 127.136484 92.52569 
L 143.562344 170.391387 
L 159.988203 194.902772 
L 176.414062 202.709412 
L 192.839922 205.220334 
L 209.265781 206.034535 
L 225.691641 206.3003 
L 242.1175 206.38751 
L 258.543359 206.416249 
L 274.969219 206.425751 
L 291.395078 206.4289 
L 307.820938 206.429947 
L 324.246797 206.430356 
L 340.672656 206.430411 
L 357.098516 206.430449 
L 373.524375 206.430465 
L 389.950234 206.430467 
L 406.376094 206.430468 
L 422.801953 206.430469 
L 439.227813 206.430469 
L 455.653672 206.430469 
L 472.079531 206.430469 
L 488.505391 206.430469 
L 504.93125 206.430469 
L 521.357109 206.430469 
L 537.782969 206.430469 
L 554.208828 206.430469 
L 570.634688 206.430469 
L 587.060547 206.430469 
L 619.912266 206.430469 
L 624.52 206.430469 
" clip-path="url(#p3299c7282d)" style="fill: none; stroke-dasharray: 8.325,3.6; stroke-dashoffset: 0; stroke: #006400; stroke-opacity: 0.7; stroke-width: 2.25"/>
   </g>
   <g id="line2d_13">
    <path d="M 94.284766 182.852319 
L 110.710625 186.845821 
L 127.136484 190.094007 
L 143.562344 192.742994 
L 159.988203 194.909434 
L 176.414062 196.68656 
L 192.839922 198.148979 
L 209.265781 199.356472 
L 225.691641 200.357009 
L 242.1175 201.189137 
L 258.543359 201.883885 
L 274.969219 202.466268 
L 291.395078 202.956495 
L 307.820938 203.370919 
L 324.246797 204.193529 
L 340.672656 204.022925 
L 357.098516 204.280065 
L 373.524375 205.093873 
L 389.950234 204.692772 
L 406.376094 204.85902 
L 422.801953 205.619626 
L 439.227813 205.131279 
L 455.653672 205.243263 
L 472.079531 205.932092 
L 488.505391 206.005651 
L 504.93125 206.067937 
L 521.357109 206.348922 
L 537.782969 205.27995 
L 554.208828 206.203771 
L 570.634688 205.430477 
L 587.060547 206.263954 
L 619.912266 206.204639 
L 624.52 206.238421 
" clip-path="url(#p3299c7282d)" style="fill: none; stroke-dasharray: 8.325,3.6; stroke-dashoffset: 0; stroke: #ff00ff; stroke-opacity: 0.7; stroke-width: 2.25"/>
   </g>
   <g id="patch_3">
    <path d="M 77.858906 206.430469 
L 77.858906 26.877187 
" style="fill: none; stroke: #ffffff; stroke-width: 1.875; stroke-linejoin: miter; stroke-linecap: square"/>
   </g>
   <g id="patch_4">
    <path d="M 324.246797 206.430469 
L 324.246797 26.877187 
" style="fill: none; stroke: #ffffff; stroke-width: 1.875; stroke-linejoin: miter; stroke-linecap: square"/>
   </g>
   <g id="patch_5">
    <path d="M 77.858906 206.430469 
L 324.246797 206.430469 
" style="fill: none; stroke: #ffffff; stroke-width: 1.875; stroke-linejoin: miter; stroke-linecap: square"/>
   </g>
   <g id="patch_6">
    <path d="M 77.858906 26.877187 
L 324.246797 26.877187 
" style="fill: none; stroke: #ffffff; stroke-width: 1.875; stroke-linejoin: miter; stroke-linecap: square"/>
   </g>
   <g id="text_13">
    <!-- Ciprofloxacin 0 ng/ml -->
    <g transform="translate(105.498164 20.877187) scale(0.18 -0.18)">
     <defs>
      <path id="DejaVuSans-43" d="M 4122 4306 
L 4122 3641 
Q 3803 3938 3442 4084 
Q 3081 4231 2675 4231 
Q 1875 4231 1450 3742 
Q 1025 3253 1025 2328 
Q 1025 1406 1450 917 
Q 1875 428 2675 428 
Q 3081 428 3442 575 
Q 3803 722 4122 1019 
L 4122 359 
Q 3791 134 3420 21 
Q 3050 -91 2638 -91 
Q 1578 -91 968 557 
Q 359 1206 359 2328 
Q 359 3453 968 4101 
Q 1578 4750 2638 4750 
Q 3056 4750 3426 4639 
Q 3797 4528 4122 4306 
z
" transform="scale(0.015625)"/>
      <path id="DejaVuSans-78" d="M 3513 3500 
L 2247 1797 
L 3578 0 
L 2900 0 
L 1881 1375 
L 863 0 
L 184 0 
L 1544 1831 
L 300 3500 
L 978 3500 
L 1906 2253 
L 2834 3500 
L 3513 3500 
z
" transform="scale(0.015625)"/>
      <path id="DejaVuSans-6e" d="M 3513 2113 
L 3513 0 
L 2938 0 
L 2938 2094 
Q 2938 2591 2744 2837 
Q 2550 3084 2163 3084 
Q 1697 3084 1428 2787 
Q 1159 2491 1159 1978 
L 1159 0 
L 581 0 
L 581 3500 
L 1159 3500 
L 1159 2956 
Q 1366 3272 1645 3428 
Q 1925 3584 2291 3584 
Q 2894 3584 3203 3211 
Q 3513 2838 3513 2113 
z
" transform="scale(0.015625)"/>
      <path id="DejaVuSans-67" d="M 2906 1791 
Q 2906 2416 2648 2759 
Q 2391 3103 1925 3103 
Q 1463 3103 1205 2759 
Q 947 2416 947 1791 
Q 947 1169 1205 825 
Q 1463 481 1925 481 
Q 2391 481 2648 825 
Q 2906 1169 2906 1791 
z
M 3481 434 
Q 3481 -459 3084 -895 
Q 2688 -1331 1869 -1331 
Q 1566 -1331 1297 -1286 
Q 1028 -1241 775 -1147 
L 775 -588 
Q 1028 -725 1275 -790 
Q 1522 -856 1778 -856 
Q 2344 -856 2625 -561 
Q 2906 -266 2906 331 
L 2906 616 
Q 2728 306 2450 153 
Q 2172 0 1784 0 
Q 1141 0 747 490 
Q 353 981 353 1791 
Q 353 2603 747 3093 
Q 1141 3584 1784 3584 
Q 2172 3584 2450 3431 
Q 2728 3278 2906 2969 
L 2906 3500 
L 3481 3500 
L 3481 434 
z
" transform="scale(0.015625)"/>
      <path id="DejaVuSans-2f" d="M 1625 4666 
L 2156 4666 
L 531 -594 
L 0 -594 
L 1625 4666 
z
" transform="scale(0.015625)"/>
     </defs>
     <use xlink:href="#DejaVuSans-43"/>
     <use xlink:href="#DejaVuSans-69" x="69.824219"/>
     <use xlink:href="#DejaVuSans-70" x="97.607422"/>
     <use xlink:href="#DejaVuSans-72" x="161.083984"/>
     <use xlink:href="#DejaVuSans-6f" x="199.947266"/>
     <use xlink:href="#DejaVuSans-66" x="261.128906"/>
     <use xlink:href="#DejaVuSans-6c" x="296.333984"/>
     <use xlink:href="#DejaVuSans-6f" x="324.117188"/>
     <use xlink:href="#DejaVuSans-78" x="382.173828"/>
     <use xlink:href="#DejaVuSans-61" x="441.353516"/>
     <use xlink:href="#DejaVuSans-63" x="502.632812"/>
     <use xlink:href="#DejaVuSans-69" x="557.613281"/>
     <use xlink:href="#DejaVuSans-6e" x="585.396484"/>
     <use xlink:href="#DejaVuSans-20" x="648.775391"/>
     <use xlink:href="#DejaVuSans-30" x="680.5625"/>
     <use xlink:href="#DejaVuSans-20" x="744.185547"/>
     <use xlink:href="#DejaVuSans-6e" x="775.972656"/>
     <use xlink:href="#DejaVuSans-67" x="839.351562"/>
     <use xlink:href="#DejaVuSans-2f" x="902.828125"/>
     <use xlink:href="#DejaVuSans-6d" x="936.519531"/>
     <use xlink:href="#DejaVuSans-6c" x="1033.931641"/>
    </g>
   </g>
  </g>
  <g id="axes_2">
   <g id="patch_7">
    <path d="M 359.433984 206.430469 
L 605.821875 206.430469 
L 605.821875 26.877187 
L 359.433984 26.877187 
z
" style="fill: #eaeaf2"/>
   </g>
   <g id="matplotlib.axis_3">
    <g id="xtick_5">
     <g id="line2d_14">
      <path d="M 359.433984 206.430469 
L 359.433984 26.877187 
" clip-path="url(#p4b1207fc4f)" style="fill: none; stroke: #ffffff; stroke-width: 1.5; stroke-linecap: round"/>
     </g>
     <g id="text_14">
      <!-- 0 -->
      <g style="fill: #262626" transform="translate(354.184922 231.467891) scale(0.165 -0.165)">
       <use xlink:href="#DejaVuSans-30"/>
      </g>
     </g>
    </g>
    <g id="xtick_6">
     <g id="line2d_15">
      <path d="M 441.563281 206.430469 
L 441.563281 26.877187 
" clip-path="url(#p4b1207fc4f)" style="fill: none; stroke: #ffffff; stroke-width: 1.5; stroke-linecap: round"/>
     </g>
     <g id="text_15">
      <!-- 10 -->
      <g style="fill: #262626" transform="translate(431.065156 231.467891) scale(0.165 -0.165)">
       <use xlink:href="#DejaVuSans-31"/>
       <use xlink:href="#DejaVuSans-30" x="63.623047"/>
      </g>
     </g>
    </g>
    <g id="xtick_7">
     <g id="line2d_16">
      <path d="M 523.692578 206.430469 
L 523.692578 26.877187 
" clip-path="url(#p4b1207fc4f)" style="fill: none; stroke: #ffffff; stroke-width: 1.5; stroke-linecap: round"/>
     </g>
     <g id="text_16">
      <!-- 20 -->
      <g style="fill: #262626" transform="translate(513.194453 231.467891) scale(0.165 -0.165)">
       <use xlink:href="#DejaVuSans-32"/>
       <use xlink:href="#DejaVuSans-30" x="63.623047"/>
      </g>
     </g>
    </g>
    <g id="xtick_8">
     <g id="line2d_17">
      <path d="M 605.821875 206.430469 
L 605.821875 26.877187 
" clip-path="url(#p4b1207fc4f)" style="fill: none; stroke: #ffffff; stroke-width: 1.5; stroke-linecap: round"/>
     </g>
     <g id="text_17">
      <!-- 30 -->
      <g style="fill: #262626" transform="translate(595.32375 231.467891) scale(0.165 -0.165)">
       <use xlink:href="#DejaVuSans-33"/>
       <use xlink:href="#DejaVuSans-30" x="63.623047"/>
      </g>
     </g>
    </g>
    <g id="text_18">
     <!-- Spot lifetime (sec) -->
     <g style="fill: #262626" transform="translate(400.207617 252.576562) scale(0.18 -0.18)">
      <use xlink:href="#DejaVuSans-53"/>
      <use xlink:href="#DejaVuSans-70" x="63.476562"/>
      <use xlink:href="#DejaVuSans-6f" x="126.953125"/>
      <use xlink:href="#DejaVuSans-74" x="188.134766"/>
      <use xlink:href="#DejaVuSans-20" x="227.34375"/>
      <use xlink:href="#DejaVuSans-6c" x="259.130859"/>
      <use xlink:href="#DejaVuSans-69" x="286.914062"/>
      <use xlink:href="#DejaVuSans-66" x="314.697266"/>
      <use xlink:href="#DejaVuSans-65" x="349.902344"/>
      <use xlink:href="#DejaVuSans-74" x="411.425781"/>
      <use xlink:href="#DejaVuSans-69" x="450.634766"/>
      <use xlink:href="#DejaVuSans-6d" x="478.417969"/>
      <use xlink:href="#DejaVuSans-65" x="575.830078"/>
      <use xlink:href="#DejaVuSans-20" x="637.353516"/>
      <use xlink:href="#DejaVuSans-28" x="669.140625"/>
      <use xlink:href="#DejaVuSans-73" x="708.154297"/>
      <use xlink:href="#DejaVuSans-65" x="760.253906"/>
      <use xlink:href="#DejaVuSans-63" x="821.777344"/>
      <use xlink:href="#DejaVuSans-29" x="876.757812"/>
     </g>
    </g>
   </g>
   <g id="matplotlib.axis_4">
    <g id="ytick_7">
     <g id="line2d_18">
      <path d="M 359.433984 206.430469 
L 605.821875 206.430469 
" clip-path="url(#p4b1207fc4f)" style="fill: none; stroke: #ffffff; stroke-width: 1.5; stroke-linecap: round"/>
     </g>
    </g>
    <g id="ytick_8">
     <g id="line2d_19">
      <path d="M 359.433984 170.519812 
L 605.821875 170.519812 
" clip-path="url(#p4b1207fc4f)" style="fill: none; stroke: #ffffff; stroke-width: 1.5; stroke-linecap: round"/>
     </g>
    </g>
    <g id="ytick_9">
     <g id="line2d_20">
      <path d="M 359.433984 134.609156 
L 605.821875 134.609156 
" clip-path="url(#p4b1207fc4f)" style="fill: none; stroke: #ffffff; stroke-width: 1.5; stroke-linecap: round"/>
     </g>
    </g>
    <g id="ytick_10">
     <g id="line2d_21">
      <path d="M 359.433984 98.6985 
L 605.821875 98.6985 
" clip-path="url(#p4b1207fc4f)" style="fill: none; stroke: #ffffff; stroke-width: 1.5; stroke-linecap: round"/>
     </g>
    </g>
    <g id="ytick_11">
     <g id="line2d_22">
      <path d="M 359.433984 62.787844 
L 605.821875 62.787844 
" clip-path="url(#p4b1207fc4f)" style="fill: none; stroke: #ffffff; stroke-width: 1.5; stroke-linecap: round"/>
     </g>
    </g>
    <g id="ytick_12">
     <g id="line2d_23">
      <path d="M 359.433984 26.877187 
L 605.821875 26.877187 
" clip-path="url(#p4b1207fc4f)" style="fill: none; stroke: #ffffff; stroke-width: 1.5; stroke-linecap: round"/>
     </g>
    </g>
   </g>
   <g id="PatchCollection_2">
    <path d="M 367.646914 206.430469 
L 384.072773 206.430469 
L 384.072773 -996.617232 
L 367.646914 -996.617232 
z
" clip-path="url(#p4b1207fc4f)" style="fill: #9a3670; fill-opacity: 0.2; stroke: #9a3670; stroke-width: 1.5"/>
    <path d="M 384.072773 206.430469 
L 400.498633 206.430469 
L 400.498633 -113.35291 
L 384.072773 -113.35291 
z
" clip-path="url(#p4b1207fc4f)" style="fill: #9a3670; fill-opacity: 0.2; stroke: #9a3670; stroke-width: 1.5"/>
    <path d="M 400.498633 206.430469 
L 416.924492 206.430469 
L 416.924492 95.840351 
L 400.498633 95.840351 
z
" clip-path="url(#p4b1207fc4f)" style="fill: #9a3670; fill-opacity: 0.2; stroke: #9a3670; stroke-width: 1.5"/>
    <path d="M 416.924492 206.430469 
L 433.350352 206.430469 
L 433.350352 157.750113 
L 416.924492 157.750113 
z
" clip-path="url(#p4b1207fc4f)" style="fill: #9a3670; fill-opacity: 0.2; stroke: #9a3670; stroke-width: 1.5"/>
    <path d="M 433.350352 206.430469 
L 449.776211 206.430469 
L 449.776211 180.108942 
L 433.350352 180.108942 
z
" clip-path="url(#p4b1207fc4f)" style="fill: #9a3670; fill-opacity: 0.2; stroke: #9a3670; stroke-width: 1.5"/>
    <path d="M 449.776211 206.430469 
L 466.20207 206.430469 
L 466.20207 187.617296 
L 449.776211 187.617296 
z
" clip-path="url(#p4b1207fc4f)" style="fill: #9a3670; fill-opacity: 0.2; stroke: #9a3670; stroke-width: 1.5"/>
    <path d="M 466.20207 206.430469 
L 482.62793 206.430469 
L 482.62793 195.26309 
L 466.20207 195.26309 
z
" clip-path="url(#p4b1207fc4f)" style="fill: #9a3670; fill-opacity: 0.2; stroke: #9a3670; stroke-width: 1.5"/>
    <path d="M 482.62793 206.430469 
L 499.053789 206.430469 
L 499.053789 199.087372 
L 482.62793 199.087372 
z
" clip-path="url(#p4b1207fc4f)" style="fill: #9a3670; fill-opacity: 0.2; stroke: #9a3670; stroke-width: 1.5"/>
    <path d="M 499.053789 206.430469 
L 515.479648 206.430469 
L 515.479648 200.915393 
L 499.053789 200.915393 
z
" clip-path="url(#p4b1207fc4f)" style="fill: #9a3670; fill-opacity: 0.2; stroke: #9a3670; stroke-width: 1.5"/>
    <path d="M 515.479648 206.430469 
L 531.905508 206.430469 
L 531.905508 202.0665 
L 515.479648 202.0665 
z
" clip-path="url(#p4b1207fc4f)" style="fill: #9a3670; fill-opacity: 0.2; stroke: #9a3670; stroke-width: 1.5"/>
    <path d="M 531.905508 206.430469 
L 548.331367 206.430469 
L 548.331367 200.214406 
L 531.905508 200.214406 
z
" clip-path="url(#p4b1207fc4f)" style="fill: #9a3670; fill-opacity: 0.2; stroke: #9a3670; stroke-width: 1.5"/>
    <path d="M 548.331367 206.430469 
L 564.757227 206.430469 
L 564.757227 201.846645 
L 548.331367 201.846645 
z
" clip-path="url(#p4b1207fc4f)" style="fill: #9a3670; fill-opacity: 0.2; stroke: #9a3670; stroke-width: 1.5"/>
    <path d="M 564.757227 206.430469 
L 581.183086 206.430469 
L 581.183086 202.575175 
L 564.757227 202.575175 
z
" clip-path="url(#p4b1207fc4f)" style="fill: #9a3670; fill-opacity: 0.2; stroke: #9a3670; stroke-width: 1.5"/>
    <path d="M 581.183086 206.430469 
L 597.608945 206.430469 
L 597.608945 203.231485 
L 581.183086 203.231485 
z
" clip-path="url(#p4b1207fc4f)" style="fill: #9a3670; fill-opacity: 0.2; stroke: #9a3670; stroke-width: 1.5"/>
    <path d="M 597.608945 206.430469 
L 614.034805 206.430469 
L 614.034805 204.064739 
L 597.608945 204.064739 
z
" clip-path="url(#p4b1207fc4f)" style="fill: #9a3670; fill-opacity: 0.2; stroke: #9a3670; stroke-width: 1.5"/>
    <path d="M 614.034805 206.430469 
L 630.460664 206.430469 
L 630.460664 204.822303 
L 614.034805 204.822303 
z
" clip-path="url(#p4b1207fc4f)" style="fill: #9a3670; fill-opacity: 0.2; stroke: #9a3670; stroke-width: 1.5"/>
    <path d="M 630.460664 206.430469 
L 646.886523 206.430469 
L 646.886523 205.056037 
L 630.460664 205.056037 
z
" clip-path="url(#p4b1207fc4f)" style="fill: #9a3670; fill-opacity: 0.2; stroke: #9a3670; stroke-width: 1.5"/>
    <path d="M 646.886523 206.430469 
L 663.312383 206.430469 
L 663.312383 205.085314 
L 646.886523 205.085314 
z
" clip-path="url(#p4b1207fc4f)" style="fill: #9a3670; fill-opacity: 0.2; stroke: #9a3670; stroke-width: 1.5"/>
    <path d="M 663.312383 206.430469 
L 679.738242 206.430469 
L 679.738242 205.074906 
L 663.312383 205.074906 
z
" clip-path="url(#p4b1207fc4f)" style="fill: #9a3670; fill-opacity: 0.2; stroke: #9a3670; stroke-width: 1.5"/>
    <path d="M 679.738242 206.430469 
L 696.164102 206.430469 
L 696.164102 204.069943 
L 679.738242 204.069943 
z
" clip-path="url(#p4b1207fc4f)" style="fill: #9a3670; fill-opacity: 0.2; stroke: #9a3670; stroke-width: 1.5"/>
    <path d="M 696.164102 206.430469 
L 712.589961 206.430469 
L 712.589961 205.415097 
L 696.164102 205.415097 
z
" clip-path="url(#p4b1207fc4f)" style="fill: #9a3670; fill-opacity: 0.2; stroke: #9a3670; stroke-width: 1.5"/>
    <path d="M 712.589961 206.430469 
L 729.01582 206.430469 
L 729.01582 205.08011 
L 712.589961 205.08011 
z
" clip-path="url(#p4b1207fc4f)" style="fill: #9a3670; fill-opacity: 0.2; stroke: #9a3670; stroke-width: 1.5"/>
    <path d="M 729.01582 206.430469 
L 745.44168 206.430469 
L 745.44168 204.389317 
L 729.01582 204.389317 
z
" clip-path="url(#p4b1207fc4f)" style="fill: #9a3670; fill-opacity: 0.2; stroke: #9a3670; stroke-width: 1.5"/>
    <path d="M 745.44168 206.430469 
L 761.867539 206.430469 
L 761.867539 203.611013 
L 745.44168 203.611013 
z
" clip-path="url(#p4b1207fc4f)" style="fill: #9a3670; fill-opacity: 0.2; stroke: #9a3670; stroke-width: 1.5"/>
    <path d="M 761.867539 206.430469 
L 778.293398 206.430469 
L 778.293398 205.760494 
L 761.867539 205.760494 
z
" clip-path="url(#p4b1207fc4f)" style="fill: #9a3670; fill-opacity: 0.2; stroke: #9a3670; stroke-width: 1.5"/>
    <path d="M 778.293398 206.430469 
L 794.719258 206.430469 
L 794.719258 204.389317 
L 778.293398 204.389317 
z
" clip-path="url(#p4b1207fc4f)" style="fill: #9a3670; fill-opacity: 0.2; stroke: #9a3670; stroke-width: 1.5"/>
    <path d="M 794.719258 206.430469 
L 811.145117 206.430469 
L 811.145117 205.760494 
L 794.719258 205.760494 
z
" clip-path="url(#p4b1207fc4f)" style="fill: #9a3670; fill-opacity: 0.2; stroke: #9a3670; stroke-width: 1.5"/>
    <path d="M 811.145117 206.430469 
L 827.570977 206.430469 
L 827.570977 204.389317 
L 811.145117 204.389317 
z
" clip-path="url(#p4b1207fc4f)" style="fill: #9a3670; fill-opacity: 0.2; stroke: #9a3670; stroke-width: 1.5"/>
    <path d="M 827.570977 206.430469 
L 843.996836 206.430469 
L 843.996836 205.090519 
L 827.570977 205.090519 
z
" clip-path="url(#p4b1207fc4f)" style="fill: #9a3670; fill-opacity: 0.2; stroke: #9a3670; stroke-width: 1.5"/>
    <path d="M 843.996836 206.430469 
L 860.422695 206.430469 
L 860.422695 205.090519 
L 843.996836 205.090519 
z
" clip-path="url(#p4b1207fc4f)" style="fill: #9a3670; fill-opacity: 0.2; stroke: #9a3670; stroke-width: 1.5"/>
    <path d="M 860.422695 206.430469 
L 876.848555 206.430469 
L 876.848555 205.415097 
L 860.422695 205.415097 
z
" clip-path="url(#p4b1207fc4f)" style="fill: #9a3670; fill-opacity: 0.2; stroke: #9a3670; stroke-width: 1.5"/>
    <path d="M 876.848555 206.430469 
L 893.274414 206.430469 
L 893.274414 205.755289 
L 876.848555 205.755289 
z
" clip-path="url(#p4b1207fc4f)" style="fill: #9a3670; fill-opacity: 0.2; stroke: #9a3670; stroke-width: 1.5"/>
    <path d="M 893.274414 206.430469 
L 909.700273 206.430469 
L 909.700273 204.997482 
L 893.274414 204.997482 
z
" clip-path="url(#p4b1207fc4f)" style="fill: #9a3670; fill-opacity: 0.2; stroke: #9a3670; stroke-width: 1.5"/>
    <path d="M 909.700273 206.430469 
L 926.126133 206.430469 
L 926.126133 205.378988 
L 909.700273 205.378988 
z
" clip-path="url(#p4b1207fc4f)" style="fill: #9a3670; fill-opacity: 0.2; stroke: #9a3670; stroke-width: 1.5"/>
    <path d="M 926.126133 206.430469 
L 942.551992 206.430469 
L 942.551992 204.420544 
L 926.126133 204.420544 
z
" clip-path="url(#p4b1207fc4f)" style="fill: #9a3670; fill-opacity: 0.2; stroke: #9a3670; stroke-width: 1.5"/>
    <path d="M 942.551992 206.430469 
L 958.977852 206.430469 
L 958.977852 205.069701 
L 942.551992 205.069701 
z
" clip-path="url(#p4b1207fc4f)" style="fill: #9a3670; fill-opacity: 0.2; stroke: #9a3670; stroke-width: 1.5"/>
    <path d="M 958.977852 206.430469 
L 975.403711 206.430469 
L 975.403711 205.415097 
L 958.977852 205.415097 
z
" clip-path="url(#p4b1207fc4f)" style="fill: #9a3670; fill-opacity: 0.2; stroke: #9a3670; stroke-width: 1.5"/>
    <path d="M 991.82957 206.430469 
L 1008.25543 206.430469 
L 1008.25543 205.750085 
L 991.82957 205.750085 
z
" clip-path="url(#p4b1207fc4f)" style="fill: #9a3670; fill-opacity: 0.2; stroke: #9a3670; stroke-width: 1.5"/>
    <path d="M 1008.25543 206.430469 
L 1024.681289 206.430469 
L 1024.681289 205.760494 
L 1008.25543 205.760494 
z
" clip-path="url(#p4b1207fc4f)" style="fill: #9a3670; fill-opacity: 0.2; stroke: #9a3670; stroke-width: 1.5"/>
    <path d="M 1024.681289 206.430469 
L 1041.107148 206.430469 
L 1041.107148 205.755289 
L 1024.681289 205.755289 
z
" clip-path="url(#p4b1207fc4f)" style="fill: #9a3670; fill-opacity: 0.2; stroke: #9a3670; stroke-width: 1.5"/>
    <path d="M 1090.384727 206.430469 
L 1106.810586 206.430469 
L 1106.810586 205.760494 
L 1090.384727 205.760494 
z
" clip-path="url(#p4b1207fc4f)" style="fill: #9a3670; fill-opacity: 0.2; stroke: #9a3670; stroke-width: 1.5"/>
    <path d="M 1123.236445 206.430469 
L 1139.662305 206.430469 
L 1139.662305 205.750085 
L 1123.236445 205.750085 
z
" clip-path="url(#p4b1207fc4f)" style="fill: #9a3670; fill-opacity: 0.2; stroke: #9a3670; stroke-width: 1.5"/>
    <path d="M 1139.662305 206.430469 
L 1156.088164 206.430469 
L 1156.088164 205.090519 
L 1139.662305 205.090519 
z
" clip-path="url(#p4b1207fc4f)" style="fill: #9a3670; fill-opacity: 0.2; stroke: #9a3670; stroke-width: 1.5"/>
    <path d="M 1156.088164 206.430469 
L 1172.514023 206.430469 
L 1172.514023 205.755289 
L 1156.088164 205.755289 
z
" clip-path="url(#p4b1207fc4f)" style="fill: #9a3670; fill-opacity: 0.2; stroke: #9a3670; stroke-width: 1.5"/>
    <path d="M 1172.514023 206.430469 
L 1188.939883 206.430469 
L 1188.939883 205.502687 
L 1172.514023 205.502687 
z
" clip-path="url(#p4b1207fc4f)" style="fill: #9a3670; fill-opacity: 0.2; stroke: #9a3670; stroke-width: 1.5"/>
   </g>
   <g id="line2d_24">
    <path d="M 401.562348 -1 
L 408.711563 98.436175 
L 425.137422 162.030757 
L 441.563281 182.016717 
L 457.989141 189.933518 
L 474.415 194.126374 
L 490.840859 196.894433 
L 507.266719 198.935904 
L 523.692578 200.509485 
L 540.118438 201.742215 
L 556.544297 202.713768 
L 572.970156 203.481413 
L 589.396016 204.088749 
L 605.821875 204.570466 
L 622.247734 204.950846 
L 624.52 204.992662 
" clip-path="url(#p4b1207fc4f)" style="fill: none; stroke: #262626; stroke-width: 2.25; stroke-linecap: round"/>
   </g>
   <g id="line2d_25">
    <path d="M 398.999968 -1 
L 408.711563 129.183021 
L 425.137422 186.274538 
L 441.563281 201.146422 
L 457.989141 205.038665 
L 474.415 206.062151 
L 490.840859 206.332549 
L 507.266719 206.404319 
L 523.692578 206.423455 
L 540.118438 206.428579 
L 556.544297 206.429958 
L 572.970156 206.43033 
L 589.396016 206.430431 
L 605.821875 206.430465 
L 622.247734 206.430466 
L 624.52 206.430466 
" clip-path="url(#p4b1207fc4f)" style="fill: none; stroke-dasharray: 8.325,3.6; stroke-dashoffset: 0; stroke: #006400; stroke-opacity: 0.7; stroke-width: 2.25"/>
   </g>
   <g id="line2d_26">
    <path d="M 375.859844 156.871627 
L 392.285703 167.408609 
L 408.711563 175.683623 
L 425.137422 182.186688 
L 441.563281 187.300764 
L 457.989141 191.325322 
L 474.415 194.494692 
L 490.840859 196.992352 
L 507.266719 198.962054 
L 523.692578 200.5165 
L 540.118438 201.744104 
L 556.544297 202.714279 
L 572.970156 203.481551 
L 589.396016 204.088786 
L 605.821875 204.57047 
L 622.247734 204.950849 
L 624.52 204.992665 
" clip-path="url(#p4b1207fc4f)" style="fill: none; stroke-dasharray: 8.325,3.6; stroke-dashoffset: 0; stroke: #ff00ff; stroke-opacity: 0.7; stroke-width: 2.25"/>
   </g>
   <g id="patch_8">
    <path d="M 359.433984 206.430469 
L 359.433984 26.877187 
" style="fill: none; stroke: #ffffff; stroke-width: 1.875; stroke-linejoin: miter; stroke-linecap: square"/>
   </g>
   <g id="patch_9">
    <path d="M 605.821875 206.430469 
L 605.821875 26.877187 
" style="fill: none; stroke: #ffffff; stroke-width: 1.875; stroke-linejoin: miter; stroke-linecap: square"/>
   </g>
   <g id="patch_10">
    <path d="M 359.433984 206.430469 
L 605.821875 206.430469 
" style="fill: none; stroke: #ffffff; stroke-width: 1.875; stroke-linejoin: miter; stroke-linecap: square"/>
   </g>
   <g id="patch_11">
    <path d="M 359.433984 26.877187 
L 605.821875 26.877187 
" style="fill: none; stroke: #ffffff; stroke-width: 1.875; stroke-linejoin: miter; stroke-linecap: square"/>
   </g>
   <g id="text_19">
    <!-- Ciprofloxacin 30 ng/ml -->
    <g transform="translate(381.346992 20.877187) scale(0.18 -0.18)">
     <use xlink:href="#DejaVuSans-43"/>
     <use xlink:href="#DejaVuSans-69" x="69.824219"/>
     <use xlink:href="#DejaVuSans-70" x="97.607422"/>
     <use xlink:href="#DejaVuSans-72" x="161.083984"/>
     <use xlink:href="#DejaVuSans-6f" x="199.947266"/>
     <use xlink:href="#DejaVuSans-66" x="261.128906"/>
     <use xlink:href="#DejaVuSans-6c" x="296.333984"/>
     <use xlink:href="#DejaVuSans-6f" x="324.117188"/>
     <use xlink:href="#DejaVuSans-78" x="382.173828"/>
     <use xlink:href="#DejaVuSans-61" x="441.353516"/>
     <use xlink:href="#DejaVuSans-63" x="502.632812"/>
     <use xlink:href="#DejaVuSans-69" x="557.613281"/>
     <use xlink:href="#DejaVuSans-6e" x="585.396484"/>
     <use xlink:href="#DejaVuSans-20" x="648.775391"/>
     <use xlink:href="#DejaVuSans-33" x="680.5625"/>
     <use xlink:href="#DejaVuSans-30" x="744.185547"/>
     <use xlink:href="#DejaVuSans-20" x="807.808594"/>
     <use xlink:href="#DejaVuSans-6e" x="839.595703"/>
     <use xlink:href="#DejaVuSans-67" x="902.974609"/>
     <use xlink:href="#DejaVuSans-2f" x="966.451172"/>
     <use xlink:href="#DejaVuSans-6d" x="1000.142578"/>
     <use xlink:href="#DejaVuSans-6c" x="1097.554688"/>
    </g>
   </g>
  </g>
 </g>
 <defs>
  <clipPath id="p3299c7282d">
   <rect x="77.858906" y="26.877187" width="246.387891" height="179.553281"/>
  </clipPath>
  <clipPath id="p4b1207fc4f">
   <rect x="359.433984" y="26.877187" width="246.387891" height="179.553281"/>
  </clipPath>
 </defs>
</svg>
