<?xml version="1.0" encoding="utf-8" standalone="no"?>
<!DOCTYPE svg PUBLIC "-//W3C//DTD SVG 1.1//EN"
  "http://www.w3.org/Graphics/SVG/1.1/DTD/svg11.dtd">
<svg xmlns:xlink="http://www.w3.org/1999/xlink" width="449.28pt" height="334.08pt" viewBox="0 0 449.28 334.08" xmlns="http://www.w3.org/2000/svg" version="1.1">
 <metadata>
  <rdf:RDF xmlns:dc="http://purl.org/dc/elements/1.1/" xmlns:cc="http://creativecommons.org/ns#" xmlns:rdf="http://www.w3.org/1999/02/22-rdf-syntax-ns#">
   <cc:Work>
    <dc:type rdf:resource="http://purl.org/dc/dcmitype/StillImage"/>
    <dc:date>2024-02-21T10:01:24.426769</dc:date>
    <dc:format>image/svg+xml</dc:format>
    <dc:creator>
     <cc:Agent>
      <dc:title>Matplotlib v3.8.0, https://matplotlib.org/</dc:title>
     </cc:Agent>
    </dc:creator>
   </cc:Work>
  </rdf:RDF>
 </metadata>
 <defs>
  <style type="text/css">*{stroke-linejoin: round; stroke-linecap: butt}</style>
 </defs>
 <g id="figure_1">
  <g id="patch_1">
   <path d="M 0 334.08 
L 449.28 334.08 
L 449.28 0 
L 0 0 
z
" style="fill: #ffffff"/>
  </g>
  <g id="axes_1">
   <g id="patch_2">
    <path d="M 44.695 98.404687 
L 442.08 98.404687 
L 442.08 22.318125 
L 44.695 22.318125 
z
" style="fill: #eaeaf2"/>
   </g>
   <g id="matplotlib.axis_1">
    <g id="xtick_1"/>
   </g>
   <g id="matplotlib.axis_2">
    <g id="ytick_1">
     <g id="line2d_1">
      <path d="M 44.695 78.355735 
L 442.08 78.355735 
" clip-path="url(#pffab6fb103)" style="fill: none; stroke: #ffffff; stroke-linecap: round"/>
     </g>
     <g id="text_1">
      <!-- 500 -->
      <g style="fill: #262626" transform="translate(14.19875 82.534875) scale(0.11 -0.11)">
       <defs>
        <path id="DejaVuSans-35" d="M 691 4666 
L 3169 4666 
L 3169 4134 
L 1269 4134 
L 1269 2991 
Q 1406 3038 1543 3061 
Q 1681 3084 1819 3084 
Q 2600 3084 3056 2656 
Q 3513 2228 3513 1497 
Q 3513 744 3044 326 
Q 2575 -91 1722 -91 
Q 1428 -91 1123 -41 
Q 819 9 494 109 
L 494 744 
Q 775 591 1075 516 
Q 1375 441 1709 441 
Q 2250 441 2565 725 
Q 2881 1009 2881 1497 
Q 2881 1984 2565 2268 
Q 2250 2553 1709 2553 
Q 1456 2553 1204 2497 
Q 953 2441 691 2322 
L 691 4666 
z
" transform="scale(0.015625)"/>
        <path id="DejaVuSans-30" d="M 2034 4250 
Q 1547 4250 1301 3770 
Q 1056 3291 1056 2328 
Q 1056 1369 1301 889 
Q 1547 409 2034 409 
Q 2525 409 2770 889 
Q 3016 1369 3016 2328 
Q 3016 3291 2770 3770 
Q 2525 4250 2034 4250 
z
M 2034 4750 
Q 2819 4750 3233 4129 
Q 3647 3509 3647 2328 
Q 3647 1150 3233 529 
Q 2819 -91 2034 -91 
Q 1250 -91 836 529 
Q 422 1150 422 2328 
Q 422 3509 836 4129 
Q 1250 4750 2034 4750 
z
" transform="scale(0.015625)"/>
       </defs>
       <use xlink:href="#DejaVuSans-35"/>
       <use xlink:href="#DejaVuSans-30" x="63.623047"/>
       <use xlink:href="#DejaVuSans-30" x="127.246094"/>
      </g>
     </g>
    </g>
    <g id="ytick_2">
     <g id="line2d_2">
      <path d="M 44.695 43.801056 
L 442.08 43.801056 
" clip-path="url(#pffab6fb103)" style="fill: none; stroke: #ffffff; stroke-linecap: round"/>
     </g>
     <g id="text_2">
      <!-- 1000 -->
      <g style="fill: #262626" transform="translate(7.2 47.980197) scale(0.11 -0.11)">
       <defs>
        <path id="DejaVuSans-31" d="M 794 531 
L 1825 531 
L 1825 4091 
L 703 3866 
L 703 4441 
L 1819 4666 
L 2450 4666 
L 2450 531 
L 3481 531 
L 3481 0 
L 794 0 
L 794 531 
z
" transform="scale(0.015625)"/>
       </defs>
       <use xlink:href="#DejaVuSans-31"/>
       <use xlink:href="#DejaVuSans-30" x="63.623047"/>
       <use xlink:href="#DejaVuSans-30" x="127.246094"/>
       <use xlink:href="#DejaVuSans-30" x="190.869141"/>
      </g>
     </g>
    </g>
   </g>
   <g id="PathCollection_1">
    <path d="M 116.2243 69.641255 
C 117.019909 69.641255 117.78304 69.325156 118.34562 68.762575 
C 118.908201 68.199994 119.2243 67.436864 119.2243 66.641255 
C 119.2243 65.845645 118.908201 65.082515 118.34562 64.519934 
C 117.78304 63.957354 117.019909 63.641255 116.2243 63.641255 
C 115.428691 63.641255 114.66556 63.957354 114.10298 64.519934 
C 113.540399 65.082515 113.2243 65.845645 113.2243 66.641255 
C 113.2243 67.436864 113.540399 68.199994 114.10298 68.762575 
C 114.66556 69.325156 115.428691 69.641255 116.2243 69.641255 
z
" clip-path="url(#pffab6fb103)" style="fill: #4c72b0; stroke: #4c72b0; stroke-width: 0.5"/>
    <path d="M 179.8059 61.663507 
C 180.601509 61.663507 181.36464 61.347408 181.92722 60.784828 
C 182.489801 60.222247 182.8059 59.459117 182.8059 58.663507 
C 182.8059 57.867898 182.489801 57.104768 181.92722 56.542187 
C 181.36464 55.979606 180.601509 55.663507 179.8059 55.663507 
C 179.010291 55.663507 178.24716 55.979606 177.68458 56.542187 
C 177.121999 57.104768 176.8059 57.867898 176.8059 58.663507 
C 176.8059 59.459117 177.121999 60.222247 177.68458 60.784828 
C 178.24716 61.347408 179.010291 61.663507 179.8059 61.663507 
z
" clip-path="url(#pffab6fb103)" style="fill: #dd8452; stroke: #dd8452; stroke-width: 0.5"/>
    <path d="M 243.3875 44.339766 
C 244.183109 44.339766 244.94624 44.023667 245.50882 43.461086 
C 246.071401 42.898505 246.3875 42.135375 246.3875 41.339766 
C 246.3875 40.544156 246.071401 39.781026 245.50882 39.218445 
C 244.94624 38.655865 244.183109 38.339766 243.3875 38.339766 
C 242.591891 38.339766 241.82876 38.655865 241.26618 39.218445 
C 240.703599 39.781026 240.3875 40.544156 240.3875 41.339766 
C 240.3875 42.135375 240.703599 42.898505 241.26618 43.461086 
C 241.82876 44.023667 242.591891 44.339766 243.3875 44.339766 
z
" clip-path="url(#pffab6fb103)" style="fill: #55a868; stroke: #55a868; stroke-width: 0.5"/>
    <path d="M 306.9691 82.383047 
C 307.764709 82.383047 308.52784 82.066948 309.09042 81.504367 
C 309.653001 80.941786 309.9691 80.178656 309.9691 79.383047 
C 309.9691 78.587438 309.653001 77.824307 309.09042 77.261727 
C 308.52784 76.699146 307.764709 76.383047 306.9691 76.383047 
C 306.173491 76.383047 305.41036 76.699146 304.84778 77.261727 
C 304.285199 77.824307 303.9691 78.587438 303.9691 79.383047 
C 303.9691 80.178656 304.285199 80.941786 304.84778 81.504367 
C 305.41036 82.066948 306.173491 82.383047 306.9691 82.383047 
z
" clip-path="url(#pffab6fb103)" style="fill: #c44e52; stroke: #c44e52; stroke-width: 0.5"/>
    <path d="M 370.5507 75.509928 
C 371.346309 75.509928 372.10944 75.193829 372.67202 74.631248 
C 373.234601 74.068668 373.5507 73.305537 373.5507 72.509928 
C 373.5507 71.714319 373.234601 70.951189 372.67202 70.388608 
C 372.10944 69.826027 371.346309 69.509928 370.5507 69.509928 
C 369.755091 69.509928 368.99196 69.826027 368.42938 70.388608 
C 367.866799 70.951189 367.5507 71.714319 367.5507 72.509928 
C 367.5507 73.305537 367.866799 74.068668 368.42938 74.631248 
C 368.99196 75.193829 369.755091 75.509928 370.5507 75.509928 
z
" clip-path="url(#pffab6fb103)" style="fill: #8172b3; stroke: #8172b3; stroke-width: 0.5"/>
   </g>
   <g id="patch_3">
    <path d="M 44.695 98.404687 
L 44.695 22.318125 
" style="fill: none; stroke: #ffffff; stroke-width: 1.25; stroke-linejoin: miter; stroke-linecap: square"/>
   </g>
   <g id="patch_4">
    <path d="M 442.08 98.404687 
L 442.08 22.318125 
" style="fill: none; stroke: #ffffff; stroke-width: 1.25; stroke-linejoin: miter; stroke-linecap: square"/>
   </g>
   <g id="patch_5">
    <path d="M 44.695 98.404687 
L 442.08 98.404687 
" style="fill: none; stroke: #ffffff; stroke-width: 1.25; stroke-linejoin: miter; stroke-linecap: square"/>
   </g>
   <g id="patch_6">
    <path d="M 44.695 22.318125 
L 442.08 22.318125 
" style="fill: none; stroke: #ffffff; stroke-width: 1.25; stroke-linejoin: miter; stroke-linecap: square"/>
   </g>
   <g id="text_3">
    <!-- Amplitude -->
    <g transform="translate(212.640312 16.318125) scale(0.12 -0.12)">
     <defs>
      <path id="DejaVuSans-41" d="M 2188 4044 
L 1331 1722 
L 3047 1722 
L 2188 4044 
z
M 1831 4666 
L 2547 4666 
L 4325 0 
L 3669 0 
L 3244 1197 
L 1141 1197 
L 716 0 
L 50 0 
L 1831 4666 
z
" transform="scale(0.015625)"/>
      <path id="DejaVuSans-6d" d="M 3328 2828 
Q 3544 3216 3844 3400 
Q 4144 3584 4550 3584 
Q 5097 3584 5394 3201 
Q 5691 2819 5691 2113 
L 5691 0 
L 5113 0 
L 5113 2094 
Q 5113 2597 4934 2840 
Q 4756 3084 4391 3084 
Q 3944 3084 3684 2787 
Q 3425 2491 3425 1978 
L 3425 0 
L 2847 0 
L 2847 2094 
Q 2847 2600 2669 2842 
Q 2491 3084 2119 3084 
Q 1678 3084 1418 2786 
Q 1159 2488 1159 1978 
L 1159 0 
L 581 0 
L 581 3500 
L 1159 3500 
L 1159 2956 
Q 1356 3278 1631 3431 
Q 1906 3584 2284 3584 
Q 2666 3584 2933 3390 
Q 3200 3197 3328 2828 
z
" transform="scale(0.015625)"/>
      <path id="DejaVuSans-70" d="M 1159 525 
L 1159 -1331 
L 581 -1331 
L 581 3500 
L 1159 3500 
L 1159 2969 
Q 1341 3281 1617 3432 
Q 1894 3584 2278 3584 
Q 2916 3584 3314 3078 
Q 3713 2572 3713 1747 
Q 3713 922 3314 415 
Q 2916 -91 2278 -91 
Q 1894 -91 1617 61 
Q 1341 213 1159 525 
z
M 3116 1747 
Q 3116 2381 2855 2742 
Q 2594 3103 2138 3103 
Q 1681 3103 1420 2742 
Q 1159 2381 1159 1747 
Q 1159 1113 1420 752 
Q 1681 391 2138 391 
Q 2594 391 2855 752 
Q 3116 1113 3116 1747 
z
" transform="scale(0.015625)"/>
      <path id="DejaVuSans-6c" d="M 603 4863 
L 1178 4863 
L 1178 0 
L 603 0 
L 603 4863 
z
" transform="scale(0.015625)"/>
      <path id="DejaVuSans-69" d="M 603 3500 
L 1178 3500 
L 1178 0 
L 603 0 
L 603 3500 
z
M 603 4863 
L 1178 4863 
L 1178 4134 
L 603 4134 
L 603 4863 
z
" transform="scale(0.015625)"/>
      <path id="DejaVuSans-74" d="M 1172 4494 
L 1172 3500 
L 2356 3500 
L 2356 3053 
L 1172 3053 
L 1172 1153 
Q 1172 725 1289 603 
Q 1406 481 1766 481 
L 2356 481 
L 2356 0 
L 1766 0 
Q 1100 0 847 248 
Q 594 497 594 1153 
L 594 3053 
L 172 3053 
L 172 3500 
L 594 3500 
L 594 4494 
L 1172 4494 
z
" transform="scale(0.015625)"/>
      <path id="DejaVuSans-75" d="M 544 1381 
L 544 3500 
L 1119 3500 
L 1119 1403 
Q 1119 906 1312 657 
Q 1506 409 1894 409 
Q 2359 409 2629 706 
Q 2900 1003 2900 1516 
L 2900 3500 
L 3475 3500 
L 3475 0 
L 2900 0 
L 2900 538 
Q 2691 219 2414 64 
Q 2138 -91 1772 -91 
Q 1169 -91 856 284 
Q 544 659 544 1381 
z
M 1991 3584 
L 1991 3584 
z
" transform="scale(0.015625)"/>
      <path id="DejaVuSans-64" d="M 2906 2969 
L 2906 4863 
L 3481 4863 
L 3481 0 
L 2906 0 
L 2906 525 
Q 2725 213 2448 61 
Q 2172 -91 1784 -91 
Q 1150 -91 751 415 
Q 353 922 353 1747 
Q 353 2572 751 3078 
Q 1150 3584 1784 3584 
Q 2172 3584 2448 3432 
Q 2725 3281 2906 2969 
z
M 947 1747 
Q 947 1113 1208 752 
Q 1469 391 1925 391 
Q 2381 391 2643 752 
Q 2906 1113 2906 1747 
Q 2906 2381 2643 2742 
Q 2381 3103 1925 3103 
Q 1469 3103 1208 2742 
Q 947 2381 947 1747 
z
" transform="scale(0.015625)"/>
      <path id="DejaVuSans-65" d="M 3597 1894 
L 3597 1613 
L 953 1613 
Q 991 1019 1311 708 
Q 1631 397 2203 397 
Q 2534 397 2845 478 
Q 3156 559 3463 722 
L 3463 178 
Q 3153 47 2828 -22 
Q 2503 -91 2169 -91 
Q 1331 -91 842 396 
Q 353 884 353 1716 
Q 353 2575 817 3079 
Q 1281 3584 2069 3584 
Q 2775 3584 3186 3129 
Q 3597 2675 3597 1894 
z
M 3022 2063 
Q 3016 2534 2758 2815 
Q 2500 3097 2075 3097 
Q 1594 3097 1305 2825 
Q 1016 2553 972 2059 
L 3022 2063 
z
" transform="scale(0.015625)"/>
     </defs>
     <use xlink:href="#DejaVuSans-41"/>
     <use xlink:href="#DejaVuSans-6d" x="68.408203"/>
     <use xlink:href="#DejaVuSans-70" x="165.820312"/>
     <use xlink:href="#DejaVuSans-6c" x="229.296875"/>
     <use xlink:href="#DejaVuSans-69" x="257.080078"/>
     <use xlink:href="#DejaVuSans-74" x="284.863281"/>
     <use xlink:href="#DejaVuSans-75" x="324.072266"/>
     <use xlink:href="#DejaVuSans-64" x="387.451172"/>
     <use xlink:href="#DejaVuSans-65" x="450.927734"/>
    </g>
   </g>
  </g>
  <g id="axes_2">
   <g id="patch_7">
    <path d="M 44.695 202.569375 
L 442.08 202.569375 
L 442.08 126.482812 
L 44.695 126.482812 
z
" style="fill: #eaeaf2"/>
   </g>
   <g id="matplotlib.axis_3">
    <g id="xtick_2"/>
   </g>
   <g id="matplotlib.axis_4">
    <g id="ytick_3">
     <g id="line2d_3">
      <path d="M 44.695 191.078955 
L 442.08 191.078955 
" clip-path="url(#p416fbccde7)" style="fill: none; stroke: #ffffff; stroke-linecap: round"/>
     </g>
     <g id="text_4">
      <!-- 100 -->
      <g style="fill: #262626" transform="translate(14.19875 195.258096) scale(0.11 -0.11)">
       <use xlink:href="#DejaVuSans-31"/>
       <use xlink:href="#DejaVuSans-30" x="63.623047"/>
       <use xlink:href="#DejaVuSans-30" x="127.246094"/>
      </g>
     </g>
    </g>
    <g id="ytick_4">
     <g id="line2d_4">
      <path d="M 44.695 142.685522 
L 442.08 142.685522 
" clip-path="url(#p416fbccde7)" style="fill: none; stroke: #ffffff; stroke-linecap: round"/>
     </g>
     <g id="text_5">
      <!-- 200 -->
      <g style="fill: #262626" transform="translate(14.19875 146.864663) scale(0.11 -0.11)">
       <defs>
        <path id="DejaVuSans-32" d="M 1228 531 
L 3431 531 
L 3431 0 
L 469 0 
L 469 531 
Q 828 903 1448 1529 
Q 2069 2156 2228 2338 
Q 2531 2678 2651 2914 
Q 2772 3150 2772 3378 
Q 2772 3750 2511 3984 
Q 2250 4219 1831 4219 
Q 1534 4219 1204 4116 
Q 875 4013 500 3803 
L 500 4441 
Q 881 4594 1212 4672 
Q 1544 4750 1819 4750 
Q 2544 4750 2975 4387 
Q 3406 4025 3406 3419 
Q 3406 3131 3298 2873 
Q 3191 2616 2906 2266 
Q 2828 2175 2409 1742 
Q 1991 1309 1228 531 
z
" transform="scale(0.015625)"/>
       </defs>
       <use xlink:href="#DejaVuSans-32"/>
       <use xlink:href="#DejaVuSans-30" x="63.623047"/>
       <use xlink:href="#DejaVuSans-30" x="127.246094"/>
      </g>
     </g>
    </g>
   </g>
   <g id="PathCollection_2">
    <path d="M 116.2243 186.547734 
C 117.019909 186.547734 117.78304 186.231635 118.34562 185.669055 
C 118.908201 185.106474 119.2243 184.343344 119.2243 183.547734 
C 119.2243 182.752125 118.908201 181.988995 118.34562 181.426414 
C 117.78304 180.863833 117.019909 180.547734 116.2243 180.547734 
C 115.428691 180.547734 114.66556 180.863833 114.10298 181.426414 
C 113.540399 181.988995 113.2243 182.752125 113.2243 183.547734 
C 113.2243 184.343344 113.540399 185.106474 114.10298 185.669055 
C 114.66556 186.231635 115.428691 186.547734 116.2243 186.547734 
z
" clip-path="url(#p416fbccde7)" style="fill: #4c72b0; stroke: #4c72b0; stroke-width: 0.5"/>
    <path d="M 179.8059 185.513137 
C 180.601509 185.513137 181.36464 185.197038 181.92722 184.634457 
C 182.489801 184.071876 182.8059 183.308746 182.8059 182.513137 
C 182.8059 181.717527 182.489801 180.954397 181.92722 180.391816 
C 181.36464 179.829236 180.601509 179.513137 179.8059 179.513137 
C 179.010291 179.513137 178.24716 179.829236 177.68458 180.391816 
C 177.121999 180.954397 176.8059 181.717527 176.8059 182.513137 
C 176.8059 183.308746 177.121999 184.071876 177.68458 184.634457 
C 178.24716 185.197038 179.010291 185.513137 179.8059 185.513137 
z
" clip-path="url(#p416fbccde7)" style="fill: #dd8452; stroke: #dd8452; stroke-width: 0.5"/>
    <path d="M 243.3875 148.504453 
C 244.183109 148.504453 244.94624 148.188354 245.50882 147.625773 
C 246.071401 147.063193 246.3875 146.300062 246.3875 145.504453 
C 246.3875 144.708844 246.071401 143.945714 245.50882 143.383133 
C 244.94624 142.820552 244.183109 142.504453 243.3875 142.504453 
C 242.591891 142.504453 241.82876 142.820552 241.26618 143.383133 
C 240.703599 143.945714 240.3875 144.708844 240.3875 145.504453 
C 240.3875 146.300062 240.703599 147.063193 241.26618 147.625773 
C 241.82876 148.188354 242.591891 148.504453 243.3875 148.504453 
z
" clip-path="url(#p416fbccde7)" style="fill: #55a868; stroke: #55a868; stroke-width: 0.5"/>
    <path d="M 306.9691 159.39816 
C 307.764709 159.39816 308.52784 159.082061 309.09042 158.51948 
C 309.653001 157.956899 309.9691 157.193769 309.9691 156.39816 
C 309.9691 155.60255 309.653001 154.83942 309.09042 154.276839 
C 308.52784 153.714259 307.764709 153.39816 306.9691 153.39816 
C 306.173491 153.39816 305.41036 153.714259 304.84778 154.276839 
C 304.285199 154.83942 303.9691 155.60255 303.9691 156.39816 
C 303.9691 157.193769 304.285199 157.956899 304.84778 158.51948 
C 305.41036 159.082061 306.173491 159.39816 306.9691 159.39816 
z
" clip-path="url(#p416fbccde7)" style="fill: #c44e52; stroke: #c44e52; stroke-width: 0.5"/>
    <path d="M 370.5507 159.526514 
C 371.346309 159.526514 372.10944 159.210416 372.67202 158.647835 
C 373.234601 158.085254 373.5507 157.322124 373.5507 156.526514 
C 373.5507 155.730905 373.234601 154.967775 372.67202 154.405194 
C 372.10944 153.842613 371.346309 153.526514 370.5507 153.526514 
C 369.755091 153.526514 368.99196 153.842613 368.42938 154.405194 
C 367.866799 154.967775 367.5507 155.730905 367.5507 156.526514 
C 367.5507 157.322124 367.866799 158.085254 368.42938 158.647835 
C 368.99196 159.210416 369.755091 159.526514 370.5507 159.526514 
z
" clip-path="url(#p416fbccde7)" style="fill: #8172b3; stroke: #8172b3; stroke-width: 0.5"/>
   </g>
   <g id="patch_8">
    <path d="M 44.695 202.569375 
L 44.695 126.482812 
" style="fill: none; stroke: #ffffff; stroke-width: 1.25; stroke-linejoin: miter; stroke-linecap: square"/>
   </g>
   <g id="patch_9">
    <path d="M 442.08 202.569375 
L 442.08 126.482812 
" style="fill: none; stroke: #ffffff; stroke-width: 1.25; stroke-linejoin: miter; stroke-linecap: square"/>
   </g>
   <g id="patch_10">
    <path d="M 44.695 202.569375 
L 442.08 202.569375 
" style="fill: none; stroke: #ffffff; stroke-width: 1.25; stroke-linejoin: miter; stroke-linecap: square"/>
   </g>
   <g id="patch_11">
    <path d="M 44.695 126.482812 
L 442.08 126.482812 
" style="fill: none; stroke: #ffffff; stroke-width: 1.25; stroke-linejoin: miter; stroke-linecap: square"/>
   </g>
   <g id="text_6">
    <!-- Offset -->
    <g transform="translate(225.270312 120.482812) scale(0.12 -0.12)">
     <defs>
      <path id="DejaVuSans-4f" d="M 2522 4238 
Q 1834 4238 1429 3725 
Q 1025 3213 1025 2328 
Q 1025 1447 1429 934 
Q 1834 422 2522 422 
Q 3209 422 3611 934 
Q 4013 1447 4013 2328 
Q 4013 3213 3611 3725 
Q 3209 4238 2522 4238 
z
M 2522 4750 
Q 3503 4750 4090 4092 
Q 4678 3434 4678 2328 
Q 4678 1225 4090 567 
Q 3503 -91 2522 -91 
Q 1538 -91 948 565 
Q 359 1222 359 2328 
Q 359 3434 948 4092 
Q 1538 4750 2522 4750 
z
" transform="scale(0.015625)"/>
      <path id="DejaVuSans-66" d="M 2375 4863 
L 2375 4384 
L 1825 4384 
Q 1516 4384 1395 4259 
Q 1275 4134 1275 3809 
L 1275 3500 
L 2222 3500 
L 2222 3053 
L 1275 3053 
L 1275 0 
L 697 0 
L 697 3053 
L 147 3053 
L 147 3500 
L 697 3500 
L 697 3744 
Q 697 4328 969 4595 
Q 1241 4863 1831 4863 
L 2375 4863 
z
" transform="scale(0.015625)"/>
      <path id="DejaVuSans-73" d="M 2834 3397 
L 2834 2853 
Q 2591 2978 2328 3040 
Q 2066 3103 1784 3103 
Q 1356 3103 1142 2972 
Q 928 2841 928 2578 
Q 928 2378 1081 2264 
Q 1234 2150 1697 2047 
L 1894 2003 
Q 2506 1872 2764 1633 
Q 3022 1394 3022 966 
Q 3022 478 2636 193 
Q 2250 -91 1575 -91 
Q 1294 -91 989 -36 
Q 684 19 347 128 
L 347 722 
Q 666 556 975 473 
Q 1284 391 1588 391 
Q 1994 391 2212 530 
Q 2431 669 2431 922 
Q 2431 1156 2273 1281 
Q 2116 1406 1581 1522 
L 1381 1569 
Q 847 1681 609 1914 
Q 372 2147 372 2553 
Q 372 3047 722 3315 
Q 1072 3584 1716 3584 
Q 2034 3584 2315 3537 
Q 2597 3491 2834 3397 
z
" transform="scale(0.015625)"/>
     </defs>
     <use xlink:href="#DejaVuSans-4f"/>
     <use xlink:href="#DejaVuSans-66" x="78.710938"/>
     <use xlink:href="#DejaVuSans-66" x="113.916016"/>
     <use xlink:href="#DejaVuSans-73" x="149.121094"/>
     <use xlink:href="#DejaVuSans-65" x="201.220703"/>
     <use xlink:href="#DejaVuSans-74" x="262.744141"/>
    </g>
   </g>
  </g>
  <g id="axes_3">
   <g id="patch_12">
    <path d="M 44.695 306.734062 
L 442.08 306.734062 
L 442.08 230.6475 
L 44.695 230.6475 
z
" style="fill: #eaeaf2"/>
   </g>
   <g id="matplotlib.axis_5">
    <g id="xtick_3">
     <g id="text_7">
      <!-- 0 -->
      <g style="fill: #262626" transform="translate(239.888125 324.592344) scale(0.11 -0.11)">
       <use xlink:href="#DejaVuSans-30"/>
      </g>
     </g>
    </g>
   </g>
   <g id="matplotlib.axis_6">
    <g id="ytick_5">
     <g id="line2d_5">
      <path d="M 44.695 302.988243 
L 442.08 302.988243 
" clip-path="url(#pfd1e9bba12)" style="fill: none; stroke: #ffffff; stroke-linecap: round"/>
     </g>
     <g id="text_8">
      <!-- 0.02 -->
      <g style="fill: #262626" transform="translate(10.702813 307.167383) scale(0.11 -0.11)">
       <defs>
        <path id="DejaVuSans-2e" d="M 684 794 
L 1344 794 
L 1344 0 
L 684 0 
L 684 794 
z
" transform="scale(0.015625)"/>
       </defs>
       <use xlink:href="#DejaVuSans-30"/>
       <use xlink:href="#DejaVuSans-2e" x="63.623047"/>
       <use xlink:href="#DejaVuSans-30" x="95.410156"/>
       <use xlink:href="#DejaVuSans-32" x="159.033203"/>
      </g>
     </g>
    </g>
    <g id="ytick_6">
     <g id="line2d_6">
      <path d="M 44.695 274.674122 
L 442.08 274.674122 
" clip-path="url(#pfd1e9bba12)" style="fill: none; stroke: #ffffff; stroke-linecap: round"/>
     </g>
     <g id="text_9">
      <!-- 0.04 -->
      <g style="fill: #262626" transform="translate(10.702813 278.853262) scale(0.11 -0.11)">
       <defs>
        <path id="DejaVuSans-34" d="M 2419 4116 
L 825 1625 
L 2419 1625 
L 2419 4116 
z
M 2253 4666 
L 3047 4666 
L 3047 1625 
L 3713 1625 
L 3713 1100 
L 3047 1100 
L 3047 0 
L 2419 0 
L 2419 1100 
L 313 1100 
L 313 1709 
L 2253 4666 
z
" transform="scale(0.015625)"/>
       </defs>
       <use xlink:href="#DejaVuSans-30"/>
       <use xlink:href="#DejaVuSans-2e" x="63.623047"/>
       <use xlink:href="#DejaVuSans-30" x="95.410156"/>
       <use xlink:href="#DejaVuSans-34" x="159.033203"/>
      </g>
     </g>
    </g>
    <g id="ytick_7">
     <g id="line2d_7">
      <path d="M 44.695 246.36 
L 442.08 246.36 
" clip-path="url(#pfd1e9bba12)" style="fill: none; stroke: #ffffff; stroke-linecap: round"/>
     </g>
     <g id="text_10">
      <!-- 0.06 -->
      <g style="fill: #262626" transform="translate(10.702813 250.539141) scale(0.11 -0.11)">
       <defs>
        <path id="DejaVuSans-36" d="M 2113 2584 
Q 1688 2584 1439 2293 
Q 1191 2003 1191 1497 
Q 1191 994 1439 701 
Q 1688 409 2113 409 
Q 2538 409 2786 701 
Q 3034 994 3034 1497 
Q 3034 2003 2786 2293 
Q 2538 2584 2113 2584 
z
M 3366 4563 
L 3366 3988 
Q 3128 4100 2886 4159 
Q 2644 4219 2406 4219 
Q 1781 4219 1451 3797 
Q 1122 3375 1075 2522 
Q 1259 2794 1537 2939 
Q 1816 3084 2150 3084 
Q 2853 3084 3261 2657 
Q 3669 2231 3669 1497 
Q 3669 778 3244 343 
Q 2819 -91 2113 -91 
Q 1303 -91 875 529 
Q 447 1150 447 2328 
Q 447 3434 972 4092 
Q 1497 4750 2381 4750 
Q 2619 4750 2861 4703 
Q 3103 4656 3366 4563 
z
" transform="scale(0.015625)"/>
       </defs>
       <use xlink:href="#DejaVuSans-30"/>
       <use xlink:href="#DejaVuSans-2e" x="63.623047"/>
       <use xlink:href="#DejaVuSans-30" x="95.410156"/>
       <use xlink:href="#DejaVuSans-36" x="159.033203"/>
      </g>
     </g>
    </g>
   </g>
   <g id="PathCollection_3">
    <path d="M 116.2243 275.885639 
C 117.019909 275.885639 117.78304 275.56954 118.34562 275.006959 
C 118.908201 274.444378 119.2243 273.681248 119.2243 272.885639 
C 119.2243 272.090029 118.908201 271.326899 118.34562 270.764318 
C 117.78304 270.201738 117.019909 269.885639 116.2243 269.885639 
C 115.428691 269.885639 114.66556 270.201738 114.10298 270.764318 
C 113.540399 271.326899 113.2243 272.090029 113.2243 272.885639 
C 113.2243 273.681248 113.540399 274.444378 114.10298 275.006959 
C 114.66556 275.56954 115.428691 275.885639 116.2243 275.885639 
z
" clip-path="url(#pfd1e9bba12)" style="fill: #4c72b0; stroke: #4c72b0; stroke-width: 0.5"/>
    <path d="M 179.8059 272.845258 
C 180.601509 272.845258 181.36464 272.529159 181.92722 271.966578 
C 182.489801 271.403998 182.8059 270.640867 182.8059 269.845258 
C 182.8059 269.049649 182.489801 268.286519 181.92722 267.723938 
C 181.36464 267.161357 180.601509 266.845258 179.8059 266.845258 
C 179.010291 266.845258 178.24716 267.161357 177.68458 267.723938 
C 177.121999 268.286519 176.8059 269.049649 176.8059 269.845258 
C 176.8059 270.640867 177.121999 271.403998 177.68458 271.966578 
C 178.24716 272.529159 179.010291 272.845258 179.8059 272.845258 
z
" clip-path="url(#pfd1e9bba12)" style="fill: #dd8452; stroke: #dd8452; stroke-width: 0.5"/>
    <path d="M 243.3875 252.669141 
C 244.183109 252.669141 244.94624 252.353042 245.50882 251.790461 
C 246.071401 251.22788 246.3875 250.46475 246.3875 249.669141 
C 246.3875 248.873531 246.071401 248.110401 245.50882 247.54782 
C 244.94624 246.98524 244.183109 246.669141 243.3875 246.669141 
C 242.591891 246.669141 241.82876 246.98524 241.26618 247.54782 
C 240.703599 248.110401 240.3875 248.873531 240.3875 249.669141 
C 240.3875 250.46475 240.703599 251.22788 241.26618 251.790461 
C 241.82876 252.353042 242.591891 252.669141 243.3875 252.669141 
z
" clip-path="url(#pfd1e9bba12)" style="fill: #55a868; stroke: #55a868; stroke-width: 0.5"/>
    <path d="M 306.9691 290.712422 
C 307.764709 290.712422 308.52784 290.396323 309.09042 289.833742 
C 309.653001 289.271161 309.9691 288.508031 309.9691 287.712422 
C 309.9691 286.916813 309.653001 286.153682 309.09042 285.591102 
C 308.52784 285.028521 307.764709 284.712422 306.9691 284.712422 
C 306.173491 284.712422 305.41036 285.028521 304.84778 285.591102 
C 304.285199 286.153682 303.9691 286.916813 303.9691 287.712422 
C 303.9691 288.508031 304.285199 289.271161 304.84778 289.833742 
C 305.41036 290.396323 306.173491 290.712422 306.9691 290.712422 
z
" clip-path="url(#pfd1e9bba12)" style="fill: #c44e52; stroke: #c44e52; stroke-width: 0.5"/>
    <path d="M 370.5507 281.484246 
C 371.346309 281.484246 372.10944 281.168147 372.67202 280.605566 
C 373.234601 280.042985 373.5507 279.279855 373.5507 278.484246 
C 373.5507 277.688636 373.234601 276.925506 372.67202 276.362925 
C 372.10944 275.800344 371.346309 275.484246 370.5507 275.484246 
C 369.755091 275.484246 368.99196 275.800344 368.42938 276.362925 
C 367.866799 276.925506 367.5507 277.688636 367.5507 278.484246 
C 367.5507 279.279855 367.866799 280.042985 368.42938 280.605566 
C 368.99196 281.168147 369.755091 281.484246 370.5507 281.484246 
z
" clip-path="url(#pfd1e9bba12)" style="fill: #8172b3; stroke: #8172b3; stroke-width: 0.5"/>
   </g>
   <g id="patch_13">
    <path d="M 44.695 306.734062 
L 44.695 230.6475 
" style="fill: none; stroke: #ffffff; stroke-width: 1.25; stroke-linejoin: miter; stroke-linecap: square"/>
   </g>
   <g id="patch_14">
    <path d="M 442.08 306.734062 
L 442.08 230.6475 
" style="fill: none; stroke: #ffffff; stroke-width: 1.25; stroke-linejoin: miter; stroke-linecap: square"/>
   </g>
   <g id="patch_15">
    <path d="M 44.695 306.734062 
L 442.08 306.734062 
" style="fill: none; stroke: #ffffff; stroke-width: 1.25; stroke-linejoin: miter; stroke-linecap: square"/>
   </g>
   <g id="patch_16">
    <path d="M 44.695 230.6475 
L 442.08 230.6475 
" style="fill: none; stroke: #ffffff; stroke-width: 1.25; stroke-linejoin: miter; stroke-linecap: square"/>
   </g>
   <g id="text_11">
    <!-- Rate -->
    <g transform="translate(229.6325 224.6475) scale(0.12 -0.12)">
     <defs>
      <path id="DejaVuSans-52" d="M 2841 2188 
Q 3044 2119 3236 1894 
Q 3428 1669 3622 1275 
L 4263 0 
L 3584 0 
L 2988 1197 
Q 2756 1666 2539 1819 
Q 2322 1972 1947 1972 
L 1259 1972 
L 1259 0 
L 628 0 
L 628 4666 
L 2053 4666 
Q 2853 4666 3247 4331 
Q 3641 3997 3641 3322 
Q 3641 2881 3436 2590 
Q 3231 2300 2841 2188 
z
M 1259 4147 
L 1259 2491 
L 2053 2491 
Q 2509 2491 2742 2702 
Q 2975 2913 2975 3322 
Q 2975 3731 2742 3939 
Q 2509 4147 2053 4147 
L 1259 4147 
z
" transform="scale(0.015625)"/>
      <path id="DejaVuSans-61" d="M 2194 1759 
Q 1497 1759 1228 1600 
Q 959 1441 959 1056 
Q 959 750 1161 570 
Q 1363 391 1709 391 
Q 2188 391 2477 730 
Q 2766 1069 2766 1631 
L 2766 1759 
L 2194 1759 
z
M 3341 1997 
L 3341 0 
L 2766 0 
L 2766 531 
Q 2569 213 2275 61 
Q 1981 -91 1556 -91 
Q 1019 -91 701 211 
Q 384 513 384 1019 
Q 384 1609 779 1909 
Q 1175 2209 1959 2209 
L 2766 2209 
L 2766 2266 
Q 2766 2663 2505 2880 
Q 2244 3097 1772 3097 
Q 1472 3097 1187 3025 
Q 903 2953 641 2809 
L 641 3341 
Q 956 3463 1253 3523 
Q 1550 3584 1831 3584 
Q 2591 3584 2966 3190 
Q 3341 2797 3341 1997 
z
" transform="scale(0.015625)"/>
     </defs>
     <use xlink:href="#DejaVuSans-52"/>
     <use xlink:href="#DejaVuSans-61" x="67.232422"/>
     <use xlink:href="#DejaVuSans-74" x="128.511719"/>
     <use xlink:href="#DejaVuSans-65" x="167.720703"/>
    </g>
   </g>
  </g>
 </g>
 <defs>
  <clipPath id="pffab6fb103">
   <rect x="44.695" y="22.318125" width="397.385" height="76.086562"/>
  </clipPath>
  <clipPath id="p416fbccde7">
   <rect x="44.695" y="126.482812" width="397.385" height="76.086562"/>
  </clipPath>
  <clipPath id="pfd1e9bba12">
   <rect x="44.695" y="230.6475" width="397.385" height="76.086562"/>
  </clipPath>
 </defs>
</svg>
