<?xml version="1.0" encoding="utf-8" standalone="no"?>
<!DOCTYPE svg PUBLIC "-//W3C//DTD SVG 1.1//EN"
  "http://www.w3.org/Graphics/SVG/1.1/DTD/svg11.dtd">
<svg xmlns:xlink="http://www.w3.org/1999/xlink" width="700.476328pt" height="263.52pt" viewBox="0 0 700.476328 263.52" xmlns="http://www.w3.org/2000/svg" version="1.1">
 <metadata>
  <rdf:RDF xmlns:dc="http://purl.org/dc/elements/1.1/" xmlns:cc="http://creativecommons.org/ns#" xmlns:rdf="http://www.w3.org/1999/02/22-rdf-syntax-ns#">
   <cc:Work>
    <dc:type rdf:resource="http://purl.org/dc/dcmitype/StillImage"/>
    <dc:date>2024-10-11T10:46:41.527150</dc:date>
    <dc:format>image/svg+xml</dc:format>
    <dc:creator>
     <cc:Agent>
      <dc:title>Matplotlib v3.8.0, https://matplotlib.org/</dc:title>
     </cc:Agent>
    </dc:creator>
   </cc:Work>
  </rdf:RDF>
 </metadata>
 <defs>
  <style type="text/css">*{stroke-linejoin: round; stroke-linecap: butt}</style>
 </defs>
 <g id="figure_1">
  <g id="patch_1">
   <path d="M 0 263.52 
L 700.476328 263.52 
L 700.476328 0 
L 0 0 
z
" style="fill: #ffffff"/>
  </g>
  <g id="axes_1">
   <g id="patch_2">
    <path d="M 67.360781 206.430469 
L 282.997734 206.430469 
L 282.997734 26.877187 
L 67.360781 26.877187 
z
" style="fill: #eaeaf2"/>
   </g>
   <g id="matplotlib.axis_1">
    <g id="xtick_1">
     <g id="line2d_1">
      <path d="M 67.360781 206.430469 
L 67.360781 26.877187 
" clip-path="url(#p6306846d63)" style="fill: none; stroke: #ffffff; stroke-width: 1.5; stroke-linecap: round"/>
     </g>
     <g id="text_1">
      <!-- 0 -->
      <g style="fill: #262626" transform="translate(62.111719 231.467891) scale(0.165 -0.165)">
       <defs>
        <path id="DejaVuSans-30" d="M 2034 4250 
Q 1547 4250 1301 3770 
Q 1056 3291 1056 2328 
Q 1056 1369 1301 889 
Q 1547 409 2034 409 
Q 2525 409 2770 889 
Q 3016 1369 3016 2328 
Q 3016 3291 2770 3770 
Q 2525 4250 2034 4250 
z
M 2034 4750 
Q 2819 4750 3233 4129 
Q 3647 3509 3647 2328 
Q 3647 1150 3233 529 
Q 2819 -91 2034 -91 
Q 1250 -91 836 529 
Q 422 1150 422 2328 
Q 422 3509 836 4129 
Q 1250 4750 2034 4750 
z
" transform="scale(0.015625)"/>
       </defs>
       <use xlink:href="#DejaVuSans-30"/>
      </g>
     </g>
    </g>
    <g id="xtick_2">
     <g id="line2d_2">
      <path d="M 139.239766 206.430469 
L 139.239766 26.877187 
" clip-path="url(#p6306846d63)" style="fill: none; stroke: #ffffff; stroke-width: 1.5; stroke-linecap: round"/>
     </g>
     <g id="text_2">
      <!-- 10 -->
      <g style="fill: #262626" transform="translate(128.741641 231.467891) scale(0.165 -0.165)">
       <defs>
        <path id="DejaVuSans-31" d="M 794 531 
L 1825 531 
L 1825 4091 
L 703 3866 
L 703 4441 
L 1819 4666 
L 2450 4666 
L 2450 531 
L 3481 531 
L 3481 0 
L 794 0 
L 794 531 
z
" transform="scale(0.015625)"/>
       </defs>
       <use xlink:href="#DejaVuSans-31"/>
       <use xlink:href="#DejaVuSans-30" x="63.623047"/>
      </g>
     </g>
    </g>
    <g id="xtick_3">
     <g id="line2d_3">
      <path d="M 211.11875 206.430469 
L 211.11875 26.877187 
" clip-path="url(#p6306846d63)" style="fill: none; stroke: #ffffff; stroke-width: 1.5; stroke-linecap: round"/>
     </g>
     <g id="text_3">
      <!-- 20 -->
      <g style="fill: #262626" transform="translate(200.620625 231.467891) scale(0.165 -0.165)">
       <defs>
        <path id="DejaVuSans-32" d="M 1228 531 
L 3431 531 
L 3431 0 
L 469 0 
L 469 531 
Q 828 903 1448 1529 
Q 2069 2156 2228 2338 
Q 2531 2678 2651 2914 
Q 2772 3150 2772 3378 
Q 2772 3750 2511 3984 
Q 2250 4219 1831 4219 
Q 1534 4219 1204 4116 
Q 875 4013 500 3803 
L 500 4441 
Q 881 4594 1212 4672 
Q 1544 4750 1819 4750 
Q 2544 4750 2975 4387 
Q 3406 4025 3406 3419 
Q 3406 3131 3298 2873 
Q 3191 2616 2906 2266 
Q 2828 2175 2409 1742 
Q 1991 1309 1228 531 
z
" transform="scale(0.015625)"/>
       </defs>
       <use xlink:href="#DejaVuSans-32"/>
       <use xlink:href="#DejaVuSans-30" x="63.623047"/>
      </g>
     </g>
    </g>
    <g id="xtick_4">
     <g id="line2d_4">
      <path d="M 282.997734 206.430469 
L 282.997734 26.877187 
" clip-path="url(#p6306846d63)" style="fill: none; stroke: #ffffff; stroke-width: 1.5; stroke-linecap: round"/>
     </g>
     <g id="text_4">
      <!-- 30 -->
      <g style="fill: #262626" transform="translate(272.499609 231.467891) scale(0.165 -0.165)">
       <defs>
        <path id="DejaVuSans-33" d="M 2597 2516 
Q 3050 2419 3304 2112 
Q 3559 1806 3559 1356 
Q 3559 666 3084 287 
Q 2609 -91 1734 -91 
Q 1441 -91 1130 -33 
Q 819 25 488 141 
L 488 750 
Q 750 597 1062 519 
Q 1375 441 1716 441 
Q 2309 441 2620 675 
Q 2931 909 2931 1356 
Q 2931 1769 2642 2001 
Q 2353 2234 1838 2234 
L 1294 2234 
L 1294 2753 
L 1863 2753 
Q 2328 2753 2575 2939 
Q 2822 3125 2822 3475 
Q 2822 3834 2567 4026 
Q 2313 4219 1838 4219 
Q 1578 4219 1281 4162 
Q 984 4106 628 3988 
L 628 4550 
Q 988 4650 1302 4700 
Q 1616 4750 1894 4750 
Q 2613 4750 3031 4423 
Q 3450 4097 3450 3541 
Q 3450 3153 3228 2886 
Q 3006 2619 2597 2516 
z
" transform="scale(0.015625)"/>
       </defs>
       <use xlink:href="#DejaVuSans-33"/>
       <use xlink:href="#DejaVuSans-30" x="63.623047"/>
      </g>
     </g>
    </g>
    <g id="text_5">
     <!-- Spot lifetime (sec) -->
     <g style="fill: #262626" transform="translate(92.758945 252.576562) scale(0.18 -0.18)">
      <defs>
       <path id="DejaVuSans-53" d="M 3425 4513 
L 3425 3897 
Q 3066 4069 2747 4153 
Q 2428 4238 2131 4238 
Q 1616 4238 1336 4038 
Q 1056 3838 1056 3469 
Q 1056 3159 1242 3001 
Q 1428 2844 1947 2747 
L 2328 2669 
Q 3034 2534 3370 2195 
Q 3706 1856 3706 1288 
Q 3706 609 3251 259 
Q 2797 -91 1919 -91 
Q 1588 -91 1214 -16 
Q 841 59 441 206 
L 441 856 
Q 825 641 1194 531 
Q 1563 422 1919 422 
Q 2459 422 2753 634 
Q 3047 847 3047 1241 
Q 3047 1584 2836 1778 
Q 2625 1972 2144 2069 
L 1759 2144 
Q 1053 2284 737 2584 
Q 422 2884 422 3419 
Q 422 4038 858 4394 
Q 1294 4750 2059 4750 
Q 2388 4750 2728 4690 
Q 3069 4631 3425 4513 
z
" transform="scale(0.015625)"/>
       <path id="DejaVuSans-70" d="M 1159 525 
L 1159 -1331 
L 581 -1331 
L 581 3500 
L 1159 3500 
L 1159 2969 
Q 1341 3281 1617 3432 
Q 1894 3584 2278 3584 
Q 2916 3584 3314 3078 
Q 3713 2572 3713 1747 
Q 3713 922 3314 415 
Q 2916 -91 2278 -91 
Q 1894 -91 1617 61 
Q 1341 213 1159 525 
z
M 3116 1747 
Q 3116 2381 2855 2742 
Q 2594 3103 2138 3103 
Q 1681 3103 1420 2742 
Q 1159 2381 1159 1747 
Q 1159 1113 1420 752 
Q 1681 391 2138 391 
Q 2594 391 2855 752 
Q 3116 1113 3116 1747 
z
" transform="scale(0.015625)"/>
       <path id="DejaVuSans-6f" d="M 1959 3097 
Q 1497 3097 1228 2736 
Q 959 2375 959 1747 
Q 959 1119 1226 758 
Q 1494 397 1959 397 
Q 2419 397 2687 759 
Q 2956 1122 2956 1747 
Q 2956 2369 2687 2733 
Q 2419 3097 1959 3097 
z
M 1959 3584 
Q 2709 3584 3137 3096 
Q 3566 2609 3566 1747 
Q 3566 888 3137 398 
Q 2709 -91 1959 -91 
Q 1206 -91 779 398 
Q 353 888 353 1747 
Q 353 2609 779 3096 
Q 1206 3584 1959 3584 
z
" transform="scale(0.015625)"/>
       <path id="DejaVuSans-74" d="M 1172 4494 
L 1172 3500 
L 2356 3500 
L 2356 3053 
L 1172 3053 
L 1172 1153 
Q 1172 725 1289 603 
Q 1406 481 1766 481 
L 2356 481 
L 2356 0 
L 1766 0 
Q 1100 0 847 248 
Q 594 497 594 1153 
L 594 3053 
L 172 3053 
L 172 3500 
L 594 3500 
L 594 4494 
L 1172 4494 
z
" transform="scale(0.015625)"/>
       <path id="DejaVuSans-20" transform="scale(0.015625)"/>
       <path id="DejaVuSans-6c" d="M 603 4863 
L 1178 4863 
L 1178 0 
L 603 0 
L 603 4863 
z
" transform="scale(0.015625)"/>
       <path id="DejaVuSans-69" d="M 603 3500 
L 1178 3500 
L 1178 0 
L 603 0 
L 603 3500 
z
M 603 4863 
L 1178 4863 
L 1178 4134 
L 603 4134 
L 603 4863 
z
" transform="scale(0.015625)"/>
       <path id="DejaVuSans-66" d="M 2375 4863 
L 2375 4384 
L 1825 4384 
Q 1516 4384 1395 4259 
Q 1275 4134 1275 3809 
L 1275 3500 
L 2222 3500 
L 2222 3053 
L 1275 3053 
L 1275 0 
L 697 0 
L 697 3053 
L 147 3053 
L 147 3500 
L 697 3500 
L 697 3744 
Q 697 4328 969 4595 
Q 1241 4863 1831 4863 
L 2375 4863 
z
" transform="scale(0.015625)"/>
       <path id="DejaVuSans-65" d="M 3597 1894 
L 3597 1613 
L 953 1613 
Q 991 1019 1311 708 
Q 1631 397 2203 397 
Q 2534 397 2845 478 
Q 3156 559 3463 722 
L 3463 178 
Q 3153 47 2828 -22 
Q 2503 -91 2169 -91 
Q 1331 -91 842 396 
Q 353 884 353 1716 
Q 353 2575 817 3079 
Q 1281 3584 2069 3584 
Q 2775 3584 3186 3129 
Q 3597 2675 3597 1894 
z
M 3022 2063 
Q 3016 2534 2758 2815 
Q 2500 3097 2075 3097 
Q 1594 3097 1305 2825 
Q 1016 2553 972 2059 
L 3022 2063 
z
" transform="scale(0.015625)"/>
       <path id="DejaVuSans-6d" d="M 3328 2828 
Q 3544 3216 3844 3400 
Q 4144 3584 4550 3584 
Q 5097 3584 5394 3201 
Q 5691 2819 5691 2113 
L 5691 0 
L 5113 0 
L 5113 2094 
Q 5113 2597 4934 2840 
Q 4756 3084 4391 3084 
Q 3944 3084 3684 2787 
Q 3425 2491 3425 1978 
L 3425 0 
L 2847 0 
L 2847 2094 
Q 2847 2600 2669 2842 
Q 2491 3084 2119 3084 
Q 1678 3084 1418 2786 
Q 1159 2488 1159 1978 
L 1159 0 
L 581 0 
L 581 3500 
L 1159 3500 
L 1159 2956 
Q 1356 3278 1631 3431 
Q 1906 3584 2284 3584 
Q 2666 3584 2933 3390 
Q 3200 3197 3328 2828 
z
" transform="scale(0.015625)"/>
       <path id="DejaVuSans-28" d="M 1984 4856 
Q 1566 4138 1362 3434 
Q 1159 2731 1159 2009 
Q 1159 1288 1364 580 
Q 1569 -128 1984 -844 
L 1484 -844 
Q 1016 -109 783 600 
Q 550 1309 550 2009 
Q 550 2706 781 3412 
Q 1013 4119 1484 4856 
L 1984 4856 
z
" transform="scale(0.015625)"/>
       <path id="DejaVuSans-73" d="M 2834 3397 
L 2834 2853 
Q 2591 2978 2328 3040 
Q 2066 3103 1784 3103 
Q 1356 3103 1142 2972 
Q 928 2841 928 2578 
Q 928 2378 1081 2264 
Q 1234 2150 1697 2047 
L 1894 2003 
Q 2506 1872 2764 1633 
Q 3022 1394 3022 966 
Q 3022 478 2636 193 
Q 2250 -91 1575 -91 
Q 1294 -91 989 -36 
Q 684 19 347 128 
L 347 722 
Q 666 556 975 473 
Q 1284 391 1588 391 
Q 1994 391 2212 530 
Q 2431 669 2431 922 
Q 2431 1156 2273 1281 
Q 2116 1406 1581 1522 
L 1381 1569 
Q 847 1681 609 1914 
Q 372 2147 372 2553 
Q 372 3047 722 3315 
Q 1072 3584 1716 3584 
Q 2034 3584 2315 3537 
Q 2597 3491 2834 3397 
z
" transform="scale(0.015625)"/>
       <path id="DejaVuSans-63" d="M 3122 3366 
L 3122 2828 
Q 2878 2963 2633 3030 
Q 2388 3097 2138 3097 
Q 1578 3097 1268 2742 
Q 959 2388 959 1747 
Q 959 1106 1268 751 
Q 1578 397 2138 397 
Q 2388 397 2633 464 
Q 2878 531 3122 666 
L 3122 134 
Q 2881 22 2623 -34 
Q 2366 -91 2075 -91 
Q 1284 -91 818 406 
Q 353 903 353 1747 
Q 353 2603 823 3093 
Q 1294 3584 2113 3584 
Q 2378 3584 2631 3529 
Q 2884 3475 3122 3366 
z
" transform="scale(0.015625)"/>
       <path id="DejaVuSans-29" d="M 513 4856 
L 1013 4856 
Q 1481 4119 1714 3412 
Q 1947 2706 1947 2009 
Q 1947 1309 1714 600 
Q 1481 -109 1013 -844 
L 513 -844 
Q 928 -128 1133 580 
Q 1338 1288 1338 2009 
Q 1338 2731 1133 3434 
Q 928 4138 513 4856 
z
" transform="scale(0.015625)"/>
      </defs>
      <use xlink:href="#DejaVuSans-53"/>
      <use xlink:href="#DejaVuSans-70" x="63.476562"/>
      <use xlink:href="#DejaVuSans-6f" x="126.953125"/>
      <use xlink:href="#DejaVuSans-74" x="188.134766"/>
      <use xlink:href="#DejaVuSans-20" x="227.34375"/>
      <use xlink:href="#DejaVuSans-6c" x="259.130859"/>
      <use xlink:href="#DejaVuSans-69" x="286.914062"/>
      <use xlink:href="#DejaVuSans-66" x="314.697266"/>
      <use xlink:href="#DejaVuSans-65" x="349.902344"/>
      <use xlink:href="#DejaVuSans-74" x="411.425781"/>
      <use xlink:href="#DejaVuSans-69" x="450.634766"/>
      <use xlink:href="#DejaVuSans-6d" x="478.417969"/>
      <use xlink:href="#DejaVuSans-65" x="575.830078"/>
      <use xlink:href="#DejaVuSans-20" x="637.353516"/>
      <use xlink:href="#DejaVuSans-28" x="669.140625"/>
      <use xlink:href="#DejaVuSans-73" x="708.154297"/>
      <use xlink:href="#DejaVuSans-65" x="760.253906"/>
      <use xlink:href="#DejaVuSans-63" x="821.777344"/>
      <use xlink:href="#DejaVuSans-29" x="876.757812"/>
     </g>
    </g>
   </g>
   <g id="matplotlib.axis_2">
    <g id="ytick_1">
     <g id="line2d_5">
      <path d="M 67.360781 206.430469 
L 282.997734 206.430469 
" clip-path="url(#p6306846d63)" style="fill: none; stroke: #ffffff; stroke-width: 1.5; stroke-linecap: round"/>
     </g>
     <g id="text_6">
      <!-- 0.0 -->
      <g style="fill: #262626" transform="translate(28.620625 212.69918) scale(0.165 -0.165)">
       <defs>
        <path id="DejaVuSans-2e" d="M 684 794 
L 1344 794 
L 1344 0 
L 684 0 
L 684 794 
z
" transform="scale(0.015625)"/>
       </defs>
       <use xlink:href="#DejaVuSans-30"/>
       <use xlink:href="#DejaVuSans-2e" x="63.623047"/>
       <use xlink:href="#DejaVuSans-30" x="95.410156"/>
      </g>
     </g>
    </g>
    <g id="ytick_2">
     <g id="line2d_6">
      <path d="M 67.360781 156.046874 
L 282.997734 156.046874 
" clip-path="url(#p6306846d63)" style="fill: none; stroke: #ffffff; stroke-width: 1.5; stroke-linecap: round"/>
     </g>
     <g id="text_7">
      <!-- 0.2 -->
      <g style="fill: #262626" transform="translate(28.620625 162.315585) scale(0.165 -0.165)">
       <use xlink:href="#DejaVuSans-30"/>
       <use xlink:href="#DejaVuSans-2e" x="63.623047"/>
       <use xlink:href="#DejaVuSans-32" x="95.410156"/>
      </g>
     </g>
    </g>
    <g id="ytick_3">
     <g id="line2d_7">
      <path d="M 67.360781 105.663279 
L 282.997734 105.663279 
" clip-path="url(#p6306846d63)" style="fill: none; stroke: #ffffff; stroke-width: 1.5; stroke-linecap: round"/>
     </g>
     <g id="text_8">
      <!-- 0.4 -->
      <g style="fill: #262626" transform="translate(28.620625 111.93199) scale(0.165 -0.165)">
       <defs>
        <path id="DejaVuSans-34" d="M 2419 4116 
L 825 1625 
L 2419 1625 
L 2419 4116 
z
M 2253 4666 
L 3047 4666 
L 3047 1625 
L 3713 1625 
L 3713 1100 
L 3047 1100 
L 3047 0 
L 2419 0 
L 2419 1100 
L 313 1100 
L 313 1709 
L 2253 4666 
z
" transform="scale(0.015625)"/>
       </defs>
       <use xlink:href="#DejaVuSans-30"/>
       <use xlink:href="#DejaVuSans-2e" x="63.623047"/>
       <use xlink:href="#DejaVuSans-34" x="95.410156"/>
      </g>
     </g>
    </g>
    <g id="ytick_4">
     <g id="line2d_8">
      <path d="M 67.360781 55.279684 
L 282.997734 55.279684 
" clip-path="url(#p6306846d63)" style="fill: none; stroke: #ffffff; stroke-width: 1.5; stroke-linecap: round"/>
     </g>
     <g id="text_9">
      <!-- 0.6 -->
      <g style="fill: #262626" transform="translate(28.620625 61.548395) scale(0.165 -0.165)">
       <defs>
        <path id="DejaVuSans-36" d="M 2113 2584 
Q 1688 2584 1439 2293 
Q 1191 2003 1191 1497 
Q 1191 994 1439 701 
Q 1688 409 2113 409 
Q 2538 409 2786 701 
Q 3034 994 3034 1497 
Q 3034 2003 2786 2293 
Q 2538 2584 2113 2584 
z
M 3366 4563 
L 3366 3988 
Q 3128 4100 2886 4159 
Q 2644 4219 2406 4219 
Q 1781 4219 1451 3797 
Q 1122 3375 1075 2522 
Q 1259 2794 1537 2939 
Q 1816 3084 2150 3084 
Q 2853 3084 3261 2657 
Q 3669 2231 3669 1497 
Q 3669 778 3244 343 
Q 2819 -91 2113 -91 
Q 1303 -91 875 529 
Q 447 1150 447 2328 
Q 447 3434 972 4092 
Q 1497 4750 2381 4750 
Q 2619 4750 2861 4703 
Q 3103 4656 3366 4563 
z
" transform="scale(0.015625)"/>
       </defs>
       <use xlink:href="#DejaVuSans-30"/>
       <use xlink:href="#DejaVuSans-2e" x="63.623047"/>
       <use xlink:href="#DejaVuSans-36" x="95.410156"/>
      </g>
     </g>
    </g>
    <g id="text_10">
     <!-- Probability -->
     <g style="fill: #262626" transform="translate(20.877187 164.225859) rotate(-90) scale(0.18 -0.18)">
      <defs>
       <path id="DejaVuSans-50" d="M 1259 4147 
L 1259 2394 
L 2053 2394 
Q 2494 2394 2734 2622 
Q 2975 2850 2975 3272 
Q 2975 3691 2734 3919 
Q 2494 4147 2053 4147 
L 1259 4147 
z
M 628 4666 
L 2053 4666 
Q 2838 4666 3239 4311 
Q 3641 3956 3641 3272 
Q 3641 2581 3239 2228 
Q 2838 1875 2053 1875 
L 1259 1875 
L 1259 0 
L 628 0 
L 628 4666 
z
" transform="scale(0.015625)"/>
       <path id="DejaVuSans-72" d="M 2631 2963 
Q 2534 3019 2420 3045 
Q 2306 3072 2169 3072 
Q 1681 3072 1420 2755 
Q 1159 2438 1159 1844 
L 1159 0 
L 581 0 
L 581 3500 
L 1159 3500 
L 1159 2956 
Q 1341 3275 1631 3429 
Q 1922 3584 2338 3584 
Q 2397 3584 2469 3576 
Q 2541 3569 2628 3553 
L 2631 2963 
z
" transform="scale(0.015625)"/>
       <path id="DejaVuSans-62" d="M 3116 1747 
Q 3116 2381 2855 2742 
Q 2594 3103 2138 3103 
Q 1681 3103 1420 2742 
Q 1159 2381 1159 1747 
Q 1159 1113 1420 752 
Q 1681 391 2138 391 
Q 2594 391 2855 752 
Q 3116 1113 3116 1747 
z
M 1159 2969 
Q 1341 3281 1617 3432 
Q 1894 3584 2278 3584 
Q 2916 3584 3314 3078 
Q 3713 2572 3713 1747 
Q 3713 922 3314 415 
Q 2916 -91 2278 -91 
Q 1894 -91 1617 61 
Q 1341 213 1159 525 
L 1159 0 
L 581 0 
L 581 4863 
L 1159 4863 
L 1159 2969 
z
" transform="scale(0.015625)"/>
       <path id="DejaVuSans-61" d="M 2194 1759 
Q 1497 1759 1228 1600 
Q 959 1441 959 1056 
Q 959 750 1161 570 
Q 1363 391 1709 391 
Q 2188 391 2477 730 
Q 2766 1069 2766 1631 
L 2766 1759 
L 2194 1759 
z
M 3341 1997 
L 3341 0 
L 2766 0 
L 2766 531 
Q 2569 213 2275 61 
Q 1981 -91 1556 -91 
Q 1019 -91 701 211 
Q 384 513 384 1019 
Q 384 1609 779 1909 
Q 1175 2209 1959 2209 
L 2766 2209 
L 2766 2266 
Q 2766 2663 2505 2880 
Q 2244 3097 1772 3097 
Q 1472 3097 1187 3025 
Q 903 2953 641 2809 
L 641 3341 
Q 956 3463 1253 3523 
Q 1550 3584 1831 3584 
Q 2591 3584 2966 3190 
Q 3341 2797 3341 1997 
z
" transform="scale(0.015625)"/>
       <path id="DejaVuSans-79" d="M 2059 -325 
Q 1816 -950 1584 -1140 
Q 1353 -1331 966 -1331 
L 506 -1331 
L 506 -850 
L 844 -850 
Q 1081 -850 1212 -737 
Q 1344 -625 1503 -206 
L 1606 56 
L 191 3500 
L 800 3500 
L 1894 763 
L 2988 3500 
L 3597 3500 
L 2059 -325 
z
" transform="scale(0.015625)"/>
      </defs>
      <use xlink:href="#DejaVuSans-50"/>
      <use xlink:href="#DejaVuSans-72" x="58.552734"/>
      <use xlink:href="#DejaVuSans-6f" x="97.416016"/>
      <use xlink:href="#DejaVuSans-62" x="158.597656"/>
      <use xlink:href="#DejaVuSans-61" x="222.074219"/>
      <use xlink:href="#DejaVuSans-62" x="283.353516"/>
      <use xlink:href="#DejaVuSans-69" x="346.830078"/>
      <use xlink:href="#DejaVuSans-6c" x="374.613281"/>
      <use xlink:href="#DejaVuSans-69" x="402.396484"/>
      <use xlink:href="#DejaVuSans-74" x="430.179688"/>
      <use xlink:href="#DejaVuSans-79" x="469.388672"/>
     </g>
    </g>
   </g>
   <g id="PatchCollection_1">
    <path d="M 74.54868 206.430469 
L 88.924477 206.430469 
L 88.924477 37.401074 
L 74.54868 37.401074 
z
" clip-path="url(#p6306846d63)" style="fill: #de5d5c; fill-opacity: 0.7; stroke-dasharray: 7.4,3.2; stroke-dashoffset: 0"/>
    <path d="M 74.54868 206.430469 
L 88.924477 206.430469 
L 88.924477 35.427344 
L 74.54868 35.427344 
L 74.54868 206.430469 
z
" clip-path="url(#p6306846d63)" style="fill: none; stroke-dasharray: 7.4,3.2; stroke-dashoffset: 0; stroke: #262626; stroke-width: 2"/>
    <path d="M 88.924477 206.430469 
L 103.300273 206.430469 
L 103.300273 163.506006 
L 88.924477 163.506006 
z
" clip-path="url(#p6306846d63)" style="fill: #de5d5c; fill-opacity: 0.7; stroke-dasharray: 7.4,3.2; stroke-dashoffset: 0"/>
    <path d="M 88.924477 206.430469 
L 103.300273 206.430469 
L 103.300273 165.316292 
L 88.924477 165.316292 
L 88.924477 206.430469 
z
" clip-path="url(#p6306846d63)" style="fill: none; stroke-dasharray: 7.4,3.2; stroke-dashoffset: 0; stroke: #262626; stroke-width: 2"/>
    <path d="M 103.300273 206.430469 
L 117.67607 206.430469 
L 117.67607 190.224624 
L 103.300273 190.224624 
z
" clip-path="url(#p6306846d63)" style="fill: #de5d5c; fill-opacity: 0.7; stroke-dasharray: 7.4,3.2; stroke-dashoffset: 0"/>
    <path d="M 103.300273 206.430469 
L 117.67607 206.430469 
L 117.67607 188.528163 
L 103.300273 188.528163 
L 103.300273 206.430469 
z
" clip-path="url(#p6306846d63)" style="fill: none; stroke-dasharray: 7.4,3.2; stroke-dashoffset: 0; stroke: #262626; stroke-width: 2"/>
    <path d="M 117.67607 206.430469 
L 132.051867 206.430469 
L 132.051867 199.302092 
L 117.67607 199.302092 
z
" clip-path="url(#p6306846d63)" style="fill: #de5d5c; fill-opacity: 0.7; stroke-dasharray: 7.4,3.2; stroke-dashoffset: 0"/>
    <path d="M 117.67607 206.430469 
L 132.051867 206.430469 
L 132.051867 199.675862 
L 117.67607 199.675862 
L 117.67607 206.430469 
z
" clip-path="url(#p6306846d63)" style="fill: none; stroke-dasharray: 7.4,3.2; stroke-dashoffset: 0; stroke: #262626; stroke-width: 2"/>
    <path d="M 132.051867 206.430469 
L 146.427664 206.430469 
L 146.427664 202.980241 
L 132.051867 202.980241 
z
" clip-path="url(#p6306846d63)" style="fill: #de5d5c; fill-opacity: 0.7; stroke-dasharray: 7.4,3.2; stroke-dashoffset: 0"/>
    <path d="M 132.051867 206.430469 
L 146.427664 206.430469 
L 146.427664 202.732474 
L 132.051867 202.732474 
L 132.051867 206.430469 
z
" clip-path="url(#p6306846d63)" style="fill: none; stroke-dasharray: 7.4,3.2; stroke-dashoffset: 0; stroke: #262626; stroke-width: 2"/>
    <path d="M 146.427664 206.430469 
L 160.803461 206.430469 
L 160.803461 203.612665 
L 146.427664 203.612665 
z
" clip-path="url(#p6306846d63)" style="fill: #de5d5c; fill-opacity: 0.7; stroke-dasharray: 7.4,3.2; stroke-dashoffset: 0"/>
    <path d="M 146.427664 206.430469 
L 160.803461 206.430469 
L 160.803461 204.045016 
L 146.427664 204.045016 
L 146.427664 206.430469 
z
" clip-path="url(#p6306846d63)" style="fill: none; stroke-dasharray: 7.4,3.2; stroke-dashoffset: 0; stroke: #262626; stroke-width: 2"/>
    <path d="M 160.803461 206.430469 
L 175.179258 206.430469 
L 175.179258 204.726074 
L 160.803461 204.726074 
z
" clip-path="url(#p6306846d63)" style="fill: #de5d5c; fill-opacity: 0.7; stroke-dasharray: 7.4,3.2; stroke-dashoffset: 0"/>
    <path d="M 160.803461 206.430469 
L 175.179258 206.430469 
L 175.179258 205.178709 
L 160.803461 205.178709 
L 160.803461 206.430469 
z
" clip-path="url(#p6306846d63)" style="fill: none; stroke-dasharray: 7.4,3.2; stroke-dashoffset: 0; stroke: #262626; stroke-width: 2"/>
    <path d="M 175.179258 206.430469 
L 189.555055 206.430469 
L 189.555055 205.183745 
L 175.179258 205.183745 
z
" clip-path="url(#p6306846d63)" style="fill: #de5d5c; fill-opacity: 0.7; stroke-dasharray: 7.4,3.2; stroke-dashoffset: 0"/>
    <path d="M 175.179258 206.430469 
L 189.555055 206.430469 
L 189.555055 205.343714 
L 175.179258 205.343714 
L 175.179258 206.430469 
z
" clip-path="url(#p6306846d63)" style="fill: none; stroke-dasharray: 7.4,3.2; stroke-dashoffset: 0; stroke: #262626; stroke-width: 2"/>
    <path d="M 189.555055 206.430469 
L 203.930852 206.430469 
L 203.930852 205.463299 
L 189.555055 205.463299 
z
" clip-path="url(#p6306846d63)" style="fill: #de5d5c; fill-opacity: 0.7; stroke-dasharray: 7.4,3.2; stroke-dashoffset: 0"/>
    <path d="M 189.555055 206.430469 
L 203.930852 206.430469 
L 203.930852 205.600541 
L 189.555055 205.600541 
L 189.555055 206.430469 
z
" clip-path="url(#p6306846d63)" style="fill: none; stroke-dasharray: 7.4,3.2; stroke-dashoffset: 0; stroke: #262626; stroke-width: 2"/>
    <path d="M 203.930852 206.430469 
L 218.306648 206.430469 
L 218.306648 205.608866 
L 203.930852 205.608866 
z
" clip-path="url(#p6306846d63)" style="fill: #de5d5c; fill-opacity: 0.7; stroke-dasharray: 7.4,3.2; stroke-dashoffset: 0"/>
    <path d="M 203.930852 206.430469 
L 218.306648 206.430469 
L 218.306648 205.786275 
L 203.930852 205.786275 
L 203.930852 206.430469 
z
" clip-path="url(#p6306846d63)" style="fill: none; stroke-dasharray: 7.4,3.2; stroke-dashoffset: 0; stroke: #262626; stroke-width: 2"/>
    <path d="M 218.306648 206.430469 
L 232.682445 206.430469 
L 232.682445 205.690841 
L 218.306648 205.690841 
z
" clip-path="url(#p6306846d63)" style="fill: #de5d5c; fill-opacity: 0.7; stroke-dasharray: 7.4,3.2; stroke-dashoffset: 0"/>
    <path d="M 218.306648 206.430469 
L 232.682445 206.430469 
L 232.682445 205.847597 
L 218.306648 205.847597 
L 218.306648 206.430469 
z
" clip-path="url(#p6306846d63)" style="fill: none; stroke-dasharray: 7.4,3.2; stroke-dashoffset: 0; stroke: #262626; stroke-width: 2"/>
    <path d="M 232.682445 206.430469 
L 247.058242 206.430469 
L 247.058242 205.750943 
L 232.682445 205.750943 
z
" clip-path="url(#p6306846d63)" style="fill: #de5d5c; fill-opacity: 0.7; stroke-dasharray: 7.4,3.2; stroke-dashoffset: 0"/>
    <path d="M 232.682445 206.430469 
L 247.058242 206.430469 
L 247.058242 205.930659 
L 232.682445 205.930659 
L 232.682445 206.430469 
z
" clip-path="url(#p6306846d63)" style="fill: none; stroke-dasharray: 7.4,3.2; stroke-dashoffset: 0; stroke: #262626; stroke-width: 2"/>
    <path d="M 247.058242 206.430469 
L 261.434039 206.430469 
L 261.434039 205.970348 
L 247.058242 205.970348 
z
" clip-path="url(#p6306846d63)" style="fill: #de5d5c; fill-opacity: 0.7; stroke-dasharray: 7.4,3.2; stroke-dashoffset: 0"/>
    <path d="M 247.058242 206.430469 
L 261.434039 206.430469 
L 261.434039 205.972262 
L 247.058242 205.972262 
L 247.058242 206.430469 
z
" clip-path="url(#p6306846d63)" style="fill: none; stroke-dasharray: 7.4,3.2; stroke-dashoffset: 0; stroke: #262626; stroke-width: 2"/>
    <path d="M 261.434039 206.430469 
L 275.809836 206.430469 
L 275.809836 205.960856 
L 261.434039 205.960856 
z
" clip-path="url(#p6306846d63)" style="fill: #de5d5c; fill-opacity: 0.7; stroke-dasharray: 7.4,3.2; stroke-dashoffset: 0"/>
    <path d="M 261.434039 206.430469 
L 275.809836 206.430469 
L 275.809836 206.130129 
L 261.434039 206.130129 
L 261.434039 206.430469 
z
" clip-path="url(#p6306846d63)" style="fill: none; stroke-dasharray: 7.4,3.2; stroke-dashoffset: 0; stroke: #262626; stroke-width: 2"/>
    <path d="M 275.809836 206.430469 
L 290.185633 206.430469 
L 290.185633 206.04707 
L 275.809836 206.04707 
z
" clip-path="url(#p6306846d63)" style="fill: #de5d5c; fill-opacity: 0.7; stroke-dasharray: 7.4,3.2; stroke-dashoffset: 0"/>
    <path d="M 275.809836 206.430469 
L 290.185633 206.430469 
L 290.185633 206.151489 
L 275.809836 206.151489 
L 275.809836 206.430469 
z
" clip-path="url(#p6306846d63)" style="fill: none; stroke-dasharray: 7.4,3.2; stroke-dashoffset: 0; stroke: #262626; stroke-width: 2"/>
    <path d="M 290.185633 206.430469 
L 304.56143 206.430469 
L 304.56143 206.103353 
L 290.185633 206.103353 
z
" clip-path="url(#p6306846d63)" style="fill: #de5d5c; fill-opacity: 0.7; stroke-dasharray: 7.4,3.2; stroke-dashoffset: 0"/>
    <path d="M 290.185633 206.430469 
L 304.56143 206.430469 
L 304.56143 205.986502 
L 290.185633 205.986502 
L 290.185633 206.430469 
z
" clip-path="url(#p6306846d63)" style="fill: none; stroke-dasharray: 7.4,3.2; stroke-dashoffset: 0; stroke: #262626; stroke-width: 2"/>
    <path d="M 304.56143 206.430469 
L 318.937227 206.430469 
L 318.937227 206.101097 
L 304.56143 206.101097 
z
" clip-path="url(#p6306846d63)" style="fill: #de5d5c; fill-opacity: 0.7; stroke-dasharray: 7.4,3.2; stroke-dashoffset: 0"/>
    <path d="M 304.56143 206.430469 
L 318.937227 206.430469 
L 318.937227 206.225916 
L 304.56143 206.225916 
L 304.56143 206.430469 
z
" clip-path="url(#p6306846d63)" style="fill: none; stroke-dasharray: 7.4,3.2; stroke-dashoffset: 0; stroke: #262626; stroke-width: 2"/>
    <path d="M 318.937227 206.430469 
L 333.313023 206.430469 
L 333.313023 206.132847 
L 318.937227 206.132847 
z
" clip-path="url(#p6306846d63)" style="fill: #de5d5c; fill-opacity: 0.7; stroke-dasharray: 7.4,3.2; stroke-dashoffset: 0"/>
    <path d="M 318.937227 206.430469 
L 333.313023 206.430469 
L 333.313023 206.243473 
L 318.937227 206.243473 
L 318.937227 206.430469 
z
" clip-path="url(#p6306846d63)" style="fill: none; stroke-dasharray: 7.4,3.2; stroke-dashoffset: 0; stroke: #262626; stroke-width: 2"/>
    <path d="M 333.313023 206.430469 
L 347.68882 206.430469 
L 347.68882 206.169004 
L 333.313023 206.169004 
z
" clip-path="url(#p6306846d63)" style="fill: #de5d5c; fill-opacity: 0.7; stroke-dasharray: 7.4,3.2; stroke-dashoffset: 0"/>
    <path d="M 333.313023 206.430469 
L 347.68882 206.430469 
L 347.68882 206.210522 
L 333.313023 206.210522 
L 333.313023 206.430469 
z
" clip-path="url(#p6306846d63)" style="fill: none; stroke-dasharray: 7.4,3.2; stroke-dashoffset: 0; stroke: #262626; stroke-width: 2"/>
    <path d="M 347.68882 206.430469 
L 362.064617 206.430469 
L 362.064617 206.199045 
L 347.68882 206.199045 
z
" clip-path="url(#p6306846d63)" style="fill: #de5d5c; fill-opacity: 0.7; stroke-dasharray: 7.4,3.2; stroke-dashoffset: 0"/>
    <path d="M 347.68882 206.430469 
L 362.064617 206.430469 
L 362.064617 206.161673 
L 347.68882 206.161673 
L 347.68882 206.430469 
z
" clip-path="url(#p6306846d63)" style="fill: none; stroke-dasharray: 7.4,3.2; stroke-dashoffset: 0; stroke: #262626; stroke-width: 2"/>
    <path d="M 362.064617 206.430469 
L 376.440414 206.430469 
L 376.440414 206.300446 
L 362.064617 206.300446 
z
" clip-path="url(#p6306846d63)" style="fill: #de5d5c; fill-opacity: 0.7; stroke-dasharray: 7.4,3.2; stroke-dashoffset: 0"/>
    <path d="M 362.064617 206.430469 
L 376.440414 206.430469 
L 376.440414 206.313502 
L 362.064617 206.313502 
L 362.064617 206.430469 
z
" clip-path="url(#p6306846d63)" style="fill: none; stroke-dasharray: 7.4,3.2; stroke-dashoffset: 0; stroke: #262626; stroke-width: 2"/>
    <path d="M 376.440414 206.430469 
L 390.816211 206.430469 
L 390.816211 206.210768 
L 376.440414 206.210768 
z
" clip-path="url(#p6306846d63)" style="fill: #de5d5c; fill-opacity: 0.7; stroke-dasharray: 7.4,3.2; stroke-dashoffset: 0"/>
    <path d="M 376.440414 206.430469 
L 390.816211 206.430469 
L 390.816211 206.273107 
L 376.440414 206.273107 
L 376.440414 206.430469 
z
" clip-path="url(#p6306846d63)" style="fill: none; stroke-dasharray: 7.4,3.2; stroke-dashoffset: 0; stroke: #262626; stroke-width: 2"/>
    <path d="M 390.816211 206.430469 
L 405.192008 206.430469 
L 405.192008 206.297748 
L 390.816211 206.297748 
z
" clip-path="url(#p6306846d63)" style="fill: #de5d5c; fill-opacity: 0.7; stroke-dasharray: 7.4,3.2; stroke-dashoffset: 0"/>
    <path d="M 390.816211 206.430469 
L 405.192008 206.430469 
L 405.192008 206.239651 
L 390.816211 206.239651 
L 390.816211 206.430469 
z
" clip-path="url(#p6306846d63)" style="fill: none; stroke-dasharray: 7.4,3.2; stroke-dashoffset: 0; stroke: #262626; stroke-width: 2"/>
    <path d="M 405.192008 206.430469 
L 419.567805 206.430469 
L 419.567805 206.272316 
L 405.192008 206.272316 
z
" clip-path="url(#p6306846d63)" style="fill: #de5d5c; fill-opacity: 0.7; stroke-dasharray: 7.4,3.2; stroke-dashoffset: 0"/>
    <path d="M 405.192008 206.430469 
L 419.567805 206.430469 
L 419.567805 206.36044 
L 405.192008 206.36044 
L 405.192008 206.430469 
z
" clip-path="url(#p6306846d63)" style="fill: none; stroke-dasharray: 7.4,3.2; stroke-dashoffset: 0; stroke: #262626; stroke-width: 2"/>
    <path d="M 419.567805 206.430469 
L 433.943602 206.430469 
L 433.943602 206.273126 
L 419.567805 206.273126 
z
" clip-path="url(#p6306846d63)" style="fill: #de5d5c; fill-opacity: 0.7; stroke-dasharray: 7.4,3.2; stroke-dashoffset: 0"/>
    <path d="M 419.567805 206.430469 
L 433.943602 206.430469 
L 433.943602 206.313502 
L 419.567805 206.313502 
L 419.567805 206.430469 
z
" clip-path="url(#p6306846d63)" style="fill: none; stroke-dasharray: 7.4,3.2; stroke-dashoffset: 0; stroke: #262626; stroke-width: 2"/>
    <path d="M 433.943602 206.430469 
L 448.319398 206.430469 
L 448.319398 206.306973 
L 433.943602 206.306973 
z
" clip-path="url(#p6306846d63)" style="fill: #de5d5c; fill-opacity: 0.7; stroke-dasharray: 7.4,3.2; stroke-dashoffset: 0"/>
    <path d="M 433.943602 206.430469 
L 448.319398 206.430469 
L 448.319398 206.266942 
L 433.943602 206.266942 
L 433.943602 206.430469 
z
" clip-path="url(#p6306846d63)" style="fill: none; stroke-dasharray: 7.4,3.2; stroke-dashoffset: 0; stroke: #262626; stroke-width: 2"/>
    <path d="M 448.319398 206.430469 
L 462.695195 206.430469 
L 462.695195 206.345493 
L 448.319398 206.345493 
z
" clip-path="url(#p6306846d63)" style="fill: #de5d5c; fill-opacity: 0.7; stroke-dasharray: 7.4,3.2; stroke-dashoffset: 0"/>
    <path d="M 448.319398 206.430469 
L 462.695195 206.430469 
L 462.695195 206.291925 
L 448.319398 206.291925 
L 448.319398 206.430469 
z
" clip-path="url(#p6306846d63)" style="fill: none; stroke-dasharray: 7.4,3.2; stroke-dashoffset: 0; stroke: #262626; stroke-width: 2"/>
    <path d="M 462.695195 206.430469 
L 477.070992 206.430469 
L 477.070992 206.203771 
L 462.695195 206.203771 
z
" clip-path="url(#p6306846d63)" style="fill: #de5d5c; fill-opacity: 0.7; stroke-dasharray: 7.4,3.2; stroke-dashoffset: 0"/>
    <path d="M 462.695195 206.430469 
L 477.070992 206.430469 
L 477.070992 206.116772 
L 462.695195 206.116772 
L 462.695195 206.430469 
z
" clip-path="url(#p6306846d63)" style="fill: none; stroke-dasharray: 7.4,3.2; stroke-dashoffset: 0; stroke: #262626; stroke-width: 2"/>
    <path d="M 477.070992 206.430469 
L 491.446789 206.430469 
L 491.446789 206.1952 
L 477.070992 206.1952 
z
" clip-path="url(#p6306846d63)" style="fill: #de5d5c; fill-opacity: 0.7; stroke-dasharray: 7.4,3.2; stroke-dashoffset: 0"/>
    <path d="M 477.070992 206.430469 
L 491.446789 206.430469 
L 491.446789 206.336971 
L 477.070992 206.336971 
L 477.070992 206.430469 
z
" clip-path="url(#p6306846d63)" style="fill: none; stroke-dasharray: 7.4,3.2; stroke-dashoffset: 0; stroke: #262626; stroke-width: 2"/>
    <path d="M 491.446789 206.430469 
L 505.822586 206.430469 
L 505.822586 206.326681 
L 491.446789 206.326681 
z
" clip-path="url(#p6306846d63)" style="fill: #de5d5c; fill-opacity: 0.7; stroke-dasharray: 7.4,3.2; stroke-dashoffset: 0"/>
    <path d="M 491.446789 206.430469 
L 505.822586 206.430469 
L 505.822586 206.239849 
L 491.446789 206.239849 
L 491.446789 206.430469 
z
" clip-path="url(#p6306846d63)" style="fill: none; stroke-dasharray: 7.4,3.2; stroke-dashoffset: 0; stroke: #262626; stroke-width: 2"/>
    <path d="M 505.822586 206.430469 
L 520.198383 206.430469 
L 520.198383 206.258587 
L 505.822586 206.258587 
z
" clip-path="url(#p6306846d63)" style="fill: #de5d5c; fill-opacity: 0.7; stroke-dasharray: 7.4,3.2; stroke-dashoffset: 0"/>
    <path d="M 505.822586 206.430469 
L 520.198383 206.430469 
L 520.198383 206.267699 
L 505.822586 206.267699 
L 505.822586 206.430469 
z
" clip-path="url(#p6306846d63)" style="fill: none; stroke-dasharray: 7.4,3.2; stroke-dashoffset: 0; stroke: #262626; stroke-width: 2"/>
    <path d="M 520.198383 206.430469 
L 534.57418 206.430469 
L 534.57418 206.36255 
L 520.198383 206.36255 
z
" clip-path="url(#p6306846d63)" style="fill: #de5d5c; fill-opacity: 0.7; stroke-dasharray: 7.4,3.2; stroke-dashoffset: 0"/>
    <path d="M 534.57418 206.430469 
L 548.949977 206.430469 
L 548.949977 206.262146 
L 534.57418 206.262146 
z
" clip-path="url(#p6306846d63)" style="fill: #de5d5c; fill-opacity: 0.7; stroke-dasharray: 7.4,3.2; stroke-dashoffset: 0"/>
    <path d="M 534.57418 206.430469 
L 548.949977 206.430469 
L 548.949977 206.38353 
L 534.57418 206.38353 
L 534.57418 206.430469 
z
" clip-path="url(#p6306846d63)" style="fill: none; stroke-dasharray: 7.4,3.2; stroke-dashoffset: 0; stroke: #262626; stroke-width: 2"/>
    <path d="M 548.949977 206.430469 
L 563.325773 206.430469 
L 563.325773 206.285137 
L 548.949977 206.285137 
z
" clip-path="url(#p6306846d63)" style="fill: #de5d5c; fill-opacity: 0.7; stroke-dasharray: 7.4,3.2; stroke-dashoffset: 0"/>
    <path d="M 548.949977 206.430469 
L 563.325773 206.430469 
L 563.325773 206.360818 
L 548.949977 206.360818 
L 548.949977 206.430469 
z
" clip-path="url(#p6306846d63)" style="fill: none; stroke-dasharray: 7.4,3.2; stroke-dashoffset: 0; stroke: #262626; stroke-width: 2"/>
    <path d="M 563.325773 206.430469 
L 577.70157 206.430469 
L 577.70157 206.286516 
L 563.325773 206.286516 
z
" clip-path="url(#p6306846d63)" style="fill: #de5d5c; fill-opacity: 0.7; stroke-dasharray: 7.4,3.2; stroke-dashoffset: 0"/>
    <path d="M 563.325773 206.430469 
L 577.70157 206.430469 
L 577.70157 206.336971 
L 563.325773 206.336971 
L 563.325773 206.430469 
z
" clip-path="url(#p6306846d63)" style="fill: none; stroke-dasharray: 7.4,3.2; stroke-dashoffset: 0; stroke: #262626; stroke-width: 2"/>
    <path d="M 577.70157 206.430469 
L 592.077367 206.430469 
L 592.077367 206.298767 
L 577.70157 206.298767 
z
" clip-path="url(#p6306846d63)" style="fill: #de5d5c; fill-opacity: 0.7; stroke-dasharray: 7.4,3.2; stroke-dashoffset: 0"/>
    <path d="M 577.70157 206.430469 
L 592.077367 206.430469 
L 592.077367 206.38353 
L 577.70157 206.38353 
L 577.70157 206.430469 
z
" clip-path="url(#p6306846d63)" style="fill: none; stroke-dasharray: 7.4,3.2; stroke-dashoffset: 0; stroke: #262626; stroke-width: 2"/>
    <path d="M 592.077367 206.430469 
L 606.453164 206.430469 
L 606.453164 206.294761 
L 592.077367 206.294761 
z
" clip-path="url(#p6306846d63)" style="fill: #de5d5c; fill-opacity: 0.7; stroke-dasharray: 7.4,3.2; stroke-dashoffset: 0"/>
    <path d="M 592.077367 206.430469 
L 606.453164 206.430469 
L 606.453164 206.38353 
L 592.077367 206.38353 
L 592.077367 206.430469 
z
" clip-path="url(#p6306846d63)" style="fill: none; stroke-dasharray: 7.4,3.2; stroke-dashoffset: 0; stroke: #262626; stroke-width: 2"/>
    <path d="M 606.453164 206.430469 
L 620.828961 206.430469 
L 620.828961 206.142562 
L 606.453164 206.142562 
z
" clip-path="url(#p6306846d63)" style="fill: #de5d5c; fill-opacity: 0.7; stroke-dasharray: 7.4,3.2; stroke-dashoffset: 0"/>
    <path d="M 606.453164 206.430469 
L 620.828961 206.430469 
L 620.828961 206.291925 
L 606.453164 206.291925 
L 606.453164 206.430469 
z
" clip-path="url(#p6306846d63)" style="fill: none; stroke-dasharray: 7.4,3.2; stroke-dashoffset: 0; stroke: #262626; stroke-width: 2"/>
    <path d="M 620.828961 206.430469 
L 635.204758 206.430469 
L 635.204758 206.2763 
L 620.828961 206.2763 
z
" clip-path="url(#p6306846d63)" style="fill: #de5d5c; fill-opacity: 0.7; stroke-dasharray: 7.4,3.2; stroke-dashoffset: 0"/>
    <path d="M 620.828961 206.430469 
L 635.204758 206.430469 
L 635.204758 206.338107 
L 620.828961 206.338107 
L 620.828961 206.430469 
z
" clip-path="url(#p6306846d63)" style="fill: none; stroke-dasharray: 7.4,3.2; stroke-dashoffset: 0; stroke: #262626; stroke-width: 2"/>
    <path d="M 635.204758 206.430469 
L 649.580555 206.430469 
L 649.580555 206.33516 
L 635.204758 206.33516 
z
" clip-path="url(#p6306846d63)" style="fill: #de5d5c; fill-opacity: 0.7; stroke-dasharray: 7.4,3.2; stroke-dashoffset: 0"/>
    <path d="M 635.204758 206.430469 
L 649.580555 206.430469 
L 649.580555 206.383909 
L 635.204758 206.383909 
L 635.204758 206.430469 
z
" clip-path="url(#p6306846d63)" style="fill: none; stroke-dasharray: 7.4,3.2; stroke-dashoffset: 0; stroke: #262626; stroke-width: 2"/>
    <path d="M 649.580555 206.430469 
L 663.956352 206.430469 
L 663.956352 206.336553 
L 649.580555 206.336553 
z
" clip-path="url(#p6306846d63)" style="fill: #de5d5c; fill-opacity: 0.7; stroke-dasharray: 7.4,3.2; stroke-dashoffset: 0"/>
    <path d="M 649.580555 206.430469 
L 663.956352 206.430469 
L 663.956352 206.337728 
L 649.580555 206.337728 
L 649.580555 206.430469 
z
" clip-path="url(#p6306846d63)" style="fill: none; stroke-dasharray: 7.4,3.2; stroke-dashoffset: 0; stroke: #262626; stroke-width: 2"/>
    <path d="M 663.956352 206.430469 
L 678.332148 206.430469 
L 678.332148 206.318386 
L 663.956352 206.318386 
z
" clip-path="url(#p6306846d63)" style="fill: #de5d5c; fill-opacity: 0.7; stroke-dasharray: 7.4,3.2; stroke-dashoffset: 0"/>
    <path d="M 663.956352 206.430469 
L 678.332148 206.430469 
L 678.332148 206.38353 
L 663.956352 206.38353 
L 663.956352 206.430469 
z
" clip-path="url(#p6306846d63)" style="fill: none; stroke-dasharray: 7.4,3.2; stroke-dashoffset: 0; stroke: #262626; stroke-width: 2"/>
    <path d="M 678.332148 206.430469 
L 692.707945 206.430469 
L 692.707945 206.325013 
L 678.332148 206.325013 
z
" clip-path="url(#p6306846d63)" style="fill: #de5d5c; fill-opacity: 0.7; stroke-dasharray: 7.4,3.2; stroke-dashoffset: 0"/>
    <path d="M 678.332148 206.430469 
L 692.707945 206.430469 
L 692.707945 206.384288 
L 678.332148 206.384288 
L 678.332148 206.430469 
z
" clip-path="url(#p6306846d63)" style="fill: none; stroke-dasharray: 7.4,3.2; stroke-dashoffset: 0; stroke: #262626; stroke-width: 2"/>
    <path d="M 692.707945 206.430469 
L 707.083742 206.430469 
L 707.083742 206.382365 
L 692.707945 206.382365 
z
" clip-path="url(#p6306846d63)" style="fill: #de5d5c; fill-opacity: 0.7; stroke-dasharray: 7.4,3.2; stroke-dashoffset: 0"/>
    <path d="M 692.707945 206.430469 
L 701.476328 206.430469 
M 701.476328 206.336971 
L 692.707945 206.336971 
L 692.707945 206.430469 
" clip-path="url(#p6306846d63)" style="fill: none; stroke-dasharray: 7.4,3.2; stroke-dashoffset: 0; stroke: #262626; stroke-width: 2"/>
    <path d="M 707.083742 206.430469 
L 721.459539 206.430469 
L 721.459539 206.373163 
L 707.083742 206.373163 
z
" clip-path="url(#p6306846d63)" style="fill: #de5d5c; fill-opacity: 0.7; stroke-dasharray: 7.4,3.2; stroke-dashoffset: 0"/>
    <path clip-path="url(#p6306846d63)" style="fill: none; stroke-dasharray: 7.4,3.2; stroke-dashoffset: 0; stroke: #262626; stroke-width: 2"/>
    <path d="M 721.459539 206.430469 
L 735.835336 206.430469 
L 735.835336 206.316099 
L 721.459539 206.316099 
z
" clip-path="url(#p6306846d63)" style="fill: #de5d5c; fill-opacity: 0.7; stroke-dasharray: 7.4,3.2; stroke-dashoffset: 0"/>
    <path clip-path="url(#p6306846d63)" style="fill: none; stroke-dasharray: 7.4,3.2; stroke-dashoffset: 0; stroke: #262626; stroke-width: 2"/>
    <path d="M 750.211133 206.430469 
L 764.58693 206.430469 
L 764.58693 206.331821 
L 750.211133 206.331821 
z
" clip-path="url(#p6306846d63)" style="fill: #de5d5c; fill-opacity: 0.7; stroke-dasharray: 7.4,3.2; stroke-dashoffset: 0"/>
    <path d="M 764.58693 206.430469 
L 778.962727 206.430469 
L 778.962727 206.310906 
L 764.58693 206.310906 
z
" clip-path="url(#p6306846d63)" style="fill: #de5d5c; fill-opacity: 0.7; stroke-dasharray: 7.4,3.2; stroke-dashoffset: 0"/>
    <path clip-path="url(#p6306846d63)" style="fill: none; stroke-dasharray: 7.4,3.2; stroke-dashoffset: 0; stroke: #262626; stroke-width: 2"/>
    <path d="M 778.962727 206.430469 
L 793.338523 206.430469 
L 793.338523 206.181859 
L 778.962727 206.181859 
z
" clip-path="url(#p6306846d63)" style="fill: #de5d5c; fill-opacity: 0.7; stroke-dasharray: 7.4,3.2; stroke-dashoffset: 0"/>
    <path clip-path="url(#p6306846d63)" style="fill: none; stroke-dasharray: 7.4,3.2; stroke-dashoffset: 0; stroke: #262626; stroke-width: 2"/>
    <path d="M 793.338523 206.430469 
L 807.71432 206.430469 
L 807.71432 206.373163 
L 793.338523 206.373163 
z
" clip-path="url(#p6306846d63)" style="fill: #de5d5c; fill-opacity: 0.7; stroke-dasharray: 7.4,3.2; stroke-dashoffset: 0"/>
    <path d="M 807.71432 206.430469 
L 822.090117 206.430469 
L 822.090117 206.315856 
L 807.71432 206.315856 
z
" clip-path="url(#p6306846d63)" style="fill: #de5d5c; fill-opacity: 0.7; stroke-dasharray: 7.4,3.2; stroke-dashoffset: 0"/>
    <path d="M 836.465914 206.430469 
L 850.841711 206.430469 
L 850.841711 206.373163 
L 836.465914 206.373163 
z
" clip-path="url(#p6306846d63)" style="fill: #de5d5c; fill-opacity: 0.7; stroke-dasharray: 7.4,3.2; stroke-dashoffset: 0"/>
    <path d="M 850.841711 206.430469 
L 865.217508 206.430469 
L 865.217508 206.373163 
L 850.841711 206.373163 
z
" clip-path="url(#p6306846d63)" style="fill: #de5d5c; fill-opacity: 0.7; stroke-dasharray: 7.4,3.2; stroke-dashoffset: 0"/>
    <path d="M 865.217508 206.430469 
L 879.593305 206.430469 
L 879.593305 206.373163 
L 865.217508 206.373163 
z
" clip-path="url(#p6306846d63)" style="fill: #de5d5c; fill-opacity: 0.7; stroke-dasharray: 7.4,3.2; stroke-dashoffset: 0"/>
    <path d="M 893.969102 206.430469 
L 908.344898 206.430469 
L 908.344898 206.315856 
L 893.969102 206.315856 
z
" clip-path="url(#p6306846d63)" style="fill: #de5d5c; fill-opacity: 0.7; stroke-dasharray: 7.4,3.2; stroke-dashoffset: 0"/>
    <path d="M 908.344898 206.430469 
L 922.720695 206.430469 
L 922.720695 206.373163 
L 908.344898 206.373163 
z
" clip-path="url(#p6306846d63)" style="fill: #de5d5c; fill-opacity: 0.7; stroke-dasharray: 7.4,3.2; stroke-dashoffset: 0"/>
    <path d="M 922.720695 206.430469 
L 937.096492 206.430469 
L 937.096492 206.373163 
L 922.720695 206.373163 
z
" clip-path="url(#p6306846d63)" style="fill: #de5d5c; fill-opacity: 0.7; stroke-dasharray: 7.4,3.2; stroke-dashoffset: 0"/>
    <path d="M 951.472289 206.430469 
L 965.848086 206.430469 
L 965.848086 206.315856 
L 951.472289 206.315856 
z
" clip-path="url(#p6306846d63)" style="fill: #de5d5c; fill-opacity: 0.7; stroke-dasharray: 7.4,3.2; stroke-dashoffset: 0"/>
    <path d="M 965.848086 206.430469 
L 980.223883 206.430469 
L 980.223883 206.373163 
L 965.848086 206.373163 
z
" clip-path="url(#p6306846d63)" style="fill: #de5d5c; fill-opacity: 0.7; stroke-dasharray: 7.4,3.2; stroke-dashoffset: 0"/>
    <path d="M 1066.478664 206.430469 
L 1080.854461 206.430469 
L 1080.854461 206.373163 
L 1066.478664 206.373163 
z
" clip-path="url(#p6306846d63)" style="fill: #de5d5c; fill-opacity: 0.7; stroke-dasharray: 7.4,3.2; stroke-dashoffset: 0"/>
    <path d="M 1181.485039 206.430469 
L 1195.860836 206.430469 
L 1195.860836 206.373163 
L 1181.485039 206.373163 
z
" clip-path="url(#p6306846d63)" style="fill: #de5d5c; fill-opacity: 0.7; stroke-dasharray: 7.4,3.2; stroke-dashoffset: 0"/>
    <path d="M 1210.236633 206.430469 
L 1224.61243 206.430469 
L 1224.61243 206.373163 
L 1210.236633 206.373163 
z
" clip-path="url(#p6306846d63)" style="fill: #de5d5c; fill-opacity: 0.7; stroke-dasharray: 7.4,3.2; stroke-dashoffset: 0"/>
    <path d="M 1224.61243 206.430469 
L 1238.988227 206.430469 
L 1238.988227 206.373163 
L 1224.61243 206.373163 
z
" clip-path="url(#p6306846d63)" style="fill: #de5d5c; fill-opacity: 0.7; stroke-dasharray: 7.4,3.2; stroke-dashoffset: 0"/>
    <path d="M 1238.988227 206.430469 
L 1253.364023 206.430469 
L 1253.364023 206.373163 
L 1238.988227 206.373163 
z
" clip-path="url(#p6306846d63)" style="fill: #de5d5c; fill-opacity: 0.7; stroke-dasharray: 7.4,3.2; stroke-dashoffset: 0"/>
    <path d="M 1267.73982 206.430469 
L 1282.115617 206.430469 
L 1282.115617 206.373163 
L 1267.73982 206.373163 
z
" clip-path="url(#p6306846d63)" style="fill: #de5d5c; fill-opacity: 0.7; stroke-dasharray: 7.4,3.2; stroke-dashoffset: 0"/>
    <path d="M 1382.746195 206.430469 
L 1397.121992 206.430469 
L 1397.121992 206.373163 
L 1382.746195 206.373163 
z
" clip-path="url(#p6306846d63)" style="fill: #de5d5c; fill-opacity: 0.7; stroke-dasharray: 7.4,3.2; stroke-dashoffset: 0"/>
    <path d="M 1397.121992 206.430469 
L 1411.497789 206.430469 
L 1411.497789 206.373163 
L 1397.121992 206.373163 
z
" clip-path="url(#p6306846d63)" style="fill: #de5d5c; fill-opacity: 0.7; stroke-dasharray: 7.4,3.2; stroke-dashoffset: 0"/>
    <path d="M 1497.75257 206.430469 
L 1512.128367 206.430469 
L 1512.128367 206.25855 
L 1497.75257 206.25855 
z
" clip-path="url(#p6306846d63)" style="fill: #de5d5c; fill-opacity: 0.7; stroke-dasharray: 7.4,3.2; stroke-dashoffset: 0"/>
   </g>
   <g id="patch_3">
    <path d="M 67.360781 206.430469 
L 67.360781 26.877187 
" style="fill: none; stroke: #ffffff; stroke-width: 1.875; stroke-linejoin: miter; stroke-linecap: square"/>
   </g>
   <g id="patch_4">
    <path d="M 282.997734 206.430469 
L 282.997734 26.877187 
" style="fill: none; stroke: #ffffff; stroke-width: 1.875; stroke-linejoin: miter; stroke-linecap: square"/>
   </g>
   <g id="patch_5">
    <path d="M 67.360781 206.430469 
L 282.997734 206.430469 
" style="fill: none; stroke: #ffffff; stroke-width: 1.875; stroke-linejoin: miter; stroke-linecap: square"/>
   </g>
   <g id="patch_6">
    <path d="M 67.360781 26.877187 
L 282.997734 26.877187 
" style="fill: none; stroke: #ffffff; stroke-width: 1.875; stroke-linejoin: miter; stroke-linecap: square"/>
   </g>
   <g id="text_11">
    <!-- Ciprofloxacin 0 ng/ml -->
    <g transform="translate(79.62457 20.877187) scale(0.18 -0.18)">
     <defs>
      <path id="DejaVuSans-43" d="M 4122 4306 
L 4122 3641 
Q 3803 3938 3442 4084 
Q 3081 4231 2675 4231 
Q 1875 4231 1450 3742 
Q 1025 3253 1025 2328 
Q 1025 1406 1450 917 
Q 1875 428 2675 428 
Q 3081 428 3442 575 
Q 3803 722 4122 1019 
L 4122 359 
Q 3791 134 3420 21 
Q 3050 -91 2638 -91 
Q 1578 -91 968 557 
Q 359 1206 359 2328 
Q 359 3453 968 4101 
Q 1578 4750 2638 4750 
Q 3056 4750 3426 4639 
Q 3797 4528 4122 4306 
z
" transform="scale(0.015625)"/>
      <path id="DejaVuSans-78" d="M 3513 3500 
L 2247 1797 
L 3578 0 
L 2900 0 
L 1881 1375 
L 863 0 
L 184 0 
L 1544 1831 
L 300 3500 
L 978 3500 
L 1906 2253 
L 2834 3500 
L 3513 3500 
z
" transform="scale(0.015625)"/>
      <path id="DejaVuSans-6e" d="M 3513 2113 
L 3513 0 
L 2938 0 
L 2938 2094 
Q 2938 2591 2744 2837 
Q 2550 3084 2163 3084 
Q 1697 3084 1428 2787 
Q 1159 2491 1159 1978 
L 1159 0 
L 581 0 
L 581 3500 
L 1159 3500 
L 1159 2956 
Q 1366 3272 1645 3428 
Q 1925 3584 2291 3584 
Q 2894 3584 3203 3211 
Q 3513 2838 3513 2113 
z
" transform="scale(0.015625)"/>
      <path id="DejaVuSans-67" d="M 2906 1791 
Q 2906 2416 2648 2759 
Q 2391 3103 1925 3103 
Q 1463 3103 1205 2759 
Q 947 2416 947 1791 
Q 947 1169 1205 825 
Q 1463 481 1925 481 
Q 2391 481 2648 825 
Q 2906 1169 2906 1791 
z
M 3481 434 
Q 3481 -459 3084 -895 
Q 2688 -1331 1869 -1331 
Q 1566 -1331 1297 -1286 
Q 1028 -1241 775 -1147 
L 775 -588 
Q 1028 -725 1275 -790 
Q 1522 -856 1778 -856 
Q 2344 -856 2625 -561 
Q 2906 -266 2906 331 
L 2906 616 
Q 2728 306 2450 153 
Q 2172 0 1784 0 
Q 1141 0 747 490 
Q 353 981 353 1791 
Q 353 2603 747 3093 
Q 1141 3584 1784 3584 
Q 2172 3584 2450 3431 
Q 2728 3278 2906 2969 
L 2906 3500 
L 3481 3500 
L 3481 434 
z
" transform="scale(0.015625)"/>
      <path id="DejaVuSans-2f" d="M 1625 4666 
L 2156 4666 
L 531 -594 
L 0 -594 
L 1625 4666 
z
" transform="scale(0.015625)"/>
     </defs>
     <use xlink:href="#DejaVuSans-43"/>
     <use xlink:href="#DejaVuSans-69" x="69.824219"/>
     <use xlink:href="#DejaVuSans-70" x="97.607422"/>
     <use xlink:href="#DejaVuSans-72" x="161.083984"/>
     <use xlink:href="#DejaVuSans-6f" x="199.947266"/>
     <use xlink:href="#DejaVuSans-66" x="261.128906"/>
     <use xlink:href="#DejaVuSans-6c" x="296.333984"/>
     <use xlink:href="#DejaVuSans-6f" x="324.117188"/>
     <use xlink:href="#DejaVuSans-78" x="382.173828"/>
     <use xlink:href="#DejaVuSans-61" x="441.353516"/>
     <use xlink:href="#DejaVuSans-63" x="502.632812"/>
     <use xlink:href="#DejaVuSans-69" x="557.613281"/>
     <use xlink:href="#DejaVuSans-6e" x="585.396484"/>
     <use xlink:href="#DejaVuSans-20" x="648.775391"/>
     <use xlink:href="#DejaVuSans-30" x="680.5625"/>
     <use xlink:href="#DejaVuSans-20" x="744.185547"/>
     <use xlink:href="#DejaVuSans-6e" x="775.972656"/>
     <use xlink:href="#DejaVuSans-67" x="839.351562"/>
     <use xlink:href="#DejaVuSans-2f" x="902.828125"/>
     <use xlink:href="#DejaVuSans-6d" x="936.519531"/>
     <use xlink:href="#DejaVuSans-6c" x="1033.931641"/>
    </g>
   </g>
  </g>
  <g id="axes_2">
   <g id="patch_7">
    <path d="M 318.184922 206.430469 
L 533.821875 206.430469 
L 533.821875 26.877187 
L 318.184922 26.877187 
z
" style="fill: #eaeaf2"/>
   </g>
   <g id="matplotlib.axis_3">
    <g id="xtick_5">
     <g id="line2d_9">
      <path d="M 318.184922 206.430469 
L 318.184922 26.877187 
" clip-path="url(#p8da216a0f1)" style="fill: none; stroke: #ffffff; stroke-width: 1.5; stroke-linecap: round"/>
     </g>
     <g id="text_12">
      <!-- 0 -->
      <g style="fill: #262626" transform="translate(312.935859 231.467891) scale(0.165 -0.165)">
       <use xlink:href="#DejaVuSans-30"/>
      </g>
     </g>
    </g>
    <g id="xtick_6">
     <g id="line2d_10">
      <path d="M 390.063906 206.430469 
L 390.063906 26.877187 
" clip-path="url(#p8da216a0f1)" style="fill: none; stroke: #ffffff; stroke-width: 1.5; stroke-linecap: round"/>
     </g>
     <g id="text_13">
      <!-- 10 -->
      <g style="fill: #262626" transform="translate(379.565781 231.467891) scale(0.165 -0.165)">
       <use xlink:href="#DejaVuSans-31"/>
       <use xlink:href="#DejaVuSans-30" x="63.623047"/>
      </g>
     </g>
    </g>
    <g id="xtick_7">
     <g id="line2d_11">
      <path d="M 461.942891 206.430469 
L 461.942891 26.877187 
" clip-path="url(#p8da216a0f1)" style="fill: none; stroke: #ffffff; stroke-width: 1.5; stroke-linecap: round"/>
     </g>
     <g id="text_14">
      <!-- 20 -->
      <g style="fill: #262626" transform="translate(451.444766 231.467891) scale(0.165 -0.165)">
       <use xlink:href="#DejaVuSans-32"/>
       <use xlink:href="#DejaVuSans-30" x="63.623047"/>
      </g>
     </g>
    </g>
    <g id="xtick_8">
     <g id="line2d_12">
      <path d="M 533.821875 206.430469 
L 533.821875 26.877187 
" clip-path="url(#p8da216a0f1)" style="fill: none; stroke: #ffffff; stroke-width: 1.5; stroke-linecap: round"/>
     </g>
     <g id="text_15">
      <!-- 30 -->
      <g style="fill: #262626" transform="translate(523.32375 231.467891) scale(0.165 -0.165)">
       <use xlink:href="#DejaVuSans-33"/>
       <use xlink:href="#DejaVuSans-30" x="63.623047"/>
      </g>
     </g>
    </g>
    <g id="text_16">
     <!-- Spot lifetime (sec) -->
     <g style="fill: #262626" transform="translate(343.583086 252.576562) scale(0.18 -0.18)">
      <use xlink:href="#DejaVuSans-53"/>
      <use xlink:href="#DejaVuSans-70" x="63.476562"/>
      <use xlink:href="#DejaVuSans-6f" x="126.953125"/>
      <use xlink:href="#DejaVuSans-74" x="188.134766"/>
      <use xlink:href="#DejaVuSans-20" x="227.34375"/>
      <use xlink:href="#DejaVuSans-6c" x="259.130859"/>
      <use xlink:href="#DejaVuSans-69" x="286.914062"/>
      <use xlink:href="#DejaVuSans-66" x="314.697266"/>
      <use xlink:href="#DejaVuSans-65" x="349.902344"/>
      <use xlink:href="#DejaVuSans-74" x="411.425781"/>
      <use xlink:href="#DejaVuSans-69" x="450.634766"/>
      <use xlink:href="#DejaVuSans-6d" x="478.417969"/>
      <use xlink:href="#DejaVuSans-65" x="575.830078"/>
      <use xlink:href="#DejaVuSans-20" x="637.353516"/>
      <use xlink:href="#DejaVuSans-28" x="669.140625"/>
      <use xlink:href="#DejaVuSans-73" x="708.154297"/>
      <use xlink:href="#DejaVuSans-65" x="760.253906"/>
      <use xlink:href="#DejaVuSans-63" x="821.777344"/>
      <use xlink:href="#DejaVuSans-29" x="876.757812"/>
     </g>
    </g>
   </g>
   <g id="matplotlib.axis_4">
    <g id="ytick_5">
     <g id="line2d_13">
      <path d="M 318.184922 206.430469 
L 533.821875 206.430469 
" clip-path="url(#p8da216a0f1)" style="fill: none; stroke: #ffffff; stroke-width: 1.5; stroke-linecap: round"/>
     </g>
    </g>
    <g id="ytick_6">
     <g id="line2d_14">
      <path d="M 318.184922 156.046874 
L 533.821875 156.046874 
" clip-path="url(#p8da216a0f1)" style="fill: none; stroke: #ffffff; stroke-width: 1.5; stroke-linecap: round"/>
     </g>
    </g>
    <g id="ytick_7">
     <g id="line2d_15">
      <path d="M 318.184922 105.663279 
L 533.821875 105.663279 
" clip-path="url(#p8da216a0f1)" style="fill: none; stroke: #ffffff; stroke-width: 1.5; stroke-linecap: round"/>
     </g>
    </g>
    <g id="ytick_8">
     <g id="line2d_16">
      <path d="M 318.184922 55.279684 
L 533.821875 55.279684 
" clip-path="url(#p8da216a0f1)" style="fill: none; stroke: #ffffff; stroke-width: 1.5; stroke-linecap: round"/>
     </g>
    </g>
   </g>
   <g id="PatchCollection_2">
    <path d="M 325.37282 206.430469 
L 339.748617 206.430469 
L 339.748617 80.726682 
L 325.37282 80.726682 
z
" clip-path="url(#p8da216a0f1)" style="fill: #9a3670; fill-opacity: 0.7; stroke-dasharray: 7.4,3.2; stroke-dashoffset: 0"/>
    <path d="M 325.37282 206.430469 
L 339.748617 206.430469 
L 339.748617 37.639713 
L 325.37282 37.639713 
L 325.37282 206.430469 
z
" clip-path="url(#p8da216a0f1)" style="fill: none; stroke-dasharray: 7.4,3.2; stroke-dashoffset: 0; stroke: #262626; stroke-width: 2"/>
    <path d="M 339.748617 206.430469 
L 354.124414 206.430469 
L 354.124414 162.336449 
L 339.748617 162.336449 
z
" clip-path="url(#p8da216a0f1)" style="fill: #9a3670; fill-opacity: 0.7; stroke-dasharray: 7.4,3.2; stroke-dashoffset: 0"/>
    <path d="M 339.748617 206.430469 
L 354.124414 206.430469 
L 354.124414 161.56402 
L 339.748617 161.56402 
L 339.748617 206.430469 
z
" clip-path="url(#p8da216a0f1)" style="fill: none; stroke-dasharray: 7.4,3.2; stroke-dashoffset: 0; stroke: #262626; stroke-width: 2"/>
    <path d="M 354.124414 206.430469 
L 368.500211 206.430469 
L 368.500211 183.636198 
L 354.124414 183.636198 
z
" clip-path="url(#p8da216a0f1)" style="fill: #9a3670; fill-opacity: 0.7; stroke-dasharray: 7.4,3.2; stroke-dashoffset: 0"/>
    <path d="M 354.124414 206.430469 
L 368.500211 206.430469 
L 368.500211 190.914384 
L 354.124414 190.914384 
L 354.124414 206.430469 
z
" clip-path="url(#p8da216a0f1)" style="fill: none; stroke-dasharray: 7.4,3.2; stroke-dashoffset: 0; stroke: #262626; stroke-width: 2"/>
    <path d="M 368.500211 206.430469 
L 382.876008 206.430469 
L 382.876008 193.40659 
L 368.500211 193.40659 
z
" clip-path="url(#p8da216a0f1)" style="fill: #9a3670; fill-opacity: 0.7; stroke-dasharray: 7.4,3.2; stroke-dashoffset: 0"/>
    <path d="M 368.500211 206.430469 
L 382.876008 206.430469 
L 382.876008 199.600487 
L 368.500211 199.600487 
L 368.500211 206.430469 
z
" clip-path="url(#p8da216a0f1)" style="fill: none; stroke-dasharray: 7.4,3.2; stroke-dashoffset: 0; stroke: #262626; stroke-width: 2"/>
    <path d="M 382.876008 206.430469 
L 397.251805 206.430469 
L 397.251805 197.562786 
L 382.876008 197.562786 
z
" clip-path="url(#p8da216a0f1)" style="fill: #9a3670; fill-opacity: 0.7; stroke-dasharray: 7.4,3.2; stroke-dashoffset: 0"/>
    <path d="M 382.876008 206.430469 
L 397.251805 206.430469 
L 397.251805 202.737489 
L 382.876008 202.737489 
L 382.876008 206.430469 
z
" clip-path="url(#p8da216a0f1)" style="fill: none; stroke-dasharray: 7.4,3.2; stroke-dashoffset: 0; stroke: #262626; stroke-width: 2"/>
    <path d="M 397.251805 206.430469 
L 411.627602 206.430469 
L 411.627602 199.865507 
L 397.251805 199.865507 
z
" clip-path="url(#p8da216a0f1)" style="fill: #9a3670; fill-opacity: 0.7; stroke-dasharray: 7.4,3.2; stroke-dashoffset: 0"/>
    <path d="M 397.251805 206.430469 
L 411.627602 206.430469 
L 411.627602 203.790931 
L 397.251805 203.790931 
L 397.251805 206.430469 
z
" clip-path="url(#p8da216a0f1)" style="fill: none; stroke-dasharray: 7.4,3.2; stroke-dashoffset: 0; stroke: #262626; stroke-width: 2"/>
    <path d="M 411.627602 206.430469 
L 426.003398 206.430469 
L 426.003398 201.689813 
L 411.627602 201.689813 
z
" clip-path="url(#p8da216a0f1)" style="fill: #9a3670; fill-opacity: 0.7; stroke-dasharray: 7.4,3.2; stroke-dashoffset: 0"/>
    <path d="M 411.627602 206.430469 
L 426.003398 206.430469 
L 426.003398 204.863656 
L 411.627602 204.863656 
L 411.627602 206.430469 
z
" clip-path="url(#p8da216a0f1)" style="fill: none; stroke-dasharray: 7.4,3.2; stroke-dashoffset: 0; stroke: #262626; stroke-width: 2"/>
    <path d="M 426.003398 206.430469 
L 440.379195 206.430469 
L 440.379195 202.474107 
L 426.003398 202.474107 
z
" clip-path="url(#p8da216a0f1)" style="fill: #9a3670; fill-opacity: 0.7; stroke-dasharray: 7.4,3.2; stroke-dashoffset: 0"/>
    <path d="M 426.003398 206.430469 
L 440.379195 206.430469 
L 440.379195 205.400213 
L 426.003398 205.400213 
L 426.003398 206.430469 
z
" clip-path="url(#p8da216a0f1)" style="fill: none; stroke-dasharray: 7.4,3.2; stroke-dashoffset: 0; stroke: #262626; stroke-width: 2"/>
    <path d="M 440.379195 206.430469 
L 454.754992 206.430469 
L 454.754992 203.427484 
L 440.379195 203.427484 
z
" clip-path="url(#p8da216a0f1)" style="fill: #9a3670; fill-opacity: 0.7; stroke-dasharray: 7.4,3.2; stroke-dashoffset: 0"/>
    <path d="M 440.379195 206.430469 
L 454.754992 206.430469 
L 454.754992 205.656689 
L 440.379195 205.656689 
L 440.379195 206.430469 
z
" clip-path="url(#p8da216a0f1)" style="fill: none; stroke-dasharray: 7.4,3.2; stroke-dashoffset: 0; stroke: #262626; stroke-width: 2"/>
    <path d="M 454.754992 206.430469 
L 469.130789 206.430469 
L 469.130789 203.93677 
L 454.754992 203.93677 
z
" clip-path="url(#p8da216a0f1)" style="fill: #9a3670; fill-opacity: 0.7; stroke-dasharray: 7.4,3.2; stroke-dashoffset: 0"/>
    <path d="M 454.754992 206.430469 
L 469.130789 206.430469 
L 469.130789 205.818192 
L 454.754992 205.818192 
L 454.754992 206.430469 
z
" clip-path="url(#p8da216a0f1)" style="fill: none; stroke-dasharray: 7.4,3.2; stroke-dashoffset: 0; stroke: #262626; stroke-width: 2"/>
    <path d="M 469.130789 206.430469 
L 483.506586 206.430469 
L 483.506586 204.33064 
L 469.130789 204.33064 
z
" clip-path="url(#p8da216a0f1)" style="fill: #9a3670; fill-opacity: 0.7; stroke-dasharray: 7.4,3.2; stroke-dashoffset: 0"/>
    <path d="M 469.130789 206.430469 
L 483.506586 206.430469 
L 483.506586 205.558339 
L 469.130789 205.558339 
L 469.130789 206.430469 
z
" clip-path="url(#p8da216a0f1)" style="fill: none; stroke-dasharray: 7.4,3.2; stroke-dashoffset: 0; stroke: #262626; stroke-width: 2"/>
    <path d="M 483.506586 206.430469 
L 497.882383 206.430469 
L 497.882383 204.460347 
L 483.506586 204.460347 
z
" clip-path="url(#p8da216a0f1)" style="fill: #9a3670; fill-opacity: 0.7; stroke-dasharray: 7.4,3.2; stroke-dashoffset: 0"/>
    <path d="M 483.506586 206.430469 
L 497.882383 206.430469 
L 497.882383 205.787346 
L 483.506586 205.787346 
L 483.506586 206.430469 
z
" clip-path="url(#p8da216a0f1)" style="fill: none; stroke-dasharray: 7.4,3.2; stroke-dashoffset: 0; stroke: #262626; stroke-width: 2"/>
    <path d="M 497.882383 206.430469 
L 512.25818 206.430469 
L 512.25818 204.957468 
L 497.882383 204.957468 
z
" clip-path="url(#p8da216a0f1)" style="fill: #9a3670; fill-opacity: 0.7; stroke-dasharray: 7.4,3.2; stroke-dashoffset: 0"/>
    <path d="M 497.882383 206.430469 
L 512.25818 206.430469 
L 512.25818 205.889561 
L 497.882383 205.889561 
L 497.882383 206.430469 
z
" clip-path="url(#p8da216a0f1)" style="fill: none; stroke-dasharray: 7.4,3.2; stroke-dashoffset: 0; stroke: #262626; stroke-width: 2"/>
    <path d="M 512.25818 206.430469 
L 526.633977 206.430469 
L 526.633977 205.173451 
L 512.25818 205.173451 
z
" clip-path="url(#p8da216a0f1)" style="fill: #9a3670; fill-opacity: 0.7; stroke-dasharray: 7.4,3.2; stroke-dashoffset: 0"/>
    <path d="M 512.25818 206.430469 
L 526.633977 206.430469 
L 526.633977 205.981643 
L 512.25818 205.981643 
L 512.25818 206.430469 
z
" clip-path="url(#p8da216a0f1)" style="fill: none; stroke-dasharray: 7.4,3.2; stroke-dashoffset: 0; stroke: #262626; stroke-width: 2"/>
    <path d="M 526.633977 206.430469 
L 541.009773 206.430469 
L 541.009773 205.333876 
L 526.633977 205.333876 
z
" clip-path="url(#p8da216a0f1)" style="fill: #9a3670; fill-opacity: 0.7; stroke-dasharray: 7.4,3.2; stroke-dashoffset: 0"/>
    <path d="M 526.633977 206.430469 
L 541.009773 206.430469 
L 541.009773 206.098551 
L 526.633977 206.098551 
L 526.633977 206.430469 
z
" clip-path="url(#p8da216a0f1)" style="fill: none; stroke-dasharray: 7.4,3.2; stroke-dashoffset: 0; stroke: #262626; stroke-width: 2"/>
    <path d="M 541.009773 206.430469 
L 555.38557 206.430469 
L 555.38557 205.553921 
L 541.009773 205.553921 
z
" clip-path="url(#p8da216a0f1)" style="fill: #9a3670; fill-opacity: 0.7; stroke-dasharray: 7.4,3.2; stroke-dashoffset: 0"/>
    <path d="M 541.009773 206.430469 
L 555.38557 206.430469 
L 555.38557 206.204839 
L 541.009773 206.204839 
L 541.009773 206.430469 
z
" clip-path="url(#p8da216a0f1)" style="fill: none; stroke-dasharray: 7.4,3.2; stroke-dashoffset: 0; stroke: #262626; stroke-width: 2"/>
    <path d="M 555.38557 206.430469 
L 569.761367 206.430469 
L 569.761367 205.69556 
L 555.38557 205.69556 
z
" clip-path="url(#p8da216a0f1)" style="fill: #9a3670; fill-opacity: 0.7; stroke-dasharray: 7.4,3.2; stroke-dashoffset: 0"/>
    <path d="M 555.38557 206.430469 
L 569.761367 206.430469 
L 569.761367 206.237632 
L 555.38557 206.237632 
L 555.38557 206.430469 
z
" clip-path="url(#p8da216a0f1)" style="fill: none; stroke-dasharray: 7.4,3.2; stroke-dashoffset: 0; stroke: #262626; stroke-width: 2"/>
    <path d="M 569.761367 206.430469 
L 584.137164 206.430469 
L 584.137164 205.826823 
L 569.761367 205.826823 
z
" clip-path="url(#p8da216a0f1)" style="fill: #9a3670; fill-opacity: 0.7; stroke-dasharray: 7.4,3.2; stroke-dashoffset: 0"/>
    <path d="M 569.761367 206.430469 
L 584.137164 206.430469 
L 584.137164 206.24174 
L 569.761367 206.24174 
L 569.761367 206.430469 
z
" clip-path="url(#p8da216a0f1)" style="fill: none; stroke-dasharray: 7.4,3.2; stroke-dashoffset: 0; stroke: #262626; stroke-width: 2"/>
    <path d="M 584.137164 206.430469 
L 598.512961 206.430469 
L 598.512961 205.885887 
L 584.137164 205.885887 
z
" clip-path="url(#p8da216a0f1)" style="fill: #9a3670; fill-opacity: 0.7; stroke-dasharray: 7.4,3.2; stroke-dashoffset: 0"/>
    <path d="M 584.137164 206.430469 
L 598.512961 206.430469 
L 598.512961 206.24028 
L 584.137164 206.24028 
L 584.137164 206.430469 
z
" clip-path="url(#p8da216a0f1)" style="fill: none; stroke-dasharray: 7.4,3.2; stroke-dashoffset: 0; stroke: #262626; stroke-width: 2"/>
    <path d="M 598.512961 206.430469 
L 612.888758 206.430469 
L 612.888758 205.850109 
L 598.512961 205.850109 
z
" clip-path="url(#p8da216a0f1)" style="fill: #9a3670; fill-opacity: 0.7; stroke-dasharray: 7.4,3.2; stroke-dashoffset: 0"/>
    <path d="M 598.512961 206.430469 
L 612.888758 206.430469 
L 612.888758 206.099281 
L 598.512961 206.099281 
L 598.512961 206.430469 
z
" clip-path="url(#p8da216a0f1)" style="fill: none; stroke-dasharray: 7.4,3.2; stroke-dashoffset: 0; stroke: #262626; stroke-width: 2"/>
    <path d="M 612.888758 206.430469 
L 627.264555 206.430469 
L 627.264555 205.935846 
L 612.888758 205.935846 
z
" clip-path="url(#p8da216a0f1)" style="fill: #9a3670; fill-opacity: 0.7; stroke-dasharray: 7.4,3.2; stroke-dashoffset: 0"/>
    <path d="M 612.888758 206.430469 
L 627.264555 206.430469 
L 627.264555 206.288009 
L 612.888758 206.288009 
L 612.888758 206.430469 
z
" clip-path="url(#p8da216a0f1)" style="fill: none; stroke-dasharray: 7.4,3.2; stroke-dashoffset: 0; stroke: #262626; stroke-width: 2"/>
    <path d="M 627.264555 206.430469 
L 641.640352 206.430469 
L 641.640352 205.969651 
L 627.264555 205.969651 
z
" clip-path="url(#p8da216a0f1)" style="fill: #9a3670; fill-opacity: 0.7; stroke-dasharray: 7.4,3.2; stroke-dashoffset: 0"/>
    <path d="M 627.264555 206.430469 
L 641.640352 206.430469 
L 641.640352 206.24101 
L 627.264555 206.24101 
L 627.264555 206.430469 
z
" clip-path="url(#p8da216a0f1)" style="fill: none; stroke-dasharray: 7.4,3.2; stroke-dashoffset: 0; stroke: #262626; stroke-width: 2"/>
    <path d="M 641.640352 206.430469 
L 656.016148 206.430469 
L 656.016148 206.106438 
L 641.640352 206.106438 
z
" clip-path="url(#p8da216a0f1)" style="fill: #9a3670; fill-opacity: 0.7; stroke-dasharray: 7.4,3.2; stroke-dashoffset: 0"/>
    <path d="M 641.640352 206.430469 
L 656.016148 206.430469 
L 656.016148 206.14409 
L 641.640352 206.14409 
L 641.640352 206.430469 
z
" clip-path="url(#p8da216a0f1)" style="fill: none; stroke-dasharray: 7.4,3.2; stroke-dashoffset: 0; stroke: #262626; stroke-width: 2"/>
    <path d="M 656.016148 206.430469 
L 670.391945 206.430469 
L 670.391945 206.096403 
L 656.016148 206.096403 
z
" clip-path="url(#p8da216a0f1)" style="fill: #9a3670; fill-opacity: 0.7; stroke-dasharray: 7.4,3.2; stroke-dashoffset: 0"/>
    <path d="M 656.016148 206.430469 
L 670.391945 206.430469 
L 670.391945 206.034892 
L 656.016148 206.034892 
L 656.016148 206.430469 
z
" clip-path="url(#p8da216a0f1)" style="fill: none; stroke-dasharray: 7.4,3.2; stroke-dashoffset: 0; stroke: #262626; stroke-width: 2"/>
    <path d="M 670.391945 206.430469 
L 684.767742 206.430469 
L 684.767742 206.048019 
L 670.391945 206.048019 
z
" clip-path="url(#p8da216a0f1)" style="fill: #9a3670; fill-opacity: 0.7; stroke-dasharray: 7.4,3.2; stroke-dashoffset: 0"/>
    <path d="M 670.391945 206.430469 
L 684.767742 206.430469 
L 684.767742 206.33647 
L 670.391945 206.33647 
L 670.391945 206.430469 
z
" clip-path="url(#p8da216a0f1)" style="fill: none; stroke-dasharray: 7.4,3.2; stroke-dashoffset: 0; stroke: #262626; stroke-width: 2"/>
    <path d="M 684.767742 206.430469 
L 699.143539 206.430469 
L 699.143539 206.127701 
L 684.767742 206.127701 
z
" clip-path="url(#p8da216a0f1)" style="fill: #9a3670; fill-opacity: 0.7; stroke-dasharray: 7.4,3.2; stroke-dashoffset: 0"/>
    <path d="M 684.767742 206.430469 
L 699.143539 206.430469 
L 699.143539 206.14409 
L 684.767742 206.14409 
L 684.767742 206.430469 
z
" clip-path="url(#p8da216a0f1)" style="fill: none; stroke-dasharray: 7.4,3.2; stroke-dashoffset: 0; stroke: #262626; stroke-width: 2"/>
    <path d="M 699.143539 206.430469 
L 713.519336 206.430469 
L 713.519336 206.159665 
L 699.143539 206.159665 
z
" clip-path="url(#p8da216a0f1)" style="fill: #9a3670; fill-opacity: 0.7; stroke-dasharray: 7.4,3.2; stroke-dashoffset: 0"/>
    <path d="M 699.143539 206.430469 
L 701.476328 206.430469 
M 701.476328 206.33647 
L 699.143539 206.33647 
L 699.143539 206.430469 
" clip-path="url(#p8da216a0f1)" style="fill: none; stroke-dasharray: 7.4,3.2; stroke-dashoffset: 0; stroke: #262626; stroke-width: 2"/>
    <path d="M 713.519336 206.430469 
L 727.895133 206.430469 
L 727.895133 206.183797 
L 713.519336 206.183797 
z
" clip-path="url(#p8da216a0f1)" style="fill: #9a3670; fill-opacity: 0.7; stroke-dasharray: 7.4,3.2; stroke-dashoffset: 0"/>
    <path clip-path="url(#p8da216a0f1)" style="fill: none; stroke-dasharray: 7.4,3.2; stroke-dashoffset: 0; stroke: #262626; stroke-width: 2"/>
    <path d="M 727.895133 206.430469 
L 742.27093 206.430469 
L 742.27093 206.198107 
L 727.895133 206.198107 
z
" clip-path="url(#p8da216a0f1)" style="fill: #9a3670; fill-opacity: 0.7; stroke-dasharray: 7.4,3.2; stroke-dashoffset: 0"/>
    <path clip-path="url(#p8da216a0f1)" style="fill: none; stroke-dasharray: 7.4,3.2; stroke-dashoffset: 0; stroke: #262626; stroke-width: 2"/>
    <path d="M 742.27093 206.430469 
L 756.646727 206.430469 
L 756.646727 206.264241 
L 742.27093 206.264241 
z
" clip-path="url(#p8da216a0f1)" style="fill: #9a3670; fill-opacity: 0.7; stroke-dasharray: 7.4,3.2; stroke-dashoffset: 0"/>
    <path clip-path="url(#p8da216a0f1)" style="fill: none; stroke-dasharray: 7.4,3.2; stroke-dashoffset: 0; stroke: #262626; stroke-width: 2"/>
    <path d="M 756.646727 206.430469 
L 771.022523 206.430469 
L 771.022523 206.260463 
L 756.646727 206.260463 
z
" clip-path="url(#p8da216a0f1)" style="fill: #9a3670; fill-opacity: 0.7; stroke-dasharray: 7.4,3.2; stroke-dashoffset: 0"/>
    <path clip-path="url(#p8da216a0f1)" style="fill: none; stroke-dasharray: 7.4,3.2; stroke-dashoffset: 0; stroke: #262626; stroke-width: 2"/>
    <path d="M 771.022523 206.430469 
L 785.39832 206.430469 
L 785.39832 206.218008 
L 771.022523 206.218008 
z
" clip-path="url(#p8da216a0f1)" style="fill: #9a3670; fill-opacity: 0.7; stroke-dasharray: 7.4,3.2; stroke-dashoffset: 0"/>
    <path clip-path="url(#p8da216a0f1)" style="fill: none; stroke-dasharray: 7.4,3.2; stroke-dashoffset: 0; stroke: #262626; stroke-width: 2"/>
    <path d="M 785.39832 206.430469 
L 799.774117 206.430469 
L 799.774117 206.271752 
L 785.39832 206.271752 
z
" clip-path="url(#p8da216a0f1)" style="fill: #9a3670; fill-opacity: 0.7; stroke-dasharray: 7.4,3.2; stroke-dashoffset: 0"/>
    <path clip-path="url(#p8da216a0f1)" style="fill: none; stroke-dasharray: 7.4,3.2; stroke-dashoffset: 0; stroke: #262626; stroke-width: 2"/>
    <path d="M 799.774117 206.430469 
L 814.149914 206.430469 
L 814.149914 206.271694 
L 799.774117 206.271694 
z
" clip-path="url(#p8da216a0f1)" style="fill: #9a3670; fill-opacity: 0.7; stroke-dasharray: 7.4,3.2; stroke-dashoffset: 0"/>
    <path clip-path="url(#p8da216a0f1)" style="fill: none; stroke-dasharray: 7.4,3.2; stroke-dashoffset: 0; stroke: #262626; stroke-width: 2"/>
    <path d="M 814.149914 206.430469 
L 828.525711 206.430469 
L 828.525711 206.304354 
L 814.149914 206.304354 
z
" clip-path="url(#p8da216a0f1)" style="fill: #9a3670; fill-opacity: 0.7; stroke-dasharray: 7.4,3.2; stroke-dashoffset: 0"/>
    <path clip-path="url(#p8da216a0f1)" style="fill: none; stroke-dasharray: 7.4,3.2; stroke-dashoffset: 0; stroke: #262626; stroke-width: 2"/>
    <path d="M 828.525711 206.430469 
L 842.901508 206.430469 
L 842.901508 206.288989 
L 828.525711 206.288989 
z
" clip-path="url(#p8da216a0f1)" style="fill: #9a3670; fill-opacity: 0.7; stroke-dasharray: 7.4,3.2; stroke-dashoffset: 0"/>
    <path clip-path="url(#p8da216a0f1)" style="fill: none; stroke-dasharray: 7.4,3.2; stroke-dashoffset: 0; stroke: #262626; stroke-width: 2"/>
    <path d="M 842.901508 206.430469 
L 857.277305 206.430469 
L 857.277305 206.289244 
L 842.901508 206.289244 
z
" clip-path="url(#p8da216a0f1)" style="fill: #9a3670; fill-opacity: 0.7; stroke-dasharray: 7.4,3.2; stroke-dashoffset: 0"/>
    <path clip-path="url(#p8da216a0f1)" style="fill: none; stroke-dasharray: 7.4,3.2; stroke-dashoffset: 0; stroke: #262626; stroke-width: 2"/>
    <path d="M 857.277305 206.430469 
L 871.653102 206.430469 
L 871.653102 206.283589 
L 857.277305 206.283589 
z
" clip-path="url(#p8da216a0f1)" style="fill: #9a3670; fill-opacity: 0.7; stroke-dasharray: 7.4,3.2; stroke-dashoffset: 0"/>
    <path d="M 871.653102 206.430469 
L 886.028898 206.430469 
L 886.028898 206.262553 
L 871.653102 206.262553 
z
" clip-path="url(#p8da216a0f1)" style="fill: #9a3670; fill-opacity: 0.7; stroke-dasharray: 7.4,3.2; stroke-dashoffset: 0"/>
    <path clip-path="url(#p8da216a0f1)" style="fill: none; stroke-dasharray: 7.4,3.2; stroke-dashoffset: 0; stroke: #262626; stroke-width: 2"/>
    <path d="M 886.028898 206.430469 
L 900.404695 206.430469 
L 900.404695 206.307364 
L 886.028898 206.307364 
z
" clip-path="url(#p8da216a0f1)" style="fill: #9a3670; fill-opacity: 0.7; stroke-dasharray: 7.4,3.2; stroke-dashoffset: 0"/>
    <path clip-path="url(#p8da216a0f1)" style="fill: none; stroke-dasharray: 7.4,3.2; stroke-dashoffset: 0; stroke: #262626; stroke-width: 2"/>
    <path d="M 900.404695 206.430469 
L 914.780492 206.430469 
L 914.780492 206.302559 
L 900.404695 206.302559 
z
" clip-path="url(#p8da216a0f1)" style="fill: #9a3670; fill-opacity: 0.7; stroke-dasharray: 7.4,3.2; stroke-dashoffset: 0"/>
    <path clip-path="url(#p8da216a0f1)" style="fill: none; stroke-dasharray: 7.4,3.2; stroke-dashoffset: 0; stroke: #262626; stroke-width: 2"/>
    <path d="M 914.780492 206.430469 
L 929.156289 206.430469 
L 929.156289 206.309435 
L 914.780492 206.309435 
z
" clip-path="url(#p8da216a0f1)" style="fill: #9a3670; fill-opacity: 0.7; stroke-dasharray: 7.4,3.2; stroke-dashoffset: 0"/>
    <path d="M 929.156289 206.430469 
L 943.532086 206.430469 
L 943.532086 206.300862 
L 929.156289 206.300862 
z
" clip-path="url(#p8da216a0f1)" style="fill: #9a3670; fill-opacity: 0.7; stroke-dasharray: 7.4,3.2; stroke-dashoffset: 0"/>
    <path d="M 943.532086 206.430469 
L 957.907883 206.430469 
L 957.907883 206.35732 
L 943.532086 206.35732 
z
" clip-path="url(#p8da216a0f1)" style="fill: #9a3670; fill-opacity: 0.7; stroke-dasharray: 7.4,3.2; stroke-dashoffset: 0"/>
    <path d="M 957.907883 206.430469 
L 972.28368 206.430469 
L 972.28368 206.322198 
L 957.907883 206.322198 
z
" clip-path="url(#p8da216a0f1)" style="fill: #9a3670; fill-opacity: 0.7; stroke-dasharray: 7.4,3.2; stroke-dashoffset: 0"/>
    <path clip-path="url(#p8da216a0f1)" style="fill: none; stroke-dasharray: 7.4,3.2; stroke-dashoffset: 0; stroke: #262626; stroke-width: 2"/>
    <path d="M 972.28368 206.430469 
L 986.659477 206.430469 
L 986.659477 206.366575 
L 972.28368 206.366575 
z
" clip-path="url(#p8da216a0f1)" style="fill: #9a3670; fill-opacity: 0.7; stroke-dasharray: 7.4,3.2; stroke-dashoffset: 0"/>
    <path d="M 986.659477 206.430469 
L 1001.035273 206.430469 
L 1001.035273 206.311237 
L 986.659477 206.311237 
z
" clip-path="url(#p8da216a0f1)" style="fill: #9a3670; fill-opacity: 0.7; stroke-dasharray: 7.4,3.2; stroke-dashoffset: 0"/>
    <path clip-path="url(#p8da216a0f1)" style="fill: none; stroke-dasharray: 7.4,3.2; stroke-dashoffset: 0; stroke: #262626; stroke-width: 2"/>
    <path d="M 1001.035273 206.430469 
L 1015.41107 206.430469 
L 1015.41107 206.351637 
L 1001.035273 206.351637 
z
" clip-path="url(#p8da216a0f1)" style="fill: #9a3670; fill-opacity: 0.7; stroke-dasharray: 7.4,3.2; stroke-dashoffset: 0"/>
    <path clip-path="url(#p8da216a0f1)" style="fill: none; stroke-dasharray: 7.4,3.2; stroke-dashoffset: 0; stroke: #262626; stroke-width: 2"/>
    <path d="M 1015.41107 206.430469 
L 1029.786867 206.430469 
L 1029.786867 206.306112 
L 1015.41107 206.306112 
z
" clip-path="url(#p8da216a0f1)" style="fill: #9a3670; fill-opacity: 0.7; stroke-dasharray: 7.4,3.2; stroke-dashoffset: 0"/>
    <path clip-path="url(#p8da216a0f1)" style="fill: none; stroke-dasharray: 7.4,3.2; stroke-dashoffset: 0; stroke: #262626; stroke-width: 2"/>
    <path d="M 1029.786867 206.430469 
L 1044.162664 206.430469 
L 1044.162664 206.075054 
L 1029.786867 206.075054 
z
" clip-path="url(#p8da216a0f1)" style="fill: #9a3670; fill-opacity: 0.7; stroke-dasharray: 7.4,3.2; stroke-dashoffset: 0"/>
    <path clip-path="url(#p8da216a0f1)" style="fill: none; stroke-dasharray: 7.4,3.2; stroke-dashoffset: 0; stroke: #262626; stroke-width: 2"/>
    <path d="M 1044.162664 206.430469 
L 1058.538461 206.430469 
L 1058.538461 206.38668 
L 1044.162664 206.38668 
z
" clip-path="url(#p8da216a0f1)" style="fill: #9a3670; fill-opacity: 0.7; stroke-dasharray: 7.4,3.2; stroke-dashoffset: 0"/>
    <path d="M 1058.538461 206.430469 
L 1072.914258 206.430469 
L 1072.914258 206.311527 
L 1058.538461 206.311527 
z
" clip-path="url(#p8da216a0f1)" style="fill: #9a3670; fill-opacity: 0.7; stroke-dasharray: 7.4,3.2; stroke-dashoffset: 0"/>
    <path d="M 1072.914258 206.430469 
L 1087.290055 206.430469 
L 1087.290055 206.38668 
L 1072.914258 206.38668 
z
" clip-path="url(#p8da216a0f1)" style="fill: #9a3670; fill-opacity: 0.7; stroke-dasharray: 7.4,3.2; stroke-dashoffset: 0"/>
    <path d="M 1101.665852 206.430469 
L 1116.041648 206.430469 
L 1116.041648 206.192586 
L 1101.665852 206.192586 
z
" clip-path="url(#p8da216a0f1)" style="fill: #9a3670; fill-opacity: 0.7; stroke-dasharray: 7.4,3.2; stroke-dashoffset: 0"/>
    <path d="M 1159.169039 206.430469 
L 1173.544836 206.430469 
L 1173.544836 206.38668 
L 1159.169039 206.38668 
z
" clip-path="url(#p8da216a0f1)" style="fill: #9a3670; fill-opacity: 0.7; stroke-dasharray: 7.4,3.2; stroke-dashoffset: 0"/>
    <path d="M 1173.544836 206.430469 
L 1187.920633 206.430469 
L 1187.920633 206.349104 
L 1173.544836 206.349104 
z
" clip-path="url(#p8da216a0f1)" style="fill: #9a3670; fill-opacity: 0.7; stroke-dasharray: 7.4,3.2; stroke-dashoffset: 0"/>
    <path d="M 1187.920633 206.430469 
L 1202.29643 206.430469 
L 1202.29643 206.311527 
L 1187.920633 206.311527 
z
" clip-path="url(#p8da216a0f1)" style="fill: #9a3670; fill-opacity: 0.7; stroke-dasharray: 7.4,3.2; stroke-dashoffset: 0"/>
    <path d="M 1202.29643 206.430469 
L 1216.672227 206.430469 
L 1216.672227 206.311527 
L 1202.29643 206.311527 
z
" clip-path="url(#p8da216a0f1)" style="fill: #9a3670; fill-opacity: 0.7; stroke-dasharray: 7.4,3.2; stroke-dashoffset: 0"/>
    <path d="M 1216.672227 206.430469 
L 1231.048023 206.430469 
L 1231.048023 206.38668 
L 1216.672227 206.38668 
z
" clip-path="url(#p8da216a0f1)" style="fill: #9a3670; fill-opacity: 0.7; stroke-dasharray: 7.4,3.2; stroke-dashoffset: 0"/>
    <path d="M 1231.048023 206.430469 
L 1245.42382 206.430469 
L 1245.42382 206.289633 
L 1231.048023 206.289633 
z
" clip-path="url(#p8da216a0f1)" style="fill: #9a3670; fill-opacity: 0.7; stroke-dasharray: 7.4,3.2; stroke-dashoffset: 0"/>
    <path d="M 1245.42382 206.430469 
L 1259.799617 206.430469 
L 1259.799617 206.311527 
L 1245.42382 206.311527 
z
" clip-path="url(#p8da216a0f1)" style="fill: #9a3670; fill-opacity: 0.7; stroke-dasharray: 7.4,3.2; stroke-dashoffset: 0"/>
    <path d="M 1259.799617 206.430469 
L 1274.175414 206.430469 
L 1274.175414 206.311527 
L 1259.799617 206.311527 
z
" clip-path="url(#p8da216a0f1)" style="fill: #9a3670; fill-opacity: 0.7; stroke-dasharray: 7.4,3.2; stroke-dashoffset: 0"/>
    <path d="M 1331.678602 206.430469 
L 1346.054398 206.430469 
L 1346.054398 206.311527 
L 1331.678602 206.311527 
z
" clip-path="url(#p8da216a0f1)" style="fill: #9a3670; fill-opacity: 0.7; stroke-dasharray: 7.4,3.2; stroke-dashoffset: 0"/>
    <path d="M 1374.805992 206.430469 
L 1389.181789 206.430469 
L 1389.181789 206.38668 
L 1374.805992 206.38668 
z
" clip-path="url(#p8da216a0f1)" style="fill: #9a3670; fill-opacity: 0.7; stroke-dasharray: 7.4,3.2; stroke-dashoffset: 0"/>
    <path d="M 1403.557586 206.430469 
L 1417.933383 206.430469 
L 1417.933383 206.311527 
L 1403.557586 206.311527 
z
" clip-path="url(#p8da216a0f1)" style="fill: #9a3670; fill-opacity: 0.7; stroke-dasharray: 7.4,3.2; stroke-dashoffset: 0"/>
    <path d="M 1504.188164 206.430469 
L 1518.563961 206.430469 
L 1518.563961 206.38668 
L 1504.188164 206.38668 
z
" clip-path="url(#p8da216a0f1)" style="fill: #9a3670; fill-opacity: 0.7; stroke-dasharray: 7.4,3.2; stroke-dashoffset: 0"/>
    <path d="M 1547.315555 206.430469 
L 1561.691352 206.430469 
L 1561.691352 206.38668 
L 1547.315555 206.38668 
z
" clip-path="url(#p8da216a0f1)" style="fill: #9a3670; fill-opacity: 0.7; stroke-dasharray: 7.4,3.2; stroke-dashoffset: 0"/>
    <path d="M 1604.818742 206.430469 
L 1619.194539 206.430469 
L 1619.194539 206.38668 
L 1604.818742 206.38668 
z
" clip-path="url(#p8da216a0f1)" style="fill: #9a3670; fill-opacity: 0.7; stroke-dasharray: 7.4,3.2; stroke-dashoffset: 0"/>
    <path d="M 1719.825117 206.430469 
L 1734.200914 206.430469 
L 1734.200914 206.38668 
L 1719.825117 206.38668 
z
" clip-path="url(#p8da216a0f1)" style="fill: #9a3670; fill-opacity: 0.7; stroke-dasharray: 7.4,3.2; stroke-dashoffset: 0"/>
    <path d="M 1734.200914 206.430469 
L 1748.576711 206.430469 
L 1748.576711 206.38668 
L 1734.200914 206.38668 
z
" clip-path="url(#p8da216a0f1)" style="fill: #9a3670; fill-opacity: 0.7; stroke-dasharray: 7.4,3.2; stroke-dashoffset: 0"/>
    <path d="M 1748.576711 206.430469 
L 1762.952508 206.430469 
L 1762.952508 206.255313 
L 1748.576711 206.255313 
z
" clip-path="url(#p8da216a0f1)" style="fill: #9a3670; fill-opacity: 0.7; stroke-dasharray: 7.4,3.2; stroke-dashoffset: 0"/>
   </g>
   <g id="patch_8">
    <path d="M 318.184922 206.430469 
L 318.184922 26.877187 
" style="fill: none; stroke: #ffffff; stroke-width: 1.875; stroke-linejoin: miter; stroke-linecap: square"/>
   </g>
   <g id="patch_9">
    <path d="M 533.821875 206.430469 
L 533.821875 26.877187 
" style="fill: none; stroke: #ffffff; stroke-width: 1.875; stroke-linejoin: miter; stroke-linecap: square"/>
   </g>
   <g id="patch_10">
    <path d="M 318.184922 206.430469 
L 533.821875 206.430469 
" style="fill: none; stroke: #ffffff; stroke-width: 1.875; stroke-linejoin: miter; stroke-linecap: square"/>
   </g>
   <g id="patch_11">
    <path d="M 318.184922 26.877187 
L 533.821875 26.877187 
" style="fill: none; stroke: #ffffff; stroke-width: 1.875; stroke-linejoin: miter; stroke-linecap: square"/>
   </g>
   <g id="text_17">
    <!-- Ciprofloxacin 30 ng/ml -->
    <g transform="translate(324.722461 20.877187) scale(0.18 -0.18)">
     <use xlink:href="#DejaVuSans-43"/>
     <use xlink:href="#DejaVuSans-69" x="69.824219"/>
     <use xlink:href="#DejaVuSans-70" x="97.607422"/>
     <use xlink:href="#DejaVuSans-72" x="161.083984"/>
     <use xlink:href="#DejaVuSans-6f" x="199.947266"/>
     <use xlink:href="#DejaVuSans-66" x="261.128906"/>
     <use xlink:href="#DejaVuSans-6c" x="296.333984"/>
     <use xlink:href="#DejaVuSans-6f" x="324.117188"/>
     <use xlink:href="#DejaVuSans-78" x="382.173828"/>
     <use xlink:href="#DejaVuSans-61" x="441.353516"/>
     <use xlink:href="#DejaVuSans-63" x="502.632812"/>
     <use xlink:href="#DejaVuSans-69" x="557.613281"/>
     <use xlink:href="#DejaVuSans-6e" x="585.396484"/>
     <use xlink:href="#DejaVuSans-20" x="648.775391"/>
     <use xlink:href="#DejaVuSans-33" x="680.5625"/>
     <use xlink:href="#DejaVuSans-30" x="744.185547"/>
     <use xlink:href="#DejaVuSans-20" x="807.808594"/>
     <use xlink:href="#DejaVuSans-6e" x="839.595703"/>
     <use xlink:href="#DejaVuSans-67" x="902.974609"/>
     <use xlink:href="#DejaVuSans-2f" x="966.451172"/>
     <use xlink:href="#DejaVuSans-6d" x="1000.142578"/>
     <use xlink:href="#DejaVuSans-6c" x="1097.554688"/>
    </g>
   </g>
  </g>
  <g id="legend_1">
   <g id="patch_12">
    <path d="M 576.03 181.703437 
L 702.216328 181.703437 
Q 705.516328 181.703437 705.516328 178.403437 
L 705.516328 31.836562 
Q 705.516328 28.536562 702.216328 28.536562 
L 576.03 28.536562 
Q 572.73 28.536562 572.73 31.836562 
L 572.73 178.403437 
Q 572.73 181.703437 576.03 181.703437 
z
" style="fill: #eaeaf2; opacity: 0.8; stroke: #cccccc; stroke-width: 1.5; stroke-linejoin: miter"/>
   </g>
   <g id="text_18">
    <!-- Strain -->
    <g transform="translate(612.46207 48.81375) scale(0.18 -0.18)">
     <use xlink:href="#DejaVuSans-53"/>
     <use xlink:href="#DejaVuSans-74" x="63.476562"/>
     <use xlink:href="#DejaVuSans-72" x="102.685547"/>
     <use xlink:href="#DejaVuSans-61" x="143.798828"/>
     <use xlink:href="#DejaVuSans-69" x="205.078125"/>
     <use xlink:href="#DejaVuSans-6e" x="232.861328"/>
    </g>
   </g>
   <g id="patch_13">
    <path d="M 596.538984 73.344609 
L 629.538984 73.344609 
L 629.538984 61.794609 
L 596.538984 61.794609 
L 596.538984 73.344609 
z
" style="fill: none; stroke-dasharray: 7.4,3.2; stroke-dashoffset: 0; stroke: #262626; stroke-width: 2; stroke-linejoin: miter"/>
   </g>
   <g id="text_19">
    <!-- Gam -->
    <g transform="translate(642.738984 73.344609) scale(0.165 -0.165)">
     <defs>
      <path id="DejaVuSans-47" d="M 3809 666 
L 3809 1919 
L 2778 1919 
L 2778 2438 
L 4434 2438 
L 4434 434 
Q 4069 175 3628 42 
Q 3188 -91 2688 -91 
Q 1594 -91 976 548 
Q 359 1188 359 2328 
Q 359 3472 976 4111 
Q 1594 4750 2688 4750 
Q 3144 4750 3555 4637 
Q 3966 4525 4313 4306 
L 4313 3634 
Q 3963 3931 3569 4081 
Q 3175 4231 2741 4231 
Q 1884 4231 1454 3753 
Q 1025 3275 1025 2328 
Q 1025 1384 1454 906 
Q 1884 428 2741 428 
Q 3075 428 3337 486 
Q 3600 544 3809 666 
z
" transform="scale(0.015625)"/>
     </defs>
     <use xlink:href="#DejaVuSans-47"/>
     <use xlink:href="#DejaVuSans-61" x="77.490234"/>
     <use xlink:href="#DejaVuSans-6d" x="138.769531"/>
    </g>
   </g>
   <g id="patch_14">
    <path d="M 596.538984 97.563516 
L 629.538984 97.563516 
L 629.538984 86.013516 
L 596.538984 86.013516 
z
" style="fill: #4c72b0; fill-opacity: 0.7; stroke-dasharray: 7.4,3.2; stroke-dashoffset: 0"/>
   </g>
   <g id="text_20">
    <!-- WT -->
    <g transform="translate(642.738984 97.563516) scale(0.165 -0.165)">
     <defs>
      <path id="DejaVuSans-57" d="M 213 4666 
L 850 4666 
L 1831 722 
L 2809 4666 
L 3519 4666 
L 4500 722 
L 5478 4666 
L 6119 4666 
L 4947 0 
L 4153 0 
L 3169 4050 
L 2175 0 
L 1381 0 
L 213 4666 
z
" transform="scale(0.015625)"/>
      <path id="DejaVuSans-54" d="M -19 4666 
L 3928 4666 
L 3928 4134 
L 2272 4134 
L 2272 0 
L 1638 0 
L 1638 4134 
L -19 4134 
L -19 4666 
z
" transform="scale(0.015625)"/>
     </defs>
     <use xlink:href="#DejaVuSans-57"/>
     <use xlink:href="#DejaVuSans-54" x="98.876953"/>
    </g>
   </g>
   <g id="text_21">
    <!-- Ciprofloxacin -->
    <g transform="translate(580.731445 122.922187) scale(0.18 -0.18)">
     <use xlink:href="#DejaVuSans-43"/>
     <use xlink:href="#DejaVuSans-69" x="69.824219"/>
     <use xlink:href="#DejaVuSans-70" x="97.607422"/>
     <use xlink:href="#DejaVuSans-72" x="161.083984"/>
     <use xlink:href="#DejaVuSans-6f" x="199.947266"/>
     <use xlink:href="#DejaVuSans-66" x="261.128906"/>
     <use xlink:href="#DejaVuSans-6c" x="296.333984"/>
     <use xlink:href="#DejaVuSans-6f" x="324.117188"/>
     <use xlink:href="#DejaVuSans-78" x="382.173828"/>
     <use xlink:href="#DejaVuSans-61" x="441.353516"/>
     <use xlink:href="#DejaVuSans-63" x="502.632812"/>
     <use xlink:href="#DejaVuSans-69" x="557.613281"/>
     <use xlink:href="#DejaVuSans-6e" x="585.396484"/>
    </g>
   </g>
   <g id="patch_15">
    <path d="M 579.33 147.453047 
L 612.33 147.453047 
L 612.33 135.903047 
L 579.33 135.903047 
z
" style="fill: #de5d5c; fill-opacity: 0.7; stroke-dasharray: 7.4,3.2; stroke-dashoffset: 0; stroke: #262626; stroke-width: 2; stroke-linejoin: miter"/>
   </g>
   <g id="text_22">
    <!-- 0 ng/ml -->
    <g transform="translate(625.53 147.453047) scale(0.165 -0.165)">
     <use xlink:href="#DejaVuSans-30"/>
     <use xlink:href="#DejaVuSans-20" x="63.623047"/>
     <use xlink:href="#DejaVuSans-6e" x="95.410156"/>
     <use xlink:href="#DejaVuSans-67" x="158.789062"/>
     <use xlink:href="#DejaVuSans-2f" x="222.265625"/>
     <use xlink:href="#DejaVuSans-6d" x="255.957031"/>
     <use xlink:href="#DejaVuSans-6c" x="353.369141"/>
    </g>
   </g>
   <g id="patch_16">
    <path d="M 579.33 171.671953 
L 612.33 171.671953 
L 612.33 160.121953 
L 579.33 160.121953 
z
" style="fill: #9a3670; fill-opacity: 0.7; stroke-dasharray: 7.4,3.2; stroke-dashoffset: 0; stroke: #262626; stroke-width: 2; stroke-linejoin: miter"/>
   </g>
   <g id="text_23">
    <!-- 30 ng/ml -->
    <g transform="translate(625.53 171.671953) scale(0.165 -0.165)">
     <use xlink:href="#DejaVuSans-33"/>
     <use xlink:href="#DejaVuSans-30" x="63.623047"/>
     <use xlink:href="#DejaVuSans-20" x="127.246094"/>
     <use xlink:href="#DejaVuSans-6e" x="159.033203"/>
     <use xlink:href="#DejaVuSans-67" x="222.412109"/>
     <use xlink:href="#DejaVuSans-2f" x="285.888672"/>
     <use xlink:href="#DejaVuSans-6d" x="319.580078"/>
     <use xlink:href="#DejaVuSans-6c" x="416.992188"/>
    </g>
   </g>
  </g>
 </g>
 <defs>
  <clipPath id="p6306846d63">
   <rect x="67.360781" y="26.877187" width="215.636953" height="179.553281"/>
  </clipPath>
  <clipPath id="p8da216a0f1">
   <rect x="318.184922" y="26.877187" width="215.636953" height="179.553281"/>
  </clipPath>
 </defs>
</svg>
