<?xml version="1.0" encoding="utf-8" standalone="no"?>
<!DOCTYPE svg PUBLIC "-//W3C//DTD SVG 1.1//EN"
  "http://www.w3.org/Graphics/SVG/1.1/DTD/svg11.dtd">
<svg xmlns:xlink="http://www.w3.org/1999/xlink" width="551.52pt" height="263.52pt" viewBox="0 0 551.52 263.52" xmlns="http://www.w3.org/2000/svg" version="1.1">
 <metadata>
  <rdf:RDF xmlns:dc="http://purl.org/dc/elements/1.1/" xmlns:cc="http://creativecommons.org/ns#" xmlns:rdf="http://www.w3.org/1999/02/22-rdf-syntax-ns#">
   <cc:Work>
    <dc:type rdf:resource="http://purl.org/dc/dcmitype/StillImage"/>
    <dc:date>2024-10-11T10:46:56.472178</dc:date>
    <dc:format>image/svg+xml</dc:format>
    <dc:creator>
     <cc:Agent>
      <dc:title>Matplotlib v3.8.0, https://matplotlib.org/</dc:title>
     </cc:Agent>
    </dc:creator>
   </cc:Work>
  </rdf:RDF>
 </metadata>
 <defs>
  <style type="text/css">*{stroke-linejoin: round; stroke-linecap: butt}</style>
 </defs>
 <g id="figure_1">
  <g id="patch_1">
   <path d="M 0 263.52 
L 551.52 263.52 
L 551.52 0 
L 0 0 
z
" style="fill: #ffffff"/>
  </g>
  <g id="axes_1">
   <g id="patch_2">
    <path d="M 77.858906 206.430469 
L 288.246797 206.430469 
L 288.246797 26.877187 
L 77.858906 26.877187 
z
" style="fill: #eaeaf2"/>
   </g>
   <g id="matplotlib.axis_1">
    <g id="xtick_1">
     <g id="line2d_1">
      <path d="M 77.858906 206.430469 
L 77.858906 26.877187 
" clip-path="url(#p8339264ecf)" style="fill: none; stroke: #ffffff; stroke-width: 1.5; stroke-linecap: round"/>
     </g>
     <g id="text_1">
      <!-- 0 -->
      <g style="fill: #262626" transform="translate(72.609844 231.467891) scale(0.165 -0.165)">
       <defs>
        <path id="DejaVuSans-30" d="M 2034 4250 
Q 1547 4250 1301 3770 
Q 1056 3291 1056 2328 
Q 1056 1369 1301 889 
Q 1547 409 2034 409 
Q 2525 409 2770 889 
Q 3016 1369 3016 2328 
Q 3016 3291 2770 3770 
Q 2525 4250 2034 4250 
z
M 2034 4750 
Q 2819 4750 3233 4129 
Q 3647 3509 3647 2328 
Q 3647 1150 3233 529 
Q 2819 -91 2034 -91 
Q 1250 -91 836 529 
Q 422 1150 422 2328 
Q 422 3509 836 4129 
Q 1250 4750 2034 4750 
z
" transform="scale(0.015625)"/>
       </defs>
       <use xlink:href="#DejaVuSans-30"/>
      </g>
     </g>
    </g>
    <g id="xtick_2">
     <g id="line2d_2">
      <path d="M 147.988203 206.430469 
L 147.988203 26.877187 
" clip-path="url(#p8339264ecf)" style="fill: none; stroke: #ffffff; stroke-width: 1.5; stroke-linecap: round"/>
     </g>
     <g id="text_2">
      <!-- 10 -->
      <g style="fill: #262626" transform="translate(137.490078 231.467891) scale(0.165 -0.165)">
       <defs>
        <path id="DejaVuSans-31" d="M 794 531 
L 1825 531 
L 1825 4091 
L 703 3866 
L 703 4441 
L 1819 4666 
L 2450 4666 
L 2450 531 
L 3481 531 
L 3481 0 
L 794 0 
L 794 531 
z
" transform="scale(0.015625)"/>
       </defs>
       <use xlink:href="#DejaVuSans-31"/>
       <use xlink:href="#DejaVuSans-30" x="63.623047"/>
      </g>
     </g>
    </g>
    <g id="xtick_3">
     <g id="line2d_3">
      <path d="M 218.1175 206.430469 
L 218.1175 26.877187 
" clip-path="url(#p8339264ecf)" style="fill: none; stroke: #ffffff; stroke-width: 1.5; stroke-linecap: round"/>
     </g>
     <g id="text_3">
      <!-- 20 -->
      <g style="fill: #262626" transform="translate(207.619375 231.467891) scale(0.165 -0.165)">
       <defs>
        <path id="DejaVuSans-32" d="M 1228 531 
L 3431 531 
L 3431 0 
L 469 0 
L 469 531 
Q 828 903 1448 1529 
Q 2069 2156 2228 2338 
Q 2531 2678 2651 2914 
Q 2772 3150 2772 3378 
Q 2772 3750 2511 3984 
Q 2250 4219 1831 4219 
Q 1534 4219 1204 4116 
Q 875 4013 500 3803 
L 500 4441 
Q 881 4594 1212 4672 
Q 1544 4750 1819 4750 
Q 2544 4750 2975 4387 
Q 3406 4025 3406 3419 
Q 3406 3131 3298 2873 
Q 3191 2616 2906 2266 
Q 2828 2175 2409 1742 
Q 1991 1309 1228 531 
z
" transform="scale(0.015625)"/>
       </defs>
       <use xlink:href="#DejaVuSans-32"/>
       <use xlink:href="#DejaVuSans-30" x="63.623047"/>
      </g>
     </g>
    </g>
    <g id="xtick_4">
     <g id="line2d_4">
      <path d="M 288.246797 206.430469 
L 288.246797 26.877187 
" clip-path="url(#p8339264ecf)" style="fill: none; stroke: #ffffff; stroke-width: 1.5; stroke-linecap: round"/>
     </g>
     <g id="text_4">
      <!-- 30 -->
      <g style="fill: #262626" transform="translate(277.748672 231.467891) scale(0.165 -0.165)">
       <defs>
        <path id="DejaVuSans-33" d="M 2597 2516 
Q 3050 2419 3304 2112 
Q 3559 1806 3559 1356 
Q 3559 666 3084 287 
Q 2609 -91 1734 -91 
Q 1441 -91 1130 -33 
Q 819 25 488 141 
L 488 750 
Q 750 597 1062 519 
Q 1375 441 1716 441 
Q 2309 441 2620 675 
Q 2931 909 2931 1356 
Q 2931 1769 2642 2001 
Q 2353 2234 1838 2234 
L 1294 2234 
L 1294 2753 
L 1863 2753 
Q 2328 2753 2575 2939 
Q 2822 3125 2822 3475 
Q 2822 3834 2567 4026 
Q 2313 4219 1838 4219 
Q 1578 4219 1281 4162 
Q 984 4106 628 3988 
L 628 4550 
Q 988 4650 1302 4700 
Q 1616 4750 1894 4750 
Q 2613 4750 3031 4423 
Q 3450 4097 3450 3541 
Q 3450 3153 3228 2886 
Q 3006 2619 2597 2516 
z
" transform="scale(0.015625)"/>
       </defs>
       <use xlink:href="#DejaVuSans-33"/>
       <use xlink:href="#DejaVuSans-30" x="63.623047"/>
      </g>
     </g>
    </g>
    <g id="text_5">
     <!-- Spot lifetime (sec) -->
     <g style="fill: #262626" transform="translate(100.632539 252.576562) scale(0.18 -0.18)">
      <defs>
       <path id="DejaVuSans-53" d="M 3425 4513 
L 3425 3897 
Q 3066 4069 2747 4153 
Q 2428 4238 2131 4238 
Q 1616 4238 1336 4038 
Q 1056 3838 1056 3469 
Q 1056 3159 1242 3001 
Q 1428 2844 1947 2747 
L 2328 2669 
Q 3034 2534 3370 2195 
Q 3706 1856 3706 1288 
Q 3706 609 3251 259 
Q 2797 -91 1919 -91 
Q 1588 -91 1214 -16 
Q 841 59 441 206 
L 441 856 
Q 825 641 1194 531 
Q 1563 422 1919 422 
Q 2459 422 2753 634 
Q 3047 847 3047 1241 
Q 3047 1584 2836 1778 
Q 2625 1972 2144 2069 
L 1759 2144 
Q 1053 2284 737 2584 
Q 422 2884 422 3419 
Q 422 4038 858 4394 
Q 1294 4750 2059 4750 
Q 2388 4750 2728 4690 
Q 3069 4631 3425 4513 
z
" transform="scale(0.015625)"/>
       <path id="DejaVuSans-70" d="M 1159 525 
L 1159 -1331 
L 581 -1331 
L 581 3500 
L 1159 3500 
L 1159 2969 
Q 1341 3281 1617 3432 
Q 1894 3584 2278 3584 
Q 2916 3584 3314 3078 
Q 3713 2572 3713 1747 
Q 3713 922 3314 415 
Q 2916 -91 2278 -91 
Q 1894 -91 1617 61 
Q 1341 213 1159 525 
z
M 3116 1747 
Q 3116 2381 2855 2742 
Q 2594 3103 2138 3103 
Q 1681 3103 1420 2742 
Q 1159 2381 1159 1747 
Q 1159 1113 1420 752 
Q 1681 391 2138 391 
Q 2594 391 2855 752 
Q 3116 1113 3116 1747 
z
" transform="scale(0.015625)"/>
       <path id="DejaVuSans-6f" d="M 1959 3097 
Q 1497 3097 1228 2736 
Q 959 2375 959 1747 
Q 959 1119 1226 758 
Q 1494 397 1959 397 
Q 2419 397 2687 759 
Q 2956 1122 2956 1747 
Q 2956 2369 2687 2733 
Q 2419 3097 1959 3097 
z
M 1959 3584 
Q 2709 3584 3137 3096 
Q 3566 2609 3566 1747 
Q 3566 888 3137 398 
Q 2709 -91 1959 -91 
Q 1206 -91 779 398 
Q 353 888 353 1747 
Q 353 2609 779 3096 
Q 1206 3584 1959 3584 
z
" transform="scale(0.015625)"/>
       <path id="DejaVuSans-74" d="M 1172 4494 
L 1172 3500 
L 2356 3500 
L 2356 3053 
L 1172 3053 
L 1172 1153 
Q 1172 725 1289 603 
Q 1406 481 1766 481 
L 2356 481 
L 2356 0 
L 1766 0 
Q 1100 0 847 248 
Q 594 497 594 1153 
L 594 3053 
L 172 3053 
L 172 3500 
L 594 3500 
L 594 4494 
L 1172 4494 
z
" transform="scale(0.015625)"/>
       <path id="DejaVuSans-20" transform="scale(0.015625)"/>
       <path id="DejaVuSans-6c" d="M 603 4863 
L 1178 4863 
L 1178 0 
L 603 0 
L 603 4863 
z
" transform="scale(0.015625)"/>
       <path id="DejaVuSans-69" d="M 603 3500 
L 1178 3500 
L 1178 0 
L 603 0 
L 603 3500 
z
M 603 4863 
L 1178 4863 
L 1178 4134 
L 603 4134 
L 603 4863 
z
" transform="scale(0.015625)"/>
       <path id="DejaVuSans-66" d="M 2375 4863 
L 2375 4384 
L 1825 4384 
Q 1516 4384 1395 4259 
Q 1275 4134 1275 3809 
L 1275 3500 
L 2222 3500 
L 2222 3053 
L 1275 3053 
L 1275 0 
L 697 0 
L 697 3053 
L 147 3053 
L 147 3500 
L 697 3500 
L 697 3744 
Q 697 4328 969 4595 
Q 1241 4863 1831 4863 
L 2375 4863 
z
" transform="scale(0.015625)"/>
       <path id="DejaVuSans-65" d="M 3597 1894 
L 3597 1613 
L 953 1613 
Q 991 1019 1311 708 
Q 1631 397 2203 397 
Q 2534 397 2845 478 
Q 3156 559 3463 722 
L 3463 178 
Q 3153 47 2828 -22 
Q 2503 -91 2169 -91 
Q 1331 -91 842 396 
Q 353 884 353 1716 
Q 353 2575 817 3079 
Q 1281 3584 2069 3584 
Q 2775 3584 3186 3129 
Q 3597 2675 3597 1894 
z
M 3022 2063 
Q 3016 2534 2758 2815 
Q 2500 3097 2075 3097 
Q 1594 3097 1305 2825 
Q 1016 2553 972 2059 
L 3022 2063 
z
" transform="scale(0.015625)"/>
       <path id="DejaVuSans-6d" d="M 3328 2828 
Q 3544 3216 3844 3400 
Q 4144 3584 4550 3584 
Q 5097 3584 5394 3201 
Q 5691 2819 5691 2113 
L 5691 0 
L 5113 0 
L 5113 2094 
Q 5113 2597 4934 2840 
Q 4756 3084 4391 3084 
Q 3944 3084 3684 2787 
Q 3425 2491 3425 1978 
L 3425 0 
L 2847 0 
L 2847 2094 
Q 2847 2600 2669 2842 
Q 2491 3084 2119 3084 
Q 1678 3084 1418 2786 
Q 1159 2488 1159 1978 
L 1159 0 
L 581 0 
L 581 3500 
L 1159 3500 
L 1159 2956 
Q 1356 3278 1631 3431 
Q 1906 3584 2284 3584 
Q 2666 3584 2933 3390 
Q 3200 3197 3328 2828 
z
" transform="scale(0.015625)"/>
       <path id="DejaVuSans-28" d="M 1984 4856 
Q 1566 4138 1362 3434 
Q 1159 2731 1159 2009 
Q 1159 1288 1364 580 
Q 1569 -128 1984 -844 
L 1484 -844 
Q 1016 -109 783 600 
Q 550 1309 550 2009 
Q 550 2706 781 3412 
Q 1013 4119 1484 4856 
L 1984 4856 
z
" transform="scale(0.015625)"/>
       <path id="DejaVuSans-73" d="M 2834 3397 
L 2834 2853 
Q 2591 2978 2328 3040 
Q 2066 3103 1784 3103 
Q 1356 3103 1142 2972 
Q 928 2841 928 2578 
Q 928 2378 1081 2264 
Q 1234 2150 1697 2047 
L 1894 2003 
Q 2506 1872 2764 1633 
Q 3022 1394 3022 966 
Q 3022 478 2636 193 
Q 2250 -91 1575 -91 
Q 1294 -91 989 -36 
Q 684 19 347 128 
L 347 722 
Q 666 556 975 473 
Q 1284 391 1588 391 
Q 1994 391 2212 530 
Q 2431 669 2431 922 
Q 2431 1156 2273 1281 
Q 2116 1406 1581 1522 
L 1381 1569 
Q 847 1681 609 1914 
Q 372 2147 372 2553 
Q 372 3047 722 3315 
Q 1072 3584 1716 3584 
Q 2034 3584 2315 3537 
Q 2597 3491 2834 3397 
z
" transform="scale(0.015625)"/>
       <path id="DejaVuSans-63" d="M 3122 3366 
L 3122 2828 
Q 2878 2963 2633 3030 
Q 2388 3097 2138 3097 
Q 1578 3097 1268 2742 
Q 959 2388 959 1747 
Q 959 1106 1268 751 
Q 1578 397 2138 397 
Q 2388 397 2633 464 
Q 2878 531 3122 666 
L 3122 134 
Q 2881 22 2623 -34 
Q 2366 -91 2075 -91 
Q 1284 -91 818 406 
Q 353 903 353 1747 
Q 353 2603 823 3093 
Q 1294 3584 2113 3584 
Q 2378 3584 2631 3529 
Q 2884 3475 3122 3366 
z
" transform="scale(0.015625)"/>
       <path id="DejaVuSans-29" d="M 513 4856 
L 1013 4856 
Q 1481 4119 1714 3412 
Q 1947 2706 1947 2009 
Q 1947 1309 1714 600 
Q 1481 -109 1013 -844 
L 513 -844 
Q 928 -128 1133 580 
Q 1338 1288 1338 2009 
Q 1338 2731 1133 3434 
Q 928 4138 513 4856 
z
" transform="scale(0.015625)"/>
      </defs>
      <use xlink:href="#DejaVuSans-53"/>
      <use xlink:href="#DejaVuSans-70" x="63.476562"/>
      <use xlink:href="#DejaVuSans-6f" x="126.953125"/>
      <use xlink:href="#DejaVuSans-74" x="188.134766"/>
      <use xlink:href="#DejaVuSans-20" x="227.34375"/>
      <use xlink:href="#DejaVuSans-6c" x="259.130859"/>
      <use xlink:href="#DejaVuSans-69" x="286.914062"/>
      <use xlink:href="#DejaVuSans-66" x="314.697266"/>
      <use xlink:href="#DejaVuSans-65" x="349.902344"/>
      <use xlink:href="#DejaVuSans-74" x="411.425781"/>
      <use xlink:href="#DejaVuSans-69" x="450.634766"/>
      <use xlink:href="#DejaVuSans-6d" x="478.417969"/>
      <use xlink:href="#DejaVuSans-65" x="575.830078"/>
      <use xlink:href="#DejaVuSans-20" x="637.353516"/>
      <use xlink:href="#DejaVuSans-28" x="669.140625"/>
      <use xlink:href="#DejaVuSans-73" x="708.154297"/>
      <use xlink:href="#DejaVuSans-65" x="760.253906"/>
      <use xlink:href="#DejaVuSans-63" x="821.777344"/>
      <use xlink:href="#DejaVuSans-29" x="876.757812"/>
     </g>
    </g>
   </g>
   <g id="matplotlib.axis_2">
    <g id="ytick_1">
     <g id="line2d_5">
      <path d="M 77.858906 206.430469 
L 288.246797 206.430469 
" clip-path="url(#p8339264ecf)" style="fill: none; stroke: #ffffff; stroke-width: 1.5; stroke-linecap: round"/>
     </g>
     <g id="text_6">
      <!-- 0.00 -->
      <g style="fill: #262626" transform="translate(28.620625 212.69918) scale(0.165 -0.165)">
       <defs>
        <path id="DejaVuSans-2e" d="M 684 794 
L 1344 794 
L 1344 0 
L 684 0 
L 684 794 
z
" transform="scale(0.015625)"/>
       </defs>
       <use xlink:href="#DejaVuSans-30"/>
       <use xlink:href="#DejaVuSans-2e" x="63.623047"/>
       <use xlink:href="#DejaVuSans-30" x="95.410156"/>
       <use xlink:href="#DejaVuSans-30" x="159.033203"/>
      </g>
     </g>
    </g>
    <g id="ytick_2">
     <g id="line2d_6">
      <path d="M 77.858906 170.519812 
L 288.246797 170.519812 
" clip-path="url(#p8339264ecf)" style="fill: none; stroke: #ffffff; stroke-width: 1.5; stroke-linecap: round"/>
     </g>
     <g id="text_7">
      <!-- 0.02 -->
      <g style="fill: #262626" transform="translate(28.620625 176.788523) scale(0.165 -0.165)">
       <use xlink:href="#DejaVuSans-30"/>
       <use xlink:href="#DejaVuSans-2e" x="63.623047"/>
       <use xlink:href="#DejaVuSans-30" x="95.410156"/>
       <use xlink:href="#DejaVuSans-32" x="159.033203"/>
      </g>
     </g>
    </g>
    <g id="ytick_3">
     <g id="line2d_7">
      <path d="M 77.858906 134.609156 
L 288.246797 134.609156 
" clip-path="url(#p8339264ecf)" style="fill: none; stroke: #ffffff; stroke-width: 1.5; stroke-linecap: round"/>
     </g>
     <g id="text_8">
      <!-- 0.04 -->
      <g style="fill: #262626" transform="translate(28.620625 140.877867) scale(0.165 -0.165)">
       <defs>
        <path id="DejaVuSans-34" d="M 2419 4116 
L 825 1625 
L 2419 1625 
L 2419 4116 
z
M 2253 4666 
L 3047 4666 
L 3047 1625 
L 3713 1625 
L 3713 1100 
L 3047 1100 
L 3047 0 
L 2419 0 
L 2419 1100 
L 313 1100 
L 313 1709 
L 2253 4666 
z
" transform="scale(0.015625)"/>
       </defs>
       <use xlink:href="#DejaVuSans-30"/>
       <use xlink:href="#DejaVuSans-2e" x="63.623047"/>
       <use xlink:href="#DejaVuSans-30" x="95.410156"/>
       <use xlink:href="#DejaVuSans-34" x="159.033203"/>
      </g>
     </g>
    </g>
    <g id="ytick_4">
     <g id="line2d_8">
      <path d="M 77.858906 98.6985 
L 288.246797 98.6985 
" clip-path="url(#p8339264ecf)" style="fill: none; stroke: #ffffff; stroke-width: 1.5; stroke-linecap: round"/>
     </g>
     <g id="text_9">
      <!-- 0.06 -->
      <g style="fill: #262626" transform="translate(28.620625 104.967211) scale(0.165 -0.165)">
       <defs>
        <path id="DejaVuSans-36" d="M 2113 2584 
Q 1688 2584 1439 2293 
Q 1191 2003 1191 1497 
Q 1191 994 1439 701 
Q 1688 409 2113 409 
Q 2538 409 2786 701 
Q 3034 994 3034 1497 
Q 3034 2003 2786 2293 
Q 2538 2584 2113 2584 
z
M 3366 4563 
L 3366 3988 
Q 3128 4100 2886 4159 
Q 2644 4219 2406 4219 
Q 1781 4219 1451 3797 
Q 1122 3375 1075 2522 
Q 1259 2794 1537 2939 
Q 1816 3084 2150 3084 
Q 2853 3084 3261 2657 
Q 3669 2231 3669 1497 
Q 3669 778 3244 343 
Q 2819 -91 2113 -91 
Q 1303 -91 875 529 
Q 447 1150 447 2328 
Q 447 3434 972 4092 
Q 1497 4750 2381 4750 
Q 2619 4750 2861 4703 
Q 3103 4656 3366 4563 
z
" transform="scale(0.015625)"/>
       </defs>
       <use xlink:href="#DejaVuSans-30"/>
       <use xlink:href="#DejaVuSans-2e" x="63.623047"/>
       <use xlink:href="#DejaVuSans-30" x="95.410156"/>
       <use xlink:href="#DejaVuSans-36" x="159.033203"/>
      </g>
     </g>
    </g>
    <g id="ytick_5">
     <g id="line2d_9">
      <path d="M 77.858906 62.787844 
L 288.246797 62.787844 
" clip-path="url(#p8339264ecf)" style="fill: none; stroke: #ffffff; stroke-width: 1.5; stroke-linecap: round"/>
     </g>
     <g id="text_10">
      <!-- 0.08 -->
      <g style="fill: #262626" transform="translate(28.620625 69.056555) scale(0.165 -0.165)">
       <defs>
        <path id="DejaVuSans-38" d="M 2034 2216 
Q 1584 2216 1326 1975 
Q 1069 1734 1069 1313 
Q 1069 891 1326 650 
Q 1584 409 2034 409 
Q 2484 409 2743 651 
Q 3003 894 3003 1313 
Q 3003 1734 2745 1975 
Q 2488 2216 2034 2216 
z
M 1403 2484 
Q 997 2584 770 2862 
Q 544 3141 544 3541 
Q 544 4100 942 4425 
Q 1341 4750 2034 4750 
Q 2731 4750 3128 4425 
Q 3525 4100 3525 3541 
Q 3525 3141 3298 2862 
Q 3072 2584 2669 2484 
Q 3125 2378 3379 2068 
Q 3634 1759 3634 1313 
Q 3634 634 3220 271 
Q 2806 -91 2034 -91 
Q 1263 -91 848 271 
Q 434 634 434 1313 
Q 434 1759 690 2068 
Q 947 2378 1403 2484 
z
M 1172 3481 
Q 1172 3119 1398 2916 
Q 1625 2713 2034 2713 
Q 2441 2713 2670 2916 
Q 2900 3119 2900 3481 
Q 2900 3844 2670 4047 
Q 2441 4250 2034 4250 
Q 1625 4250 1398 4047 
Q 1172 3844 1172 3481 
z
" transform="scale(0.015625)"/>
       </defs>
       <use xlink:href="#DejaVuSans-30"/>
       <use xlink:href="#DejaVuSans-2e" x="63.623047"/>
       <use xlink:href="#DejaVuSans-30" x="95.410156"/>
       <use xlink:href="#DejaVuSans-38" x="159.033203"/>
      </g>
     </g>
    </g>
    <g id="ytick_6">
     <g id="line2d_10">
      <path d="M 77.858906 26.877187 
L 288.246797 26.877187 
" clip-path="url(#p8339264ecf)" style="fill: none; stroke: #ffffff; stroke-width: 1.5; stroke-linecap: round"/>
     </g>
     <g id="text_11">
      <!-- 0.10 -->
      <g style="fill: #262626" transform="translate(28.620625 33.145898) scale(0.165 -0.165)">
       <use xlink:href="#DejaVuSans-30"/>
       <use xlink:href="#DejaVuSans-2e" x="63.623047"/>
       <use xlink:href="#DejaVuSans-31" x="95.410156"/>
       <use xlink:href="#DejaVuSans-30" x="159.033203"/>
      </g>
     </g>
    </g>
    <g id="text_12">
     <!-- Probability -->
     <g style="fill: #262626" transform="translate(20.877188 164.225859) rotate(-90) scale(0.18 -0.18)">
      <defs>
       <path id="DejaVuSans-50" d="M 1259 4147 
L 1259 2394 
L 2053 2394 
Q 2494 2394 2734 2622 
Q 2975 2850 2975 3272 
Q 2975 3691 2734 3919 
Q 2494 4147 2053 4147 
L 1259 4147 
z
M 628 4666 
L 2053 4666 
Q 2838 4666 3239 4311 
Q 3641 3956 3641 3272 
Q 3641 2581 3239 2228 
Q 2838 1875 2053 1875 
L 1259 1875 
L 1259 0 
L 628 0 
L 628 4666 
z
" transform="scale(0.015625)"/>
       <path id="DejaVuSans-72" d="M 2631 2963 
Q 2534 3019 2420 3045 
Q 2306 3072 2169 3072 
Q 1681 3072 1420 2755 
Q 1159 2438 1159 1844 
L 1159 0 
L 581 0 
L 581 3500 
L 1159 3500 
L 1159 2956 
Q 1341 3275 1631 3429 
Q 1922 3584 2338 3584 
Q 2397 3584 2469 3576 
Q 2541 3569 2628 3553 
L 2631 2963 
z
" transform="scale(0.015625)"/>
       <path id="DejaVuSans-62" d="M 3116 1747 
Q 3116 2381 2855 2742 
Q 2594 3103 2138 3103 
Q 1681 3103 1420 2742 
Q 1159 2381 1159 1747 
Q 1159 1113 1420 752 
Q 1681 391 2138 391 
Q 2594 391 2855 752 
Q 3116 1113 3116 1747 
z
M 1159 2969 
Q 1341 3281 1617 3432 
Q 1894 3584 2278 3584 
Q 2916 3584 3314 3078 
Q 3713 2572 3713 1747 
Q 3713 922 3314 415 
Q 2916 -91 2278 -91 
Q 1894 -91 1617 61 
Q 1341 213 1159 525 
L 1159 0 
L 581 0 
L 581 4863 
L 1159 4863 
L 1159 2969 
z
" transform="scale(0.015625)"/>
       <path id="DejaVuSans-61" d="M 2194 1759 
Q 1497 1759 1228 1600 
Q 959 1441 959 1056 
Q 959 750 1161 570 
Q 1363 391 1709 391 
Q 2188 391 2477 730 
Q 2766 1069 2766 1631 
L 2766 1759 
L 2194 1759 
z
M 3341 1997 
L 3341 0 
L 2766 0 
L 2766 531 
Q 2569 213 2275 61 
Q 1981 -91 1556 -91 
Q 1019 -91 701 211 
Q 384 513 384 1019 
Q 384 1609 779 1909 
Q 1175 2209 1959 2209 
L 2766 2209 
L 2766 2266 
Q 2766 2663 2505 2880 
Q 2244 3097 1772 3097 
Q 1472 3097 1187 3025 
Q 903 2953 641 2809 
L 641 3341 
Q 956 3463 1253 3523 
Q 1550 3584 1831 3584 
Q 2591 3584 2966 3190 
Q 3341 2797 3341 1997 
z
" transform="scale(0.015625)"/>
       <path id="DejaVuSans-79" d="M 2059 -325 
Q 1816 -950 1584 -1140 
Q 1353 -1331 966 -1331 
L 506 -1331 
L 506 -850 
L 844 -850 
Q 1081 -850 1212 -737 
Q 1344 -625 1503 -206 
L 1606 56 
L 191 3500 
L 800 3500 
L 1894 763 
L 2988 3500 
L 3597 3500 
L 2059 -325 
z
" transform="scale(0.015625)"/>
      </defs>
      <use xlink:href="#DejaVuSans-50"/>
      <use xlink:href="#DejaVuSans-72" x="58.552734"/>
      <use xlink:href="#DejaVuSans-6f" x="97.416016"/>
      <use xlink:href="#DejaVuSans-62" x="158.597656"/>
      <use xlink:href="#DejaVuSans-61" x="222.074219"/>
      <use xlink:href="#DejaVuSans-62" x="283.353516"/>
      <use xlink:href="#DejaVuSans-69" x="346.830078"/>
      <use xlink:href="#DejaVuSans-6c" x="374.613281"/>
      <use xlink:href="#DejaVuSans-69" x="402.396484"/>
      <use xlink:href="#DejaVuSans-74" x="430.179688"/>
      <use xlink:href="#DejaVuSans-79" x="469.388672"/>
     </g>
    </g>
   </g>
   <g id="PatchCollection_1">
    <path d="M 84.871836 206.430469 
L 98.897695 206.430469 
L 98.897695 -998.318122 
L 84.871836 -998.318122 
z
" clip-path="url(#p8339264ecf)" style="fill: #de5d5c; fill-opacity: 0.7; stroke-dasharray: 7.4,3.2; stroke-dashoffset: 0"/>
    <path d="M 84.871836 206.430469 
L 98.897695 206.430469 
L 98.897695 -1 
M 84.871836 -1 
L 84.871836 206.430469 
" clip-path="url(#p8339264ecf)" style="fill: none; stroke-dasharray: 7.4,3.2; stroke-dashoffset: 0; stroke: #262626; stroke-width: 2"/>
    <path d="M 98.897695 206.430469 
L 112.923555 206.430469 
L 112.923555 -99.511502 
L 98.897695 -99.511502 
z
" clip-path="url(#p8339264ecf)" style="fill: #de5d5c; fill-opacity: 0.7; stroke-dasharray: 7.4,3.2; stroke-dashoffset: 0"/>
    <path d="M 98.897695 206.430469 
L 112.923555 206.430469 
L 112.923555 -1 
M 98.897695 -1 
L 98.897695 206.430469 
" clip-path="url(#p8339264ecf)" style="fill: none; stroke-dasharray: 7.4,3.2; stroke-dashoffset: 0; stroke: #262626; stroke-width: 2"/>
    <path d="M 112.923555 206.430469 
L 126.949414 206.430469 
L 126.949414 90.924121 
L 112.923555 90.924121 
z
" clip-path="url(#p8339264ecf)" style="fill: #de5d5c; fill-opacity: 0.7; stroke-dasharray: 7.4,3.2; stroke-dashoffset: 0"/>
    <path d="M 112.923555 206.430469 
L 126.949414 206.430469 
L 126.949414 78.83268 
L 112.923555 78.83268 
L 112.923555 206.430469 
z
" clip-path="url(#p8339264ecf)" style="fill: none; stroke-dasharray: 7.4,3.2; stroke-dashoffset: 0; stroke: #262626; stroke-width: 2"/>
    <path d="M 126.949414 206.430469 
L 140.975273 206.430469 
L 140.975273 155.623321 
L 126.949414 155.623321 
z
" clip-path="url(#p8339264ecf)" style="fill: #de5d5c; fill-opacity: 0.7; stroke-dasharray: 7.4,3.2; stroke-dashoffset: 0"/>
    <path d="M 126.949414 206.430469 
L 140.975273 206.430469 
L 140.975273 158.287345 
L 126.949414 158.287345 
L 126.949414 206.430469 
z
" clip-path="url(#p8339264ecf)" style="fill: none; stroke-dasharray: 7.4,3.2; stroke-dashoffset: 0; stroke: #262626; stroke-width: 2"/>
    <path d="M 140.975273 206.430469 
L 155.001133 206.430469 
L 155.001133 181.839145 
L 140.975273 181.839145 
z
" clip-path="url(#p8339264ecf)" style="fill: #de5d5c; fill-opacity: 0.7; stroke-dasharray: 7.4,3.2; stroke-dashoffset: 0"/>
    <path d="M 140.975273 206.430469 
L 155.001133 206.430469 
L 155.001133 180.073198 
L 140.975273 180.073198 
L 140.975273 206.430469 
z
" clip-path="url(#p8339264ecf)" style="fill: none; stroke-dasharray: 7.4,3.2; stroke-dashoffset: 0; stroke: #262626; stroke-width: 2"/>
    <path d="M 155.001133 206.430469 
L 169.026992 206.430469 
L 169.026992 186.346715 
L 155.001133 186.346715 
z
" clip-path="url(#p8339264ecf)" style="fill: #de5d5c; fill-opacity: 0.7; stroke-dasharray: 7.4,3.2; stroke-dashoffset: 0"/>
    <path d="M 155.001133 206.430469 
L 169.026992 206.430469 
L 169.026992 189.428276 
L 155.001133 189.428276 
L 155.001133 206.430469 
z
" clip-path="url(#p8339264ecf)" style="fill: none; stroke-dasharray: 7.4,3.2; stroke-dashoffset: 0; stroke: #262626; stroke-width: 2"/>
    <path d="M 169.026992 206.430469 
L 183.052852 206.430469 
L 183.052852 194.282482 
L 169.026992 194.282482 
z
" clip-path="url(#p8339264ecf)" style="fill: #de5d5c; fill-opacity: 0.7; stroke-dasharray: 7.4,3.2; stroke-dashoffset: 0"/>
    <path d="M 169.026992 206.430469 
L 183.052852 206.430469 
L 183.052852 197.508617 
L 169.026992 197.508617 
L 169.026992 206.430469 
z
" clip-path="url(#p8339264ecf)" style="fill: none; stroke-dasharray: 7.4,3.2; stroke-dashoffset: 0; stroke: #262626; stroke-width: 2"/>
    <path d="M 183.052852 206.430469 
L 197.078711 206.430469 
L 197.078711 197.544508 
L 183.052852 197.544508 
z
" clip-path="url(#p8339264ecf)" style="fill: #de5d5c; fill-opacity: 0.7; stroke-dasharray: 7.4,3.2; stroke-dashoffset: 0"/>
    <path d="M 183.052852 206.430469 
L 197.078711 206.430469 
L 197.078711 198.684678 
L 183.052852 198.684678 
L 183.052852 206.430469 
z
" clip-path="url(#p8339264ecf)" style="fill: none; stroke-dasharray: 7.4,3.2; stroke-dashoffset: 0; stroke: #262626; stroke-width: 2"/>
    <path d="M 197.078711 206.430469 
L 211.10457 206.430469 
L 211.10457 199.537012 
L 197.078711 199.537012 
z
" clip-path="url(#p8339264ecf)" style="fill: #de5d5c; fill-opacity: 0.7; stroke-dasharray: 7.4,3.2; stroke-dashoffset: 0"/>
    <path d="M 197.078711 206.430469 
L 211.10457 206.430469 
L 211.10457 200.5152 
L 197.078711 200.5152 
L 197.078711 206.430469 
z
" clip-path="url(#p8339264ecf)" style="fill: none; stroke-dasharray: 7.4,3.2; stroke-dashoffset: 0; stroke: #262626; stroke-width: 2"/>
    <path d="M 211.10457 206.430469 
L 225.13043 206.430469 
L 225.13043 200.574535 
L 211.10457 200.574535 
z
" clip-path="url(#p8339264ecf)" style="fill: #de5d5c; fill-opacity: 0.7; stroke-dasharray: 7.4,3.2; stroke-dashoffset: 0"/>
    <path d="M 211.10457 206.430469 
L 225.13043 206.430469 
L 225.13043 201.83901 
L 211.10457 201.83901 
L 211.10457 206.430469 
z
" clip-path="url(#p8339264ecf)" style="fill: none; stroke-dasharray: 7.4,3.2; stroke-dashoffset: 0; stroke: #262626; stroke-width: 2"/>
    <path d="M 225.13043 206.430469 
L 239.156289 206.430469 
L 239.156289 201.158808 
L 225.13043 201.158808 
z
" clip-path="url(#p8339264ecf)" style="fill: #de5d5c; fill-opacity: 0.7; stroke-dasharray: 7.4,3.2; stroke-dashoffset: 0"/>
    <path d="M 225.13043 206.430469 
L 239.156289 206.430469 
L 239.156289 202.276083 
L 225.13043 202.276083 
L 225.13043 206.430469 
z
" clip-path="url(#p8339264ecf)" style="fill: none; stroke-dasharray: 7.4,3.2; stroke-dashoffset: 0; stroke: #262626; stroke-width: 2"/>
    <path d="M 239.156289 206.430469 
L 253.182148 206.430469 
L 253.182148 201.58718 
L 239.156289 201.58718 
z
" clip-path="url(#p8339264ecf)" style="fill: #de5d5c; fill-opacity: 0.7; stroke-dasharray: 7.4,3.2; stroke-dashoffset: 0"/>
    <path d="M 239.156289 206.430469 
L 253.182148 206.430469 
L 253.182148 202.8681 
L 239.156289 202.8681 
L 239.156289 206.430469 
z
" clip-path="url(#p8339264ecf)" style="fill: none; stroke-dasharray: 7.4,3.2; stroke-dashoffset: 0; stroke: #262626; stroke-width: 2"/>
    <path d="M 253.182148 206.430469 
L 267.208008 206.430469 
L 267.208008 203.150979 
L 253.182148 203.150979 
z
" clip-path="url(#p8339264ecf)" style="fill: #de5d5c; fill-opacity: 0.7; stroke-dasharray: 7.4,3.2; stroke-dashoffset: 0"/>
    <path d="M 253.182148 206.430469 
L 267.208008 206.430469 
L 267.208008 203.16462 
L 253.182148 203.16462 
L 253.182148 206.430469 
z
" clip-path="url(#p8339264ecf)" style="fill: none; stroke-dasharray: 7.4,3.2; stroke-dashoffset: 0; stroke: #262626; stroke-width: 2"/>
    <path d="M 267.208008 206.430469 
L 281.233867 206.430469 
L 281.233867 203.08333 
L 267.208008 203.08333 
z
" clip-path="url(#p8339264ecf)" style="fill: #de5d5c; fill-opacity: 0.7; stroke-dasharray: 7.4,3.2; stroke-dashoffset: 0"/>
    <path d="M 267.208008 206.430469 
L 281.233867 206.430469 
L 281.233867 204.289809 
L 267.208008 204.289809 
L 267.208008 206.430469 
z
" clip-path="url(#p8339264ecf)" style="fill: none; stroke-dasharray: 7.4,3.2; stroke-dashoffset: 0; stroke: #262626; stroke-width: 2"/>
    <path d="M 281.233867 206.430469 
L 295.259727 206.430469 
L 295.259727 203.697817 
L 281.233867 203.697817 
z
" clip-path="url(#p8339264ecf)" style="fill: #de5d5c; fill-opacity: 0.7; stroke-dasharray: 7.4,3.2; stroke-dashoffset: 0"/>
    <path d="M 281.233867 206.430469 
L 295.259727 206.430469 
L 295.259727 204.442055 
L 281.233867 204.442055 
L 281.233867 206.430469 
z
" clip-path="url(#p8339264ecf)" style="fill: none; stroke-dasharray: 7.4,3.2; stroke-dashoffset: 0; stroke: #262626; stroke-width: 2"/>
    <path d="M 295.259727 206.430469 
L 309.285586 206.430469 
L 309.285586 204.098968 
L 295.259727 204.098968 
z
" clip-path="url(#p8339264ecf)" style="fill: #de5d5c; fill-opacity: 0.7; stroke-dasharray: 7.4,3.2; stroke-dashoffset: 0"/>
    <path d="M 295.259727 206.430469 
L 309.285586 206.430469 
L 309.285586 203.266116 
L 295.259727 203.266116 
L 295.259727 206.430469 
z
" clip-path="url(#p8339264ecf)" style="fill: none; stroke-dasharray: 7.4,3.2; stroke-dashoffset: 0; stroke: #262626; stroke-width: 2"/>
    <path d="M 309.285586 206.430469 
L 323.311445 206.430469 
L 323.311445 204.08289 
L 309.285586 204.08289 
z
" clip-path="url(#p8339264ecf)" style="fill: #de5d5c; fill-opacity: 0.7; stroke-dasharray: 7.4,3.2; stroke-dashoffset: 0"/>
    <path d="M 309.285586 206.430469 
L 323.311445 206.430469 
L 323.311445 204.972528 
L 309.285586 204.972528 
L 309.285586 206.430469 
z
" clip-path="url(#p8339264ecf)" style="fill: none; stroke-dasharray: 7.4,3.2; stroke-dashoffset: 0; stroke: #262626; stroke-width: 2"/>
    <path d="M 323.311445 206.430469 
L 337.337305 206.430469 
L 337.337305 204.309183 
L 323.311445 204.309183 
z
" clip-path="url(#p8339264ecf)" style="fill: #de5d5c; fill-opacity: 0.7; stroke-dasharray: 7.4,3.2; stroke-dashoffset: 0"/>
    <path d="M 323.311445 206.430469 
L 337.337305 206.430469 
L 337.337305 205.097664 
L 323.311445 205.097664 
L 323.311445 206.430469 
z
" clip-path="url(#p8339264ecf)" style="fill: none; stroke-dasharray: 7.4,3.2; stroke-dashoffset: 0; stroke: #262626; stroke-width: 2"/>
    <path d="M 337.337305 206.430469 
L 351.363164 206.430469 
L 351.363164 204.566892 
L 337.337305 204.566892 
z
" clip-path="url(#p8339264ecf)" style="fill: #de5d5c; fill-opacity: 0.7; stroke-dasharray: 7.4,3.2; stroke-dashoffset: 0"/>
    <path d="M 337.337305 206.430469 
L 351.363164 206.430469 
L 351.363164 204.86281 
L 337.337305 204.86281 
L 337.337305 206.430469 
z
" clip-path="url(#p8339264ecf)" style="fill: none; stroke-dasharray: 7.4,3.2; stroke-dashoffset: 0; stroke: #262626; stroke-width: 2"/>
    <path d="M 351.363164 206.430469 
L 365.389023 206.430469 
L 365.389023 204.781007 
L 351.363164 204.781007 
z
" clip-path="url(#p8339264ecf)" style="fill: #de5d5c; fill-opacity: 0.7; stroke-dasharray: 7.4,3.2; stroke-dashoffset: 0"/>
    <path d="M 351.363164 206.430469 
L 365.389023 206.430469 
L 365.389023 204.514641 
L 351.363164 204.514641 
L 351.363164 206.430469 
z
" clip-path="url(#p8339264ecf)" style="fill: none; stroke-dasharray: 7.4,3.2; stroke-dashoffset: 0; stroke: #262626; stroke-width: 2"/>
    <path d="M 365.389023 206.430469 
L 379.414883 206.430469 
L 379.414883 205.503736 
L 365.389023 205.503736 
z
" clip-path="url(#p8339264ecf)" style="fill: #de5d5c; fill-opacity: 0.7; stroke-dasharray: 7.4,3.2; stroke-dashoffset: 0"/>
    <path d="M 365.389023 206.430469 
L 379.414883 206.430469 
L 379.414883 205.596791 
L 365.389023 205.596791 
L 365.389023 206.430469 
z
" clip-path="url(#p8339264ecf)" style="fill: none; stroke-dasharray: 7.4,3.2; stroke-dashoffset: 0; stroke: #262626; stroke-width: 2"/>
    <path d="M 379.414883 206.430469 
L 393.440742 206.430469 
L 393.440742 204.864564 
L 379.414883 204.864564 
z
" clip-path="url(#p8339264ecf)" style="fill: #de5d5c; fill-opacity: 0.7; stroke-dasharray: 7.4,3.2; stroke-dashoffset: 0"/>
    <path d="M 379.414883 206.430469 
L 393.440742 206.430469 
L 393.440742 205.308878 
L 379.414883 205.308878 
L 379.414883 206.430469 
z
" clip-path="url(#p8339264ecf)" style="fill: none; stroke-dasharray: 7.4,3.2; stroke-dashoffset: 0; stroke: #262626; stroke-width: 2"/>
    <path d="M 393.440742 206.430469 
L 407.466602 206.430469 
L 407.466602 205.484508 
L 393.440742 205.484508 
z
" clip-path="url(#p8339264ecf)" style="fill: #de5d5c; fill-opacity: 0.7; stroke-dasharray: 7.4,3.2; stroke-dashoffset: 0"/>
    <path d="M 393.440742 206.430469 
L 407.466602 206.430469 
L 407.466602 205.070427 
L 393.440742 205.070427 
L 393.440742 206.430469 
z
" clip-path="url(#p8339264ecf)" style="fill: none; stroke-dasharray: 7.4,3.2; stroke-dashoffset: 0; stroke: #262626; stroke-width: 2"/>
    <path d="M 407.466602 206.430469 
L 421.492461 206.430469 
L 421.492461 205.303241 
L 407.466602 205.303241 
z
" clip-path="url(#p8339264ecf)" style="fill: #de5d5c; fill-opacity: 0.7; stroke-dasharray: 7.4,3.2; stroke-dashoffset: 0"/>
    <path d="M 407.466602 206.430469 
L 421.492461 206.430469 
L 421.492461 205.931341 
L 407.466602 205.931341 
L 407.466602 206.430469 
z
" clip-path="url(#p8339264ecf)" style="fill: none; stroke-dasharray: 7.4,3.2; stroke-dashoffset: 0; stroke: #262626; stroke-width: 2"/>
    <path d="M 421.492461 206.430469 
L 435.51832 206.430469 
L 435.51832 205.309017 
L 421.492461 205.309017 
z
" clip-path="url(#p8339264ecf)" style="fill: #de5d5c; fill-opacity: 0.7; stroke-dasharray: 7.4,3.2; stroke-dashoffset: 0"/>
    <path d="M 421.492461 206.430469 
L 435.51832 206.430469 
L 435.51832 205.596791 
L 421.492461 205.596791 
L 421.492461 206.430469 
z
" clip-path="url(#p8339264ecf)" style="fill: none; stroke-dasharray: 7.4,3.2; stroke-dashoffset: 0; stroke: #262626; stroke-width: 2"/>
    <path d="M 435.51832 206.430469 
L 449.54418 206.430469 
L 449.54418 205.550256 
L 435.51832 205.550256 
z
" clip-path="url(#p8339264ecf)" style="fill: #de5d5c; fill-opacity: 0.7; stroke-dasharray: 7.4,3.2; stroke-dashoffset: 0"/>
    <path d="M 435.51832 206.430469 
L 449.54418 206.430469 
L 449.54418 205.264939 
L 435.51832 205.264939 
L 435.51832 206.430469 
z
" clip-path="url(#p8339264ecf)" style="fill: none; stroke-dasharray: 7.4,3.2; stroke-dashoffset: 0; stroke: #262626; stroke-width: 2"/>
    <path d="M 449.54418 206.430469 
L 463.570039 206.430469 
L 463.570039 205.824811 
L 449.54418 205.824811 
z
" clip-path="url(#p8339264ecf)" style="fill: #de5d5c; fill-opacity: 0.7; stroke-dasharray: 7.4,3.2; stroke-dashoffset: 0"/>
    <path d="M 449.54418 206.430469 
L 463.570039 206.430469 
L 463.570039 205.443008 
L 449.54418 205.443008 
L 449.54418 206.430469 
z
" clip-path="url(#p8339264ecf)" style="fill: none; stroke-dasharray: 7.4,3.2; stroke-dashoffset: 0; stroke: #262626; stroke-width: 2"/>
    <path d="M 463.570039 206.430469 
L 477.595898 206.430469 
L 477.595898 204.814694 
L 463.570039 204.814694 
z
" clip-path="url(#p8339264ecf)" style="fill: #de5d5c; fill-opacity: 0.7; stroke-dasharray: 7.4,3.2; stroke-dashoffset: 0"/>
    <path d="M 463.570039 206.430469 
L 477.595898 206.430469 
L 477.595898 204.194607 
L 463.570039 204.194607 
L 463.570039 206.430469 
z
" clip-path="url(#p8339264ecf)" style="fill: none; stroke-dasharray: 7.4,3.2; stroke-dashoffset: 0; stroke: #262626; stroke-width: 2"/>
    <path d="M 477.595898 206.430469 
L 491.621758 206.430469 
L 491.621758 204.753605 
L 477.595898 204.753605 
z
" clip-path="url(#p8339264ecf)" style="fill: #de5d5c; fill-opacity: 0.7; stroke-dasharray: 7.4,3.2; stroke-dashoffset: 0"/>
    <path d="M 477.595898 206.430469 
L 491.621758 206.430469 
L 491.621758 205.764066 
L 477.595898 205.764066 
L 477.595898 206.430469 
z
" clip-path="url(#p8339264ecf)" style="fill: none; stroke-dasharray: 7.4,3.2; stroke-dashoffset: 0; stroke: #262626; stroke-width: 2"/>
    <path d="M 491.621758 206.430469 
L 505.647617 206.430469 
L 505.647617 205.69073 
L 491.621758 205.69073 
z
" clip-path="url(#p8339264ecf)" style="fill: #de5d5c; fill-opacity: 0.7; stroke-dasharray: 7.4,3.2; stroke-dashoffset: 0"/>
    <path d="M 491.621758 206.430469 
L 505.647617 206.430469 
L 505.647617 205.071839 
L 491.621758 205.071839 
L 491.621758 206.430469 
z
" clip-path="url(#p8339264ecf)" style="fill: none; stroke-dasharray: 7.4,3.2; stroke-dashoffset: 0; stroke: #262626; stroke-width: 2"/>
    <path d="M 505.647617 206.430469 
L 519.673477 206.430469 
L 519.673477 205.205389 
L 505.647617 205.205389 
z
" clip-path="url(#p8339264ecf)" style="fill: #de5d5c; fill-opacity: 0.7; stroke-dasharray: 7.4,3.2; stroke-dashoffset: 0"/>
    <path d="M 505.647617 206.430469 
L 519.673477 206.430469 
L 519.673477 205.270336 
L 505.647617 205.270336 
L 505.647617 206.430469 
z
" clip-path="url(#p8339264ecf)" style="fill: none; stroke-dasharray: 7.4,3.2; stroke-dashoffset: 0; stroke: #262626; stroke-width: 2"/>
    <path d="M 519.673477 206.430469 
L 533.699336 206.430469 
L 533.699336 205.946383 
L 519.673477 205.946383 
z
" clip-path="url(#p8339264ecf)" style="fill: #de5d5c; fill-opacity: 0.7; stroke-dasharray: 7.4,3.2; stroke-dashoffset: 0"/>
    <path d="M 533.699336 206.430469 
L 547.725195 206.430469 
L 547.725195 205.230755 
L 533.699336 205.230755 
z
" clip-path="url(#p8339264ecf)" style="fill: #de5d5c; fill-opacity: 0.7; stroke-dasharray: 7.4,3.2; stroke-dashoffset: 0"/>
    <path d="M 533.699336 206.430469 
L 547.725195 206.430469 
L 547.725195 206.095918 
L 533.699336 206.095918 
L 533.699336 206.430469 
z
" clip-path="url(#p8339264ecf)" style="fill: none; stroke-dasharray: 7.4,3.2; stroke-dashoffset: 0; stroke: #262626; stroke-width: 2"/>
    <path d="M 547.725195 206.430469 
L 561.751055 206.430469 
L 561.751055 205.394624 
L 547.725195 205.394624 
z
" clip-path="url(#p8339264ecf)" style="fill: #de5d5c; fill-opacity: 0.7; stroke-dasharray: 7.4,3.2; stroke-dashoffset: 0"/>
    <path d="M 547.725195 206.430469 
L 552.52 206.430469 
M 552.52 205.93404 
L 547.725195 205.93404 
L 547.725195 206.430469 
" clip-path="url(#p8339264ecf)" style="fill: none; stroke-dasharray: 7.4,3.2; stroke-dashoffset: 0; stroke: #262626; stroke-width: 2"/>
    <path d="M 561.751055 206.430469 
L 575.776914 206.430469 
L 575.776914 205.40445 
L 561.751055 205.40445 
z
" clip-path="url(#p8339264ecf)" style="fill: #de5d5c; fill-opacity: 0.7; stroke-dasharray: 7.4,3.2; stroke-dashoffset: 0"/>
    <path clip-path="url(#p8339264ecf)" style="fill: none; stroke-dasharray: 7.4,3.2; stroke-dashoffset: 0; stroke: #262626; stroke-width: 2"/>
    <path d="M 575.776914 206.430469 
L 589.802773 206.430469 
L 589.802773 205.491774 
L 575.776914 205.491774 
z
" clip-path="url(#p8339264ecf)" style="fill: #de5d5c; fill-opacity: 0.7; stroke-dasharray: 7.4,3.2; stroke-dashoffset: 0"/>
    <path clip-path="url(#p8339264ecf)" style="fill: none; stroke-dasharray: 7.4,3.2; stroke-dashoffset: 0; stroke: #262626; stroke-width: 2"/>
    <path d="M 589.802773 206.430469 
L 603.828633 206.430469 
L 603.828633 205.463216 
L 589.802773 205.463216 
z
" clip-path="url(#p8339264ecf)" style="fill: #de5d5c; fill-opacity: 0.7; stroke-dasharray: 7.4,3.2; stroke-dashoffset: 0"/>
    <path clip-path="url(#p8339264ecf)" style="fill: none; stroke-dasharray: 7.4,3.2; stroke-dashoffset: 0; stroke: #262626; stroke-width: 2"/>
    <path d="M 603.828633 206.430469 
L 617.854492 206.430469 
L 617.854492 204.378431 
L 603.828633 204.378431 
z
" clip-path="url(#p8339264ecf)" style="fill: #de5d5c; fill-opacity: 0.7; stroke-dasharray: 7.4,3.2; stroke-dashoffset: 0"/>
    <path clip-path="url(#p8339264ecf)" style="fill: none; stroke-dasharray: 7.4,3.2; stroke-dashoffset: 0; stroke: #262626; stroke-width: 2"/>
    <path d="M 617.854492 206.430469 
L 631.880352 206.430469 
L 631.880352 205.331641 
L 617.854492 205.331641 
z
" clip-path="url(#p8339264ecf)" style="fill: #de5d5c; fill-opacity: 0.7; stroke-dasharray: 7.4,3.2; stroke-dashoffset: 0"/>
    <path clip-path="url(#p8339264ecf)" style="fill: none; stroke-dasharray: 7.4,3.2; stroke-dashoffset: 0; stroke: #262626; stroke-width: 2"/>
    <path d="M 631.880352 206.430469 
L 645.906211 206.430469 
L 645.906211 205.751161 
L 631.880352 205.751161 
z
" clip-path="url(#p8339264ecf)" style="fill: #de5d5c; fill-opacity: 0.7; stroke-dasharray: 7.4,3.2; stroke-dashoffset: 0"/>
    <path clip-path="url(#p8339264ecf)" style="fill: none; stroke-dasharray: 7.4,3.2; stroke-dashoffset: 0; stroke: #262626; stroke-width: 2"/>
    <path d="M 645.906211 206.430469 
L 659.93207 206.430469 
L 659.93207 205.761092 
L 645.906211 205.761092 
z
" clip-path="url(#p8339264ecf)" style="fill: #de5d5c; fill-opacity: 0.7; stroke-dasharray: 7.4,3.2; stroke-dashoffset: 0"/>
    <path clip-path="url(#p8339264ecf)" style="fill: none; stroke-dasharray: 7.4,3.2; stroke-dashoffset: 0; stroke: #262626; stroke-width: 2"/>
    <path d="M 659.93207 206.430469 
L 673.95793 206.430469 
L 673.95793 205.631607 
L 659.93207 205.631607 
z
" clip-path="url(#p8339264ecf)" style="fill: #de5d5c; fill-opacity: 0.7; stroke-dasharray: 7.4,3.2; stroke-dashoffset: 0"/>
    <path clip-path="url(#p8339264ecf)" style="fill: none; stroke-dasharray: 7.4,3.2; stroke-dashoffset: 0; stroke: #262626; stroke-width: 2"/>
    <path d="M 673.95793 206.430469 
L 687.983789 206.430469 
L 687.983789 205.67884 
L 673.95793 205.67884 
z
" clip-path="url(#p8339264ecf)" style="fill: #de5d5c; fill-opacity: 0.7; stroke-dasharray: 7.4,3.2; stroke-dashoffset: 0"/>
    <path clip-path="url(#p8339264ecf)" style="fill: none; stroke-dasharray: 7.4,3.2; stroke-dashoffset: 0; stroke: #262626; stroke-width: 2"/>
    <path d="M 687.983789 206.430469 
L 702.009648 206.430469 
L 702.009648 206.087614 
L 687.983789 206.087614 
z
" clip-path="url(#p8339264ecf)" style="fill: #de5d5c; fill-opacity: 0.7; stroke-dasharray: 7.4,3.2; stroke-dashoffset: 0"/>
    <path clip-path="url(#p8339264ecf)" style="fill: none; stroke-dasharray: 7.4,3.2; stroke-dashoffset: 0; stroke: #262626; stroke-width: 2"/>
    <path d="M 702.009648 206.430469 
L 716.035508 206.430469 
L 716.035508 206.022022 
L 702.009648 206.022022 
z
" clip-path="url(#p8339264ecf)" style="fill: #de5d5c; fill-opacity: 0.7; stroke-dasharray: 7.4,3.2; stroke-dashoffset: 0"/>
    <path clip-path="url(#p8339264ecf)" style="fill: none; stroke-dasharray: 7.4,3.2; stroke-dashoffset: 0; stroke: #262626; stroke-width: 2"/>
    <path d="M 716.035508 206.430469 
L 730.061367 206.430469 
L 730.061367 205.615301 
L 716.035508 205.615301 
z
" clip-path="url(#p8339264ecf)" style="fill: #de5d5c; fill-opacity: 0.7; stroke-dasharray: 7.4,3.2; stroke-dashoffset: 0"/>
    <path clip-path="url(#p8339264ecf)" style="fill: none; stroke-dasharray: 7.4,3.2; stroke-dashoffset: 0; stroke: #262626; stroke-width: 2"/>
    <path d="M 744.087227 206.430469 
L 758.113086 206.430469 
L 758.113086 205.727359 
L 744.087227 205.727359 
z
" clip-path="url(#p8339264ecf)" style="fill: #de5d5c; fill-opacity: 0.7; stroke-dasharray: 7.4,3.2; stroke-dashoffset: 0"/>
    <path d="M 758.113086 206.430469 
L 772.138945 206.430469 
L 772.138945 205.578294 
L 758.113086 205.578294 
z
" clip-path="url(#p8339264ecf)" style="fill: #de5d5c; fill-opacity: 0.7; stroke-dasharray: 7.4,3.2; stroke-dashoffset: 0"/>
    <path clip-path="url(#p8339264ecf)" style="fill: none; stroke-dasharray: 7.4,3.2; stroke-dashoffset: 0; stroke: #262626; stroke-width: 2"/>
    <path d="M 772.138945 206.430469 
L 786.164805 206.430469 
L 786.164805 204.658518 
L 772.138945 204.658518 
z
" clip-path="url(#p8339264ecf)" style="fill: #de5d5c; fill-opacity: 0.7; stroke-dasharray: 7.4,3.2; stroke-dashoffset: 0"/>
    <path clip-path="url(#p8339264ecf)" style="fill: none; stroke-dasharray: 7.4,3.2; stroke-dashoffset: 0; stroke: #262626; stroke-width: 2"/>
    <path d="M 786.164805 206.430469 
L 800.190664 206.430469 
L 800.190664 206.022022 
L 786.164805 206.022022 
z
" clip-path="url(#p8339264ecf)" style="fill: #de5d5c; fill-opacity: 0.7; stroke-dasharray: 7.4,3.2; stroke-dashoffset: 0"/>
    <path d="M 800.190664 206.430469 
L 814.216523 206.430469 
L 814.216523 205.613575 
L 800.190664 205.613575 
z
" clip-path="url(#p8339264ecf)" style="fill: #de5d5c; fill-opacity: 0.7; stroke-dasharray: 7.4,3.2; stroke-dashoffset: 0"/>
    <path d="M 828.242383 206.430469 
L 842.268242 206.430469 
L 842.268242 206.022022 
L 828.242383 206.022022 
z
" clip-path="url(#p8339264ecf)" style="fill: #de5d5c; fill-opacity: 0.7; stroke-dasharray: 7.4,3.2; stroke-dashoffset: 0"/>
    <path d="M 842.268242 206.430469 
L 856.294102 206.430469 
L 856.294102 206.022022 
L 842.268242 206.022022 
z
" clip-path="url(#p8339264ecf)" style="fill: #de5d5c; fill-opacity: 0.7; stroke-dasharray: 7.4,3.2; stroke-dashoffset: 0"/>
    <path d="M 856.294102 206.430469 
L 870.319961 206.430469 
L 870.319961 206.022022 
L 856.294102 206.022022 
z
" clip-path="url(#p8339264ecf)" style="fill: #de5d5c; fill-opacity: 0.7; stroke-dasharray: 7.4,3.2; stroke-dashoffset: 0"/>
    <path d="M 884.34582 206.430469 
L 898.37168 206.430469 
L 898.37168 205.613575 
L 884.34582 205.613575 
z
" clip-path="url(#p8339264ecf)" style="fill: #de5d5c; fill-opacity: 0.7; stroke-dasharray: 7.4,3.2; stroke-dashoffset: 0"/>
    <path d="M 898.37168 206.430469 
L 912.397539 206.430469 
L 912.397539 206.022022 
L 898.37168 206.022022 
z
" clip-path="url(#p8339264ecf)" style="fill: #de5d5c; fill-opacity: 0.7; stroke-dasharray: 7.4,3.2; stroke-dashoffset: 0"/>
    <path d="M 912.397539 206.430469 
L 926.423398 206.430469 
L 926.423398 206.022022 
L 912.397539 206.022022 
z
" clip-path="url(#p8339264ecf)" style="fill: #de5d5c; fill-opacity: 0.7; stroke-dasharray: 7.4,3.2; stroke-dashoffset: 0"/>
    <path d="M 940.449258 206.430469 
L 954.475117 206.430469 
L 954.475117 205.613575 
L 940.449258 205.613575 
z
" clip-path="url(#p8339264ecf)" style="fill: #de5d5c; fill-opacity: 0.7; stroke-dasharray: 7.4,3.2; stroke-dashoffset: 0"/>
    <path d="M 954.475117 206.430469 
L 968.500977 206.430469 
L 968.500977 206.022022 
L 954.475117 206.022022 
z
" clip-path="url(#p8339264ecf)" style="fill: #de5d5c; fill-opacity: 0.7; stroke-dasharray: 7.4,3.2; stroke-dashoffset: 0"/>
    <path d="M 1052.656133 206.430469 
L 1066.681992 206.430469 
L 1066.681992 206.022022 
L 1052.656133 206.022022 
z
" clip-path="url(#p8339264ecf)" style="fill: #de5d5c; fill-opacity: 0.7; stroke-dasharray: 7.4,3.2; stroke-dashoffset: 0"/>
    <path d="M 1164.863008 206.430469 
L 1178.888867 206.430469 
L 1178.888867 206.022022 
L 1164.863008 206.022022 
z
" clip-path="url(#p8339264ecf)" style="fill: #de5d5c; fill-opacity: 0.7; stroke-dasharray: 7.4,3.2; stroke-dashoffset: 0"/>
    <path d="M 1192.914727 206.430469 
L 1206.940586 206.430469 
L 1206.940586 206.022022 
L 1192.914727 206.022022 
z
" clip-path="url(#p8339264ecf)" style="fill: #de5d5c; fill-opacity: 0.7; stroke-dasharray: 7.4,3.2; stroke-dashoffset: 0"/>
    <path d="M 1206.940586 206.430469 
L 1220.966445 206.430469 
L 1220.966445 206.022022 
L 1206.940586 206.022022 
z
" clip-path="url(#p8339264ecf)" style="fill: #de5d5c; fill-opacity: 0.7; stroke-dasharray: 7.4,3.2; stroke-dashoffset: 0"/>
    <path d="M 1220.966445 206.430469 
L 1234.992305 206.430469 
L 1234.992305 206.022022 
L 1220.966445 206.022022 
z
" clip-path="url(#p8339264ecf)" style="fill: #de5d5c; fill-opacity: 0.7; stroke-dasharray: 7.4,3.2; stroke-dashoffset: 0"/>
    <path d="M 1249.018164 206.430469 
L 1263.044023 206.430469 
L 1263.044023 206.022022 
L 1249.018164 206.022022 
z
" clip-path="url(#p8339264ecf)" style="fill: #de5d5c; fill-opacity: 0.7; stroke-dasharray: 7.4,3.2; stroke-dashoffset: 0"/>
    <path d="M 1361.225039 206.430469 
L 1375.250898 206.430469 
L 1375.250898 206.022022 
L 1361.225039 206.022022 
z
" clip-path="url(#p8339264ecf)" style="fill: #de5d5c; fill-opacity: 0.7; stroke-dasharray: 7.4,3.2; stroke-dashoffset: 0"/>
    <path d="M 1375.250898 206.430469 
L 1389.276758 206.430469 
L 1389.276758 206.022022 
L 1375.250898 206.022022 
z
" clip-path="url(#p8339264ecf)" style="fill: #de5d5c; fill-opacity: 0.7; stroke-dasharray: 7.4,3.2; stroke-dashoffset: 0"/>
    <path d="M 1473.431914 206.430469 
L 1487.457773 206.430469 
L 1487.457773 205.205128 
L 1473.431914 205.205128 
z
" clip-path="url(#p8339264ecf)" style="fill: #de5d5c; fill-opacity: 0.7; stroke-dasharray: 7.4,3.2; stroke-dashoffset: 0"/>
   </g>
   <g id="patch_3">
    <path d="M 77.858906 206.430469 
L 77.858906 26.877187 
" style="fill: none; stroke: #ffffff; stroke-width: 1.875; stroke-linejoin: miter; stroke-linecap: square"/>
   </g>
   <g id="patch_4">
    <path d="M 288.246797 206.430469 
L 288.246797 26.877187 
" style="fill: none; stroke: #ffffff; stroke-width: 1.875; stroke-linejoin: miter; stroke-linecap: square"/>
   </g>
   <g id="patch_5">
    <path d="M 77.858906 206.430469 
L 288.246797 206.430469 
" style="fill: none; stroke: #ffffff; stroke-width: 1.875; stroke-linejoin: miter; stroke-linecap: square"/>
   </g>
   <g id="patch_6">
    <path d="M 77.858906 26.877187 
L 288.246797 26.877187 
" style="fill: none; stroke: #ffffff; stroke-width: 1.875; stroke-linejoin: miter; stroke-linecap: square"/>
   </g>
   <g id="text_13">
    <!-- Ciprofloxacin 0 ng/ml -->
    <g transform="translate(87.498164 20.877187) scale(0.18 -0.18)">
     <defs>
      <path id="DejaVuSans-43" d="M 4122 4306 
L 4122 3641 
Q 3803 3938 3442 4084 
Q 3081 4231 2675 4231 
Q 1875 4231 1450 3742 
Q 1025 3253 1025 2328 
Q 1025 1406 1450 917 
Q 1875 428 2675 428 
Q 3081 428 3442 575 
Q 3803 722 4122 1019 
L 4122 359 
Q 3791 134 3420 21 
Q 3050 -91 2638 -91 
Q 1578 -91 968 557 
Q 359 1206 359 2328 
Q 359 3453 968 4101 
Q 1578 4750 2638 4750 
Q 3056 4750 3426 4639 
Q 3797 4528 4122 4306 
z
" transform="scale(0.015625)"/>
      <path id="DejaVuSans-78" d="M 3513 3500 
L 2247 1797 
L 3578 0 
L 2900 0 
L 1881 1375 
L 863 0 
L 184 0 
L 1544 1831 
L 300 3500 
L 978 3500 
L 1906 2253 
L 2834 3500 
L 3513 3500 
z
" transform="scale(0.015625)"/>
      <path id="DejaVuSans-6e" d="M 3513 2113 
L 3513 0 
L 2938 0 
L 2938 2094 
Q 2938 2591 2744 2837 
Q 2550 3084 2163 3084 
Q 1697 3084 1428 2787 
Q 1159 2491 1159 1978 
L 1159 0 
L 581 0 
L 581 3500 
L 1159 3500 
L 1159 2956 
Q 1366 3272 1645 3428 
Q 1925 3584 2291 3584 
Q 2894 3584 3203 3211 
Q 3513 2838 3513 2113 
z
" transform="scale(0.015625)"/>
      <path id="DejaVuSans-67" d="M 2906 1791 
Q 2906 2416 2648 2759 
Q 2391 3103 1925 3103 
Q 1463 3103 1205 2759 
Q 947 2416 947 1791 
Q 947 1169 1205 825 
Q 1463 481 1925 481 
Q 2391 481 2648 825 
Q 2906 1169 2906 1791 
z
M 3481 434 
Q 3481 -459 3084 -895 
Q 2688 -1331 1869 -1331 
Q 1566 -1331 1297 -1286 
Q 1028 -1241 775 -1147 
L 775 -588 
Q 1028 -725 1275 -790 
Q 1522 -856 1778 -856 
Q 2344 -856 2625 -561 
Q 2906 -266 2906 331 
L 2906 616 
Q 2728 306 2450 153 
Q 2172 0 1784 0 
Q 1141 0 747 490 
Q 353 981 353 1791 
Q 353 2603 747 3093 
Q 1141 3584 1784 3584 
Q 2172 3584 2450 3431 
Q 2728 3278 2906 2969 
L 2906 3500 
L 3481 3500 
L 3481 434 
z
" transform="scale(0.015625)"/>
      <path id="DejaVuSans-2f" d="M 1625 4666 
L 2156 4666 
L 531 -594 
L 0 -594 
L 1625 4666 
z
" transform="scale(0.015625)"/>
     </defs>
     <use xlink:href="#DejaVuSans-43"/>
     <use xlink:href="#DejaVuSans-69" x="69.824219"/>
     <use xlink:href="#DejaVuSans-70" x="97.607422"/>
     <use xlink:href="#DejaVuSans-72" x="161.083984"/>
     <use xlink:href="#DejaVuSans-6f" x="199.947266"/>
     <use xlink:href="#DejaVuSans-66" x="261.128906"/>
     <use xlink:href="#DejaVuSans-6c" x="296.333984"/>
     <use xlink:href="#DejaVuSans-6f" x="324.117188"/>
     <use xlink:href="#DejaVuSans-78" x="382.173828"/>
     <use xlink:href="#DejaVuSans-61" x="441.353516"/>
     <use xlink:href="#DejaVuSans-63" x="502.632812"/>
     <use xlink:href="#DejaVuSans-69" x="557.613281"/>
     <use xlink:href="#DejaVuSans-6e" x="585.396484"/>
     <use xlink:href="#DejaVuSans-20" x="648.775391"/>
     <use xlink:href="#DejaVuSans-30" x="680.5625"/>
     <use xlink:href="#DejaVuSans-20" x="744.185547"/>
     <use xlink:href="#DejaVuSans-6e" x="775.972656"/>
     <use xlink:href="#DejaVuSans-67" x="839.351562"/>
     <use xlink:href="#DejaVuSans-2f" x="902.828125"/>
     <use xlink:href="#DejaVuSans-6d" x="936.519531"/>
     <use xlink:href="#DejaVuSans-6c" x="1033.931641"/>
    </g>
   </g>
  </g>
  <g id="axes_2">
   <g id="patch_7">
    <path d="M 323.433984 206.430469 
L 533.821875 206.430469 
L 533.821875 26.877187 
L 323.433984 26.877187 
z
" style="fill: #eaeaf2"/>
   </g>
   <g id="matplotlib.axis_3">
    <g id="xtick_5">
     <g id="line2d_11">
      <path d="M 323.433984 206.430469 
L 323.433984 26.877187 
" clip-path="url(#p788a0db8a6)" style="fill: none; stroke: #ffffff; stroke-width: 1.5; stroke-linecap: round"/>
     </g>
     <g id="text_14">
      <!-- 0 -->
      <g style="fill: #262626" transform="translate(318.184922 231.467891) scale(0.165 -0.165)">
       <use xlink:href="#DejaVuSans-30"/>
      </g>
     </g>
    </g>
    <g id="xtick_6">
     <g id="line2d_12">
      <path d="M 393.563281 206.430469 
L 393.563281 26.877187 
" clip-path="url(#p788a0db8a6)" style="fill: none; stroke: #ffffff; stroke-width: 1.5; stroke-linecap: round"/>
     </g>
     <g id="text_15">
      <!-- 10 -->
      <g style="fill: #262626" transform="translate(383.065156 231.467891) scale(0.165 -0.165)">
       <use xlink:href="#DejaVuSans-31"/>
       <use xlink:href="#DejaVuSans-30" x="63.623047"/>
      </g>
     </g>
    </g>
    <g id="xtick_7">
     <g id="line2d_13">
      <path d="M 463.692578 206.430469 
L 463.692578 26.877187 
" clip-path="url(#p788a0db8a6)" style="fill: none; stroke: #ffffff; stroke-width: 1.5; stroke-linecap: round"/>
     </g>
     <g id="text_16">
      <!-- 20 -->
      <g style="fill: #262626" transform="translate(453.194453 231.467891) scale(0.165 -0.165)">
       <use xlink:href="#DejaVuSans-32"/>
       <use xlink:href="#DejaVuSans-30" x="63.623047"/>
      </g>
     </g>
    </g>
    <g id="xtick_8">
     <g id="line2d_14">
      <path d="M 533.821875 206.430469 
L 533.821875 26.877187 
" clip-path="url(#p788a0db8a6)" style="fill: none; stroke: #ffffff; stroke-width: 1.5; stroke-linecap: round"/>
     </g>
     <g id="text_17">
      <!-- 30 -->
      <g style="fill: #262626" transform="translate(523.32375 231.467891) scale(0.165 -0.165)">
       <use xlink:href="#DejaVuSans-33"/>
       <use xlink:href="#DejaVuSans-30" x="63.623047"/>
      </g>
     </g>
    </g>
    <g id="text_18">
     <!-- Spot lifetime (sec) -->
     <g style="fill: #262626" transform="translate(346.207617 252.576562) scale(0.18 -0.18)">
      <use xlink:href="#DejaVuSans-53"/>
      <use xlink:href="#DejaVuSans-70" x="63.476562"/>
      <use xlink:href="#DejaVuSans-6f" x="126.953125"/>
      <use xlink:href="#DejaVuSans-74" x="188.134766"/>
      <use xlink:href="#DejaVuSans-20" x="227.34375"/>
      <use xlink:href="#DejaVuSans-6c" x="259.130859"/>
      <use xlink:href="#DejaVuSans-69" x="286.914062"/>
      <use xlink:href="#DejaVuSans-66" x="314.697266"/>
      <use xlink:href="#DejaVuSans-65" x="349.902344"/>
      <use xlink:href="#DejaVuSans-74" x="411.425781"/>
      <use xlink:href="#DejaVuSans-69" x="450.634766"/>
      <use xlink:href="#DejaVuSans-6d" x="478.417969"/>
      <use xlink:href="#DejaVuSans-65" x="575.830078"/>
      <use xlink:href="#DejaVuSans-20" x="637.353516"/>
      <use xlink:href="#DejaVuSans-28" x="669.140625"/>
      <use xlink:href="#DejaVuSans-73" x="708.154297"/>
      <use xlink:href="#DejaVuSans-65" x="760.253906"/>
      <use xlink:href="#DejaVuSans-63" x="821.777344"/>
      <use xlink:href="#DejaVuSans-29" x="876.757812"/>
     </g>
    </g>
   </g>
   <g id="matplotlib.axis_4">
    <g id="ytick_7">
     <g id="line2d_15">
      <path d="M 323.433984 206.430469 
L 533.821875 206.430469 
" clip-path="url(#p788a0db8a6)" style="fill: none; stroke: #ffffff; stroke-width: 1.5; stroke-linecap: round"/>
     </g>
    </g>
    <g id="ytick_8">
     <g id="line2d_16">
      <path d="M 323.433984 170.519812 
L 533.821875 170.519812 
" clip-path="url(#p788a0db8a6)" style="fill: none; stroke: #ffffff; stroke-width: 1.5; stroke-linecap: round"/>
     </g>
    </g>
    <g id="ytick_9">
     <g id="line2d_17">
      <path d="M 323.433984 134.609156 
L 533.821875 134.609156 
" clip-path="url(#p788a0db8a6)" style="fill: none; stroke: #ffffff; stroke-width: 1.5; stroke-linecap: round"/>
     </g>
    </g>
    <g id="ytick_10">
     <g id="line2d_18">
      <path d="M 323.433984 98.6985 
L 533.821875 98.6985 
" clip-path="url(#p788a0db8a6)" style="fill: none; stroke: #ffffff; stroke-width: 1.5; stroke-linecap: round"/>
     </g>
    </g>
    <g id="ytick_11">
     <g id="line2d_19">
      <path d="M 323.433984 62.787844 
L 533.821875 62.787844 
" clip-path="url(#p788a0db8a6)" style="fill: none; stroke: #ffffff; stroke-width: 1.5; stroke-linecap: round"/>
     </g>
    </g>
    <g id="ytick_12">
     <g id="line2d_20">
      <path d="M 323.433984 26.877187 
L 533.821875 26.877187 
" clip-path="url(#p788a0db8a6)" style="fill: none; stroke: #ffffff; stroke-width: 1.5; stroke-linecap: round"/>
     </g>
    </g>
   </g>
   <g id="PatchCollection_2">
    <path d="M 330.446914 206.430469 
L 344.472773 206.430469 
L 344.472773 -689.517011 
L 330.446914 -689.517011 
z
" clip-path="url(#p788a0db8a6)" style="fill: #9a3670; fill-opacity: 0.7; stroke-dasharray: 7.4,3.2; stroke-dashoffset: 0"/>
    <path d="M 330.446914 206.430469 
L 344.472773 206.430469 
L 344.472773 -1 
M 330.446914 -1 
L 330.446914 206.430469 
" clip-path="url(#p788a0db8a6)" style="fill: none; stroke-dasharray: 7.4,3.2; stroke-dashoffset: 0; stroke: #262626; stroke-width: 2"/>
    <path d="M 344.472773 206.430469 
L 358.498633 206.430469 
L 358.498633 -107.847461 
L 344.472773 -107.847461 
z
" clip-path="url(#p788a0db8a6)" style="fill: #9a3670; fill-opacity: 0.7; stroke-dasharray: 7.4,3.2; stroke-dashoffset: 0"/>
    <path d="M 344.472773 206.430469 
L 358.498633 206.430469 
L 358.498633 -1 
M 344.472773 -1 
L 344.472773 206.430469 
" clip-path="url(#p788a0db8a6)" style="fill: none; stroke-dasharray: 7.4,3.2; stroke-dashoffset: 0; stroke: #262626; stroke-width: 2"/>
    <path d="M 358.498633 206.430469 
L 372.524492 206.430469 
L 372.524492 43.965439 
L 358.498633 43.965439 
z
" clip-path="url(#p788a0db8a6)" style="fill: #9a3670; fill-opacity: 0.7; stroke-dasharray: 7.4,3.2; stroke-dashoffset: 0"/>
    <path d="M 358.498633 206.430469 
L 372.524492 206.430469 
L 372.524492 95.840351 
L 358.498633 95.840351 
L 358.498633 206.430469 
z
" clip-path="url(#p788a0db8a6)" style="fill: none; stroke-dasharray: 7.4,3.2; stroke-dashoffset: 0; stroke: #262626; stroke-width: 2"/>
    <path d="M 372.524492 206.430469 
L 386.550352 206.430469 
L 386.550352 113.603425 
L 372.524492 113.603425 
z
" clip-path="url(#p788a0db8a6)" style="fill: #9a3670; fill-opacity: 0.7; stroke-dasharray: 7.4,3.2; stroke-dashoffset: 0"/>
    <path d="M 372.524492 206.430469 
L 386.550352 206.430469 
L 386.550352 157.750113 
L 372.524492 157.750113 
L 372.524492 206.430469 
z
" clip-path="url(#p788a0db8a6)" style="fill: none; stroke-dasharray: 7.4,3.2; stroke-dashoffset: 0; stroke: #262626; stroke-width: 2"/>
    <path d="M 386.550352 206.430469 
L 400.576211 206.430469 
L 400.576211 143.226498 
L 386.550352 143.226498 
z
" clip-path="url(#p788a0db8a6)" style="fill: #9a3670; fill-opacity: 0.7; stroke-dasharray: 7.4,3.2; stroke-dashoffset: 0"/>
    <path d="M 386.550352 206.430469 
L 400.576211 206.430469 
L 400.576211 180.108942 
L 386.550352 180.108942 
L 386.550352 206.430469 
z
" clip-path="url(#p788a0db8a6)" style="fill: none; stroke-dasharray: 7.4,3.2; stroke-dashoffset: 0; stroke: #262626; stroke-width: 2"/>
    <path d="M 400.576211 206.430469 
L 414.60207 206.430469 
L 414.60207 159.639029 
L 400.576211 159.639029 
z
" clip-path="url(#p788a0db8a6)" style="fill: #9a3670; fill-opacity: 0.7; stroke-dasharray: 7.4,3.2; stroke-dashoffset: 0"/>
    <path d="M 400.576211 206.430469 
L 414.60207 206.430469 
L 414.60207 187.617296 
L 400.576211 187.617296 
L 400.576211 206.430469 
z
" clip-path="url(#p788a0db8a6)" style="fill: none; stroke-dasharray: 7.4,3.2; stroke-dashoffset: 0; stroke: #262626; stroke-width: 2"/>
    <path d="M 414.60207 206.430469 
L 428.62793 206.430469 
L 428.62793 172.641679 
L 414.60207 172.641679 
z
" clip-path="url(#p788a0db8a6)" style="fill: #9a3670; fill-opacity: 0.7; stroke-dasharray: 7.4,3.2; stroke-dashoffset: 0"/>
    <path d="M 414.60207 206.430469 
L 428.62793 206.430469 
L 428.62793 195.26309 
L 414.60207 195.26309 
L 414.60207 206.430469 
z
" clip-path="url(#p788a0db8a6)" style="fill: none; stroke-dasharray: 7.4,3.2; stroke-dashoffset: 0; stroke: #262626; stroke-width: 2"/>
    <path d="M 428.62793 206.430469 
L 442.653789 206.430469 
L 442.653789 178.231696 
L 428.62793 178.231696 
z
" clip-path="url(#p788a0db8a6)" style="fill: #9a3670; fill-opacity: 0.7; stroke-dasharray: 7.4,3.2; stroke-dashoffset: 0"/>
    <path d="M 428.62793 206.430469 
L 442.653789 206.430469 
L 442.653789 199.087372 
L 428.62793 199.087372 
L 428.62793 206.430469 
z
" clip-path="url(#p788a0db8a6)" style="fill: none; stroke-dasharray: 7.4,3.2; stroke-dashoffset: 0; stroke: #262626; stroke-width: 2"/>
    <path d="M 442.653789 206.430469 
L 456.679648 206.430469 
L 456.679648 185.026845 
L 442.653789 185.026845 
z
" clip-path="url(#p788a0db8a6)" style="fill: #9a3670; fill-opacity: 0.7; stroke-dasharray: 7.4,3.2; stroke-dashoffset: 0"/>
    <path d="M 442.653789 206.430469 
L 456.679648 206.430469 
L 456.679648 200.915393 
L 442.653789 200.915393 
L 442.653789 206.430469 
z
" clip-path="url(#p788a0db8a6)" style="fill: none; stroke-dasharray: 7.4,3.2; stroke-dashoffset: 0; stroke: #262626; stroke-width: 2"/>
    <path d="M 456.679648 206.430469 
L 470.705508 206.430469 
L 470.705508 188.656754 
L 456.679648 188.656754 
z
" clip-path="url(#p788a0db8a6)" style="fill: #9a3670; fill-opacity: 0.7; stroke-dasharray: 7.4,3.2; stroke-dashoffset: 0"/>
    <path d="M 456.679648 206.430469 
L 470.705508 206.430469 
L 470.705508 202.0665 
L 456.679648 202.0665 
L 456.679648 206.430469 
z
" clip-path="url(#p788a0db8a6)" style="fill: none; stroke-dasharray: 7.4,3.2; stroke-dashoffset: 0; stroke: #262626; stroke-width: 2"/>
    <path d="M 470.705508 206.430469 
L 484.731367 206.430469 
L 484.731367 191.464046 
L 470.705508 191.464046 
z
" clip-path="url(#p788a0db8a6)" style="fill: #9a3670; fill-opacity: 0.7; stroke-dasharray: 7.4,3.2; stroke-dashoffset: 0"/>
    <path d="M 470.705508 206.430469 
L 484.731367 206.430469 
L 484.731367 200.214406 
L 470.705508 200.214406 
L 470.705508 206.430469 
z
" clip-path="url(#p788a0db8a6)" style="fill: none; stroke-dasharray: 7.4,3.2; stroke-dashoffset: 0; stroke: #262626; stroke-width: 2"/>
    <path d="M 484.731367 206.430469 
L 498.757227 206.430469 
L 498.757227 192.388521 
L 484.731367 192.388521 
z
" clip-path="url(#p788a0db8a6)" style="fill: #9a3670; fill-opacity: 0.7; stroke-dasharray: 7.4,3.2; stroke-dashoffset: 0"/>
    <path d="M 484.731367 206.430469 
L 498.757227 206.430469 
L 498.757227 201.846645 
L 484.731367 201.846645 
L 484.731367 206.430469 
z
" clip-path="url(#p788a0db8a6)" style="fill: none; stroke-dasharray: 7.4,3.2; stroke-dashoffset: 0; stroke: #262626; stroke-width: 2"/>
    <path d="M 498.757227 206.430469 
L 512.783086 206.430469 
L 512.783086 195.93173 
L 498.757227 195.93173 
z
" clip-path="url(#p788a0db8a6)" style="fill: #9a3670; fill-opacity: 0.7; stroke-dasharray: 7.4,3.2; stroke-dashoffset: 0"/>
    <path d="M 498.757227 206.430469 
L 512.783086 206.430469 
L 512.783086 202.575175 
L 498.757227 202.575175 
L 498.757227 206.430469 
z
" clip-path="url(#p788a0db8a6)" style="fill: none; stroke-dasharray: 7.4,3.2; stroke-dashoffset: 0; stroke: #262626; stroke-width: 2"/>
    <path d="M 512.783086 206.430469 
L 526.808945 206.430469 
L 526.808945 197.471136 
L 512.783086 197.471136 
z
" clip-path="url(#p788a0db8a6)" style="fill: #9a3670; fill-opacity: 0.7; stroke-dasharray: 7.4,3.2; stroke-dashoffset: 0"/>
    <path d="M 512.783086 206.430469 
L 526.808945 206.430469 
L 526.808945 203.231485 
L 512.783086 203.231485 
L 512.783086 206.430469 
z
" clip-path="url(#p788a0db8a6)" style="fill: none; stroke-dasharray: 7.4,3.2; stroke-dashoffset: 0; stroke: #262626; stroke-width: 2"/>
    <path d="M 526.808945 206.430469 
L 540.834805 206.430469 
L 540.834805 198.614562 
L 526.808945 198.614562 
z
" clip-path="url(#p788a0db8a6)" style="fill: #9a3670; fill-opacity: 0.7; stroke-dasharray: 7.4,3.2; stroke-dashoffset: 0"/>
    <path d="M 526.808945 206.430469 
L 540.834805 206.430469 
L 540.834805 204.064739 
L 526.808945 204.064739 
L 526.808945 206.430469 
z
" clip-path="url(#p788a0db8a6)" style="fill: none; stroke-dasharray: 7.4,3.2; stroke-dashoffset: 0; stroke: #262626; stroke-width: 2"/>
    <path d="M 540.834805 206.430469 
L 554.860664 206.430469 
L 554.860664 200.182915 
L 540.834805 200.182915 
z
" clip-path="url(#p788a0db8a6)" style="fill: #9a3670; fill-opacity: 0.7; stroke-dasharray: 7.4,3.2; stroke-dashoffset: 0"/>
    <path d="M 540.834805 206.430469 
L 552.52 206.430469 
M 552.52 204.822303 
L 540.834805 204.822303 
L 540.834805 206.430469 
" clip-path="url(#p788a0db8a6)" style="fill: none; stroke-dasharray: 7.4,3.2; stroke-dashoffset: 0; stroke: #262626; stroke-width: 2"/>
    <path d="M 554.860664 206.430469 
L 568.886523 206.430469 
L 568.886523 201.192442 
L 554.860664 201.192442 
z
" clip-path="url(#p788a0db8a6)" style="fill: #9a3670; fill-opacity: 0.7; stroke-dasharray: 7.4,3.2; stroke-dashoffset: 0"/>
    <path clip-path="url(#p788a0db8a6)" style="fill: none; stroke-dasharray: 7.4,3.2; stroke-dashoffset: 0; stroke: #262626; stroke-width: 2"/>
    <path d="M 568.886523 206.430469 
L 582.912383 206.430469 
L 582.912383 202.128017 
L 568.886523 202.128017 
z
" clip-path="url(#p788a0db8a6)" style="fill: #9a3670; fill-opacity: 0.7; stroke-dasharray: 7.4,3.2; stroke-dashoffset: 0"/>
    <path clip-path="url(#p788a0db8a6)" style="fill: none; stroke-dasharray: 7.4,3.2; stroke-dashoffset: 0; stroke: #262626; stroke-width: 2"/>
    <path d="M 582.912383 206.430469 
L 596.938242 206.430469 
L 596.938242 202.548991 
L 582.912383 202.548991 
z
" clip-path="url(#p788a0db8a6)" style="fill: #9a3670; fill-opacity: 0.7; stroke-dasharray: 7.4,3.2; stroke-dashoffset: 0"/>
    <path clip-path="url(#p788a0db8a6)" style="fill: none; stroke-dasharray: 7.4,3.2; stroke-dashoffset: 0; stroke: #262626; stroke-width: 2"/>
    <path d="M 596.938242 206.430469 
L 610.964102 206.430469 
L 610.964102 202.293986 
L 596.938242 202.293986 
z
" clip-path="url(#p788a0db8a6)" style="fill: #9a3670; fill-opacity: 0.7; stroke-dasharray: 7.4,3.2; stroke-dashoffset: 0"/>
    <path clip-path="url(#p788a0db8a6)" style="fill: none; stroke-dasharray: 7.4,3.2; stroke-dashoffset: 0; stroke: #262626; stroke-width: 2"/>
    <path d="M 610.964102 206.430469 
L 624.989961 206.430469 
L 624.989961 202.905067 
L 610.964102 202.905067 
z
" clip-path="url(#p788a0db8a6)" style="fill: #9a3670; fill-opacity: 0.7; stroke-dasharray: 7.4,3.2; stroke-dashoffset: 0"/>
    <path clip-path="url(#p788a0db8a6)" style="fill: none; stroke-dasharray: 7.4,3.2; stroke-dashoffset: 0; stroke: #262626; stroke-width: 2"/>
    <path d="M 624.989961 206.430469 
L 639.01582 206.430469 
L 639.01582 203.146015 
L 624.989961 203.146015 
z
" clip-path="url(#p788a0db8a6)" style="fill: #9a3670; fill-opacity: 0.7; stroke-dasharray: 7.4,3.2; stroke-dashoffset: 0"/>
    <path clip-path="url(#p788a0db8a6)" style="fill: none; stroke-dasharray: 7.4,3.2; stroke-dashoffset: 0; stroke: #262626; stroke-width: 2"/>
    <path d="M 639.01582 206.430469 
L 653.04168 206.430469 
L 653.04168 204.120958 
L 639.01582 204.120958 
z
" clip-path="url(#p788a0db8a6)" style="fill: #9a3670; fill-opacity: 0.7; stroke-dasharray: 7.4,3.2; stroke-dashoffset: 0"/>
    <path clip-path="url(#p788a0db8a6)" style="fill: none; stroke-dasharray: 7.4,3.2; stroke-dashoffset: 0; stroke: #262626; stroke-width: 2"/>
    <path d="M 653.04168 206.430469 
L 667.067539 206.430469 
L 667.067539 204.049431 
L 653.04168 204.049431 
z
" clip-path="url(#p788a0db8a6)" style="fill: #9a3670; fill-opacity: 0.7; stroke-dasharray: 7.4,3.2; stroke-dashoffset: 0"/>
    <path clip-path="url(#p788a0db8a6)" style="fill: none; stroke-dasharray: 7.4,3.2; stroke-dashoffset: 0; stroke: #262626; stroke-width: 2"/>
    <path d="M 667.067539 206.430469 
L 681.093398 206.430469 
L 681.093398 203.704575 
L 667.067539 203.704575 
z
" clip-path="url(#p788a0db8a6)" style="fill: #9a3670; fill-opacity: 0.7; stroke-dasharray: 7.4,3.2; stroke-dashoffset: 0"/>
    <path clip-path="url(#p788a0db8a6)" style="fill: none; stroke-dasharray: 7.4,3.2; stroke-dashoffset: 0; stroke: #262626; stroke-width: 2"/>
    <path d="M 681.093398 206.430469 
L 695.119258 206.430469 
L 695.119258 204.272506 
L 681.093398 204.272506 
z
" clip-path="url(#p788a0db8a6)" style="fill: #9a3670; fill-opacity: 0.7; stroke-dasharray: 7.4,3.2; stroke-dashoffset: 0"/>
    <path clip-path="url(#p788a0db8a6)" style="fill: none; stroke-dasharray: 7.4,3.2; stroke-dashoffset: 0; stroke: #262626; stroke-width: 2"/>
    <path d="M 695.119258 206.430469 
L 709.145117 206.430469 
L 709.145117 204.500326 
L 695.119258 204.500326 
z
" clip-path="url(#p788a0db8a6)" style="fill: #9a3670; fill-opacity: 0.7; stroke-dasharray: 7.4,3.2; stroke-dashoffset: 0"/>
    <path clip-path="url(#p788a0db8a6)" style="fill: none; stroke-dasharray: 7.4,3.2; stroke-dashoffset: 0; stroke: #262626; stroke-width: 2"/>
    <path d="M 709.145117 206.430469 
L 723.170977 206.430469 
L 723.170977 204.672326 
L 709.145117 204.672326 
z
" clip-path="url(#p788a0db8a6)" style="fill: #9a3670; fill-opacity: 0.7; stroke-dasharray: 7.4,3.2; stroke-dashoffset: 0"/>
    <path clip-path="url(#p788a0db8a6)" style="fill: none; stroke-dasharray: 7.4,3.2; stroke-dashoffset: 0; stroke: #262626; stroke-width: 2"/>
    <path d="M 723.170977 206.430469 
L 737.196836 206.430469 
L 737.196836 204.774319 
L 723.170977 204.774319 
z
" clip-path="url(#p788a0db8a6)" style="fill: #9a3670; fill-opacity: 0.7; stroke-dasharray: 7.4,3.2; stroke-dashoffset: 0"/>
    <path clip-path="url(#p788a0db8a6)" style="fill: none; stroke-dasharray: 7.4,3.2; stroke-dashoffset: 0; stroke: #262626; stroke-width: 2"/>
    <path d="M 737.196836 206.430469 
L 751.222695 206.430469 
L 751.222695 205.24569 
L 737.196836 205.24569 
z
" clip-path="url(#p788a0db8a6)" style="fill: #9a3670; fill-opacity: 0.7; stroke-dasharray: 7.4,3.2; stroke-dashoffset: 0"/>
    <path clip-path="url(#p788a0db8a6)" style="fill: none; stroke-dasharray: 7.4,3.2; stroke-dashoffset: 0; stroke: #262626; stroke-width: 2"/>
    <path d="M 751.222695 206.430469 
L 765.248555 206.430469 
L 765.248555 205.218764 
L 751.222695 205.218764 
z
" clip-path="url(#p788a0db8a6)" style="fill: #9a3670; fill-opacity: 0.7; stroke-dasharray: 7.4,3.2; stroke-dashoffset: 0"/>
    <path clip-path="url(#p788a0db8a6)" style="fill: none; stroke-dasharray: 7.4,3.2; stroke-dashoffset: 0; stroke: #262626; stroke-width: 2"/>
    <path d="M 765.248555 206.430469 
L 779.274414 206.430469 
L 779.274414 204.916166 
L 765.248555 204.916166 
z
" clip-path="url(#p788a0db8a6)" style="fill: #9a3670; fill-opacity: 0.7; stroke-dasharray: 7.4,3.2; stroke-dashoffset: 0"/>
    <path clip-path="url(#p788a0db8a6)" style="fill: none; stroke-dasharray: 7.4,3.2; stroke-dashoffset: 0; stroke: #262626; stroke-width: 2"/>
    <path d="M 779.274414 206.430469 
L 793.300273 206.430469 
L 793.300273 205.299224 
L 779.274414 205.299224 
z
" clip-path="url(#p788a0db8a6)" style="fill: #9a3670; fill-opacity: 0.7; stroke-dasharray: 7.4,3.2; stroke-dashoffset: 0"/>
    <path clip-path="url(#p788a0db8a6)" style="fill: none; stroke-dasharray: 7.4,3.2; stroke-dashoffset: 0; stroke: #262626; stroke-width: 2"/>
    <path d="M 793.300273 206.430469 
L 807.326133 206.430469 
L 807.326133 205.298809 
L 793.300273 205.298809 
z
" clip-path="url(#p788a0db8a6)" style="fill: #9a3670; fill-opacity: 0.7; stroke-dasharray: 7.4,3.2; stroke-dashoffset: 0"/>
    <path clip-path="url(#p788a0db8a6)" style="fill: none; stroke-dasharray: 7.4,3.2; stroke-dashoffset: 0; stroke: #262626; stroke-width: 2"/>
    <path d="M 807.326133 206.430469 
L 821.351992 206.430469 
L 821.351992 205.531594 
L 807.326133 205.531594 
z
" clip-path="url(#p788a0db8a6)" style="fill: #9a3670; fill-opacity: 0.7; stroke-dasharray: 7.4,3.2; stroke-dashoffset: 0"/>
    <path clip-path="url(#p788a0db8a6)" style="fill: none; stroke-dasharray: 7.4,3.2; stroke-dashoffset: 0; stroke: #262626; stroke-width: 2"/>
    <path d="M 821.351992 206.430469 
L 835.377852 206.430469 
L 835.377852 205.422077 
L 821.351992 205.422077 
z
" clip-path="url(#p788a0db8a6)" style="fill: #9a3670; fill-opacity: 0.7; stroke-dasharray: 7.4,3.2; stroke-dashoffset: 0"/>
    <path clip-path="url(#p788a0db8a6)" style="fill: none; stroke-dasharray: 7.4,3.2; stroke-dashoffset: 0; stroke: #262626; stroke-width: 2"/>
    <path d="M 835.377852 206.430469 
L 849.403711 206.430469 
L 849.403711 205.423895 
L 835.377852 205.423895 
z
" clip-path="url(#p788a0db8a6)" style="fill: #9a3670; fill-opacity: 0.7; stroke-dasharray: 7.4,3.2; stroke-dashoffset: 0"/>
    <path clip-path="url(#p788a0db8a6)" style="fill: none; stroke-dasharray: 7.4,3.2; stroke-dashoffset: 0; stroke: #262626; stroke-width: 2"/>
    <path d="M 849.403711 206.430469 
L 863.42957 206.430469 
L 863.42957 205.38359 
L 849.403711 205.38359 
z
" clip-path="url(#p788a0db8a6)" style="fill: #9a3670; fill-opacity: 0.7; stroke-dasharray: 7.4,3.2; stroke-dashoffset: 0"/>
    <path d="M 863.42957 206.430469 
L 877.45543 206.430469 
L 877.45543 205.233654 
L 863.42957 205.233654 
z
" clip-path="url(#p788a0db8a6)" style="fill: #9a3670; fill-opacity: 0.7; stroke-dasharray: 7.4,3.2; stroke-dashoffset: 0"/>
    <path clip-path="url(#p788a0db8a6)" style="fill: none; stroke-dasharray: 7.4,3.2; stroke-dashoffset: 0; stroke: #262626; stroke-width: 2"/>
    <path d="M 877.45543 206.430469 
L 891.481289 206.430469 
L 891.481289 205.553047 
L 877.45543 205.553047 
z
" clip-path="url(#p788a0db8a6)" style="fill: #9a3670; fill-opacity: 0.7; stroke-dasharray: 7.4,3.2; stroke-dashoffset: 0"/>
    <path clip-path="url(#p788a0db8a6)" style="fill: none; stroke-dasharray: 7.4,3.2; stroke-dashoffset: 0; stroke: #262626; stroke-width: 2"/>
    <path d="M 891.481289 206.430469 
L 905.507148 206.430469 
L 905.507148 205.518797 
L 891.481289 205.518797 
z
" clip-path="url(#p788a0db8a6)" style="fill: #9a3670; fill-opacity: 0.7; stroke-dasharray: 7.4,3.2; stroke-dashoffset: 0"/>
    <path clip-path="url(#p788a0db8a6)" style="fill: none; stroke-dasharray: 7.4,3.2; stroke-dashoffset: 0; stroke: #262626; stroke-width: 2"/>
    <path d="M 905.507148 206.430469 
L 919.533008 206.430469 
L 919.533008 205.567803 
L 905.507148 205.567803 
z
" clip-path="url(#p788a0db8a6)" style="fill: #9a3670; fill-opacity: 0.7; stroke-dasharray: 7.4,3.2; stroke-dashoffset: 0"/>
    <path d="M 919.533008 206.430469 
L 933.558867 206.430469 
L 933.558867 205.506702 
L 919.533008 205.506702 
z
" clip-path="url(#p788a0db8a6)" style="fill: #9a3670; fill-opacity: 0.7; stroke-dasharray: 7.4,3.2; stroke-dashoffset: 0"/>
    <path d="M 933.558867 206.430469 
L 947.584727 206.430469 
L 947.584727 205.909104 
L 933.558867 205.909104 
z
" clip-path="url(#p788a0db8a6)" style="fill: #9a3670; fill-opacity: 0.7; stroke-dasharray: 7.4,3.2; stroke-dashoffset: 0"/>
    <path d="M 947.584727 206.430469 
L 961.610586 206.430469 
L 961.610586 205.658777 
L 947.584727 205.658777 
z
" clip-path="url(#p788a0db8a6)" style="fill: #9a3670; fill-opacity: 0.7; stroke-dasharray: 7.4,3.2; stroke-dashoffset: 0"/>
    <path clip-path="url(#p788a0db8a6)" style="fill: none; stroke-dasharray: 7.4,3.2; stroke-dashoffset: 0; stroke: #262626; stroke-width: 2"/>
    <path d="M 961.610586 206.430469 
L 975.636445 206.430469 
L 975.636445 205.975068 
L 961.610586 205.975068 
z
" clip-path="url(#p788a0db8a6)" style="fill: #9a3670; fill-opacity: 0.7; stroke-dasharray: 7.4,3.2; stroke-dashoffset: 0"/>
    <path d="M 975.636445 206.430469 
L 989.662305 206.430469 
L 989.662305 205.580648 
L 975.636445 205.580648 
z
" clip-path="url(#p788a0db8a6)" style="fill: #9a3670; fill-opacity: 0.7; stroke-dasharray: 7.4,3.2; stroke-dashoffset: 0"/>
    <path clip-path="url(#p788a0db8a6)" style="fill: none; stroke-dasharray: 7.4,3.2; stroke-dashoffset: 0; stroke: #262626; stroke-width: 2"/>
    <path d="M 989.662305 206.430469 
L 1003.688164 206.430469 
L 1003.688164 205.868597 
L 989.662305 205.868597 
z
" clip-path="url(#p788a0db8a6)" style="fill: #9a3670; fill-opacity: 0.7; stroke-dasharray: 7.4,3.2; stroke-dashoffset: 0"/>
    <path clip-path="url(#p788a0db8a6)" style="fill: none; stroke-dasharray: 7.4,3.2; stroke-dashoffset: 0; stroke: #262626; stroke-width: 2"/>
    <path d="M 1003.688164 206.430469 
L 1017.714023 206.430469 
L 1017.714023 205.544122 
L 1003.688164 205.544122 
z
" clip-path="url(#p788a0db8a6)" style="fill: #9a3670; fill-opacity: 0.7; stroke-dasharray: 7.4,3.2; stroke-dashoffset: 0"/>
    <path clip-path="url(#p788a0db8a6)" style="fill: none; stroke-dasharray: 7.4,3.2; stroke-dashoffset: 0; stroke: #262626; stroke-width: 2"/>
    <path d="M 1017.714023 206.430469 
L 1031.739883 206.430469 
L 1031.739883 203.89727 
L 1017.714023 203.89727 
z
" clip-path="url(#p788a0db8a6)" style="fill: #9a3670; fill-opacity: 0.7; stroke-dasharray: 7.4,3.2; stroke-dashoffset: 0"/>
    <path clip-path="url(#p788a0db8a6)" style="fill: none; stroke-dasharray: 7.4,3.2; stroke-dashoffset: 0; stroke: #262626; stroke-width: 2"/>
    <path d="M 1031.739883 206.430469 
L 1045.765742 206.430469 
L 1045.765742 206.118365 
L 1031.739883 206.118365 
z
" clip-path="url(#p788a0db8a6)" style="fill: #9a3670; fill-opacity: 0.7; stroke-dasharray: 7.4,3.2; stroke-dashoffset: 0"/>
    <path d="M 1045.765742 206.430469 
L 1059.791602 206.430469 
L 1059.791602 205.58272 
L 1045.765742 205.58272 
z
" clip-path="url(#p788a0db8a6)" style="fill: #9a3670; fill-opacity: 0.7; stroke-dasharray: 7.4,3.2; stroke-dashoffset: 0"/>
    <path d="M 1059.791602 206.430469 
L 1073.817461 206.430469 
L 1073.817461 206.118365 
L 1059.791602 206.118365 
z
" clip-path="url(#p788a0db8a6)" style="fill: #9a3670; fill-opacity: 0.7; stroke-dasharray: 7.4,3.2; stroke-dashoffset: 0"/>
    <path d="M 1087.84332 206.430469 
L 1101.86918 206.430469 
L 1101.86918 204.73497 
L 1087.84332 204.73497 
z
" clip-path="url(#p788a0db8a6)" style="fill: #9a3670; fill-opacity: 0.7; stroke-dasharray: 7.4,3.2; stroke-dashoffset: 0"/>
    <path d="M 1143.946758 206.430469 
L 1157.972617 206.430469 
L 1157.972617 206.118365 
L 1143.946758 206.118365 
z
" clip-path="url(#p788a0db8a6)" style="fill: #9a3670; fill-opacity: 0.7; stroke-dasharray: 7.4,3.2; stroke-dashoffset: 0"/>
    <path d="M 1157.972617 206.430469 
L 1171.998477 206.430469 
L 1171.998477 205.850542 
L 1157.972617 205.850542 
z
" clip-path="url(#p788a0db8a6)" style="fill: #9a3670; fill-opacity: 0.7; stroke-dasharray: 7.4,3.2; stroke-dashoffset: 0"/>
    <path d="M 1171.998477 206.430469 
L 1186.024336 206.430469 
L 1186.024336 205.58272 
L 1171.998477 205.58272 
z
" clip-path="url(#p788a0db8a6)" style="fill: #9a3670; fill-opacity: 0.7; stroke-dasharray: 7.4,3.2; stroke-dashoffset: 0"/>
    <path d="M 1186.024336 206.430469 
L 1200.050195 206.430469 
L 1200.050195 205.58272 
L 1186.024336 205.58272 
z
" clip-path="url(#p788a0db8a6)" style="fill: #9a3670; fill-opacity: 0.7; stroke-dasharray: 7.4,3.2; stroke-dashoffset: 0"/>
    <path d="M 1200.050195 206.430469 
L 1214.076055 206.430469 
L 1214.076055 206.118365 
L 1200.050195 206.118365 
z
" clip-path="url(#p788a0db8a6)" style="fill: #9a3670; fill-opacity: 0.7; stroke-dasharray: 7.4,3.2; stroke-dashoffset: 0"/>
    <path d="M 1214.076055 206.430469 
L 1228.101914 206.430469 
L 1228.101914 205.426668 
L 1214.076055 205.426668 
z
" clip-path="url(#p788a0db8a6)" style="fill: #9a3670; fill-opacity: 0.7; stroke-dasharray: 7.4,3.2; stroke-dashoffset: 0"/>
    <path d="M 1228.101914 206.430469 
L 1242.127773 206.430469 
L 1242.127773 205.58272 
L 1228.101914 205.58272 
z
" clip-path="url(#p788a0db8a6)" style="fill: #9a3670; fill-opacity: 0.7; stroke-dasharray: 7.4,3.2; stroke-dashoffset: 0"/>
    <path d="M 1242.127773 206.430469 
L 1256.153633 206.430469 
L 1256.153633 205.58272 
L 1242.127773 205.58272 
z
" clip-path="url(#p788a0db8a6)" style="fill: #9a3670; fill-opacity: 0.7; stroke-dasharray: 7.4,3.2; stroke-dashoffset: 0"/>
    <path d="M 1312.25707 206.430469 
L 1326.28293 206.430469 
L 1326.28293 205.58272 
L 1312.25707 205.58272 
z
" clip-path="url(#p788a0db8a6)" style="fill: #9a3670; fill-opacity: 0.7; stroke-dasharray: 7.4,3.2; stroke-dashoffset: 0"/>
    <path d="M 1354.334648 206.430469 
L 1368.360508 206.430469 
L 1368.360508 206.118365 
L 1354.334648 206.118365 
z
" clip-path="url(#p788a0db8a6)" style="fill: #9a3670; fill-opacity: 0.7; stroke-dasharray: 7.4,3.2; stroke-dashoffset: 0"/>
    <path d="M 1382.386367 206.430469 
L 1396.412227 206.430469 
L 1396.412227 205.58272 
L 1382.386367 205.58272 
z
" clip-path="url(#p788a0db8a6)" style="fill: #9a3670; fill-opacity: 0.7; stroke-dasharray: 7.4,3.2; stroke-dashoffset: 0"/>
    <path d="M 1480.567383 206.430469 
L 1494.593242 206.430469 
L 1494.593242 206.118365 
L 1480.567383 206.118365 
z
" clip-path="url(#p788a0db8a6)" style="fill: #9a3670; fill-opacity: 0.7; stroke-dasharray: 7.4,3.2; stroke-dashoffset: 0"/>
    <path d="M 1522.644961 206.430469 
L 1536.67082 206.430469 
L 1536.67082 206.118365 
L 1522.644961 206.118365 
z
" clip-path="url(#p788a0db8a6)" style="fill: #9a3670; fill-opacity: 0.7; stroke-dasharray: 7.4,3.2; stroke-dashoffset: 0"/>
    <path d="M 1578.748398 206.430469 
L 1592.774258 206.430469 
L 1592.774258 206.118365 
L 1578.748398 206.118365 
z
" clip-path="url(#p788a0db8a6)" style="fill: #9a3670; fill-opacity: 0.7; stroke-dasharray: 7.4,3.2; stroke-dashoffset: 0"/>
    <path d="M 1690.955273 206.430469 
L 1704.981133 206.430469 
L 1704.981133 206.118365 
L 1690.955273 206.118365 
z
" clip-path="url(#p788a0db8a6)" style="fill: #9a3670; fill-opacity: 0.7; stroke-dasharray: 7.4,3.2; stroke-dashoffset: 0"/>
    <path d="M 1704.981133 206.430469 
L 1719.006992 206.430469 
L 1719.006992 206.118365 
L 1704.981133 206.118365 
z
" clip-path="url(#p788a0db8a6)" style="fill: #9a3670; fill-opacity: 0.7; stroke-dasharray: 7.4,3.2; stroke-dashoffset: 0"/>
    <path d="M 1719.006992 206.430469 
L 1733.032852 206.430469 
L 1733.032852 205.182054 
L 1719.006992 205.182054 
z
" clip-path="url(#p788a0db8a6)" style="fill: #9a3670; fill-opacity: 0.7; stroke-dasharray: 7.4,3.2; stroke-dashoffset: 0"/>
   </g>
   <g id="patch_8">
    <path d="M 323.433984 206.430469 
L 323.433984 26.877187 
" style="fill: none; stroke: #ffffff; stroke-width: 1.875; stroke-linejoin: miter; stroke-linecap: square"/>
   </g>
   <g id="patch_9">
    <path d="M 533.821875 206.430469 
L 533.821875 26.877187 
" style="fill: none; stroke: #ffffff; stroke-width: 1.875; stroke-linejoin: miter; stroke-linecap: square"/>
   </g>
   <g id="patch_10">
    <path d="M 323.433984 206.430469 
L 533.821875 206.430469 
" style="fill: none; stroke: #ffffff; stroke-width: 1.875; stroke-linejoin: miter; stroke-linecap: square"/>
   </g>
   <g id="patch_11">
    <path d="M 323.433984 26.877187 
L 533.821875 26.877187 
" style="fill: none; stroke: #ffffff; stroke-width: 1.875; stroke-linejoin: miter; stroke-linecap: square"/>
   </g>
   <g id="text_19">
    <!-- Ciprofloxacin 30 ng/ml -->
    <g transform="translate(327.346992 20.877187) scale(0.18 -0.18)">
     <use xlink:href="#DejaVuSans-43"/>
     <use xlink:href="#DejaVuSans-69" x="69.824219"/>
     <use xlink:href="#DejaVuSans-70" x="97.607422"/>
     <use xlink:href="#DejaVuSans-72" x="161.083984"/>
     <use xlink:href="#DejaVuSans-6f" x="199.947266"/>
     <use xlink:href="#DejaVuSans-66" x="261.128906"/>
     <use xlink:href="#DejaVuSans-6c" x="296.333984"/>
     <use xlink:href="#DejaVuSans-6f" x="324.117188"/>
     <use xlink:href="#DejaVuSans-78" x="382.173828"/>
     <use xlink:href="#DejaVuSans-61" x="441.353516"/>
     <use xlink:href="#DejaVuSans-63" x="502.632812"/>
     <use xlink:href="#DejaVuSans-69" x="557.613281"/>
     <use xlink:href="#DejaVuSans-6e" x="585.396484"/>
     <use xlink:href="#DejaVuSans-20" x="648.775391"/>
     <use xlink:href="#DejaVuSans-33" x="680.5625"/>
     <use xlink:href="#DejaVuSans-30" x="744.185547"/>
     <use xlink:href="#DejaVuSans-20" x="807.808594"/>
     <use xlink:href="#DejaVuSans-6e" x="839.595703"/>
     <use xlink:href="#DejaVuSans-67" x="902.974609"/>
     <use xlink:href="#DejaVuSans-2f" x="966.451172"/>
     <use xlink:href="#DejaVuSans-6d" x="1000.142578"/>
     <use xlink:href="#DejaVuSans-6c" x="1097.554688"/>
    </g>
   </g>
  </g>
 </g>
 <defs>
  <clipPath id="p8339264ecf">
   <rect x="77.858906" y="26.877187" width="210.387891" height="179.553281"/>
  </clipPath>
  <clipPath id="p788a0db8a6">
   <rect x="323.433984" y="26.877187" width="210.387891" height="179.553281"/>
  </clipPath>
 </defs>
</svg>
